<?xml version="1.0" encoding="UTF-8"?>
<svg id="Layer_1" data-name="Layer 1" xmlns="http://www.w3.org/2000/svg" xmlns:xlink="http://www.w3.org/1999/xlink" viewBox="0 0 592 592">
  <defs>
    <style>
      .cls-1 {
        fill: #606060;
      }

      .cls-1, .cls-2, .cls-3, .cls-4, .cls-5 {
        stroke-width: 0px;
      }

      .cls-2 {
        fill: none;
      }

      .cls-6 {
        opacity: .8;
      }

      .cls-7 {
        clip-path: url(#clippath-1);
      }

      .cls-8 {
        opacity: .19;
      }

      .cls-3 {
        fill: #fff;
      }

      .cls-9 {
        clip-path: url(#clippath);
      }

      .cls-4 {
        fill: #0b97b4;
      }

      .cls-5 {
        fill: #ccdd59;
      }
    </style>
    <clipPath id="clippath">
      <rect class="cls-2" x="-10369.34" y="2015.92" width="15792.17" height="6053.94"/>
    </clipPath>
    <clipPath id="clippath-1">
      <rect class="cls-2" x="-12765.95" y="-2823.06" width="25138.56" height="10372.49"/>
    </clipPath>
  </defs>
  <g class="cls-8">
    <g class="cls-9">
      <g class="cls-6">
        <g>
          <path class="cls-1" d="m419.46,336.21c7.65,0,15.28.54,22.84,1.62,29.7,4.27,57.94,16.54,81.67,35.48,23.89,19.06,42.03,43.97,52.47,72.03,10.27,27.6,13.06,57.75,8.07,87.19-5,29.49-17.6,56.99-36.44,79.53-1.49,1.87-3.08,3.64-4.53,5.23l-.22.24c-.06.07-.13.14-.19.21-.06.07-.12.13-.19.2l-.2.23h0c-1.62,1.77-3.26,3.49-4.87,5.1l-223.78,223.77-237.83-237.83,223.78-223.78c3.15-3.16,6.95-6.83,11.21-10.2,30.06-25.13,69.24-39.02,108.21-39.02m111.97,270.86l.02-.02c1.46-1.6,2.98-3.25,4.27-4.89l.14-.18c17.08-20.41,28.51-45.34,33.04-72.1,4.53-26.7,2-54.03-7.3-79.03-9.44-25.37-25.86-47.91-47.51-65.18-21.53-17.18-47.14-28.31-74.05-32.19-41.77-6.01-86.16,6.68-118.74,33.94l-.18.14c-3.65,2.88-7.07,6.19-9.92,9.05l-212.59,212.59,215.45,215.46,212.59-212.59c1.56-1.56,3.16-3.24,4.76-5.01"/>
          <path class="cls-1" d="m139.98,220.52c23.91,0,47.44,5.05,68.96,14.9,26.78,12.26,50.07,31.6,67.36,55.94,17.32,24.39,27.85,52.74,30.47,82.01.27,2.37.39,4.67.49,6.9l.02.34c0,.09.01.18.01.28,0,.09,0,.18.01.27v.31c.12,2.39.18,4.77.18,7.05v316.47s-336.34,0-336.34,0v-316.47c0-4.46.08-9.75.71-15.15,4.18-46.68,28.93-91.2,66.23-119.11,24.03-17.98,52.67-29.27,82.83-32.66,6.37-.71,12.73-1.07,19.07-1.07m151.5,161.09v-.03c-.1-2.17-.2-4.41-.44-6.47l-.02-.23c-2.35-26.51-11.9-52.22-27.62-74.35-15.68-22.08-36.78-39.62-61.04-50.72-24.61-11.27-52.16-15.59-79.68-12.49-27.37,3.07-53.35,13.31-75.12,29.6-33.79,25.28-56.21,65.64-59.96,107.96l-.02.23c-.54,4.62-.62,9.37-.62,13.41v300.65s304.7,0,304.7,0v-300.65c0-2.21-.06-4.53-.17-6.9"/>
          <path class="cls-1" d="m-140.79,336.38c9.54,0,19.11.8,28.61,2.41,29.49,5,56.99,17.6,79.53,36.44,1.88,1.49,3.65,3.09,5.23,4.53l.24.21c.07.06.15.13.22.2.07.06.14.13.21.19l.21.2c1.77,1.62,3.49,3.26,5.11,4.87l223.77,223.78-237.83,237.83-223.77-223.77c-3.16-3.16-6.84-6.96-10.21-11.21-30.06-35.96-44.04-84.94-37.39-131.05,4.27-29.7,16.54-57.94,35.48-81.67,19.06-23.89,43.97-42.03,72.03-52.46,18.7-6.96,38.56-10.48,58.58-10.48m103.16,55.48l-.03-.02c-1.59-1.46-3.25-2.97-4.89-4.26l-.18-.15c-20.41-17.08-45.34-28.5-72.1-33.04-26.7-4.53-54.02-2-79.03,7.3-25.37,9.44-47.91,25.86-65.18,47.51-17.18,21.53-28.31,47.13-32.19,74.05-6.01,41.77,6.68,86.16,33.94,118.74l.14.18c2.88,3.65,6.19,7.06,9.05,9.92l212.59,212.59,215.46-215.46L-32.62,396.62c-1.57-1.56-3.25-3.16-5.01-4.76"/>
        </g>
      </g>
    </g>
  </g>
  <g class="cls-7">
    <path class="cls-3" d="m14384.26,27266.58c-412.06,11.79-802.53,146.16-1202.81,221.48-4105.96,772.61-8224.58,802.62-12355.13,238.47-396.81-54.2-790.46-131.92-1164.22-283.37-89.45-36.25-211.21-70.7-196.21-193.61,13.23-108.49,120.71-152.43,219.96-178.49,551.81-144.94,1117.37-150.39,1680.9-143.18,2400.6,30.73,4799.47,1.53,7191.9-217.12,1554.27-142.05,3100.01-358.04,4581.17-871.71,2853.38-989.57,4958.27-2765.08,5859.72-5745.55,415.43-1373.54,403.14-2776.73,221.22-4189.95-399.58-3104.17-1907.54-5677.57-3834.42-8048.6-2197.95-2704.57-4744.9-5054.72-7448.35-7239.22C5217.22-1582.76,2348.38-3569.71-686.63-5311.94c-1004.62-576.7-2026.36-1122.3-3123.95-1508.25-120.17-42.26-248.71-64.15-364.03-116.19-542.47-244.77-946.79-19.17-1297.93,376.72-501.55,565.47-678.74,1257.25-744.83,1985.87-105.62,1164.27,70.46,2305.82,300.22,3441.12,211.63,1045.75,545.29,2064,718.28,3118.25,248.23,1512.84,346.79,3022.17-207.03,4498-498.52,1328.45-1464.85,2199.37-2785.54,2623.64-3702.2,1189.32-7121.14,538.42-10252.76-1714.91-862.46-620.57-1539.12-1413.61-1943.25-2414.78-8.91-22.08-37.71-36.15-57.23-53.95-94.44-352.46-188.88-704.91-283.32-1057.37,7.9-25.36,25.57-52.06,22.3-75.88-149.77-1091.06,85.99-2116.06,531.47-3104.67,599.8-1331.1,1497.19-2453.25,2481.68-3511.93,1986.72-2136.45,4319.98-3772.41,7036.22-4851.96,421.09-167.36,842.1-334.89,1263.15-502.34,704.92-188.88,1409.83-377.76,2114.74-566.64,72.04-2.96,146.55,5.02,215.75-10.56,792.11-178.42,1594.89-285.3,2403.13-347.71,2625.69-202.74,5117.64,236.27,7473.4,1464.13C6775.85-5576.29,10557.68-3228.85,14139.68-559.31c2567.23,1913.26,5013.99,3962.9,7147.93,6362.75,1340.44,1507.47,2524.44,3123.26,3377.09,4962.61,190.51,410.97,357.81,832.71,535.79,1249.49,146.38,546.31,292.77,1092.62,439.15,1638.93,47.8,386.18,100.92,771.79,142.5,1158.64,222.28,2068.23-130.67,4029.16-1176.9,5833.81-1500.24,2587.79-3748.19,4305.95-6474.26,5444.6-451.89,188.75-911.56,358.86-1367.63,537.59-793.03,212.49-1586.06,424.98-2379.09,637.47ZM-12158.93-1170.86c-55.08,34-81.8,44.2-100.14,62.71-1038.42,1048.24-1803.93,2258.59-2179.1,3696.8-341.48,1309.07,71.8,2461.59,783.89,3531.83,309.41,465.03,779.39,686.13,1349.85,574.99,561.33-109.36,944.89-443.12,1136.44-989.42,85.04-242.54,127.16-492.04,143.15-747.34,46.63-744.66-84.7-1470.38-260.07-2186.44-318.05-1298.64-721.46-2577.55-874.01-3943.14Z"/>
  </g>
  <g>
    <path class="cls-4" d="m542.37,475.06c-2.1,10.26-6.11,19.37-14.53,26.2-8.43,6.84-18.18,9.03-28.69,9.03-48.59,0-97.17,0-145.76,0-86.59,0-173.18-.03-259.77.03-14.37,0-26.83-3.92-35.89-15.81-5.56-7.3-8.02-15.65-8.03-24.68-.05-79.05-.15-158.1.04-237.16.06-23.34,16.33-39.86,40.12-40.25,33.5-.54,67.02-.14,100.54-.12.61,0,1.21.2,2.09.36v15.95h-109.24c-.15.57-.31,1.13-.46,1.7,70.97,59.63,141.95,119.25,213.22,179.13,71.41-59.51,142.65-118.88,215.14-179.29-6.31-.59-11.13-1.04-16.23-1.52v-14.8c21.01-3.57,41.7,8.67,46.55,30.31.2.9.59,1.76.89,2.64v248.27Zm-29.79,18.51c-48.48-48.48-96.16-96.16-144.1-144.1-23.91,20-48.18,40.29-72.48,60.61-24.67-20.63-48.83-40.85-72.05-60.27-48.15,48.15-95.82,95.81-143.81,143.81,3.62.5,7.5,1.51,11.39,1.51,136.28.08,272.56.08,408.84,0,3.92,0,7.84-.98,12.21-1.57ZM68.69,219.46c-1.21,5.75-2.94,10.19-2.95,14.63-.17,78.54-.14,157.08-.06,235.61,0,3.7.98,7.4,1.49,11.05,47.91-47.91,95.3-95.3,142.91-142.91-46.36-38.82-93.13-77.98-141.39-118.39Zm312.71,119.51c48.1,47.35,95.68,94.18,143.75,141.51.41-4.34,1.21-8.87,1.22-13.39.08-76.66.06-153.32.04-229.99,0-2.88-.05-5.8-.5-8.63-.38-2.38-1.38-4.65-2.33-7.71-47.62,39.59-94.43,78.51-142.18,118.21Z"/>
    <path class="cls-5" d="m259.46,297.12c-2.66-14.45-5.49-27.93-7.53-41.53-1.34-8.97-3.09-14.87-13.98-18.34-23.97-7.65-36.28-27.43-36.41-52.53-.08-15.07-.08-30.15,0-45.22.16-33.58,22.91-57.27,56.51-57.52,57.57-.42,115.14-.4,172.71-.01,33.76.23,56.7,24.1,56.77,57.83.03,14.27.02,28.54,0,42.82-.05,34.67-23.53,58.19-58.34,58.27-36.08.08-72.16.07-108.24-.06-3.67-.01-6.23,1.09-8.79,3.68-16.11,16.32-32.37,32.49-48.59,48.7-1.12,1.12-2.28,2.19-4.1,3.92Zm10.38-33.26c12.42-12.41,24.14-24.01,35.7-35.78,2.33-2.37,4.69-3.25,7.99-3.23,32.23.12,64.46.07,96.69.07,6.9,0,13.79.05,20.69-.02,21.54-.21,38.56-15.87,39.42-36.21.73-17.28.92-34.62.37-51.91-.78-24.66-19.57-38.83-39.47-38.87-58.37-.13-116.74-.13-175.11.02-12.89.03-23.68,5.22-31.5,15.71-5.74,7.7-7.99,16.25-7.52,26.06.69,14.4.07,28.86.22,43.29.17,16.92,6.96,30.42,22.54,37.76,6.73,3.17,14.67,3.75,23.02,5.73,2.09,11.2,4.42,23.73,6.97,37.39Z"/>
    <path class="cls-4" d="m256.63,463.16v-15.49h15.15v15.49h-15.15Z"/>
    <path class="cls-4" d="m288.53,447.57h14.97v15.54h-14.97v-15.54Z"/>
    <path class="cls-4" d="m335.37,463.18h-15.15v-15.54h15.15v15.54Z"/>
    <path class="cls-5" d="m425.31,129.84v15.35h-163.82v-15.35h163.82Z"/>
    <path class="cls-5" d="m319.63,192.95h-15.44v-15.24h15.44v15.24Z"/>
    <path class="cls-5" d="m351.55,177.7v15.1h-15.57v-15.1h15.57Z"/>
    <path class="cls-5" d="m383.32,177.73v15.05h-15.54v-15.05h15.54Z"/>
  </g>
</svg>