<?xml version="1.0" encoding="UTF-8"?>
<svg id="Layer_1" data-name="Layer 1" xmlns="http://www.w3.org/2000/svg" xmlns:xlink="http://www.w3.org/1999/xlink" viewBox="0 0 592 592">
  <defs>
    <style>
      .cls-1 {
        fill: #606060;
      }

      .cls-1, .cls-2, .cls-3, .cls-4, .cls-5 {
        stroke-width: 0px;
      }

      .cls-2 {
        fill: none;
      }

      .cls-6 {
        opacity: .8;
      }

      .cls-7 {
        clip-path: url(#clippath-1);
      }

      .cls-8 {
        opacity: .19;
      }

      .cls-3 {
        fill: #fff;
      }

      .cls-9 {
        clip-path: url(#clippath);
      }

      .cls-4 {
        fill: #0b97b4;
      }

      .cls-5 {
        fill: #ccdd59;
      }
    </style>
    <clipPath id="clippath">
      <rect class="cls-2" x="-10369.34" y="1380.92" width="15792.17" height="6053.94"/>
    </clipPath>
    <clipPath id="clippath-1">
      <rect class="cls-2" x="-12765.95" y="-3458.06" width="25138.56" height="10372.49"/>
    </clipPath>
  </defs>
  <g class="cls-8">
    <g class="cls-9">
      <g class="cls-6">
        <g>
          <path class="cls-1" d="m718.5,529.68c23.91,0,47.44,5.05,68.96,14.9,26.78,12.26,50.07,31.6,67.36,55.94,17.32,24.39,27.85,52.74,30.47,82.01.27,2.37.39,4.67.49,6.9l.02.34c0,.09.01.18.01.28,0,.09,0,.18.01.27v.31c.12,2.39.18,4.77.18,7.05v316.47s-336.34,0-336.34,0v-316.47c0-4.46.08-9.75.71-15.15,4.18-46.68,28.93-91.2,66.23-119.11,24.03-17.98,52.67-29.27,82.83-32.66,6.37-.71,12.73-1.07,19.07-1.07m151.5,161.09v-.03c-.1-2.17-.2-4.41-.44-6.47l-.02-.23c-2.35-26.51-11.9-52.22-27.62-74.35-15.68-22.08-36.78-39.62-61.04-50.72-24.61-11.27-52.16-15.59-79.68-12.49-27.37,3.07-53.35,13.31-75.12,29.6-33.79,25.28-56.21,65.64-59.96,107.96l-.02.23c-.54,4.62-.62,9.37-.62,13.41v300.65s304.7,0,304.7,0v-300.65c0-2.21-.06-4.53-.17-6.9"/>
          <g>
            <path class="cls-1" d="m-28.87,228.02h336.34s0,316.47,0,316.47c0,4.46-.09,9.75-.71,15.15-4.18,46.68-28.93,91.2-66.23,119.11-24.02,17.98-52.67,29.27-82.83,32.66-30.37,3.41-60.81-1.37-88.03-13.83-26.78-12.26-50.07-31.6-67.35-55.94-17.32-24.39-27.85-52.74-30.47-82-.27-2.37-.39-4.75-.49-6.89l-.02-.36c0-.09-.01-.18-.01-.27,0-.09,0-.17-.01-.26l-.02-.33h0c-.11-2.4-.17-4.77-.17-7.04V228.02Zm320.52,15.82H-13.05s0,300.65,0,300.65c0,2.23.06,4.49.18,6.9v.03c.1,2.17.2,4.41.44,6.47l.02.23c2.35,26.51,11.9,52.22,27.62,74.35,15.68,22.08,36.78,39.62,61.04,50.72,24.61,11.26,52.16,15.59,79.68,12.49,27.37-3.07,53.35-13.31,75.12-29.6,33.79-25.28,56.2-65.64,59.96-107.96l.02-.23c.55-4.62.62-9.37.62-13.41V243.83Z"/>
            <path class="cls-1" d="m314.09,85.96l223.78,223.78c3.16,3.16,6.84,6.96,10.21,11.21,30.06,35.96,44.04,84.94,37.4,131.06-4.28,29.7-16.55,57.94-35.48,81.67-19.06,23.89-43.97,42.03-72.03,52.47-27.6,10.27-57.75,13.06-87.19,8.07-29.49-5-56.99-17.6-79.53-36.44-1.88-1.49-3.58-3.03-5.23-4.53l-.24-.22c-.07-.06-.14-.13-.21-.19-.07-.06-.13-.12-.2-.18l-.23-.2c-1.77-1.62-3.49-3.26-5.1-4.87l-223.78-223.77,237.83-237.83Zm105.3,494.84c18.14,0,36.13-3.19,53.06-9.49,25.37-9.44,47.91-25.86,65.18-47.51,17.18-21.53,28.31-47.13,32.18-74.05,6.01-41.77-6.67-86.16-33.94-118.74l-.14-.17c-2.88-3.65-6.19-7.06-9.05-9.92l-212.59-212.59-215.45,215.46,212.59,212.59c1.56,1.56,3.25,3.16,5,4.76l.02.02c1.6,1.46,3.26,2.98,4.89,4.26l.18.14c20.41,17.08,45.34,28.51,72.1,33.04,8.62,1.46,17.31,2.19,25.97,2.19"/>
            <path class="cls-1" d="m218.32-19.17h316.47c4.46,0,9.75.09,15.15.71,46.68,4.18,91.2,28.93,119.11,66.23,17.98,24.02,29.27,52.67,32.66,82.83,3.41,30.37-1.37,60.81-13.83,88.03-12.26,26.78-31.6,50.07-55.94,67.35-24.39,17.32-52.74,27.85-82,30.47-2.36.27-4.66.39-6.89.49h0s-.36.02-.36.02c-.09,0-.18,0-.26.01-.08,0-.17,0-.25.01l-.33.02h0c-2.39.11-4.76.16-7.04.16H218.32s0-336.34,0-336.34Zm323.37,320.35h.04c2.27-.11,4.42-.2,6.46-.44l.23-.02c26.51-2.35,52.22-11.9,74.35-27.62,22.08-15.68,39.62-36.79,50.72-61.04,11.26-24.61,15.58-52.16,12.49-79.68-3.07-27.37-13.31-53.35-29.6-75.12-25.28-33.79-65.64-56.21-107.96-59.96l-.23-.02c-4.62-.54-9.37-.62-13.41-.62H234.14s0,304.7,0,304.7h300.65c2.21,0,4.54-.06,6.9-.18"/>
            <path class="cls-1" d="m419.46-298.79c7.65,0,15.28.54,22.84,1.62,29.7,4.27,57.94,16.54,81.67,35.48,23.89,19.06,42.03,43.97,52.47,72.03,10.27,27.6,13.06,57.75,8.07,87.19-5,29.49-17.6,56.99-36.44,79.53-1.49,1.87-3.08,3.64-4.53,5.23l-.22.24c-.06.07-.13.14-.19.21-.06.07-.12.13-.19.2l-.2.23h0c-1.62,1.77-3.26,3.49-4.87,5.1l-223.78,223.77L76.26-25.79l223.78-223.78c3.15-3.16,6.95-6.83,11.21-10.2,30.06-25.13,69.24-39.02,108.21-39.02M531.44-27.93l.02-.02c1.46-1.6,2.98-3.25,4.27-4.89l.14-.18c17.08-20.41,28.51-45.34,33.04-72.1,4.53-26.7,2-54.03-7.3-79.03-9.44-25.37-25.86-47.91-47.51-65.18-21.53-17.18-47.14-28.31-74.05-32.19-41.77-6.01-86.16,6.68-118.74,33.94l-.18.14c-3.65,2.88-7.07,6.19-9.92,9.05L98.63-25.79l215.45,215.46L526.68-22.93c1.56-1.56,3.16-3.24,4.76-5.01"/>
            <path class="cls-1" d="m139.98-414.48c23.91,0,47.44,5.05,68.96,14.9,26.78,12.26,50.07,31.6,67.36,55.94,17.32,24.39,27.85,52.74,30.47,82.01.27,2.37.39,4.67.49,6.9l.02.34c0,.09.01.18.01.28,0,.09,0,.18.01.27v.31c.12,2.39.18,4.77.18,7.05V69.98s-336.34,0-336.34,0V-246.49c0-4.46.08-9.75.71-15.15,4.18-46.68,28.93-91.2,66.23-119.11,24.03-17.98,52.67-29.27,82.83-32.66,6.37-.71,12.73-1.07,19.07-1.07m151.5,161.09v-.03c-.1-2.17-.2-4.41-.44-6.47l-.02-.23c-2.35-26.51-11.9-52.22-27.62-74.35-15.68-22.08-36.78-39.62-61.04-50.72-24.61-11.27-52.16-15.59-79.68-12.49-27.37,3.07-53.35,13.31-75.12,29.6-33.79,25.28-56.21,65.64-59.96,107.96l-.02.23c-.54,4.62-.62,9.37-.62,13.41V54.16s304.7,0,304.7,0V-246.49c0-2.21-.06-4.53-.17-6.9"/>
            <path class="cls-1" d="m-140.79-298.62c9.54,0,19.11.8,28.61,2.41,29.49,5,56.99,17.6,79.53,36.44,1.88,1.49,3.65,3.09,5.23,4.53l.24.21c.07.06.15.13.22.2.07.06.14.13.21.19l.21.2c1.77,1.62,3.49,3.26,5.11,4.87L202.34-25.79-35.49,212.03-259.26-11.74c-3.16-3.16-6.84-6.96-10.21-11.21-30.06-35.96-44.04-84.94-37.39-131.05,4.27-29.7,16.54-57.94,35.48-81.67,19.06-23.89,43.97-42.03,72.03-52.46,18.7-6.96,38.56-10.48,58.58-10.48m103.16,55.48l-.03-.02c-1.59-1.46-3.25-2.97-4.89-4.26l-.18-.15c-20.41-17.08-45.34-28.5-72.1-33.04-26.7-4.53-54.02-2-79.03,7.3-25.37,9.44-47.91,25.86-65.18,47.51-17.18,21.53-28.31,47.13-32.19,74.05-6.01,41.77,6.68,86.16,33.94,118.74l.14.18c2.88,3.65,6.19,7.06,9.05,9.92L-35.49,189.66,179.97-25.79-32.62-238.38c-1.57-1.56-3.25-3.16-5.01-4.76"/>
            <path class="cls-1" d="m-256.19-19.17H60.28s0,336.34,0,336.34h-316.47c-4.47,0-9.76-.08-15.14-.71-46.68-4.18-91.2-28.93-119.11-66.23-17.98-24.02-29.27-52.67-32.66-82.83-3.41-30.37,1.37-60.81,13.83-88.03,12.26-26.78,31.6-50.07,55.94-67.35,24.39-17.32,52.74-27.85,82-30.47,2.37-.27,4.75-.39,6.89-.49h0s.36-.02.36-.02c.09,0,.18,0,.27-.01.09,0,.17,0,.26-.01l.33-.02h0c2.42-.11,4.74-.16,7.04-.16M44.46-3.35h-300.65c-2.23,0-4.49.06-6.9.17h-.03c-2.17.1-4.41.2-6.47.44l-.23.02c-26.51,2.35-52.22,11.9-74.35,27.62-22.08,15.68-39.62,36.78-50.72,61.04-11.26,24.61-15.59,52.16-12.5,79.68,3.07,27.37,13.31,53.35,29.6,75.12,25.28,33.79,65.64,56.2,107.96,59.96l.23.02c4.62.54,9.37.62,13.41.62H44.46s0-304.7,0-304.7Z"/>
            <path class="cls-1" d="m-35.49,85.96l237.83,237.83L-21.44,547.56c-3.16,3.16-6.96,6.84-11.21,10.2-35.96,30.06-84.95,44.04-131.06,37.4-29.7-4.28-57.94-16.54-81.67-35.48-23.89-19.06-42.03-43.97-52.47-72.03-10.27-27.6-13.06-57.75-8.07-87.19,5-29.49,17.6-56.99,36.44-79.53,1.48-1.87,3.08-3.64,4.53-5.22l.23-.25c.06-.07.12-.14.18-.21.06-.06.12-.13.18-.19l.21-.24h0c1.62-1.77,3.26-3.49,4.86-5.1L-35.49,85.96Zm215.46,237.83L-35.49,108.33l-212.59,212.59c-1.56,1.56-3.16,3.25-4.76,5l-.02.02c-1.46,1.6-2.98,3.26-4.27,4.89l-.14.17c-17.08,20.41-28.51,45.34-33.04,72.1-4.52,26.7-2,54.03,7.3,79.03,9.44,25.37,25.86,47.91,47.51,65.18,21.53,17.18,47.14,28.31,74.05,32.18,41.77,6.02,86.16-6.67,118.74-33.94l.18-.14c3.65-2.88,7.06-6.19,9.92-9.05l212.59-212.59Z"/>
          </g>
        </g>
      </g>
    </g>
  </g>
  <g class="cls-7">
    <path class="cls-3" d="m14384.26,26631.58c-412.06,11.79-802.53,146.16-1202.81,221.48-4105.96,772.61-8224.58,802.62-12355.13,238.47-396.81-54.2-790.46-131.92-1164.22-283.37-89.45-36.25-211.21-70.7-196.21-193.61,13.23-108.49,120.71-152.43,219.96-178.49,551.81-144.94,1117.37-150.39,1680.9-143.18,2400.6,30.73,4799.47,1.53,7191.9-217.12,1554.27-142.05,3100.01-358.04,4581.17-871.71,2853.38-989.57,4958.27-2765.08,5859.72-5745.55,415.43-1373.54,403.14-2776.73,221.22-4189.95-399.58-3104.17-1907.54-5677.57-3834.42-8048.6C13188.38,4515.37,10641.43,2165.22,7937.98-19.28,5217.22-2217.76,2348.38-4204.71-686.63-5946.94c-1004.62-576.7-2026.36-1122.3-3123.95-1508.25-120.17-42.26-248.71-64.15-364.03-116.19-542.47-244.77-946.79-19.17-1297.93,376.72-501.55,565.47-678.74,1257.25-744.83,1985.87-105.62,1164.27,70.46,2305.82,300.22,3441.12,211.63,1045.75,545.29,2064,718.28,3118.25,248.23,1512.84,346.79,3022.17-207.03,4498-498.52,1328.45-1464.85,2199.37-2785.54,2623.64-3702.2,1189.32-7121.14,538.42-10252.76-1714.91-862.46-620.57-1539.12-1413.61-1943.25-2414.78-8.91-22.08-37.71-36.15-57.23-53.95-94.44-352.46-188.88-704.91-283.32-1057.37,7.9-25.36,25.57-52.06,22.3-75.88-149.77-1091.06,85.99-2116.06,531.47-3104.67,599.8-1331.1,1497.19-2453.25,2481.68-3511.93,1986.72-2136.45,4319.98-3772.41,7036.22-4851.96,421.09-167.36,842.1-334.89,1263.15-502.34,704.92-188.88,1409.83-377.76,2114.74-566.64,72.04-2.96,146.55,5.02,215.75-10.56,792.11-178.42,1594.89-285.3,2403.13-347.71,2625.69-202.74,5117.64,236.27,7473.4,1464.13,3962.03,2065.08,7743.85,4412.51,11325.86,7082.05,2567.23,1913.26,5013.99,3962.9,7147.93,6362.75,1340.44,1507.47,2524.44,3123.26,3377.09,4962.61,190.51,410.97,357.81,832.71,535.79,1249.49,146.38,546.31,292.77,1092.62,439.15,1638.93,47.8,386.18,100.92,771.79,142.5,1158.64,222.28,2068.23-130.67,4029.16-1176.9,5833.81-1500.24,2587.79-3748.19,4305.95-6474.26,5444.6-451.89,188.75-911.56,358.86-1367.63,537.59-793.03,212.49-1586.06,424.98-2379.09,637.47ZM-12158.93-1805.86c-55.08,34-81.8,44.2-100.14,62.71-1038.42,1048.24-1803.93,2258.59-2179.1,3696.8-341.48,1309.07,71.8,2461.59,783.89,3531.83,309.41,465.03,779.39,686.13,1349.85,574.99,561.33-109.36,944.89-443.12,1136.44-989.42,85.04-242.54,127.16-492.04,143.15-747.34,46.63-744.66-84.7-1470.38-260.07-2186.44-318.05-1298.64-721.46-2577.55-874.01-3943.14Z"/>
  </g>
  <path class="cls-4" d="m542.32,137.08c-.84,3.73-1.57,7.49-2.52,11.18-14.8,57.17-83.16,79.21-128.19,41.23-4.85-4.09-8.88-9.18-13.62-14.15-40.33,22.78-80.86,45.68-121.92,68.88,15.15,34.3,16.24,68.58,0,103.35,40.8,23.05,81.43,46.02,121.58,68.7,6.28-5.93,11.7-12.2,18.2-16.98,23.83-17.51,50.09-21.03,77.27-9.69,26.58,11.09,42.8,31.54,47.34,60.27,7.46,47.23-26.75,86.73-68.09,91.65-.76.09-1.49.52-2.23.8h-16.36c-8.82-2.71-18.13-4.4-26.38-8.31-36.94-17.5-53.73-59.87-39.51-98.12.55-1.48,1.05-2.99,1.72-4.92-40.44-23-80.76-45.94-121.37-69.04-25.1,34.32-58.43,53.21-101.05,53.02-32.9-.15-61.32-12.56-84.18-36.35-47.5-49.43-42.66-125.63,4.52-170.05,48.39-45.56,135.65-44.73,180.8,21.25,40.6-22.93,81.24-45.89,122.24-69.05-5.44-11.46-7.46-23.29-7.05-35.65,1.22-36.4,30.67-69.42,66.67-74.56,44.87-6.41,84.23,22.69,91.26,67.45.15.93.58,1.81.87,2.71v16.36ZM65.56,295.89c-.02,57.25,46.08,103.31,103.32,103.22,57.14-.09,102.89-45.77,103.1-102.95.21-57.21-45.74-103.34-103.07-103.46-57.22-.13-103.33,45.91-103.35,103.19Zm460.77-166.8c.1-34.88-28.08-63.27-63.14-63.61-34.87-.33-63.8,28.34-63.98,63.39-.17,34.7,29.08,63.94,63.75,63.74,34.88-.2,63.26-28.65,63.36-63.52Zm0,333.87c.13-34.96-28.74-63.9-63.6-63.77-34.72.13-63.35,28.76-63.51,63.5-.16,34.69,28.26,63.27,63.25,63.63,34.95.35,63.74-28.21,63.86-63.36Z"/>
  <path class="cls-5" d="m168.6,216.79v15.02c-42.58,8.09-58.51,24.02-63.66,63.77h-15.07c-2.03-39.5,33.74-79.66,78.73-78.79Z"/>
</svg>