<?xml version="1.0" encoding="UTF-8"?>
<svg id="Layer_1" data-name="Layer 1" xmlns="http://www.w3.org/2000/svg" xmlns:xlink="http://www.w3.org/1999/xlink" viewBox="0 0 300 300">
  <defs>
    <style>
      .cls-1 {
        fill: #2f606a;
        opacity: .18;
      }

      .cls-1, .cls-2, .cls-3, .cls-4, .cls-5, .cls-6 {
        stroke-width: 0px;
      }

      .cls-2 {
        fill: #606060;
      }

      .cls-3 {
        fill: none;
      }

      .cls-7 {
        opacity: .8;
      }

      .cls-8 {
        clip-path: url(#clippath-1);
      }

      .cls-9 {
        opacity: .19;
      }

      .cls-4 {
        fill: #fff;
      }

      .cls-10 {
        clip-path: url(#clippath);
      }

      .cls-5 {
        fill: #0b97b4;
      }

      .cls-6 {
        fill: #ccdd59;
      }
    </style>
    <clipPath id="clippath">
      <rect class="cls-3" x="-8480.84" y="1222.42" width="15792.17" height="6053.94"/>
    </clipPath>
    <clipPath id="clippath-1">
      <rect class="cls-3" x="-10877.45" y="-3616.56" width="25138.56" height="10372.49"/>
    </clipPath>
  </defs>
  <g>
    <path class="cls-5" d="m128.45,192.62c5.56.04,11.12.05,16.68.12,5.41.07,8.97,4.73,7.43,9.65-.94,3-3.58,5.12-6.76,5.13-12.61.05-25.22.07-37.84-.05-1.49-.01-3.25-.63-4.43-1.55-18.05-14.09-32.88-30.83-41.89-52.15-7.27-17.2-8.99-34.88-2.83-52.78,6.57-19.09,19.73-32.15,38.15-40.06,7.08-3.04,14.52-4.76,22.17-5.57.39-.04.76-.25,1.14-.37,4.45,0,8.91,0,13.36,0,2.88.49,5.78.89,8.64,1.5,24.41,5.23,42.48,18.48,51.97,42.02,6.25,15.5,5.97,31.37,1.04,47.21-1.24,3.98-5.25,6.03-9.13,4.89-3.78-1.12-5.89-4.92-5.06-8.9.96-4.58,2.26-9.15,2.63-13.79,2.03-25-11.91-46.27-35.63-54.57-10.72-3.75-21.71-4.53-32.89-2.42-.42.08-.82.25-1.23.38-2.15.5-4.36.82-6.45,1.52-16.13,5.38-27.99,15.53-34.15,31.59-5.32,13.88-4.27,27.81,1.04,41.44,7.34,18.82,20.22,33.49,35.49,46.27.35.29.87.55,1.31.55,5.75,0,11.49-.05,17.24-.08Z"/>
    <path class="cls-6" d="m244.95,220.5c-.66,1.23-1.13,2.61-2,3.67-2.3,2.79-5.82,3.43-9.04,1.78-1.37-.7-2.69-1.52-3.98-2.36-.97-.63-1.68-.62-2.59.24-3.47,3.29-7.55,5.57-12.14,6.85-1.22.34-1.51.88-1.5,2.05.01,2.15.08,4.35-.3,6.45-.66,3.68-4.2,6.14-7.91,5.79-3.68-.34-6.52-3.46-6.59-7.26-.03-1.55-.1-3.1.02-4.64.11-1.4-.33-2.09-1.76-2.48-4.67-1.27-8.76-3.67-12.27-6.99-.96-.91-1.65-.98-2.69-.25-1.31.92-2.72,1.71-4.12,2.5-3.49,1.96-7.89.86-9.94-2.45-2.16-3.48-1.24-7.86,2.17-10.12,1.54-1.02,3.21-1.86,4.72-2.94.46-.33.9-1.24.77-1.74-1.37-5.39-1.34-10.74-.02-16.13.12-.5-.32-1.41-.77-1.74-1.45-1.05-3.06-1.86-4.55-2.85-3.48-2.29-4.5-6.67-2.39-10.08,2.15-3.49,6.57-4.58,10.2-2.49,1.5.86,2.92,1.87,4.46,2.64.47.24,1.46.15,1.82-.19,3.75-3.58,8.11-6.03,13.07-7.44,1.03-.29,1.35-.82,1.29-1.85-.08-1.54-.03-3.09-.02-4.64.04-4.56,3.09-7.75,7.43-7.76,4,0,7.19,3.23,7.38,7.55.07,1.67.07,3.34,0,5.01-.04.98.32,1.45,1.25,1.7,4.83,1.26,8.98,3.77,12.63,7.11.85.78,1.4.61,2.23.12,1.8-1.07,3.57-2.31,5.53-2.98,3.86-1.32,7.9,1.04,9.17,5.06.12.39.3.76.45,1.15v2.23c-1.16,3.02-3.32,5.09-6.21,6.46-.44.21-.82.56-1.27.76-1.08.47-1.12,1.17-.84,2.24,1.4,5.36,1.41,10.75-.02,16.11-.32,1.19-.1,1.78.98,2.36,3.29,1.74,6.46,3.65,7.36,7.7v1.86Zm-55.32-19.94c0,9.22,7.39,16.56,16.59,16.63,8.06.06,16.72-6.17,16.66-16.75-.05-9.34-7.28-16.44-16.71-16.58-9.09-.13-16.55,7.53-16.55,16.7Z"/>
    <path class="cls-1" d="m128.45,192.62c-5.75.04-11.49.08-17.24.08-.44,0-.95-.26-1.31-.55-15.27-12.78-28.15-27.45-35.49-46.27-5.31-13.63-6.37-27.56-1.04-41.44,6.16-16.06,18.02-26.21,34.15-31.59,2.09-.7,4.3-1.02,6.45-1.52-1.58,1.22-3.13,2.47-4.74,3.64-12.88,9.41-20.92,21.85-23.47,37.67-.56,3.51-1.08,7.08-1.04,10.62.09,8.46,2.05,16.57,5.55,24.29,4.35,9.57,10.37,17.97,17.4,25.76,6.14,6.81,13.05,12.72,20.12,18.48.26.22.43.55.64.83Z"/>
    <path class="cls-5" d="m118.82,123.84c-2.59,1.38-4.81,2.43-6.89,3.7-4.03,2.46-8.4,1.77-10.76-1.83-2.36-3.61-1.27-7.98,2.64-10.58,14.36-9.55,31.78-9.43,45.36.32,2.8,2.01,3.96,5,3.11,8.08-.84,3.09-3.27,5.36-6.49,5.41-1.68.03-3.46-.67-5.04-1.37-2.33-1.03-4.52-2.35-7.1-3.72,0,1.25,0,1.93,0,2.6,0,12.37.02,24.73-.02,37.1-.01,3.63-2.6,6.67-5.98,7.24-3.6.6-6.99-1.19-8.22-4.52-.42-1.13-.58-2.41-.59-3.62-.04-12.06-.03-24.12-.03-36.17,0-.68,0-1.35,0-2.63Z"/>
    <path class="cls-5" d="m136.41,229.79c.73-2.25,1.35-4.32,2.07-6.35,1.42-4.01,5.45-6.02,9.37-4.74,3.8,1.25,5.9,5.23,4.71,9.22-1.16,3.9-2.42,7.77-3.74,11.62-1.12,3.24-3.74,5.06-7.21,5.07-9.89.03-19.78.03-29.67,0-3.42-.01-6.07-1.91-7.17-5.14-1.3-3.79-2.54-7.6-3.69-11.44-1.22-4.08.91-8.13,4.78-9.35,3.94-1.25,7.85.77,9.3,4.84.62,1.74,1.11,3.53,1.78,5.25.17.43.79.97,1.22.97,6.05.06,12.1.04,18.27.04Z"/>
  </g>
  <g class="cls-9">
    <g class="cls-10">
      <g class="cls-7">
        <g>
          <path class="cls-2" d="m-119.62-72.54L104.16,151.23c3.16,3.16,6.84,6.96,10.21,11.21,30.06,35.96,44.04,84.94,37.4,131.06-4.28,29.7-16.55,57.94-35.48,81.67-19.06,23.89-43.97,42.03-72.03,52.47-27.6,10.27-57.75,13.06-87.19,8.07-29.49-5-56.99-17.6-79.53-36.44-1.88-1.49-3.58-3.03-5.23-4.53l-.24-.22c-.07-.06-.14-.13-.21-.19-.07-.06-.13-.12-.2-.18l-.23-.2c-1.77-1.62-3.49-3.26-5.1-4.87l-223.78-223.77L-119.62-72.54ZM-14.32,422.3c18.14,0,36.13-3.19,53.06-9.49,25.37-9.44,47.91-25.86,65.18-47.51,17.18-21.53,28.31-47.13,32.18-74.05,6.01-41.77-6.67-86.16-33.94-118.74l-.14-.17c-2.88-3.65-6.19-7.06-9.05-9.92L-119.62-50.17l-215.45,215.46,212.59,212.59c1.56,1.56,3.25,3.16,5,4.76l.02.02c1.6,1.46,3.26,2.98,4.89,4.26l.18.14c20.41,17.08,45.34,28.51,72.1,33.04,8.62,1.46,17.31,2.19,25.97,2.19"/>
          <path class="cls-2" d="m-215.39-177.68H101.08c4.46,0,9.75.09,15.15.71,46.68,4.18,91.2,28.93,119.11,66.23,17.98,24.02,29.27,52.67,32.66,82.83,3.41,30.37-1.37,60.81-13.83,88.03-12.26,26.78-31.6,50.07-55.94,67.35-24.39,17.32-52.74,27.85-82,30.47-2.36.27-4.66.39-6.89.49h0s-.36.02-.36.02c-.09,0-.18,0-.26.01-.08,0-.17,0-.25.01l-.33.02h0c-2.39.11-4.76.16-7.04.16H-215.39s0-336.34,0-336.34ZM107.99,142.67h.04c2.27-.11,4.42-.2,6.46-.44l.23-.02c26.51-2.35,52.22-11.9,74.35-27.62,22.08-15.68,39.62-36.79,50.72-61.04,11.26-24.61,15.58-52.16,12.49-79.68-3.07-27.37-13.31-53.35-29.6-75.12-25.28-33.79-65.64-56.21-107.96-59.96l-.23-.02c-4.62-.54-9.37-.62-13.41-.62H-199.57s0,304.7,0,304.7H101.08c2.21,0,4.54-.06,6.9-.18"/>
          <path class="cls-2" d="m-14.24-457.29c7.65,0,15.28.54,22.84,1.62,29.7,4.27,57.94,16.54,81.67,35.48,23.89,19.06,42.03,43.97,52.47,72.03,10.27,27.6,13.06,57.75,8.07,87.19-5,29.49-17.6,56.99-36.44,79.53-1.49,1.87-3.08,3.64-4.53,5.23l-.22.24c-.06.07-.13.14-.19.21-.06.07-.12.13-.19.2l-.2.23h0c-1.62,1.77-3.26,3.49-4.87,5.1L-119.62,53.53l-237.83-237.83,223.78-223.78c3.15-3.16,6.95-6.83,11.21-10.2,30.06-25.13,69.24-39.02,108.21-39.02M97.73-186.43l.02-.02c1.46-1.6,2.98-3.25,4.27-4.89l.14-.18c17.08-20.41,28.51-45.34,33.04-72.1,4.53-26.7,2-54.03-7.3-79.03-9.44-25.37-25.86-47.91-47.51-65.18-21.53-17.18-47.14-28.31-74.05-32.19-41.77-6.01-86.16,6.68-118.74,33.94l-.18.14c-3.65,2.88-7.07,6.19-9.92,9.05l-212.59,212.59L-119.62,31.16,92.98-181.43c1.56-1.56,3.16-3.24,4.76-5.01"/>
        </g>
      </g>
    </g>
  </g>
  <g class="cls-8">
    <path class="cls-4" d="m16272.76,26473.08c-412.06,11.79-802.53,146.16-1202.81,221.48-4105.96,772.61-8224.58,802.62-12355.13,238.47-396.81-54.2-790.46-131.92-1164.22-283.37-89.45-36.25-211.21-70.7-196.21-193.61,13.23-108.49,120.71-152.43,219.96-178.49,551.81-144.94,1117.37-150.39,1680.9-143.18,2400.6,30.73,4799.47,1.53,7191.9-217.12,1554.27-142.05,3100.01-358.04,4581.17-871.71,2853.38-989.57,4958.27-2765.08,5859.72-5745.55,415.43-1373.54,403.14-2776.73,221.22-4189.95-399.58-3104.17-1907.54-5677.57-3834.42-8048.6C15076.88,4356.87,12529.93,2006.72,9826.48-177.78,7105.72-2376.26,4236.88-4363.21,1201.87-6105.44c-1004.62-576.7-2026.36-1122.3-3123.95-1508.25-120.17-42.26-248.71-64.15-364.03-116.19-542.47-244.77-946.79-19.17-1297.93,376.72-501.55,565.47-678.74,1257.25-744.83,1985.87-105.62,1164.27,70.46,2305.82,300.22,3441.12,211.63,1045.75,545.29,2064,718.28,3118.25,248.23,1512.84,346.79,3022.17-207.03,4498-498.52,1328.45-1464.85,2199.37-2785.54,2623.64-3702.2,1189.32-7121.14,538.42-10252.76-1714.91-862.46-620.57-1539.12-1413.61-1943.25-2414.78-8.91-22.08-37.71-36.15-57.23-53.95-94.44-352.46-188.88-704.91-283.32-1057.37,7.9-25.36,25.57-52.06,22.3-75.88-149.77-1091.06,85.99-2116.06,531.47-3104.67,599.8-1331.1,1497.19-2453.25,2481.68-3511.93,1986.72-2136.45,4319.98-3772.41,7036.22-4851.96,421.09-167.36,842.1-334.89,1263.15-502.34,704.92-188.88,1409.83-377.76,2114.74-566.64,72.04-2.96,146.55,5.02,215.75-10.56,792.11-178.42,1594.89-285.3,2403.13-347.71,2625.69-202.74,5117.64,236.27,7473.4,1464.13,3962.03,2065.08,7743.85,4412.51,11325.86,7082.05,2567.23,1913.26,5013.99,3962.9,7147.93,6362.75,1340.44,1507.47,2524.44,3123.26,3377.09,4962.61,190.51,410.97,357.81,832.71,535.79,1249.49,146.38,546.31,292.77,1092.62,439.15,1638.93,47.8,386.18,100.92,771.79,142.5,1158.64,222.28,2068.23-130.67,4029.16-1176.9,5833.81-1500.24,2587.79-3748.19,4305.95-6474.26,5444.6-451.89,188.75-911.56,358.86-1367.63,537.59-793.03,212.49-1586.06,424.98-2379.09,637.47ZM-10270.43-1964.36c-55.08,34-81.8,44.2-100.14,62.71-1038.42,1048.24-1803.93,2258.59-2179.1,3696.8-341.48,1309.07,71.8,2461.59,783.89,3531.83,309.41,465.03,779.39,686.13,1349.85,574.99,561.33-109.36,944.89-443.12,1136.44-989.42,85.04-242.54,127.16-492.04,143.15-747.34,46.63-744.66-84.7-1470.38-260.07-2186.44-318.05-1298.64-721.46-2577.55-874.01-3943.14Z"/>
  </g>
</svg>