<?xml version="1.0" encoding="utf-8"?>
<!-- Generator: Adobe Illustrator 27.8.1, SVG Export Plug-In . SVG Version: 6.00 Build 0)  -->
<svg version="1.1" id="Layer_1" xmlns="http://www.w3.org/2000/svg" xmlns:xlink="http://www.w3.org/1999/xlink" x="0px" y="0px"
	 viewBox="0 0 300 300" style="enable-background:new 0 0 300 300;" xml:space="preserve">
<style type="text/css">
	.st0{opacity:0.18;fill:#2F606A;}
	.st1{fill:#0B97B4;}
	.st2{fill:#CDDD57;}
	.st3{fill:#00B9B5;}
	.st4{fill:#0A96B3;}
	.st5{fill:none;stroke:#0A96B3;stroke-width:0.25;stroke-miterlimit:10;}
	.st6{fill:#0B97B5;}
	.st7{fill:#FFFFFF;}
	.st8{fill:#EBC34E;}
	.st9{fill:#9CA750;}
	.st10{fill:#1E798D;}
	.st11{opacity:0.66;fill:#0B97B4;}
	.st12{fill:#CCDD59;}
	.st13{fill:#2F606A;}
	.st14{fill:#737849;}
	.st15{fill:url(#SVGID_1_);}
	.st16{fill:#EEEDED;}
	.st17{fill:none;stroke:#202020;stroke-miterlimit:10;}
	.st18{fill:#2AB49F;}
	.st19{fill:#9CD7F4;}
	.st20{fill:#F1C353;}
	.st21{fill:#4F4F4F;}
	.st22{fill:#AA4439;}
	.st23{fill:#EF543F;}
	.st24{opacity:0.3;fill:#2F606A;}
	.st25{opacity:0.45;}
	.st26{fill:none;stroke:#2F606A;stroke-width:15;stroke-miterlimit:10;}
	.st27{fill:none;stroke:#0B97B4;stroke-width:15;stroke-linecap:round;stroke-miterlimit:10;}
	.st28{opacity:0.18;fill:#737849;}
</style>
<circle class="st1" cx="150" cy="150" r="30.5"/>
<g>
	<path class="st1" d="M245.5,157.83c-0.36,2.1-0.71,4.19-1.07,6.29c-0.29,1.71-0.51,3.44-0.86,5.13c-0.87,4.21-4.78,6.86-8.83,6.05
		c-4.06-0.82-6.59-4.72-5.75-8.99c2.13-10.85,2.16-21.69-0.07-32.54c-0.88-4.27,1.62-8.08,5.75-9.01c3.92-0.88,7.87,1.62,8.75,5.83
		c0.74,3.57,1.13,7.22,1.7,10.83c0.06,0.38,0.25,0.74,0.39,1.11C245.5,147.64,245.5,152.74,245.5,157.83z"/>
	<path class="st1" d="M142.8,245.5c-2.21-0.37-4.43-0.73-6.64-1.1c-1.77-0.3-3.55-0.55-5.29-0.96c-4.16-1-6.67-4.87-5.79-8.8
		c0.93-4.14,4.73-6.6,8.99-5.76c6.28,1.25,12.61,2.01,19,1.61c4.5-0.28,8.98-0.9,13.44-1.57c4.3-0.65,8.16,1.73,8.98,5.79
		c0.84,4.14-1.84,8.1-6.19,8.87c-3.65,0.65-7.34,1.05-11.01,1.58c-0.33,0.05-0.64,0.23-0.96,0.34
		C152.47,245.5,147.64,245.5,142.8,245.5z"/>
	<path class="st1" d="M157.68,54.5c2.21,0.37,4.42,0.72,6.63,1.1c1.77,0.3,3.55,0.55,5.29,0.96c4.16,0.99,6.68,4.86,5.8,8.8
		c-0.91,4.11-4.76,6.61-9,5.76c-6.34-1.26-12.74-2.01-19.19-1.6c-4.43,0.28-8.86,0.91-13.25,1.57c-4.3,0.65-8.16-1.75-8.97-5.81
		c-0.83-4.16,1.85-8.08,6.21-8.86c3.53-0.63,7.1-1.03,10.64-1.56c0.33-0.05,0.63-0.24,0.95-0.36
		C147.76,54.5,152.72,54.5,157.68,54.5z"/>
	<path class="st1" d="M88.86,116.05c-15.37,0.01-27.91-12.56-27.92-27.96c-0.01-15.4,12.53-27.98,27.89-27.98
		c15.38,0,27.91,12.55,27.91,27.96C116.75,103.49,104.24,116.05,88.86,116.05z M94.52,99.71c4.82-2.33,7.26-6.3,7.29-11.54
		c0.03-5.32-2.42-9.35-7.3-11.73c-5.32-2.74-11.92-1.32-15.75,3.4c-3.92,4.83-3.92,11.65,0.01,16.5
		C82.6,101.06,89.26,102.49,94.52,99.71z"/>
	<path class="st1" d="M117.12,211.61c-0.02,15.39-12.59,27.93-27.97,27.9c-15.34-0.02-27.86-12.64-27.83-28.05
		c0.03-15.39,12.59-27.92,27.98-27.89C104.66,183.6,117.14,196.18,117.12,211.61z M94.87,223.18c4.83-2.32,7.27-6.29,7.31-11.53
		c0.04-5.33-2.4-9.36-7.29-11.73c-5.24-2.78-11.93-1.35-15.74,3.38c-3.93,4.86-3.93,11.65-0.01,16.5
		C82.96,224.51,89.66,225.96,94.87,223.18z"/>
	<path class="st1" d="M184.85,211.82c0.03-15.39,12.59-27.9,27.99-27.88c15.35,0.03,27.85,12.63,27.82,28.06
		c-0.03,15.38-12.61,27.91-28,27.89C197.31,239.87,184.82,227.26,184.85,211.82z M218.41,223.54c4.83-2.32,7.27-6.3,7.3-11.53
		c0.04-5.31-2.4-9.35-7.28-11.73c-5.25-2.78-11.91-1.36-15.75,3.36c-3.92,4.82-3.93,11.65-0.01,16.51
		C206.47,224.89,213.2,226.33,218.41,223.54z"/>
	<path class="st1" d="M212.32,116.05c-15.36-0.02-27.86-12.59-27.85-28.02c0.01-15.4,12.56-27.94,27.95-27.92
		c15.35,0.01,27.88,12.61,27.86,28.02C240.26,103.53,227.71,116.07,212.32,116.05z M218.06,99.71c4.87-2.39,7.32-6.42,7.28-11.73
		c-0.04-5.23-2.48-9.2-7.29-11.54c-5.32-2.75-11.94-1.33-15.75,3.39c-3.92,4.85-3.91,11.69,0.01,16.51
		C206.15,101.07,212.74,102.48,218.06,99.71z"/>
	<path class="st1" d="M54.5,149.74c0.81-6.42,1.47-12.71,2.44-18.95c0.67-4.29,4.64-6.89,8.75-6.1c4.06,0.78,6.65,4.7,5.81,8.96
		c-2.13,10.79-2.17,21.58,0.01,32.37c0.91,4.51-1.6,8.42-5.86,9.26c-4.05,0.8-8.05-1.96-8.72-6.4
		C55.97,162.51,55.29,156.1,54.5,149.74z"/>
	<path class="st0" d="M94.52,99.71c-5.26,2.78-11.92,1.35-15.74-3.38c-3.92-4.85-3.93-11.67-0.01-16.5
		c3.83-4.72,10.43-6.14,15.75-3.4C89.43,82.46,89.43,93.72,94.52,99.71z"/>
	<path class="st0" d="M94.87,223.18c-5.21,2.78-11.91,1.34-15.73-3.39c-3.92-4.85-3.92-11.64,0.01-16.5
		c3.81-4.72,10.5-6.16,15.74-3.38C89.8,205.91,89.8,217.13,94.87,223.18z"/>
	<path class="st0" d="M218.41,223.54c-5.21,2.79-11.93,1.34-15.74-3.38c-3.92-4.86-3.92-11.69,0.01-16.51
		c3.84-4.73,10.5-6.15,15.75-3.36c-0.74,1.19-1.68,2.31-2.18,3.59C213.54,210.79,213.93,217.41,218.41,223.54z"/>
	<path class="st0" d="M218.06,99.71c-5.32,2.77-11.91,1.36-15.76-3.37c-3.92-4.82-3.93-11.66-0.01-16.51
		c3.82-4.72,10.43-6.14,15.75-3.39c-3.84,4.96-4.68,10.59-3.16,16.5C215.51,95.31,216.98,97.46,218.06,99.71z"/>
</g>
<g>
	<path class="st12" d="M150,193.5c-23.99,0-43.5-19.51-43.5-43.5s19.51-43.5,43.5-43.5s43.5,19.51,43.5,43.5S173.99,193.5,150,193.5
		z M150,112.96c-20.42,0-37.04,16.62-37.04,37.04s16.62,37.04,37.04,37.04s37.04-16.62,37.04-37.04S170.42,112.96,150,112.96z"/>
</g>
</svg>
