<?xml version="1.0" encoding="utf-8"?>
<!-- Generator: Adobe Illustrator 27.8.1, SVG Export Plug-In . SVG Version: 6.00 Build 0)  -->
<svg version="1.1" id="Layer_1" xmlns="http://www.w3.org/2000/svg" xmlns:xlink="http://www.w3.org/1999/xlink" x="0px" y="0px"
	 viewBox="0 0 300 300" style="enable-background:new 0 0 300 300;" xml:space="preserve">
<style type="text/css">
	.st0{opacity:0.18;fill:#2F606A;}
	.st1{fill:#0B97B4;}
	.st2{fill:#CDDD57;}
	.st3{fill:#00B9B5;}
	.st4{fill:#0A96B3;}
	.st5{fill:none;stroke:#0A96B3;stroke-width:0.25;stroke-miterlimit:10;}
	.st6{fill:#0B97B5;}
	.st7{fill:#FFFFFF;}
	.st8{fill:#EBC34E;}
	.st9{fill:#9CA750;}
	.st10{fill:#1E798D;}
	.st11{opacity:0.66;fill:#0B97B4;}
	.st12{fill:#CCDD59;}
	.st13{fill:#2F606A;}
	.st14{fill:#737849;}
	.st15{fill:url(#SVGID_1_);}
	.st16{fill:#EEEDED;}
	.st17{fill:none;stroke:#202020;stroke-miterlimit:10;}
	.st18{fill:#2AB49F;}
	.st19{fill:#9CD7F4;}
	.st20{fill:#F1C353;}
	.st21{fill:#4F4F4F;}
	.st22{fill:#AA4439;}
	.st23{fill:#EF543F;}
	.st24{opacity:0.3;fill:#2F606A;}
	.st25{opacity:0.45;}
	.st26{fill:none;stroke:#2F606A;stroke-width:15;stroke-miterlimit:10;}
	.st27{fill:none;stroke:#0B97B4;stroke-width:15;stroke-linecap:round;stroke-miterlimit:10;}
	.st28{opacity:0.18;fill:#737849;}
</style>
<g>
	<path class="st1" d="M61.53,245.5c-0.39-0.27-0.75-0.58-1.16-0.81c-2.65-1.52-4.1-3.77-4.05-6.84c0.32-20,7.78-36.88,22.61-50.29
		c12.98-11.74,28.43-17.42,45.94-17.4c7.58,0.01,15.2-0.49,22.68,1.12c3.87,0.84,7.72,1.87,11.47,3.13c4.17,1.4,6.1,5.66,4.67,9.6
		c-1.39,3.85-5.54,5.86-9.59,4.41c-7.06-2.54-14.31-3.48-21.77-3.38c-7.39,0.1-14.78-0.13-22.02,1.88
		c-22.76,6.28-38.73,26.77-39.02,50.36c-0.05,4.16-2.12,6.61-5.64,8.23C64.27,245.5,62.9,245.5,61.53,245.5z"/>
	<path class="st1" d="M78.7,104.76c0.06-27.76,22.74-50.34,50.52-50.26c27.77,0.08,50.33,22.79,50.22,50.55
		c-0.11,27.7-22.73,50.2-50.43,50.17C101.25,155.19,78.64,132.52,78.7,104.76z M126.5,140.1c2.78-0.08,5.63,0.2,8.33-0.32
		c14-2.67,23.67-10.76,27.96-24.32c4.26-13.44,1.11-25.61-8.78-35.65c-7.48-7.6-16.77-11.04-27.51-10.18
		c-1.11,0.09-2.23,0.09-3.32,0.29c-23.95,4.26-36.82,30.23-25.34,51.56C103.91,132.75,113.58,139.05,126.5,140.1z"/>
	<path class="st0" d="M126.49,69.62c-0.92,0.89-1.78,1.85-2.76,2.66c-8.47,7-13.27,16.14-14.71,26.86
		c-1.65,12.28,1.53,23.44,9.53,33.01c2.08,2.49,4.68,4.54,7.03,6.81c0.34,0.33,0.61,0.75,0.91,1.13
		c-12.91-1.05-22.58-7.34-28.66-18.63c-11.48-21.33,1.39-47.3,25.34-51.56C124.26,69.71,125.39,69.71,126.49,69.62z"/>
	<path class="st12" d="M198.92,245.5c-0.27-0.1-0.54-0.23-0.82-0.3c-5.74-1.31-9.73-6.26-9.73-12.15c-0.01-14.41,0-28.82,0-43.23
		c0-0.33,0-0.66,0-1.01c-0.96-0.08-1.88-0.07-2.77-0.24c-3.26-0.61-5.51-2.49-6.62-5.61c-1.09-3.08-0.6-6,1.62-8.36
		c3.76-3.99,7.65-7.85,11.56-11.69c1.68-1.65,3.8-2.62,6.12-3.1c0.28-0.06,0.55-0.2,0.82-0.3c1.29,0,2.57,0,3.86,0
		c0.57,0.16,1.15,0.33,1.72,0.48c2.23,0.59,4.2,1.68,5.83,3.31c3.58,3.58,7.16,7.15,10.68,10.79c2.63,2.71,3.34,5.94,1.83,9.42
		c-1.5,3.47-4.31,5.16-8.07,5.22c-1.65,0.03-3.3,0.01-4.94,0c-2.03-0.01-3.53-1.44-3.53-3.36c0-1.92,1.49-3.34,3.53-3.36
		c1.62-0.01,3.24-0.01,4.86,0c0.92,0.01,1.64-0.29,2.02-1.18c0.37-0.89,0.01-1.56-0.6-2.18c-3.14-3.14-6.28-6.29-9.42-9.43
		c-0.3-0.33-0.58-0.67-0.9-0.98c-2.81-2.71-6.92-2.73-9.7,0.02c-3.49,3.46-6.93,6.98-10.39,10.48c-0.6,0.61-0.88,1.29-0.51,2.13
		c0.36,0.82,1.01,1.15,1.87,1.15c1.31,0,2.62,0,3.94,0c2.63,0,3.92,1.28,3.92,3.89c0,15.5,0,31,0,46.5c0,0.34-0.01,0.67,0.01,1.01
		c0.21,3.91,4.49,6.56,7.87,4.86c2.04-0.69,3.5-2.82,3.51-5.2c0.02-4.36,0-8.73,0.01-13.09c0.01-1.38,0.65-2.42,1.89-3.02
		c1.24-0.61,2.45-0.45,3.54,0.39c0.82,0.63,1.26,1.5,1.26,2.54c0.01,4.61,0.09,9.23-0.03,13.84c-0.14,5.7-4.53,10.56-10.27,11.6
		c-0.15,0.03-0.28,0.11-0.42,0.17C201.26,245.5,200.09,245.5,198.92,245.5z"/>
	<path class="st12" d="M229.43,245.5c-0.27-0.1-0.54-0.23-0.82-0.3c-5.74-1.31-9.73-6.26-9.73-12.16c-0.01-10.27-0.02-20.54,0-30.82
		c0.01-6.53,4.88-11.86,11.35-12.46c6.23-0.58,11.99,3.77,13.22,10.03c0.17,0.87,0.22,1.78,0.22,2.67
		c0.01,10.1,0.01,20.21,0.01,30.31c0,6.42-4.15,11.38-10.47,12.56c-0.09,0.02-0.17,0.1-0.26,0.16
		C231.77,245.5,230.6,245.5,229.43,245.5z M233.45,196.96c-0.09-0.06-0.18-0.13-0.28-0.17c-3.68-1.33-7.58,1.4-7.59,5.37
		c-0.03,7.36-0.01,14.72-0.01,22.09c0,3-0.04,5.99,0.01,8.99c0.07,4.01,4.42,6.77,7.86,5.04c2.04-0.69,3.51-2.83,3.52-5.21
		c0.02-4.31,0.01-8.62,0.01-12.93c0-5.96,0.01-11.92,0-17.88C236.96,199.8,235.52,197.66,233.45,196.96z"/>
	<path class="st12" d="M157.84,209.05c0.1-0.27,0.23-0.54,0.3-0.83c1.35-5.98,6.64-10.01,12.81-9.74
		c5.81,0.25,10.75,4.82,11.57,10.71c0.09,0.66,0.13,1.34,0.13,2.01c0.01,7.19,0.01,14.39,0,21.58c0,6.42-4.15,11.38-10.47,12.56
		c-0.09,0.02-0.17,0.1-0.26,0.16c-1.17,0-2.35,0-3.52,0c-0.22-0.09-0.43-0.2-0.66-0.26c-5.16-1.27-8.38-4.49-9.65-9.66
		c-0.06-0.23-0.17-0.44-0.26-0.66C157.84,226.3,157.84,217.67,157.84,209.05z M172.43,205.7c-3.41-1.71-7.73,1-7.87,4.95
		c-0.05,1.43-0.01,2.86-0.01,4.28c0,6.05-0.02,12.09,0.01,18.14c0.02,4.13,4.35,6.97,7.87,5.2c1.95-0.66,3.49-2.73,3.5-4.96
		c0.03-7.56,0.03-15.11,0-22.67C175.92,208.43,174.38,206.36,172.43,205.7z"/>
	<path class="st28" d="M202.94,238.27c-3.38,1.69-7.66-0.95-7.87-4.86c-0.02-0.33-0.01-0.67-0.01-1.01c0-15.5,0-31,0-46.5
		c0-2.61-1.29-3.89-3.92-3.89c-1.31,0-2.62,0-3.94,0c-0.86,0-1.51-0.33-1.87-1.15c-0.37-0.84-0.09-1.52,0.51-2.13
		c3.46-3.49,6.9-7.02,10.39-10.48c2.78-2.75,6.89-2.73,9.7-0.02c0.32,0.31,0.6,0.65,0.9,0.98c-1.07-0.05-2.14-0.21-3.19-0.1
		c-0.58,0.06-1.22,0.45-1.67,0.87c-1.51,1.42-2.95,2.9-4.39,4.38c-0.62,0.64-0.89,1.44-0.56,2.31c0.35,0.91,0.97,1.55,2.02,1.64
		c1.66,0.14,2.39,0.93,2.39,2.6c0,13.6,0,27.2,0,40.8c0,3.67,0.02,7.33-0.01,11c-0.02,1.84,0.39,3.53,1.35,5.1
		C202.86,237.94,202.89,238.12,202.94,238.27z"/>
	<path class="st1" d="M206.46,202.5c0-1.48-0.01-2.97,0-4.45c0.02-1.97,1.46-3.44,3.35-3.45c1.89,0,3.34,1.47,3.35,3.45
		c0.02,2.97,0.01,5.93,0,8.9c-0.01,1.97-1.46,3.45-3.35,3.45c-1.89,0-3.33-1.47-3.35-3.45C206.45,205.46,206.46,203.98,206.46,202.5
		z"/>
	<path class="st28" d="M233.45,238.27c-3.45,1.73-7.79-1.03-7.86-5.04c-0.05-2.99-0.01-5.99-0.01-8.99c0-7.36-0.02-14.72,0.01-22.09
		c0.02-3.97,3.91-6.7,7.59-5.37c0.1,0.04,0.19,0.11,0.28,0.17c-0.07,0.18-0.1,0.38-0.2,0.54c-0.96,1.51-1.31,3.17-1.31,4.93
		c0.01,10.2-0.01,20.41,0.02,30.61c0,0.93,0.2,1.88,0.45,2.78C232.66,236.67,233.1,237.46,233.45,238.27z"/>
	<path class="st28" d="M172.43,238.27c-3.52,1.76-7.85-1.08-7.87-5.2c-0.03-6.05-0.01-12.09-0.01-18.14c0-1.43-0.03-2.86,0.01-4.28
		c0.13-3.96,4.45-6.66,7.87-4.95c-0.04,0.13-0.05,0.28-0.13,0.39c-1.11,1.73-1.4,3.64-1.4,5.67c0.03,7.1,0,14.2,0.03,21.3
		c0,0.93,0.2,1.88,0.45,2.78C171.64,236.67,172.08,237.46,172.43,238.27z"/>
</g>
</svg>
