<?xml version="1.0" encoding="UTF-8"?>
<svg id="Layer_1" data-name="Layer 1" xmlns="http://www.w3.org/2000/svg" xmlns:xlink="http://www.w3.org/1999/xlink" viewBox="0 0 592 592">
  <defs>
    <style>
      .cls-1 {
        fill: #606060;
      }

      .cls-1, .cls-2, .cls-3, .cls-4, .cls-5 {
        stroke-width: 0px;
      }

      .cls-2 {
        fill: none;
      }

      .cls-6 {
        opacity: .8;
      }

      .cls-7 {
        clip-path: url(#clippath-1);
      }

      .cls-8 {
        opacity: .19;
      }

      .cls-3 {
        fill: #fff;
      }

      .cls-9 {
        clip-path: url(#clippath);
      }

      .cls-4 {
        fill: #0b97b4;
      }

      .cls-5 {
        fill: #ccdd59;
      }
    </style>
    <clipPath id="clippath">
      <rect class="cls-2" x="-11000.34" y="2015.92" width="15792.17" height="6053.94"/>
    </clipPath>
    <clipPath id="clippath-1">
      <rect class="cls-2" x="-13396.95" y="-2823.06" width="25138.56" height="10372.49"/>
    </clipPath>
  </defs>
  <g class="cls-8">
    <g class="cls-9">
      <g class="cls-6">
        <g>
          <path class="cls-1" d="m670.08,220.52c23.91,0,47.44,5.05,68.96,14.9,26.78,12.26,50.07,31.6,67.36,55.94,17.32,24.39,27.85,52.74,30.47,82.01.27,2.37.39,4.67.49,6.9l.02.34c0,.09.01.18.01.28,0,.09,0,.18.01.27v.31c.12,2.39.18,4.77.18,7.05v316.47s-336.34,0-336.34,0v-316.47c0-4.46.08-9.75.71-15.15,4.18-46.68,28.93-91.2,66.23-119.11,24.03-17.98,52.67-29.27,82.83-32.66,6.37-.71,12.73-1.07,19.07-1.07m151.5,161.09v-.03c-.1-2.17-.2-4.41-.44-6.47l-.02-.23c-2.35-26.51-11.9-52.22-27.62-74.35-15.68-22.08-36.78-39.62-61.04-50.72-24.61-11.27-52.16-15.59-79.68-12.49-27.37,3.07-53.35,13.31-75.12,29.6-33.79,25.28-56.21,65.64-59.96,107.96l-.02.23c-.54,4.62-.62,9.37-.62,13.41v300.65s304.7,0,304.7,0v-300.65c0-2.21-.06-4.53-.17-6.9"/>
          <path class="cls-1" d="m389.32,336.38c9.54,0,19.11.8,28.61,2.41,29.49,5,56.99,17.6,79.53,36.44,1.88,1.49,3.65,3.09,5.23,4.53l.24.21c.07.06.15.13.22.2.07.06.14.13.21.19l.21.2c1.77,1.62,3.49,3.26,5.11,4.87l223.77,223.78-237.83,237.83-223.77-223.77c-3.16-3.16-6.84-6.96-10.21-11.21-30.06-35.96-44.04-84.94-37.39-131.05,4.27-29.7,16.54-57.94,35.48-81.67,19.06-23.89,43.97-42.03,72.03-52.46,18.7-6.96,38.56-10.48,58.58-10.48m103.16,55.48l-.03-.02c-1.59-1.46-3.25-2.97-4.89-4.26l-.18-.15c-20.41-17.08-45.34-28.5-72.1-33.04-26.7-4.53-54.02-2-79.03,7.3-25.37,9.44-47.91,25.86-65.18,47.51-17.18,21.53-28.31,47.13-32.19,74.05-6.01,41.77,6.68,86.16,33.94,118.74l.14.18c2.88,3.65,6.19,7.06,9.05,9.92l212.59,212.59,215.46-215.46-212.59-212.59c-1.57-1.56-3.25-3.16-5.01-4.76"/>
        </g>
      </g>
    </g>
  </g>
  <g class="cls-7">
    <path class="cls-3" d="m13753.26,27266.58c-412.06,11.79-802.53,146.16-1202.81,221.48-4105.96,772.61-8224.58,802.62-12355.13,238.47-396.81-54.2-790.46-131.92-1164.22-283.37-89.45-36.25-211.21-70.7-196.21-193.61,13.23-108.49,120.71-152.43,219.96-178.49,551.81-144.94,1117.37-150.39,1680.9-143.18,2400.6,30.73,4799.47,1.53,7191.9-217.12,1554.27-142.05,3100.01-358.04,4581.17-871.71,2853.38-989.57,4958.27-2765.08,5859.72-5745.55,415.43-1373.54,403.14-2776.73,221.22-4189.95-399.58-3104.17-1907.54-5677.57-3834.42-8048.6-2197.95-2704.57-4744.9-5054.72-7448.35-7239.22C4586.22-1582.76,1717.38-3569.71-1317.63-5311.94c-1004.62-576.7-2026.36-1122.3-3123.95-1508.25-120.17-42.26-248.71-64.15-364.03-116.19-542.47-244.77-946.79-19.17-1297.93,376.72-501.55,565.47-678.74,1257.25-744.83,1985.87-105.62,1164.27,70.46,2305.82,300.22,3441.12,211.63,1045.75,545.29,2064,718.28,3118.25,248.23,1512.84,346.79,3022.17-207.03,4498-498.52,1328.45-1464.85,2199.37-2785.54,2623.64-3702.2,1189.32-7121.14,538.42-10252.76-1714.91-862.46-620.57-1539.12-1413.61-1943.25-2414.78-8.91-22.08-37.71-36.15-57.23-53.95-94.44-352.46-188.88-704.91-283.32-1057.37,7.9-25.36,25.57-52.06,22.3-75.88-149.77-1091.06,85.99-2116.06,531.47-3104.67,599.8-1331.1,1497.19-2453.25,2481.68-3511.93,1986.72-2136.45,4319.98-3772.41,7036.22-4851.96,421.09-167.36,842.1-334.89,1263.15-502.34,704.92-188.88,1409.83-377.76,2114.74-566.64,72.04-2.96,146.55,5.02,215.75-10.56,792.11-178.42,1594.89-285.3,2403.13-347.71,2625.69-202.74,5117.64,236.27,7473.4,1464.13C6144.85-5576.29,9926.68-3228.85,13508.68-559.31c2567.23,1913.26,5013.99,3962.9,7147.93,6362.75,1340.44,1507.47,2524.44,3123.26,3377.09,4962.61,190.51,410.97,357.81,832.71,535.79,1249.49,146.38,546.31,292.77,1092.62,439.15,1638.93,47.8,386.18,100.92,771.79,142.5,1158.64,222.28,2068.23-130.67,4029.16-1176.9,5833.81-1500.24,2587.79-3748.19,4305.95-6474.26,5444.6-451.89,188.75-911.56,358.86-1367.63,537.59-793.03,212.49-1586.06,424.98-2379.09,637.47ZM-12789.93-1170.86c-55.08,34-81.8,44.2-100.14,62.71-1038.42,1048.24-1803.93,2258.59-2179.1,3696.8-341.48,1309.07,71.8,2461.59,783.89,3531.83,309.41,465.03,779.39,686.13,1349.85,574.99,561.33-109.36,944.89-443.12,1136.44-989.42,85.04-242.54,127.16-492.04,143.15-747.34,46.63-744.66-84.7-1470.38-260.07-2186.44-318.05-1298.64-721.46-2577.55-874.01-3943.14Z"/>
  </g>
  <path class="cls-4" d="m542.39,501.12c-2.87,10.31-7.46,19.66-15.18,27.29-18.15,17.93-48.43,18.08-67.75-.84-33.45-32.76-66.3-66.13-99.4-99.26-.22-.22-.35-.53-.84-1.27,3.42-3.73,6.95-7.57,10.16-11.06-6.67-6.68-13.07-13.11-19.87-19.92-.88.53-2.4,1.36-3.83,2.32-27.08,18.06-56.89,28.58-89.26,31.29-40.1,3.36-77.73-5.03-112.49-25.51-35.95-21.19-62.29-51.08-78.8-89.3-13.61-31.52-18.51-64.52-13.73-98.71,6.92-49.5,29.53-90.72,68.27-121.96,49.94-40.27,106.98-53.69,169.3-36.99,62.7,16.81,106.52,56.44,129.16,117.31,22.41,60.26,14.94,118.06-19.95,172.14-2.17,3.36-2.19,5.19.8,7.94,5.52,5.07,10.59,10.64,16.15,16.32,3.65-4.1,6.93-7.78,10.47-11.75,2.06,1.91,3.33,3,4.51,4.19,29.15,29.13,58.17,58.4,87.49,87.36,11.29,11.15,21.8,22.54,24.77,38.88v11.55ZM239.49,67.18c-96.02.31-173.39,77.73-173.81,173.91-.41,95.61,78.08,174.53,173.95,174.2,97.02-.34,174.45-78.84,174.04-174.07-.42-96.31-78.41-174.36-174.19-174.04Zm142.15,360.35c.53.59,1.04,1.2,1.6,1.76,29.12,28.88,58.23,57.77,87.37,86.63,1.47,1.46,3.08,2.81,4.74,4.06,14.21,10.76,35.78,6.67,44.93-8.49,8.33-13.8,6.81-27.17-4.79-38.82-28.93-29.07-57.97-58.03-86.98-87.03-.89-.89-1.88-1.7-2.63-2.37-14.72,14.73-29.3,29.31-44.24,44.26Zm-17.17-41.33c5.74,5.68,11.94,11.82,17.63,17.46,6.83-6.83,14.03-14.03,21.01-21.02-5.89-5.87-12.07-12.03-17.66-17.61-6.93,6.99-14.09,14.22-20.98,21.17Z"/>
  <path class="cls-4" d="m239.75,382.75c-77.73.09-142.65-64.95-142.26-142.54.39-78.25,64.01-142.24,142.09-142,80.2.25,142.29,65.26,142.24,142.31-.05,77.81-64.36,142.13-142.07,142.23Zm127.1-142.4c-.25-69.87-57.49-127.04-127.18-127.04-69.67,0-127.01,57.25-127.25,127.02-.23,69.68,57.69,127.47,127.47,127.18,69.98-.28,127.2-57.6,126.95-127.16Z"/>
  <path class="cls-5" d="m452.1,441.83c3.42,3.47,6.86,6.98,10.59,10.77-3.71,3.18-7.53,6.44-11.13,9.52-2.72-2.74-6.34-6.39-10.11-10.19,3.18-3.02,6.75-6.41,10.64-10.11Z"/>
  <path class="cls-5" d="m429.29,418.81c3.47,3.65,6.86,7.21,10.1,10.62-3.42,3.3-7.12,6.87-10.81,10.45-3.03-3-6.61-6.54-10.19-10.08,3.66-3.69,7.22-7.27,10.91-10.98Z"/>
  <path class="cls-5" d="m474.46,464.51c3.34,3.43,6.68,6.85,9.78,10.03-3.51,3.32-7.16,6.75-10.75,10.14-2.56-2.67-6.02-6.29-9.64-10.08,3.09-2.94,6.72-6.39,10.61-10.09Z"/>
  <path class="cls-5" d="m231.45,169.4c.12-2.46.24-4.98.38-7.94h15.59c.18,2.59.35,5.23.56,8.23,16.19,2.37,30.35,8.89,42,20.4,11.7,11.56,18.38,25.64,20.51,42.32h8.36v15.73c-2.74.12-5.27.24-8,.36-1.1,4.57-1.82,9.16-3.29,13.49-8.94,26.38-27.46,42.23-54.41,48.19-4.36.96-6.24,2.24-5.47,6.65.13.76-.11,1.58-.21,2.78h-15.57c-.14-2.59-.28-5.24-.43-8.06-35.68-6.25-56.03-27.84-62.91-63.02-2.57-.13-5.11-.25-7.98-.39v-15.31h7.88c6.34-35.71,27.41-56.32,62.99-63.44Zm16.43,125.57c27.6-3.31,46.42-30.21,45.65-46.43-1.87-.14-3.77-.29-5.89-.45v-15.31c2.29-.17,4.31-.31,6.32-.46-1.16-22.29-23.23-44.39-46-46.13-.19,2.01-.39,4.03-.61,6.32h-15.46c-.18-2.32-.34-4.36-.49-6.4-25.93,2.28-46.17,27.93-45.61,46.23,1.98.19,3.98.38,5.93.57v15.11c-2.29.25-4.28.47-6.24.69.72,21.87,23.75,44.82,45.93,45.99.16-2.01.31-4.02.48-6.11h15.62c.12,2.21.23,4.09.36,6.38Z"/>
</svg>