<?xml version="1.0" encoding="utf-8"?>
<!-- Generator: Adobe Illustrator 27.8.1, SVG Export Plug-In . SVG Version: 6.00 Build 0)  -->
<svg version="1.1" id="Layer_1" xmlns="http://www.w3.org/2000/svg" xmlns:xlink="http://www.w3.org/1999/xlink" x="0px" y="0px"
	 viewBox="0 0 300 300" style="enable-background:new 0 0 300 300;" xml:space="preserve">
<style type="text/css">
	.st0{opacity:0.18;fill:#2F606A;}
	.st1{fill:#0B97B4;}
	.st2{fill:#CDDD57;}
	.st3{fill:#00B9B5;}
	.st4{fill:#0A96B3;}
	.st5{fill:none;stroke:#0A96B3;stroke-width:0.25;stroke-miterlimit:10;}
	.st6{fill:#0B97B5;}
	.st7{fill:#FFFFFF;}
	.st8{fill:#EBC34E;}
	.st9{fill:#9CA750;}
	.st10{fill:#1E798D;}
	.st11{opacity:0.66;fill:#0B97B4;}
	.st12{fill:#CCDD59;}
	.st13{fill:#2F606A;}
	.st14{fill:#737849;}
	.st15{fill:url(#SVGID_1_);}
	.st16{fill:#EEEDED;}
	.st17{fill:none;stroke:#202020;stroke-miterlimit:10;}
	.st18{fill:#2AB49F;}
	.st19{fill:#9CD7F4;}
	.st20{fill:#F1C353;}
	.st21{fill:#4F4F4F;}
	.st22{fill:#AA4439;}
	.st23{fill:#EF543F;}
	.st24{opacity:0.3;fill:#2F606A;}
	.st25{opacity:0.45;}
	.st26{fill:none;stroke:#2F606A;stroke-width:15;stroke-miterlimit:10;}
	.st27{fill:none;stroke:#0B97B4;stroke-width:15;stroke-linecap:round;stroke-miterlimit:10;}
	.st28{opacity:0.18;fill:#737849;}
</style>
<path class="st0" d="M82.5,66.5c-5.63,10.94-12.99,28.39-16,51c-2.99,22.4-0.53,41.01,2,53c-4.33,1.67-8.67,3.33-13,5V64.07
	C64.5,64.88,73.5,65.69,82.5,66.5z"/>
<g>
	<path class="st12" d="M231.84,245c-6.64-2.09-7.24-7.35-6.64-12.99c-4.76-1.46-9.3-2.75-13.77-4.26c-4.5-1.53-6.89-5.88-5.76-10.05
		c1.35-4.98,6.15-7.34,11.2-5.87c5.27,1.54,10.62,2.84,15.97,4.04c3.19,0.72,6.12-0.04,8.34-2.66c2.4-2.82,1.94-6.53-0.93-8.89
		c-3.15-2.59-6.98-2.07-10.6-2.5c-7.85-0.94-14.53-4.12-19.23-10.6c-8.83-12.18-3-30.04,11.35-35.18c1.04-0.37,2.1-0.7,3.35-1.11
		c0-1.85-0.03-3.72,0.01-5.59c0.08-4.64,3.68-8.28,8.22-8.34c4.69-0.06,8.4,3.49,8.54,8.23c0.05,1.68,0.07,3.36-0.01,5.03
		c-0.05,1.15,0.26,1.64,1.51,1.96c3.1,0.81,6.19,1.74,9.16,2.92c4.8,1.91,6.84,6.57,5.08,11.05c-1.69,4.31-6.29,6.01-11.17,4.6
		c-4.8-1.39-9.7-2.5-14.61-3.42c-4.06-0.76-7.46,1.45-8.53,5.05c-0.76,2.55,0.02,4.87,2.15,6.5c2.9,2.22,6.33,2.29,9.76,2.52
		c9.35,0.63,16.8,4.69,21.44,12.94c6.8,12.06,0.85,27.72-12.34,32.65c-2.06,0.77-2.64,1.73-2.46,3.75c0.34,3.81-0.71,7.07-4.23,9.11
		c-0.77,0.45-1.63,0.74-2.45,1.1C234.08,245,232.96,245,231.84,245z"/>
</g>
<g>
	<path class="st1" d="M186.14,184.29H57.84c-2.16,0-7.68-0.5-12.27-5.08c-3.28-3.28-5.08-7.63-5.08-12.27V72.35
		c0-9.57,7.78-17.35,17.35-17.35h162.04c9.57,0,17.35,7.78,17.35,17.35v47.69c0,4.66-3.77,8.43-8.43,8.43s-8.43-3.77-8.43-8.43
		V72.35c0-0.27-0.22-0.49-0.49-0.49H57.84c-0.27,0-0.49,0.22-0.49,0.49v94.58c0,0.05,0,0.2,0.14,0.34c0.12,0.12,0.39,0.15,0.39,0.15
		l128.25,0c4.66,0,8.43,3.77,8.43,8.43S190.79,184.29,186.14,184.29z"/>
</g>
<g>
	<path class="st1" d="M179.6,102.22H93.03c-4.66,0-8.43-3.77-8.43-8.43c0-4.66,3.77-8.43,8.43-8.43h86.57
		c4.66,0,8.43,3.77,8.43,8.43C188.03,98.44,184.26,102.22,179.6,102.22z"/>
</g>
<g>
	<path class="st1" d="M138.86,132.57H77.03c-4.66,0-8.43-3.77-8.43-8.43c0-4.66,3.77-8.43,8.43-8.43h61.83
		c4.66,0,8.43,3.77,8.43,8.43C147.3,128.8,143.52,132.57,138.86,132.57z"/>
</g>
</svg>
