<?xml version="1.0" encoding="utf-8"?>
<!-- Generator: Adobe Illustrator 27.8.1, SVG Export Plug-In . SVG Version: 6.00 Build 0)  -->
<svg version="1.1" id="Layer_1" xmlns="http://www.w3.org/2000/svg" xmlns:xlink="http://www.w3.org/1999/xlink" x="0px" y="0px"
	 viewBox="0 0 300 300" style="enable-background:new 0 0 300 300;" xml:space="preserve">
<style type="text/css">
	.st0{opacity:0.18;fill:#2F606A;}
	.st1{fill:#0B97B4;}
	.st2{fill:#CDDD57;}
	.st3{fill:#00B9B5;}
	.st4{fill:#0A96B3;}
	.st5{fill:none;stroke:#0A96B3;stroke-width:0.25;stroke-miterlimit:10;}
	.st6{fill:#0B97B5;}
	.st7{fill:#FFFFFF;}
	.st8{fill:#EBC34E;}
	.st9{fill:#9CA750;}
	.st10{fill:#1E798D;}
	.st11{opacity:0.66;fill:#0B97B4;}
	.st12{fill:#CCDD59;}
	.st13{fill:#2F606A;}
	.st14{fill:#737849;}
	.st15{fill:url(#SVGID_1_);}
	.st16{fill:#EEEDED;}
	.st17{fill:none;stroke:#202020;stroke-miterlimit:10;}
	.st18{fill:#2AB49F;}
	.st19{fill:#9CD7F4;}
	.st20{fill:#F1C353;}
	.st21{fill:#4F4F4F;}
	.st22{fill:#AA4439;}
	.st23{fill:#EF543F;}
	.st24{opacity:0.3;fill:#2F606A;}
	.st25{opacity:0.45;}
	.st26{fill:none;stroke:#2F606A;stroke-width:15;stroke-miterlimit:10;}
	.st27{fill:none;stroke:#0B97B4;stroke-width:15;stroke-linecap:round;stroke-miterlimit:10;}
	.st28{opacity:0.18;fill:#737849;}
</style>
<path class="st1" d="M54.83,205.63c0-37.1,0-74.2,0-111.31c0.14-0.37,0.35-0.73,0.42-1.11c3.23-19.12,16.49-33.19,35.14-37.3
	c1.29-0.28,2.56-0.61,3.84-0.92c37.05,0,74.1,0,111.15,0c0.25,0.12,0.49,0.32,0.75,0.35c18.96,2.54,33.84,16.15,37.99,34.78
	c0.34,1.52,0.69,3.04,1.03,4.57c0,36.98,0,73.96,0,110.94c-0.14,0.37-0.36,0.73-0.42,1.11c-3.29,21.98-21.98,38.15-43.93,38.19
	c-33.94,0.07-67.88,0.1-101.82-0.02c-20.75-0.07-38.65-14.71-43.1-34.91C55.57,208.55,55.19,207.1,54.83,205.63z M98.73,230.02
	c0.55,0.03,1.11,0.1,1.66,0.1c33.33,0,66.66,0.03,100-0.01c16.77-0.02,29.88-13.18,29.9-29.95c0.03-33.45,0.02-66.91-0.01-100.36
	c0-1.97-0.15-3.97-0.54-5.89c-2.9-14.29-14.88-24.05-29.53-24.06c-33.21-0.02-66.42-0.01-99.62,0c-0.62,0-1.23,0.06-1.85,0.1
	c-0.55-0.01-1.11-0.07-1.66-0.02c-15.4,1.29-27.32,14.04-27.35,29.44c-0.05,33.74-0.02,67.49-0.01,101.23
	c0,6.03,1.69,11.61,5.19,16.53C80.71,225.28,88.59,229.77,98.73,230.02z"/>
<path class="st0" d="M85.3,205.26c0,0.76-0.13,1.55,0.02,2.28c1.67,8.43,5.71,15.49,12.31,21.05c0.45,0.38,0.74,0.94,1.1,1.42
	c-10.14-0.25-18.02-4.73-23.83-12.89c-3.5-4.92-5.18-10.5-5.19-16.53c-0.02-33.74-0.04-67.49,0.01-101.23
	c0.02-15.4,11.94-28.15,27.35-29.44c0.55-0.05,1.11,0.01,1.66,0.02c-0.41,0.52-0.75,1.12-1.25,1.54
	c-7.06,6.01-11.16,13.66-12.49,22.78c-0.3,2.08-0.09,4.24-0.11,6.36c0,1.49,0,2.98,0,4.47c-0.1,0.53-0.3,1.07-0.3,1.6
	c-0.02,10.44-0.02,20.88,0,31.31c0,0.55,0.15,1.09,0.22,1.63c0,1.45,0,2.9,0,4.34c-0.08,0.61-0.22,1.21-0.22,1.82
	c-0.02,7.47-0.02,14.94,0,22.41c0,0.6,0.2,1.19,0.3,1.79c0,1.49,0,2.98,0,4.47c-0.1,0.53-0.3,1.07-0.3,1.6
	c-0.02,7.34-0.02,14.68,0,22.01c0,0.53,0.19,1.07,0.3,1.6C85.02,201.55,85.16,203.41,85.3,205.26z"/>
<path class="st1" d="M84.89,105.1c0-1.49,0-2.98,0-4.47c1.38-3.5,3.94-5.2,7.73-5.19c38.27,0.01,76.53,0.01,114.8,0.01
	c4,0,6.81,2.05,7.76,5.59c0.86,3.2-0.51,6.64-3.5,8.2c-1.16,0.6-2.58,1-3.88,1c-38.51,0.05-77.03,0.05-115.54,0.03
	C88.61,110.27,86.21,108.43,84.89,105.1z"/>
<path class="st12" d="M166.54,149.98c-13.74,0-27.49,0.01-41.23-0.01c-3.12,0-5.51-1.38-6.88-4.2c-1.34-2.75-0.99-5.43,0.88-7.84
	c1.55-1.99,3.68-2.81,6.19-2.8c9.78,0.01,19.56,0.01,29.35,0.01c17.71,0,35.41,0,53.12,0c3.2,0,5.66,1.31,7.07,4.21
	c1.34,2.74,1,5.43-0.88,7.84c-1.6,2.05-3.8,2.82-6.37,2.81C194.03,149.97,180.29,149.98,166.54,149.98z"/>
<path class="st1" d="M186.7,164.82c7,0,13.99-0.01,20.99,0c4.8,0.01,8.15,3.12,8.1,7.5c-0.04,4.29-3.38,7.33-8.09,7.33
	c-14.05,0.01-28.11,0.01-42.16,0c-4.79,0-8.15-3.13-8.1-7.51c0.04-4.29,3.38-7.32,8.09-7.33
	C172.59,164.82,179.65,164.82,186.7,164.82z"/>
<path class="st1" d="M84.89,174.48c0-1.49,0-2.98,0-4.47c1.41-3.58,4.06-5.21,7.91-5.2c14.17,0.04,28.34,0,42.51,0.03
	c4.06,0.01,7.22,2.83,7.6,6.67c0.38,3.77-2.15,7.2-5.94,8.01c-0.72,0.15-1.47,0.15-2.21,0.15c-13.98,0.01-27.97-0.02-41.95,0.02
	C88.95,179.69,86.3,178.06,84.89,174.48z"/>
<path class="st1" d="M85.3,205.26c-0.14-1.86-0.28-3.72-0.41-5.58c1.42-3.59,4.06-5.21,7.92-5.2c14,0.04,28,0.01,41.99,0.02
	c4.81,0,8.17,3.1,8.13,7.48c-0.03,4.3-3.37,7.35-8.07,7.36c-13.94,0.01-27.87-0.04-41.81,0.03
	C89.63,209.39,87.05,208.19,85.3,205.26z"/>
<path class="st1" d="M178.93,209.35c-4.52,0-9.04,0.01-13.56,0c-4.63-0.02-7.97-3.18-7.93-7.49c0.03-4.23,3.35-7.34,7.88-7.35
	c9.1-0.02,18.2-0.01,27.3,0c4.64,0.01,7.97,3.17,7.94,7.48c-0.03,4.23-3.35,7.33-7.88,7.35
	C188.09,209.36,183.51,209.35,178.93,209.35z"/>
<path class="st12" d="M84.81,143.99c0-1.45,0-2.9,0-4.34c1.63-4.94,5.76-7.74,10.38-7.02c4.64,0.72,8.01,4.64,7.97,9.28
	c-0.04,4.55-3.4,8.39-7.97,9.1C90.58,151.73,86.44,148.93,84.81,143.99z"/>
</svg>
