<?xml version="1.0" encoding="utf-8"?>
<!-- Generator: Adobe Illustrator 27.8.1, SVG Export Plug-In . SVG Version: 6.00 Build 0)  -->
<svg version="1.1" id="Layer_1" xmlns="http://www.w3.org/2000/svg" xmlns:xlink="http://www.w3.org/1999/xlink" x="0px" y="0px"
	 viewBox="0 0 300 300" style="enable-background:new 0 0 300 300;" xml:space="preserve">
<style type="text/css">
	.st0{opacity:0.18;fill:#2F606A;}
	.st1{fill:#0B97B4;}
	.st2{fill:#CDDD57;}
	.st3{fill:#00B9B5;}
	.st4{fill:#0A96B3;}
	.st5{fill:none;stroke:#0A96B3;stroke-width:0.25;stroke-miterlimit:10;}
	.st6{fill:#0B97B5;}
	.st7{fill:#FFFFFF;}
	.st8{fill:#EBC34E;}
	.st9{fill:#9CA750;}
	.st10{fill:#1E798D;}
	.st11{opacity:0.66;fill:#0B97B4;}
	.st12{fill:#CCDD59;}
	.st13{fill:#2F606A;}
	.st14{fill:#737849;}
	.st15{fill:url(#SVGID_1_);}
	.st16{fill:#EEEDED;}
	.st17{fill:none;stroke:#202020;stroke-miterlimit:10;}
	.st18{fill:#2AB49F;}
	.st19{fill:#9CD7F4;}
	.st20{fill:#F1C353;}
	.st21{fill:#4F4F4F;}
	.st22{fill:#AA4439;}
	.st23{fill:#EF543F;}
	.st24{opacity:0.3;fill:#2F606A;}
	.st25{opacity:0.45;}
	.st26{fill:none;stroke:#2F606A;stroke-width:15;stroke-miterlimit:10;}
	.st27{fill:none;stroke:#0B97B4;stroke-width:15;stroke-linecap:round;stroke-miterlimit:10;}
	.st28{opacity:0.18;fill:#737849;}
</style>
<g>
	<path class="st12" d="M242.44,217.62c-0.75,1.4-1.29,2.97-2.28,4.17c-2.62,3.18-6.62,3.91-10.28,2.02
		c-1.56-0.8-3.06-1.73-4.53-2.69c-1.1-0.72-1.91-0.71-2.94,0.27c-3.94,3.74-8.59,6.34-13.82,7.8c-1.38,0.39-1.72,1-1.71,2.33
		c0.02,2.45,0.09,4.95-0.34,7.34c-0.75,4.19-4.78,6.98-8.99,6.59c-4.18-0.39-7.42-3.94-7.49-8.26c-0.03-1.76-0.11-3.53,0.02-5.27
		c0.12-1.6-0.38-2.38-2-2.82c-5.32-1.45-9.97-4.18-13.96-7.95c-1.09-1.03-1.87-1.12-3.06-0.28c-1.49,1.04-3.09,1.95-4.69,2.84
		c-3.97,2.23-8.97,0.98-11.31-2.79c-2.45-3.96-1.41-8.94,2.47-11.52c1.76-1.16,3.66-2.12,5.37-3.34c0.52-0.37,1.02-1.41,0.87-1.98
		c-1.56-6.13-1.53-12.22-0.02-18.35c0.14-0.57-0.36-1.6-0.88-1.98c-1.65-1.19-3.48-2.12-5.18-3.24c-3.96-2.61-5.12-7.59-2.72-11.47
		c2.45-3.97,7.47-5.21,11.61-2.83c1.7,0.98,3.32,2.13,5.08,3c0.54,0.27,1.66,0.17,2.07-0.22c4.26-4.07,9.23-6.87,14.88-8.46
		c1.17-0.33,1.53-0.93,1.47-2.11c-0.1-1.75-0.03-3.52-0.02-5.28c0.04-5.19,3.52-8.82,8.46-8.82c4.55,0,8.18,3.67,8.39,8.59
		c0.08,1.9,0.08,3.8,0,5.7c-0.05,1.11,0.36,1.65,1.42,1.93c5.49,1.44,10.22,4.29,14.37,8.09c0.97,0.89,1.59,0.69,2.54,0.14
		c2.05-1.21,4.06-2.63,6.29-3.39c4.4-1.51,8.99,1.19,10.43,5.75c0.14,0.44,0.34,0.87,0.51,1.3c0,0.84,0,1.69,0,2.53
		c-1.32,3.44-3.77,5.79-7.06,7.35c-0.5,0.24-0.93,0.64-1.44,0.86c-1.23,0.54-1.28,1.33-0.96,2.55c1.6,6.1,1.61,12.23-0.02,18.32
		c-0.36,1.35-0.11,2.03,1.11,2.68c3.74,1.99,7.36,4.15,8.37,8.76C242.44,216.22,242.44,216.92,242.44,217.62z M179.51,194.93
		c0.01,10.49,8.41,18.84,18.88,18.92c9.17,0.07,19.02-7.02,18.96-19.06c-0.06-10.63-8.29-18.71-19.01-18.86
		C187.99,175.79,179.5,184.5,179.51,194.93z"/>
	<path class="st12" d="M57.56,231.7c0.49-2.59,0.87-5.21,1.48-7.77c6.2-26.36,22.32-43.41,48.24-51.19
		c6.04-1.81,12.26-2.52,18.55-2.58c4.84-0.05,8.21,3.03,8.21,7.45c0,4.35-3.29,7.39-8.03,7.47c-13.16,0.23-25.05,4.05-35.18,12.64
		c-9.73,8.24-15.47,18.78-17.58,31.31c-0.41,2.44-0.76,4.94-0.7,7.39c0.12,4.55-1.66,7.63-6.04,9.09c-0.99,0-1.99,0-2.98,0
		c-3.02-0.96-5.01-2.95-5.97-5.97C57.56,236.92,57.56,234.31,57.56,231.7z"/>
	<path class="st1" d="M130.27,155.22c-27.76-0.03-50.37-22.69-50.32-50.45c0.05-27.76,22.73-50.34,50.5-50.27
		c27.7,0.07,50.23,22.66,50.23,50.36C180.68,132.62,158.03,155.25,130.27,155.22z M127.74,69.62c-1.11,0.09-2.23,0.09-3.32,0.29
		c-23.95,4.26-36.82,30.23-25.34,51.56c6.08,11.29,15.75,17.58,28.66,18.63c2.78-0.08,5.63,0.2,8.33-0.32
		c13.99-2.67,23.66-10.76,27.96-24.32c4.26-13.44,1.11-25.61-8.78-35.65C147.78,72.2,138.48,68.76,127.74,69.62z"/>
	<path class="st0" d="M127.74,69.62c-0.92,0.89-1.77,1.85-2.76,2.66c-8.47,7-13.27,16.14-14.71,26.86
		c-1.65,12.28,1.53,23.44,9.53,33.01c2.08,2.49,4.68,4.54,7.03,6.81c0.34,0.33,0.61,0.75,0.91,1.13
		c-12.91-1.05-22.58-7.34-28.66-18.63c-11.48-21.33,1.39-47.3,25.34-51.56C125.51,69.71,126.63,69.71,127.74,69.62z"/>
</g>
</svg>
