<?xml version="1.0" encoding="UTF-8"?>
<svg id="Layer_1" data-name="Layer 1" xmlns="http://www.w3.org/2000/svg" viewBox="0 0 512 123">
  <defs>
    <style>
      .cls-1 {
        fill: #2bb574;
      }

      .cls-1, .cls-2, .cls-3, .cls-4 {
        stroke-width: 0px;
      }

      .cls-2 {
        fill: #f7941d;
      }

      .cls-3 {
        fill: #158285;
      }

      .cls-4 {
        fill: #fcb614;
      }
    </style>
  </defs>
  <g>
    <g>
      <path class="cls-3" d="m133.43,66.87c.63,0,1.19-.37,1.19-1.08,0-.63-.52-1.08-1.19-1.08s-1.19.45-1.19,1.08c0,.71.59,1.08,1.19,1.08Z"/>
      <path class="cls-3" d="m136.58,66.87c.63,0,1.19-.37,1.19-1.08,0-.63-.52-1.08-1.19-1.08s-1.19.45-1.19,1.08c0,.71.59,1.08,1.19,1.08Z"/>
      <path class="cls-3" d="m139.37,78.64c-.67,0-1.19.45-1.19,1.08,0,.71.56,1.08,1.19,1.08s1.19-.37,1.19-1.08c0-.63-.52-1.08-1.19-1.08Z"/>
      <path class="cls-3" d="m142.56,78.64c-.67,0-1.19.45-1.19,1.08,0,.71.56,1.08,1.19,1.08s1.19-.37,1.19-1.08c0-.63-.52-1.08-1.19-1.08Z"/>
      <path class="cls-3" d="m149.95,72.73c0-1.52.97-2.41,2.3-2.41.74,0,1.45.22,2.3.63l.63-1.75c-1.11-.48-2.19-.74-3.08-.74-2.34,0-3.97,1.41-3.97,3.97,0,.74.19,1.67.59,2.82h-4.01v-6.68h-1.89v6.68h-5.12v-6.68h-3.08c-2.93,0-4.86,1.78-4.86,4.31h0c0,2.53,1.86,4.27,4.6,4.27h21.17v-1.89h-4.72c-.56-.85-.85-1.75-.85-2.53Zm-14.15,2.49h-1.6c-1.52,0-2.67-.97-2.67-2.38h0c0-1.45,1.11-2.41,2.67-2.41h1.6v4.79Z"/>
      <path class="cls-3" d="m172.41,67.24c.63,0,1.19-.37,1.19-1.08,0-.63-.52-1.08-1.19-1.08s-1.19.45-1.19,1.08c0,.71.56,1.08,1.19,1.08Z"/>
      <path class="cls-3" d="m175.57,67.24c.63,0,1.19-.37,1.19-1.08,0-.63-.52-1.08-1.19-1.08s-1.19.45-1.19,1.08c0,.71.56,1.08,1.19,1.08Z"/>
      <path class="cls-3" d="m184.15,68.35c-1.08,0-2.08.33-3.12.89l.67,1.75c.89-.52,1.49-.71,2.34-.71,2.3,0,2.75,2.67,4.01,4.98h-9.65v-6.68h-1.86v6.68h-5.12v-2.3c0-2.75-1.67-4.57-4.2-4.57h0c-2.53,0-4.2,1.82-4.2,4.57v-.04c0,1.63-.78,2.38-2.3,2.38h-1.3v-10.14h-1.89v12.07h3.19c1.37,0,2.56-.33,3.12-1.37.74,1.04,1.93,1.37,3.38,1.37h23.32v-1.89c-1.78-.89-1.82-6.98-6.39-6.98Zm-14.63,6.87h-2.3c-1.37,0-2.3-.78-2.3-2.34h0c0-1.56.93-2.6,2.3-2.6h0c1.37,0,2.3,1.04,2.3,2.6v2.34Z"/>
      <path class="cls-3" d="m185.34,78.64c-.67,0-1.23.45-1.23,1.08,0,.74.59,1.11,1.23,1.11s1.19-.37,1.19-1.11c0-.67-.52-1.08-1.19-1.08Z"/>
      <polygon class="cls-3" points="199.6 75.22 192.87 75.22 192.87 77.15 201.49 77.15 201.49 65.08 199.6 65.08 199.6 75.22"/>
      <rect class="cls-3" x="194.88" y="66.27" width="1.89" height="7.95"/>
      <rect class="cls-3" x="203.94" y="65.08" width="1.89" height="12.07"/>
    </g>
    <g>
      <path class="cls-3" d="m212.55,65.79c0,.71.56,1.08,1.19,1.08s1.19-.37,1.19-1.08c0-.63-.52-1.08-1.19-1.08-.67-.04-1.19.41-1.19,1.08Z"/>
      <path class="cls-3" d="m215.71,65.79c0,.71.56,1.08,1.19,1.08s1.19-.37,1.19-1.08c0-.63-.52-1.08-1.19-1.08-.67-.04-1.19.41-1.19,1.08Z"/>
      <path class="cls-3" d="m219.68,78.64c-.67,0-1.19.45-1.19,1.08,0,.71.56,1.08,1.19,1.08s1.19-.37,1.19-1.08c0-.63-.52-1.08-1.19-1.08Z"/>
      <path class="cls-3" d="m222.84,78.64c-.67,0-1.19.45-1.19,1.08,0,.71.56,1.08,1.19,1.08s1.19-.37,1.19-1.08c0-.63-.52-1.08-1.19-1.08Z"/>
      <path class="cls-3" d="m239.74,67.27c.63,0,1.19-.37,1.19-1.11,0-.67-.52-1.08-1.19-1.08s-1.23.45-1.23,1.08c.04.74.59,1.11,1.23,1.11Z"/>
      <path class="cls-3" d="m246.09,65.08c-.67,0-1.19.45-1.19,1.08,0,.71.56,1.08,1.19,1.08s1.19-.37,1.19-1.08c0-.63-.52-1.08-1.19-1.08Z"/>
      <path class="cls-3" d="m248.24,66.16c0,.71.56,1.08,1.19,1.08s1.19-.37,1.19-1.08c0-.63-.52-1.08-1.19-1.08s-1.19.45-1.19,1.08Z"/>
      <path class="cls-3" d="m256.52,75.22h-3.97v-6.68h-1.89v6.68h-5.72v-6.68h-1.89v6.68h-5.42v-2.3c0-2.75-1.67-4.57-4.2-4.57h0c-2.53,0-4.2,1.82-4.2,4.57v-.04c0,1.63-.78,2.38-2.3,2.38h-1.93v-6.68h-1.89v6.68h-5.12v-6.68h-3.08c-2.93,0-4.86,1.78-4.86,4.31h0c0,2.53,1.86,4.27,4.6,4.27h12.25c1.37,0,2.56-.33,3.12-1.37.74,1.04,1.93,1.37,3.38,1.37h24.95v-12.07h-1.89v10.14h.07Zm-40.4,0h-1.6c-1.52,0-2.67-.97-2.67-2.38h0c0-1.45,1.11-2.41,2.67-2.41h1.6v4.79Zm19.61,0h-2.3c-1.37,0-2.3-.78-2.3-2.34h0c0-1.56.93-2.6,2.3-2.6h0c1.37,0,2.3,1.04,2.3,2.6v2.34Z"/>
      <rect class="cls-3" x="260.83" y="65.08" width="1.89" height="12.07"/>
      <path class="cls-3" d="m269.18,68.54c-2.93,0-4.86,1.78-4.86,4.31h0c0,2.53,1.86,4.27,4.6,4.27h1.45c-.04,1.04-.78,1.37-1.82,1.37-.82,0-1.63-.15-2.49-.41l.37,2.01c.74.22,1.41.3,2.19.3,2.41,0,3.64-.89,3.64-3.75v-8.09h-3.08Zm1.23,4.27h0v2.41h-1.6c-1.52,0-2.67-.97-2.67-2.38h0c0-1.45,1.11-2.41,2.67-2.41h1.6v2.38Z"/>
    </g>
    <g>
      <path class="cls-3" d="m228.86,53.54c0-2.71-1.26-4.12-4.05-4.12h-1.34v1.89h1.6c1.3,0,1.97.67,1.97,2.04v2.75h-5.24v1.89h7.02v-4.46h.04Z"/>
      <path class="cls-3" d="m233.65,57.66v-8.24h-1.89v8.54c0,1.19-.56,1.6-1.34,1.6-.37,0-.71-.04-1.19-.07l-.19,1.63c.37.07.78.15,1.19.15,2.01.04,3.42-.78,3.42-3.6Z"/>
      <rect class="cls-3" x="235.84" y="45.96" width="1.89" height="12.07"/>
      <path class="cls-3" d="m243.97,57.99h1.45c-.04,1.04-.78,1.37-1.82,1.37-.82,0-1.63-.15-2.49-.41l.37,2.01c.74.22,1.04.3,1.82.3,2.27,0,3.86-.78,4.01-3.27h4.05c1.3-.04,2.41-.37,2.93-1.37.74,1.04,1.93,1.37,3.38,1.37h10.03v-12.07h-1.89v10.14h-3.94v-2.3c0-2.75-1.67-4.57-4.2-4.57h0c-2.53,0-4.2,1.82-4.2,4.57v-.04c0,1.63-.78,2.38-2.3,2.38h-3.86v-6.68h-3.08c-2.93,0-4.86,1.78-4.86,4.31h0c-.04,2.53,1.82,4.27,4.6,4.27Zm11.36-4.23c0-1.56.93-2.6,2.3-2.6h0c1.37,0,2.3,1.04,2.3,2.6v2.34h-2.3c-1.37,0-2.3-.78-2.3-2.34h0Zm-14.18-.04c0-1.45,1.11-2.41,2.67-2.41h1.6v2.38h0v2.41h-1.6c-1.56,0-2.67-.93-2.67-2.38h0Z"/>
      <rect class="cls-3" x="270.15" y="45.96" width="1.89" height="12.07"/>
    </g>
    <g>
      <path class="cls-3" d="m168.59,47.74c.63,0,1.19-.37,1.19-1.08,0-.63-.52-1.08-1.19-1.08s-1.19.45-1.19,1.08c0,.71.56,1.08,1.19,1.08Z"/>
      <path class="cls-3" d="m165.43,47.74c.63,0,1.19-.37,1.19-1.08,0-.63-.52-1.08-1.19-1.08s-1.19.45-1.19,1.08c0,.71.56,1.08,1.19,1.08Z"/>
      <path class="cls-3" d="m166.36,57.99h10.32v-8.58h-1.89v6.68h-5.12v-6.68h-3.08c-2.93,0-4.86,1.78-4.86,4.31h0c.04,2.53,1.89,4.27,4.64,4.27Zm-2.82-4.27c0-1.45,1.11-2.41,2.67-2.41h1.6v4.79h-1.6c-1.52,0-2.67-.93-2.67-2.38h0Z"/>
      <path class="cls-3" d="m193.54,46.74c.59,0,1.11-.33,1.11-1,0-.59-.48-1-1.11-1s-1.11.41-1.11,1c0,.67.56,1,1.11,1Z"/>
      <path class="cls-3" d="m192.02,49.12c.59,0,1.15-.37,1.15-1.04,0-.63-.52-1.04-1.15-1.04s-1.15.41-1.15,1.04c0,.71.56,1.04,1.15,1.04Z"/>
      <path class="cls-3" d="m193.95,48.08c0,.71.52,1.04,1.15,1.04.59,0,1.15-.37,1.15-1.04,0-.63-.48-1.04-1.15-1.04s-1.15.41-1.15,1.04Z"/>
      <path class="cls-3" d="m213.07,45.96h-1.89v10.14h-3.71v-6.68h-1.89v6.68h-5.12v-6.68h-1.89v6.68h-3.97v-5.5h-1.89v5.5h-3.45v-5.5h-1.89v5.5h-4.86v-6.87h-1.89v8.73c0,1.19-.56,1.6-1.34,1.6-.37,0-.71-.04-1.19-.07l-.19,1.63c.37.07.78.15,1.19.15,1.93,0,3.34-.74,3.42-3.27h30.56v-12.03h.04Z"/>
      <rect class="cls-3" x="215.53" y="45.96" width="1.89" height="12.07"/>
      <path class="cls-3" d="m172.45,60.59c0-.63-.52-1.08-1.19-1.08s-1.19.45-1.19,1.08c0,.71.56,1.08,1.19,1.08s1.19-.37,1.19-1.08Z"/>
      <path class="cls-3" d="m175.61,60.59c0-.63-.52-1.08-1.19-1.08s-1.19.45-1.19,1.08c0,.71.56,1.08,1.19,1.08s1.19-.37,1.19-1.08Z"/>
      <path class="cls-3" d="m203.01,59.51c-.67,0-1.19.45-1.19,1.08,0,.71.56,1.08,1.19,1.08s1.19-.37,1.19-1.08c0-.63-.48-1.08-1.19-1.08Z"/>
    </g>
  </g>
  <g>
    <path class="cls-3" d="m322.5,42.8c.41.07.78.15,1.19.19,1.86-3.38,3.94-6.54,6.31-9.47-5.76-4.49-12.33-8.09-20.01-10.77l12.51,20.05Zm32.27,25.4l-20.61-6.68,24.21,38.73c1.45-11.66.07-22.13-3.6-32.05Z"/>
    <path class="cls-2" d="m321.02,53.28c8.91-14.26,20.53-24.69,37.36-30.49l-24.17,38.73-24.21,38.73c-2.15-17.68,2.12-32.68,11.03-46.97Z"/>
    <path class="cls-1" d="m286.11,45.89l25.73,8.35c2.71-1.49,5.5-2.86,8.39-4.08.37-.93.78-1.82,1.19-2.71.71-1.52,1.45-3.01,2.23-4.46-12.4-1.97-24.73-1.3-37.54,2.9Zm70.4,8.39l-22.32,7.24,48.05,15.63c-7.17-9.95-15.78-17.34-25.73-22.87Z"/>
    <path class="cls-4" d="m286.11,77.15l27.48-8.91c1-2.67,2.15-5.27,3.45-7.87.78-3.42,1.86-6.83,3.23-10.17-13.63,5.79-25.03,14.3-34.16,26.96Zm59.78-34.35l-11.7,18.71,48.05-15.63c-12.37-4.05-24.36-4.83-36.35-3.08Z"/>
  </g>
</svg>