<?xml version="1.0" encoding="UTF-8"?>
<svg id="Layer_1" data-name="Layer 1" xmlns="http://www.w3.org/2000/svg" viewBox="0 0 512 123">
  <defs>
    <style>
      .cls-1 {
        fill: #896b25;
      }

      .cls-1, .cls-2, .cls-3 {
        stroke-width: 0px;
      }

      .cls-2 {
        fill: #b78b1e;
      }

      .cls-3 {
        fill: #ffb71b;
      }
    </style>
  </defs>
  <path class="cls-2" d="m182.56,88.81c-.45-.13-.87-.35-1.23-.65-.32-.27-.56-.62-.7-1.01-.15-.42-.22-.87-.22-1.32,0-.26.02-.51.06-.77.04-.28.09-.54.15-.77l1.05-.22c-.08.26-.14.52-.19.79-.04.28-.06.56-.06.84,0,.34.04.68.14,1,.09.3.27.57.5.79.28.24.62.42.98.52.52.13,1.05.2,1.59.18h1.76v-4.07h.97v4.94h-2.93c-.63,0-1.26-.07-1.87-.24Zm.93-5.13c-.18,0-.35-.07-.46-.2-.24-.27-.24-.68,0-.96.12-.13.29-.21.46-.2.18,0,.34.07.46.2.24.27.24.68,0,.96-.12.13-.28.2-.46.2h0Zm1.64,0c-.18,0-.35-.07-.47-.2-.12-.13-.19-.3-.19-.48,0-.18.06-.35.19-.48.12-.13.29-.2.47-.19.17,0,.34.06.46.19.12.13.19.31.19.49,0,.18-.06.35-.18.48-.12.13-.29.21-.46.2h0Z"/>
  <path class="cls-2" d="m190.23,89.05h-.97v-7.13c-.13-.02-.28-.04-.45-.06l-.49-.05v-.57c.27-.04.58-.06.93-.08s.67,0,.98,0v7.89Z"/>
  <path class="cls-2" d="m191.38,91.73c-.19,0-.38-.01-.56-.03l.11-.97c.16.02.32.03.48.03.41.04.81-.11,1.11-.39.26-.36.38-.79.34-1.23v-5.04h.97v4.99c0,.36-.03.72-.11,1.06-.06.3-.2.59-.39.83-.2.24-.46.43-.75.54-.38.15-.78.22-1.18.21Z"/>
  <path class="cls-2" d="m194.79,88.19h3.41c.04-.8-.2-1.6-.68-2.24-.56-.62-1.3-1.05-2.12-1.23l.1-1.03c.52.11,1.03.29,1.5.54.44.23.83.53,1.16.89.33.36.58.78.75,1.23.18.5.27,1.03.26,1.56v.29h1.23v.85h-5.61v-.86Z"/>
  <path class="cls-2" d="m199.96,88.19h3.05v.86h-3.05v-.86Z"/>
  <path class="cls-2" d="m202.8,88.19h3.06v.86h-3.06v-.86Z"/>
  <path class="cls-2" d="m205.64,88.19h3.05v.86h-3.05v-.86Z"/>
  <path class="cls-2" d="m208.48,88.19h3.06v.86h-3.06v-.86Z"/>
  <path class="cls-2" d="m211.32,88.19h3.05v.86h-3.05v-.86Z"/>
  <path class="cls-2" d="m214.16,88.19h3.06v.86h-3.06v-.86Z"/>
  <path class="cls-2" d="m217,88.19h3.05v.86h-3.05v-.86Z"/>
  <path class="cls-2" d="m219.84,88.19h3.06v.86h-3.06v-.86Z"/>
  <path class="cls-2" d="m222.68,88.19h3.05v.86h-3.05v-.86Z"/>
  <path class="cls-2" d="m225.52,88.19h3.05v.86h-3.05v-.86Z"/>
  <path class="cls-2" d="m228.35,88.19h3.05v.86h-3.05v-.86Z"/>
  <path class="cls-2" d="m231.2,88.19h1.7c-.18-.21-.32-.45-.41-.72-.11-.33-.17-.67-.16-1.01,0-.33.05-.65.17-.96.11-.3.27-.57.48-.8.46-.49,1.11-.77,1.78-.75.32,0,.63.06.93.18.27.11.51.28.71.49.2.22.35.48.44.77.11.32.16.66.16.99.01.39-.06.78-.21,1.14-.11.24-.25.47-.41.68h1.42v.86h-6.59v-.86Zm2.53-5.29c-.18,0-.34-.07-.46-.2-.24-.27-.24-.68,0-.96.25-.26.65-.26.91-.02,0,0,.01.01.02.02.24.27.24.68,0,.96-.12.13-.29.2-.46.2h0Zm.87,5.3c.41.03.81-.16,1.05-.49.24-.38.36-.83.34-1.28,0-.22-.03-.45-.09-.66-.05-.19-.14-.38-.26-.54-.11-.15-.26-.27-.42-.36-.18-.09-.38-.13-.58-.13-.21,0-.42.05-.6.15-.16.1-.3.23-.4.39-.11.17-.18.35-.23.54-.05.2-.07.41-.07.62,0,.21.03.42.08.62.05.2.12.39.23.57.1.17.23.31.39.41.17.11.37.17.57.16h0Zm.77-5.29c-.18,0-.35-.07-.47-.2-.12-.13-.19-.3-.19-.48,0-.18.07-.35.19-.47.12-.13.29-.2.47-.19.17,0,.34.07.46.19.12.13.18.3.18.47,0,.18-.06.35-.18.48-.11.13-.28.21-.46.2h0Z"/>
  <path class="cls-2" d="m237.58,88.19h1.47v-7.02h.97v7.89h-2.44v-.86Z"/>
  <path class="cls-2" d="m243.11,89.05h-.97v-7.13c-.13-.02-.28-.04-.44-.06l-.49-.05v-.57c.27-.04.58-.06.93-.08s.67,0,.98,0v7.89Z"/>
  <path class="cls-2" d="m246.55,88.19h.31c.13,0,.26,0,.4.02.14,0,.28.02.41.04.12,0,.23.03.35.07-.34-.24-.54-.64-.52-1.06,0-.23.05-.45.15-.65.1-.21.25-.39.42-.54.19-.16.41-.29.64-.37.26-.1.54-.14.82-.14.16,0,.34,0,.54.02.21.01.41.04.62.09l-.17.84c-.34-.06-.69-.1-1.03-.1-.27-.03-.53.05-.73.23-.16.17-.24.4-.22.64,0,.26.12.51.33.67.3.2.66.29,1.02.27h1.03v.85h-4.36v-.86Z"/>
  <path class="cls-2" d="m253.43,88.19h1.23v.86h-2.19v-7.1c-.13-.02-.28-.04-.45-.06l-.49-.05v-.57c.27-.03.58-.06.93-.07s.67-.02.98,0l-.02,6.98Z"/>
  <path class="cls-2" d="m254.44,88.19h3.05v.86h-3.05v-.86Z"/>
  <path class="cls-2" d="m257.28,88.19h3.05v.86h-3.05v-.86Z"/>
  <path class="cls-2" d="m260.12,88.19h1.53v-4.07h.97v4.07h1.23v.86h-3.73v-.86Zm1.97-4.98c-.17,0-.33-.07-.45-.19-.12-.13-.18-.29-.18-.46,0-.17.06-.33.18-.44.11-.12.28-.19.45-.19.17,0,.33.06.43.19.11.12.17.28.17.44,0,.17-.06.33-.17.46-.11.13-.27.2-.44.19h0Z"/>
  <path class="cls-2" d="m263.62,88.19h1.53v-4.1h.97v4.94h-2.5v-.84Zm1.32,3c-.17,0-.33-.07-.45-.19-.12-.12-.18-.29-.18-.46,0-.17.06-.33.18-.45.12-.12.28-.19.45-.19.17,0,.33.06.43.19.11.12.17.28.17.45,0,.17-.06.33-.17.46-.11.13-.27.2-.43.19h0Z"/>
  <path class="cls-2" d="m268.71,91.72c-.21,0-.44,0-.69-.03s-.47-.05-.64-.08l-.07-1.06c.24.06.49.1.75.14.25.04.5.06.76.06,1.35,0,2.03-.57,2.05-1.71h-.87c-.39.01-.79-.06-1.15-.21-.58-.24-1.02-.72-1.2-1.32-.09-.29-.14-.59-.14-.9,0-.35.06-.69.18-1.02.11-.32.29-.61.52-.85.23-.25.51-.45.83-.58.35-.15.73-.22,1.11-.22.29,0,.58.01.87.04.26.03.53.07.83.12v4.79c0,.33-.05.66-.15.97-.1.34-.27.66-.5.93-.26.3-.59.53-.96.68-.49.19-1.01.27-1.53.25Zm2.16-3.53v-3.38c-.07-.02-.14-.03-.21-.04l-.24-.02h-.4c-.17,0-.34.04-.51.1-.18.07-.34.18-.48.31-.15.15-.27.32-.36.52-.1.23-.15.48-.14.73-.04.48.11.96.41,1.34.31.31.75.48,1.19.45l.74-.02Z"/>
  <path class="cls-2" d="m277.53,88.81c-.46-.12-.88-.35-1.25-.65-.31-.27-.55-.62-.7-1.01-.15-.42-.23-.87-.22-1.32,0-.26.02-.51.06-.77.04-.28.09-.54.15-.77l1.05-.22c-.08.26-.14.53-.19.79-.04.28-.06.56-.06.84,0,.34.04.68.14,1,.09.3.26.57.5.79.28.25.62.42.98.52.52.14,1.05.2,1.59.18h1.76v-4.07h.98v4.94h-2.92c-.64.01-1.27-.07-1.88-.24Zm.93-5.13c-.18,0-.34-.07-.46-.2-.24-.27-.24-.68,0-.96.12-.13.29-.2.46-.2.18,0,.35.07.46.2.25.27.25.69,0,.96-.12.13-.28.2-.46.2h0Zm1.65,0c-.18,0-.35-.07-.47-.2-.12-.13-.19-.3-.19-.48,0-.18.06-.35.19-.48.12-.13.29-.2.47-.19.17,0,.34.06.46.19.12.13.18.3.18.48,0,.18-.06.35-.18.48-.11.14-.28.22-.45.22h0Z"/>
  <path class="cls-2" d="m285.19,89.05h-.97v-7.13c-.13-.02-.28-.04-.45-.06l-.49-.05v-.57c.27-.04.58-.06.93-.08s.67,0,.98,0v7.89Z"/>
  <path class="cls-2" d="m286.35,91.73c-.19,0-.37-.01-.56-.03l.11-.97c.16.02.31.03.47.03.41.04.81-.11,1.11-.39.26-.36.38-.79.35-1.23v-5.04h.97v4.99c0,.36-.04.71-.11,1.06-.07.3-.2.59-.39.83-.2.24-.46.43-.75.55-.38.15-.78.21-1.19.2Z"/>
  <path class="cls-2" d="m291.66,88.19h1.23v.86h-2.19v-7.1c-.13-.02-.28-.04-.45-.06l-.49-.05v-.57c.27-.03.58-.06.93-.07s.67-.02.98,0v6.98Z"/>
  <path class="cls-2" d="m292.67,88.19h3.05v.86h-3.05v-.86Z"/>
  <path class="cls-2" d="m295.51,88.19h3.05v.86h-3.05v-.86Z"/>
  <path class="cls-2" d="m298.35,88.19h3.05v.86h-3.05v-.86Z"/>
  <path class="cls-2" d="m306.71,88.82c-.25-.15-.43-.38-.53-.66-.12.29-.32.54-.59.72-.32.19-.7.29-1.07.27-.29,0-.58-.09-.82-.24-.27-.17-.47-.43-.58-.72-.14.28-.37.51-.64.66-.25.13-.52.2-.8.2h-.5v-.85h.39c.36.01.7-.15.93-.43.25-.37.37-.81.34-1.26v-2.38h.97v2.81c-.03.37.06.74.27,1.05.18.21.44.32.72.31.33,0,.64-.17.8-.46.22-.49.31-1.03.27-1.57v-2.14h.97v3.25c-.01.23.08.46.26.62.19.15.42.23.67.22h1v-1.89c0-.52-.02-.98-.06-1.4s-.09-.8-.14-1.15l.99-.18c.06.33.1.72.14,1.16s.05.9.05,1.38v2.09h1.23v.85h-3.27c-.34.01-.67-.06-.97-.23Zm-1.26-5.59c-.16,0-.31-.06-.41-.18-.11-.12-.17-.27-.17-.43,0-.16.06-.31.17-.43.2-.23.56-.25.78-.04.01.01.03.03.04.04.11.12.17.27.17.43,0,.16-.06.32-.17.43-.11.12-.26.18-.42.18h0Zm.77-1.22c-.14,0-.28-.05-.37-.16-.1-.11-.15-.24-.15-.39,0-.14.05-.27.15-.37.09-.1.23-.16.37-.16.14,0,.27.05.36.16.09.1.14.23.14.37,0,.14-.05.28-.14.39-.09.11-.23.17-.37.16h0Zm.71,1.23c-.16,0-.31-.06-.42-.18-.11-.12-.18-.28-.17-.44,0-.16.06-.31.17-.43.11-.12.26-.18.42-.18.16,0,.3.06.41.18.11.12.17.27.16.43,0,.16-.05.32-.16.44-.1.12-.25.18-.41.17h0Z"/>
  <path class="cls-2" d="m310.72,88.19h1.54v-4.07h.97v4.07h1.23v.86h-3.75v-.86Zm1.26-5c-.18,0-.35-.07-.46-.2-.25-.27-.25-.69,0-.96.12-.13.29-.21.46-.2.18,0,.34.07.46.2.24.27.24.68,0,.96-.12.13-.29.2-.46.2Zm1.64,0c-.18,0-.35-.07-.47-.2-.12-.13-.19-.3-.19-.48,0-.18.06-.35.19-.48.12-.13.29-.19.47-.19.17,0,.34.06.46.19.12.13.18.3.18.48,0,.18-.06.35-.18.48-.11.14-.28.22-.46.22v-.02Z"/>
  <path class="cls-2" d="m317.57,89.15c-.29,0-.58-.09-.82-.24-.27-.17-.47-.43-.58-.72-.14.28-.37.51-.64.66-.24.13-.52.21-.8.21h-.49v-.86h.39c.36.01.7-.15.93-.43.25-.37.38-.81.35-1.26v-2.38h.97v2.81c-.04.37.06.74.26,1.05.18.21.44.32.72.31.33.01.64-.17.8-.46.22-.49.31-1.03.27-1.57v-2.14h.97v3.25c-.01.23.08.46.26.62.19.15.43.23.67.22h1v-1.9c0-.52-.02-.98-.06-1.4s-.09-.8-.14-1.15l.99-.18c.07.38.11.77.14,1.16.03.44.05.9.05,1.38v2.95h-2.05c-.34.02-.67-.06-.97-.22-.25-.15-.43-.38-.53-.66-.12.29-.33.54-.59.72-.32.19-.7.28-1.07.25Z"/>
  <path class="cls-2" d="m325.85,87.12l-.97.23v-5.51c-.13-.02-.28-.04-.45-.06l-.49-.05v-.57c.27-.03.58-.06.93-.07s.67-.02.98,0v6.03Zm3.65,1.93c-.28,0-.55-.05-.81-.14-.25-.09-.47-.21-.67-.38-.25.21-.55.37-.87.46-.41.12-.84.17-1.26.16-.29,0-.58-.02-.87-.06-.26-.04-.51-.09-.76-.15l.13-1.07c.25.1.51.18.77.23.27.05.53.08.81.08.29,0,.58-.03.86-.1.2-.05.39-.15.56-.29.14-.12.25-.27.31-.45.06-.19.09-.39.09-.59v-5.58h.97v5.48c0,.39-.06.78-.19,1.14.28.28.66.42,1.05.4h.1v.86h-.2Z"/>
  <path class="cls-2" d="m329.47,88.19h1.47v-7.02h.97v7.89h-2.44v-.86Z"/>
  <path class="cls-2" d="m184.23,101.37c-.34.07-.69.1-1.04.1-.51.01-1.01-.08-1.48-.26-.39-.16-.74-.41-1.01-.72-.27-.32-.47-.7-.58-1.11-.13-.45-.19-.92-.19-1.39,0-.51.07-1.03.21-1.52.13-.44.34-.86.64-1.22.3-.35.67-.63,1.09-.81.5-.21,1.03-.3,1.57-.29.28,0,.55.02.83.06.27.04.54.09.8.15l-.11.88c-.53-.17-1.07-.25-1.63-.26-.36,0-.73.07-1.06.23-.29.14-.54.36-.73.62-.19.27-.32.57-.4.89-.09.36-.14.73-.13,1.1,0,.89.19,1.57.59,2.05s1.01.72,1.85.72c.28,0,.56-.04.84-.1.26-.06.52-.14.77-.26l.11.87c-.3.12-.61.21-.93.27Z"/>
  <path class="cls-2" d="m191.07,98.65c0,.38-.06.75-.19,1.11-.12.33-.29.63-.52.9-.23.26-.5.46-.81.6-.34.15-.7.22-1.07.22-.33,0-.66-.05-.98-.16-.28-.1-.54-.27-.75-.49-.22-.24-.38-.52-.48-.83-.12-.39-.18-.8-.17-1.21,0-.37.06-.74.18-1.09.11-.32.28-.62.51-.88.23-.25.52-.45.83-.59.34-.15.71-.22,1.08-.22.32,0,.64.05.95.14.28.09.54.25.75.46.23.23.4.52.5.82.13.39.18.81.17,1.22Zm-1.01.05c.03-.5-.1-.99-.36-1.41-.26-.34-.67-.53-1.1-.5-.19,0-.38.04-.56.11-.18.08-.34.2-.48.35-.15.17-.26.38-.33.59-.09.27-.13.56-.12.85-.03.52.1,1.03.38,1.47.26.34.68.53,1.1.51.19,0,.38-.04.56-.12.18-.08.34-.21.47-.36.14-.18.25-.39.31-.62.09-.28.13-.58.13-.87h0Z"/>
  <path class="cls-2" d="m193.79,96.09v.56c0,.19-.03.37-.07.56h.02c.15-.36.39-.67.71-.89.34-.23.74-.35,1.15-.33.26,0,.52.04.76.13.19.08.36.2.49.36.13.16.22.34.27.54.05.22.07.45.07.68v3.7h-.95v-3.43c.02-.3-.05-.6-.19-.87-.16-.23-.44-.34-.72-.31-.22,0-.43.05-.62.16-.19.11-.35.25-.48.43-.14.2-.24.42-.31.66-.08.26-.12.54-.11.81v2.55h-.95v-4.56c-.13-.02-.27-.04-.44-.06l-.49-.05v-.56c.27-.04.57-.06.9-.07s.66-.02.95,0Z"/>
  <path class="cls-2" d="m202.29,99.79c0,.23-.05.47-.16.67-.11.21-.26.39-.45.53-.21.16-.46.28-.71.35-.31.09-.62.13-.94.13-.2,0-.39,0-.59-.02-.18-.01-.36-.04-.53-.07l.03-.85c.18.06.36.1.55.13.2.03.41.05.62.05.3.01.6-.06.85-.22.2-.12.33-.35.32-.59.01-.17-.05-.34-.18-.45-.14-.11-.29-.2-.46-.26-.19-.07-.38-.13-.59-.19-.21-.06-.41-.14-.59-.24-.18-.11-.34-.25-.46-.43-.13-.22-.19-.48-.18-.74,0-.44.2-.85.54-1.13.2-.15.42-.27.66-.33.3-.09.61-.13.93-.12.17,0,.34,0,.5.03.17.02.34.04.51.08l-.02.8c-.17-.06-.35-.1-.52-.13-.18-.03-.36-.04-.54-.04-.28-.02-.56.05-.79.21-.17.13-.27.33-.26.55,0,.17.06.33.18.45.14.12.29.21.46.27.19.07.39.14.6.21.21.06.41.15.6.25.18.11.34.25.46.42.13.21.19.46.17.7Z"/>
  <path class="cls-2" d="m208.5,101.39c-.34.01-.65.01-.95,0,0-.15,0-.33.02-.54,0-.19.03-.37.06-.56h-.02c-.15.36-.39.66-.71.88-.34.23-.74.34-1.15.33-.26,0-.52-.04-.76-.13-.19-.08-.36-.2-.49-.36-.13-.16-.21-.34-.26-.53-.05-.22-.08-.44-.07-.66v-2.95c-.13-.02-.27-.04-.44-.06l-.48-.05v-.56c.28-.04.58-.06.93-.07s.66-.02.96,0v3.41c-.02.3.05.6.19.87.16.22.43.34.71.31.22,0,.43-.05.62-.15.19-.11.35-.25.48-.43.14-.2.24-.42.31-.65.08-.26.11-.54.11-.81v-2.54h.96v4.54c.13.02.27.04.44.06l.48.05v.56c-.28.01-.59.04-.92.06Z"/>
  <path class="cls-2" d="m211.72,101.39h-.96v-7.02c-.13-.02-.27-.04-.44-.06l-.48-.05v-.56c.27-.04.57-.06.93-.07s.66-.02.97,0v7.77Z"/>
  <path class="cls-2" d="m215.89,101.43c-.17.02-.35.03-.52.03-.23,0-.46-.02-.68-.08-.17-.05-.32-.15-.43-.28-.12-.14-.2-.31-.23-.5-.05-.24-.07-.48-.07-.73v-3.04h-1.08v-.73h1.08v-1.71l.96-.27v1.97h1.48v.73h-1.48v2.71c0,.18,0,.36.03.54.01.12.06.24.12.34.06.08.14.15.23.18.12.04.24.05.37.05.12,0,.25,0,.37-.03.12-.01.24-.04.35-.07v.81c-.16.04-.33.06-.5.07Z"/>
  <path class="cls-2" d="m219.13,101.39h-.96v-4.55c-.13-.02-.27-.04-.44-.06l-.48-.05v-.56c.27-.03.57-.06.93-.07s.66,0,.97,0v5.29Zm.16-6.79c-.01.34-.29.62-.64.62-.17,0-.33-.06-.45-.18-.12-.11-.19-.28-.19-.44,0-.17.07-.33.19-.44.12-.12.28-.18.45-.18.17,0,.33.06.45.18.13.12.19.28.19.45Z"/>
  <path class="cls-2" d="m222.34,96.09v.56c0,.19-.03.37-.07.56h.02c.15-.36.39-.67.71-.89.34-.23.74-.35,1.15-.33.26,0,.52.04.76.13.19.08.36.2.49.36.13.16.22.34.27.54.05.21.08.44.08.66v3.7h-.96v-3.41c.02-.3-.05-.6-.19-.87-.17-.23-.44-.34-.72-.31-.22,0-.43.05-.62.16-.19.11-.35.25-.47.43-.14.2-.24.42-.31.66-.08.26-.11.54-.11.81v2.55h-.96v-4.56c-.13-.02-.27-.04-.44-.06l-.48-.05v-.56c.27-.04.57-.06.9-.07s.64-.02.94,0Z"/>
  <path class="cls-2" d="m231.85,101.78c0,.26-.04.53-.1.78-.07.28-.21.54-.41.75-.23.24-.51.43-.83.55-.45.16-.92.23-1.4.22-.28,0-.55-.02-.83-.06-.24-.03-.47-.08-.7-.14l.07-.93c.24.1.49.17.75.22.26.05.53.08.79.08.45.03.9-.09,1.27-.35.31-.23.45-.65.45-1.25v-.9c0-.15.03-.29.05-.43h-.02c-.13.35-.36.64-.67.85-.31.21-.67.32-1.04.31-.56.03-1.09-.19-1.46-.62-.34-.41-.51-1.03-.51-1.85,0-.42.06-.84.19-1.23.12-.34.3-.66.55-.93.25-.26.55-.46.88-.59.38-.14.78-.21,1.18-.21.31,0,.62,0,.93.04s.59.06.86.11v5.59Zm-.96-4.9c-.15-.03-.31-.06-.47-.08-.16-.02-.31-.03-.47-.03-.23,0-.47.04-.69.12-.2.08-.39.21-.53.37-.16.19-.27.42-.34.66-.09.32-.13.65-.12.98-.03.46.07.92.28,1.32.18.31.53.49.89.46.22,0,.44-.07.62-.19.18-.13.33-.29.45-.48.13-.2.22-.42.27-.66.06-.24.09-.48.09-.72l.02-1.75Z"/>
  <path class="cls-2" d="m242.73,101.59c-.26-.18-.52-.37-.77-.56s-.49-.37-.71-.56c-.36.32-.78.57-1.23.73-.51.19-1.05.29-1.6.28-.34,0-.69-.05-1.01-.16-.27-.09-.52-.24-.73-.44-.2-.18-.35-.41-.45-.66-.1-.26-.15-.54-.15-.82,0-.23.04-.46.11-.68.08-.21.18-.41.31-.59.13-.19.29-.37.47-.53.18-.17.38-.34.59-.51-.2-.23-.36-.43-.49-.62-.11-.16-.22-.32-.31-.49-.07-.14-.13-.28-.16-.43-.03-.14-.05-.27-.05-.41,0-.21.04-.42.12-.62.08-.2.2-.37.36-.52.17-.16.37-.28.59-.35.26-.09.53-.13.81-.13.46-.03.91.11,1.27.4.29.27.45.64.44,1.04,0,.38-.1.75-.31,1.07-.27.39-.61.74-1,1.02.16.17.33.35.53.54.19.19.4.38.62.58s.43.39.65.58.43.37.65.54c.19-.26.34-.55.45-.86.13-.36.2-.73.21-1.11-.12-.02-.26-.04-.43-.06l-.44-.05v-.53c.27-.04.57-.06.89-.08.32-.02.63-.02.95,0,.03.59-.04,1.18-.2,1.75-.16.53-.41,1.02-.74,1.46.26.2.51.39.75.57s.46.33.66.47l-.62.74Zm-2.18-1.64c-.22-.18-.44-.37-.67-.57s-.45-.4-.66-.6-.41-.39-.62-.58-.36-.37-.52-.54c-.31.23-.57.51-.8.83-.16.24-.24.52-.24.81,0,.18.03.37.1.54.07.17.18.32.31.44.14.13.31.24.49.31.2.08.42.11.64.11.38,0,.75-.07,1.1-.21.31-.13.61-.31.87-.52h0Zm-1.38-4.89c0-.21-.06-.41-.2-.57-.17-.17-.4-.25-.64-.23-.23-.01-.45.07-.62.23-.16.16-.25.37-.24.6,0,.21.07.41.17.59.18.3.38.58.62.83.26-.2.49-.44.68-.71.15-.22.23-.48.23-.74h0Z"/>
  <path class="cls-2" d="m251.49,101.37c-.34.07-.69.1-1.04.1-.51.01-1.01-.08-1.48-.26-.39-.16-.74-.41-1.01-.72-.27-.32-.47-.7-.58-1.11-.13-.45-.19-.92-.19-1.39,0-.51.07-1.03.21-1.52.12-.45.34-.86.64-1.22.3-.35.67-.63,1.09-.81.5-.21,1.03-.3,1.57-.29.28,0,.55.02.83.06.27.04.54.09.8.15l-.11.88c-.53-.17-1.07-.25-1.63-.26-.36,0-.73.07-1.06.23-.29.14-.54.36-.73.62-.2.27-.34.57-.42.9-.09.36-.14.73-.13,1.1,0,.89.19,1.57.59,2.05s1.01.72,1.85.72c.28,0,.56-.04.84-.1.26-.06.52-.14.77-.26l.11.87c-.29.12-.6.2-.91.26Z"/>
  <path class="cls-2" d="m258.58,101.3c-.27.04-.57.06-.9.08s-.64,0-.93,0v-.56c0-.17.02-.33.05-.5h-.02c-.13.33-.37.62-.67.82-.33.22-.73.34-1.13.33-.38.02-.76-.1-1.06-.33-.28-.24-.43-.6-.4-.97,0-.28.07-.55.22-.79.16-.24.37-.45.62-.6.31-.18.64-.3.99-.38.44-.09.89-.14,1.35-.13v-.39c.02-.3-.07-.6-.25-.84-.25-.22-.58-.32-.91-.29-.28,0-.55.04-.81.11-.28.07-.54.18-.78.32l-.1-.82c.27-.11.56-.2.85-.27.33-.08.66-.11,1-.11.32,0,.64.03.95.13.23.07.44.19.62.36.15.16.25.35.31.56.06.23.1.47.09.72v2.88c.13.02.27.04.44.06l.48.05v.56Zm-1.88-2.36c-.38,0-.76.02-1.13.1-.24.05-.47.13-.68.24-.26.14-.43.4-.43.7-.01.2.07.4.22.54.16.14.37.21.59.2.2,0,.4-.05.58-.14.18-.1.33-.23.46-.38.13-.16.24-.34.31-.54.07-.2.1-.41.1-.62l-.02-.09Z"/>
  <path class="cls-2" d="m260.14,96.84c-.13-.02-.27-.04-.44-.06l-.48-.05v-.56c.27-.03.57-.06.9-.07s.64,0,.93,0v.54c0,.18-.03.36-.06.54h.02c.13-.35.37-.65.68-.86.33-.21.71-.32,1.1-.31.55-.03,1.09.2,1.44.63.37.54.54,1.2.5,1.85,0,.95-.24,1.68-.72,2.19-.53.53-1.26.81-2.01.77h-.45c-.15,0-.3-.03-.44-.05v2.62h-.96v-7.16Zm3.57,1.74c.03-.46-.07-.92-.28-1.33-.19-.31-.53-.49-.89-.46-.22,0-.44.07-.62.19-.18.13-.33.29-.45.48-.12.2-.21.43-.27.66-.06.23-.09.47-.09.71v1.75c.3.09.61.13.93.13.23,0,.46-.04.68-.12.21-.08.39-.21.53-.37.16-.19.28-.42.34-.66.09-.32.13-.65.12-.98Z"/>
  <path class="cls-2" d="m270.92,101.3c-.27.04-.57.06-.9.08s-.64,0-.93,0v-.56c0-.17.02-.33.05-.5h-.02c-.13.33-.36.62-.66.82-.33.22-.73.34-1.13.33-.38.02-.76-.1-1.06-.33-.28-.24-.43-.6-.4-.97,0-.28.07-.55.22-.79.16-.24.37-.45.62-.6.31-.18.64-.3.99-.38.44-.09.89-.14,1.35-.13v-.39c.02-.3-.07-.6-.25-.84-.25-.22-.58-.33-.91-.29-.27,0-.55.04-.81.11-.28.07-.54.18-.78.32l-.1-.82c.27-.11.56-.21.85-.27.33-.08.66-.11,1-.11.32,0,.64.03.95.13.23.07.43.19.6.36.15.16.25.35.31.56.06.23.1.47.09.72v2.88c.13.02.27.04.44.06l.48.05.02.56Zm-1.88-2.36c-.38,0-.76.02-1.13.1-.24.05-.47.13-.69.24-.26.13-.43.4-.43.7-.01.2.07.4.22.54.16.14.37.21.59.2.2,0,.4-.05.58-.14.18-.1.33-.23.46-.38.13-.16.23-.35.29-.54.07-.2.1-.41.1-.62v-.09Z"/>
  <path class="cls-2" d="m274.93,101.37c-.29.06-.58.09-.87.09-.3,0-.61-.04-.9-.12-.27-.08-.53-.22-.73-.42-.22-.22-.39-.49-.5-.78-.13-.39-.2-.8-.19-1.22,0-.4.05-.79.16-1.17.1-.34.27-.65.49-.93.22-.26.51-.47.82-.6.37-.15.76-.22,1.15-.21.21,0,.41.01.62.04.2.03.39.07.59.13l-.11.84c-.17-.07-.35-.12-.54-.16-.2-.04-.4-.07-.6-.06-.46-.03-.91.17-1.19.54-.28.43-.42.93-.39,1.44,0,.24.02.49.07.72.04.21.12.41.24.59.12.17.28.3.47.39.23.1.48.15.73.14.23,0,.45-.03.67-.08.2-.04.4-.12.58-.21l.07.83c-.21.08-.44.15-.66.2Z"/>
  <path class="cls-2" d="m278.33,101.39h-.96v-4.55c-.13-.02-.27-.04-.44-.06l-.48-.05v-.56c.27-.03.57-.06.91-.07h.97v5.29Zm.16-6.79c0,.34-.28.62-.62.62,0,0-.01,0-.02,0-.17,0-.33-.06-.45-.18-.12-.12-.19-.28-.19-.44,0-.17.06-.32.19-.44.12-.12.28-.18.45-.18.17,0,.33.06.45.18.12.12.19.28.18.45h0Z"/>
  <path class="cls-2" d="m282.49,101.43c-.17.02-.35.03-.52.03-.23,0-.46-.02-.68-.08-.17-.05-.32-.15-.43-.28-.12-.14-.2-.31-.23-.5-.05-.24-.07-.48-.07-.73v-3.04h-1.09v-.73h1.09v-1.71l.96-.27v1.97h1.47v.73h-1.47v2.71c0,.18,0,.36.03.54.01.12.06.24.12.34.05.08.14.15.23.18.12.04.24.05.37.05.12,0,.25,0,.37-.03.12-.01.23-.04.35-.07v.81c-.16.04-.33.06-.49.07Z"/>
  <path class="cls-2" d="m286.4,101.91c-.13.35-.28.7-.45,1.03-.13.25-.29.47-.48.67-.17.16-.37.29-.59.36-.25.07-.5.11-.76.1-.11,0-.23,0-.34-.02-.13,0-.24-.03-.35-.04l.08-.86c.22.07.45.11.68.1.13,0,.27-.02.39-.06.12-.04.22-.11.31-.2.11-.12.21-.25.28-.39.1-.2.19-.42.27-.63l.23-.59-2-5.28h1.09l1,2.74c.09.24.16.47.23.68s.12.42.18.62h.02c.02-.09.05-.2.09-.33s.08-.26.13-.4.1-.29.15-.44l.15-.45.85-2.42h1.04l-2.19,5.82Z"/>
  <path class="cls-2" d="m296.93,99.23c0,.24-.04.47-.11.7-.09.27-.23.51-.43.71-.24.24-.53.43-.85.55-.44.16-.91.23-1.38.22h-.81l-1.02-.02v-7.19l.93-.02h1.18c.79,0,1.38.15,1.76.46.38.31.59.78.57,1.26,0,.37-.12.73-.35,1.02-.23.31-.56.53-.93.64v.02c.23.04.45.11.65.23.17.1.33.23.45.38.12.15.21.31.26.49.05.17.08.35.08.54Zm-1.17-3.18c0-.15-.02-.29-.07-.43-.05-.13-.13-.25-.24-.35-.13-.11-.29-.19-.46-.23-.24-.06-.48-.09-.72-.08h-.5l-.47.02v2.32h.65c.47.03.93-.08,1.33-.31.3-.21.48-.56.47-.93Zm.15,3.21c0-.21-.04-.41-.15-.59-.1-.16-.24-.29-.4-.38-.19-.1-.4-.17-.62-.2-.26-.04-.51-.06-.77-.06h-.66v2.52c.31.04.62.06.93.05.46.04.92-.09,1.29-.38.26-.25.4-.6.39-.96h0Z"/>
  <path class="cls-2" d="m303.17,101.39c-.33.01-.65.01-.95,0,0-.15,0-.33.02-.54s.04-.39.06-.56h-.02c-.3.76-1.04,1.24-1.85,1.21-.26,0-.52-.04-.76-.13-.19-.08-.36-.2-.49-.36-.13-.15-.22-.34-.26-.53-.05-.22-.08-.44-.07-.66v-2.95c-.13-.02-.27-.04-.44-.06l-.48-.05v-.56c.27-.04.58-.06.93-.07s.66-.02.96,0v3.41c-.02.3.05.6.19.87.16.22.43.34.71.31.22,0,.43-.05.62-.15.19-.11.35-.25.48-.43.14-.2.24-.42.31-.65.08-.26.11-.54.11-.81v-2.54h.96v4.54c.13.02.27.04.44.06l.48.05v.56c-.28.02-.59.04-.93.06Z"/>
  <path class="cls-2" d="m306.6,101.39h-.96v-4.55c-.13-.02-.27-.04-.44-.06l-.48-.05v-.56c.27-.03.57-.06.91-.07s.66,0,.97,0v5.29Zm.16-6.79c-.01.34-.29.62-.64.62-.17,0-.33-.06-.45-.18-.12-.11-.19-.27-.19-.43,0-.17.07-.33.19-.44.12-.12.28-.18.45-.18.17,0,.33.06.45.18.13.11.2.27.19.44Z"/>
  <path class="cls-2" d="m309.73,101.39h-.96v-7.02c-.13-.02-.27-.04-.44-.06l-.48-.05v-.56c.27-.04.57-.06.91-.07s.66-.02.97,0v7.77Z"/>
  <path class="cls-2" d="m316.78,101.3c-.27.04-.57.06-.9.08s-.65,0-.94,0c0-.15,0-.33.02-.53,0-.18.03-.36.07-.54h-.02c-.14.35-.38.65-.69.86-.32.21-.7.32-1.09.31-.57.04-1.12-.21-1.46-.66-.35-.54-.52-1.18-.48-1.82,0-.42.06-.84.19-1.23.12-.34.3-.66.55-.93.24-.26.53-.46.86-.59.36-.14.74-.21,1.13-.2h.43l.46.04v-1.71c-.13-.02-.27-.04-.44-.06l-.48-.05v-.56c.27-.04.57-.06.91-.07.34-.02.66-.02.97,0v7.01c.13.02.27.04.44.06l.48.05v.56Zm-1.88-4.41c-.16-.04-.32-.07-.48-.09-.15-.02-.3-.03-.46-.03-.24,0-.47.04-.69.12-.2.08-.39.21-.53.37-.16.19-.27.42-.34.66-.09.32-.13.65-.12.98-.03.46.07.92.28,1.32.18.31.53.49.89.46.23,0,.45-.06.63-.19.18-.13.33-.29.45-.48.13-.2.22-.42.27-.65.06-.23.09-.47.09-.71v-1.76Z"/>
  <path class="cls-2" d="m319.31,101.39h-.96v-4.55c-.13-.02-.27-.04-.44-.06l-.48-.05v-.56c.27-.03.57-.06.91-.07s.66,0,.97,0v5.29Zm.16-6.79c0,.34-.28.62-.62.62,0,0-.01,0-.02,0-.17,0-.33-.06-.45-.18-.12-.12-.19-.28-.19-.44,0-.17.06-.32.19-.44.12-.12.28-.18.45-.18.17,0,.33.06.45.18.12.12.19.28.19.45Z"/>
  <path class="cls-2" d="m322.53,96.09v.56c0,.19-.03.37-.07.56h.02c.15-.36.39-.67.71-.89.34-.23.74-.35,1.15-.33.26,0,.52.04.76.13.19.08.36.2.49.36.13.16.22.34.27.54.05.21.08.44.08.66v3.7h-.95v-3.41c.02-.3-.05-.6-.19-.87-.16-.23-.44-.34-.72-.31-.22,0-.43.05-.62.16-.19.11-.35.25-.48.43-.14.2-.24.42-.31.66-.08.26-.11.54-.11.81v2.55h-.96v-4.56c-.13-.02-.27-.04-.44-.06l-.48-.05v-.56c.27-.04.57-.06.9-.07s.64-.02.94,0Z"/>
  <path class="cls-2" d="m332.04,101.78c0,.26-.04.53-.11.78-.07.28-.21.54-.41.75-.23.25-.52.44-.84.56-.45.16-.92.23-1.4.22-.28,0-.56-.02-.83-.06-.24-.04-.47-.08-.7-.14l.07-.93c.24.1.49.17.75.22.26.05.53.08.79.08.45.03.9-.09,1.27-.35.31-.23.44-.65.44-1.25v-.9c0-.15.02-.29.05-.43h-.02c-.13.35-.36.64-.67.85-.31.21-.67.32-1.04.31-.56.04-1.1-.19-1.46-.62-.34-.41-.51-1.03-.51-1.85,0-.42.06-.84.19-1.23.12-.34.3-.66.55-.93.24-.26.54-.46.88-.59.38-.14.78-.21,1.18-.21.31,0,.62,0,.93.04s.58.06.86.11v5.58Zm-.96-4.9c-.16-.03-.31-.06-.47-.08-.15-.02-.3-.04-.46-.04-.24,0-.47.04-.69.12-.2.08-.38.21-.52.37-.16.19-.27.42-.34.66-.09.32-.13.65-.12.98-.03.46.07.92.28,1.32.19.31.53.49.89.46.22,0,.44-.07.62-.19.18-.13.34-.29.45-.48.12-.2.22-.43.27-.66.06-.24.09-.48.09-.72v-1.74Z"/>
  <path class="cls-3" d="m289.64,33.37l.02.02c.35.25.73.46,1.13.62l.05.02c.12.05.25.09.38.13h0c.56.17,1.14.26,1.73.26.75,0,1.49-.15,2.17-.43.41-.17.81-.39,1.17-.66.16-.11.31-.23.45-.36h0c.14-.12.27-.25.39-.39h0c2.12-2.33,1.96-5.94-.37-8.06-1.05-.95-2.41-1.48-3.82-1.49-3.15,0-5.7,2.54-5.7,5.69,0,1.85.89,3.59,2.4,4.66m38.49,14.19c-.57-.19-1.17-.28-1.77-.28h-.23c-.09,0-.17,0-.26.02-.05,0-.11,0-.16.02-.1,0-.21.02-.31.04l-.1.02c-.11.02-.23.04-.34.07h-.03c-1.73.46-3.15,1.69-3.83,3.35-.06.14-.11.28-.15.42s-.1.35-.14.52c0,.05-.02.1-.02.15-.02.13-.05.25-.06.38,0,.05-.02.1-.02.15-.02.15-.03.29-.03.44v.07c-.03,3.15,2.5,5.73,5.65,5.76,3.15.03,5.73-2.5,5.76-5.65.02-2.49-1.57-4.7-3.93-5.48m-39.26,9.68c.06-.05.11-.1.17-.16s.2-.2.29-.31.13-.15.2-.23.08-.11.12-.17.12-.16.17-.25.07-.11.11-.17l.16-.28.09-.16c.07-.14.13-.28.19-.43.02-.05.04-.11.06-.16.04-.1.07-.21.1-.31l.06-.23c.02-.08.04-.16.06-.24s.04-.17.05-.25.02-.16.03-.24.02-.17.03-.26c0-.15.02-.31.02-.45v-.51c0-.09-.02-.16-.03-.23-.01-.1-.03-.21-.05-.31,0-.06-.02-.13-.03-.19-.04-.17-.09-.33-.14-.5-.97-2.99-4.19-4.63-7.19-3.66-2.99.97-4.63,4.19-3.66,7.19.76,2.35,2.95,3.94,5.42,3.94,1.29,0,2.55-.43,3.55-1.23l.24-.2m21.82,8c-.71-1.29-1.89-2.27-3.29-2.71-.02,0-.04,0-.06-.02-.15-.04-.29-.08-.44-.11l-.14-.03c-.13-.02-.26-.04-.39-.06-.05,0-.1-.02-.15-.02-.17-.02-.35-.03-.53-.03s-.36,0-.54.03l-.14.02c-.13.02-.26.03-.39.06l-.14.03c-.15.03-.29.07-.44.11-.02,0-.04.01-.06.02-3.01.94-4.68,4.14-3.75,7.14.94,3.01,4.14,4.68,7.14,3.75,2.38-.74,4.01-2.95,4-5.45,0-.94-.23-1.88-.68-2.71v-.02m3.59-32.64c.09.1.19.2.31.31l.09.08c.14.12.28.23.43.34,1.98,1.44,4.65,1.46,6.65.04.02,0,.04-.03.06-.04s0,0,.02,0c.47-.35.89-.76,1.23-1.23,1.87-2.53,1.34-6.1-1.2-7.97-2.53-1.87-6.1-1.34-7.97,1.2-.01.02-.03.04-.04.06-1.58,2.17-1.44,5.16.35,7.16l.08.08m8.78,27.88c1.86,2.54,1.32,6.11-1.22,7.97s-6.11,1.32-7.97-1.22c-.37-.5-.65-1.06-.84-1.66-.01-.02-.02-.05-.03-.07-.05-.14-.1-.29-.16-.43-.02-.04-.03-.09-.05-.13-.06-.13-.12-.26-.19-.39-.04-.08-.08-.17-.12-.25-.02-.04-.05-.08-.07-.12-.77-1.39-1.96-2.5-3.39-3.18h0c-.19-.09-.37-.17-.57-.24l-.19-.07-.25-.09c-.14-.04-.28-.08-.43-.12l-.17-.04c-.13-.03-.27-.06-.4-.08l-.12-.02c-.18-.03-.35-.05-.52-.06h-.13c-.19,0-.37-.02-.55-.02s-.37,0-.55.02h-.13c-.18,0-.35.03-.52.06l-.12.02-.39.08-.18.04c-.14.04-.28.08-.43.12l-.25.08-.19.07c-1.82.69-3.31,2.04-4.16,3.79-.04.08-.08.17-.12.26s-.07.16-.1.24c-.05.13-.1.26-.15.4-.01.03-.02.05-.03.08,0,0,0,.03-.02.04-.97,3-4.18,4.65-7.18,3.68-3-.97-4.65-4.18-3.68-7.18.19-.58.46-1.12.82-1.61.38-.52.84-.97,1.37-1.33l.08-.06c.33-.26.64-.55.93-.85h0c.12-.14.24-.27.36-.41,0-.01.02-.02.02-.03.11-.14.21-.28.31-.42.02-.03.04-.06.06-.09.1-.14.19-.28.27-.43v-.02c.08-.15.16-.31.24-.46.02-.03.03-.06.05-.1.07-.16.14-.31.2-.48h0c.06-.17.12-.34.18-.52v-.03c.28-.92.39-1.89.31-2.86h0c-.03-.38-.09-.75-.18-1.12,0-.03-.01-.06-.02-.09-.04-.18-.09-.35-.15-.53,0-.03-.02-.06-.03-.09-1.05-3.12-3.96-5.23-7.25-5.24h-.05c-3.15,0-5.71-2.54-5.72-5.69,0-3.15,2.54-5.71,5.69-5.72.61,0,1.21.09,1.79.28.59.19,1.15.48,1.65.86l.1.06c.31.21.63.4.97.57l.13.06c.12.06.24.11.36.16l.15.06c.14.06.29.1.43.15l.06.02c.17.05.35.1.53.14l.06.02c.16.03.33.07.5.09h.06c.37.06.75.08,1.13.09,1.01,0,2.01-.2,2.95-.59.56-.23,1.1-.53,1.59-.89.04-.04.09-.08.14-.11.07-.06.15-.11.22-.18l.21-.18.15-.14c.13-.12.25-.24.37-.36l.09-.1c1.79-1.98,2.43-4.76,1.68-7.32,0-.05-.02-.1-.03-.15-.2-.59-.31-1.21-.31-1.83,0-3.15,2.56-5.7,5.71-5.7s5.7,2.56,5.7,5.71c0,.62-.1,1.24-.3,1.83l-.04.12c-.64,2.18-.29,4.53.96,6.42.03.04.06.09.09.13.07.1.14.19.21.29s.15.19.22.28.1.11.14.17.16.18.25.26c.03.04.06.07.1.1.11.12.23.23.36.34l.12.1c.13.12.27.22.42.33h0l.03.02c1.31.95,2.89,1.47,4.5,1.46.96,0,1.91-.18,2.81-.53.02-.01.05-.02.08-.03.15-.06.31-.13.46-.2.01,0,.03-.01.04-.02.36-.18.71-.39,1.03-.62.02-.01.04-.02.06-.04.51-.39,1.08-.69,1.68-.89.57-.18,1.17-.28,1.76-.28,3.15,0,5.71,2.56,5.71,5.71s-2.56,5.71-5.71,5.71h-.39l-.33.02c-.08,0-.17.02-.26.03l-.35.05-.21.04-.38.09-.16.05c-.14.04-.28.08-.43.12-.03.01-.06.03-.1.04-.16.05-.31.11-.46.18,0,0-.03.02-.05.02-1.62.71-2.94,1.96-3.74,3.54-.01.02-.02.04-.03.06-.08.16-.16.31-.23.48s-.14.38-.21.57-.1.35-.15.52c-.02.04-.02.08-.03.12-.04.17-.08.34-.1.52,0,.03,0,.06,0,.09-.02.14-.03.29-.05.43,0,.05,0,.11,0,.16v.95c.02.19.02.38.05.57,0,.02,0,.04,0,.06.02.11.03.23.06.35v.04c.29,1.55,1.04,2.97,2.16,4.07.04.05.1.1.15.15.06.06.12.12.19.17.11.1.23.19.35.29.02.02.04.03.06.05.03.03.06.06.1.08.5.35.93.79,1.29,1.28"/>
  <path class="cls-1" d="m193.74,27.2c.9,0,1.64-.73,1.64-1.64,0-.9-.73-1.64-1.64-1.64s-1.64.73-1.64,1.64h0c0,.9.73,1.63,1.64,1.64Z"/>
  <path class="cls-1" d="m187.05,43.06h10.32c1.49.03,2.92-.56,3.94-1.64.97-1.06,1.54-2.57,1.54-4.47v-4.38c0-1.2.22-2,1.51-2h.44v-.44h-5.22v7.4c-.13,1.64-.62,2.74-1.33,3.45-.72.67-1.68,1.03-2.66,1.02h-7.93c-1.29.05-2.51-.57-3.23-1.64-.71-1.02-1.02-2.39-1.02-3.94,0-3.19,1.37-5.23,4.25-5.23,2.08,0,3.63.75,3.77,3.05h.57c0-2.08,0-2.88-.71-3.54-.75-.67-2.16-.97-4.25-.97s-3.9.75-5.09,1.95c-1.23,1.27-1.89,2.98-1.85,4.74-.05,1.75.62,3.45,1.85,4.69,1.2,1.19,2.92,1.94,5.09,1.94Z"/>
  <path class="cls-1" d="m263.84,27.55c.92.01,1.67-.72,1.68-1.64.01-.92-.72-1.67-1.64-1.68-.92-.01-1.67.72-1.68,1.64,0,.01,0,.03,0,.04.02.9.74,1.62,1.64,1.64Z"/>
  <path class="cls-1" d="m263.75,41.95c-1.15-.12-2.16-.8-2.7-1.82-.6-1.18-.89-2.49-.84-3.81,0-3.19,1.28-5.23,4.25-5.23,2.08,0,3.59.75,3.76,3.05h.58c0-2.08,0-2.88-.75-3.54s-2.13-.93-4.21-.93-3.9.75-5.09,1.95c-1.23,1.25-1.9,2.94-1.85,4.7,0,2.43,1.06,4.43,3.01,5.62h-36.4c-2.61,0-4.12-1.51-4.25-4.52v-1.02c.02-1.76-.64-3.46-1.85-4.74-1.19-1.19-2.92-1.95-5.09-1.95s-3.5.27-4.21.97c-.75.66-.75,1.46-.75,3.54h.58c.18-2.35,1.68-3.05,3.76-3.05,2.88,0,4.25,2.04,4.25,5.23,0,1.54-.31,2.92-1.02,3.94-.72,1.05-1.92,1.65-3.19,1.59h-4.71v1.11h5.28c2.44,0,4.3-.93,5.49-2.39.27.53.67.98,1.15,1.33.93.76,1.54,1.02,2.75,1.06h49.1v-1.11h-7.04Z"/>
  <path class="cls-1" d="m194.27,61.53v4.97c-1.14.62-2.4,1-4.45,1-1.88,0-3.58-.57-4.84-2.01s-2.05-3.7-2.05-7.15c0-2.13.52-4.27,1.61-5.89,1.18-1.75,3.17-2.77,5.28-2.71,3.44,0,5.45,1.7,6.15,5.02h.57c.01-.7-.02-1.4-.09-2.09-.04-.64-.26-1.26-.62-1.79-1.05-1.23-3.39-2.27-6.89-2.27-2.46-.05-4.82.99-6.45,2.84-1.53,1.74-2.4,4.19-2.4,6.89-.05,2.68.92,5.28,2.71,7.28,1.81,1.96,4.36,3.05,7.02,3.01,2.78,0,4.94-.52,7.02-1.79v-5.41c0-.83.04-1.48.35-1.96s.87-.74,1.79-.74v-.57c-2.13,0-3.31.43-3.97,1.09s-.74,1.44-.74,2.27Z"/>
  <path class="cls-1" d="m211.1,55.34c-.93-.78-2.09-1-3.32-1-1.39-.02-2.73.5-3.75,1.44v-3.13c0-1.39-.09-2.31-.52-2.83s-1.05-.62-2.05-.62h-2.57v.56h.57c1.74,0,2.01,1.14,2.01,2.88v15.43h2.57v-10.95c.74-.78,1.74-1.48,2.88-1.48.81,0,1.58.29,2.18.83.56.62.96,1.62.96,3.01v8.59h2.57v-8.59c0-2.05-.61-3.36-1.53-4.14Z"/>
  <path class="cls-1" d="m221.39,54.34c-.85,0-1.69.07-2.53.22-.79.18-1.44.44-1.79.79-.7.7-.7,1.57-.7,2.57h1.31c.39-1.88,1.53-2.44,3.14-2.44.82-.03,1.6.31,2.14.93.52.74.87,2.01.87,3.97h-.87c-1.97,0-3.75.22-5.1.83s-2.18,1.61-2.18,3.18.65,2.57,1.48,3.18c.79.53,1.71.82,2.66.83,2.18,0,3.39-.87,4.01-1.61h.13l1,1.31h1.44v-7.72c0-2.57-.62-4.1-1.54-4.97s-2.21-1.05-3.47-1.05Zm2.44,11.03c-.62.87-1.35,1.7-2.75,1.7-1.4.09-2.62-.98-2.71-2.38,0-.11,0-.21,0-.32,0-1.74,1.7-2.88,4.58-2.88h.87v3.88Z"/>
  <path class="cls-1" d="m238.66,49.19h-2.57v.56h.62c1.7,0,1.96,1.14,1.96,2.88v2.57c-1.1-.58-2.33-.88-3.58-.87-1.61-.06-3.15.71-4.05,2.05-.93,1.26-1.35,3.01-1.35,4.97s.44,3.66,1.26,4.94c.85,1.31,2.31,2.1,3.88,2.09.89.03,1.77-.15,2.57-.52.49-.27.92-.64,1.26-1.09h.17l1,1.31h1.44v-15.43c0-1.4-.13-2.31-.52-2.84s-1.09-.62-2.09-.62Zm0,16.31c-.26.46-.62.86-1.05,1.18-.57.38-1.24.56-1.92.52-1.18,0-1.96-.65-2.49-1.7-.62-1.05-.83-2.53-.83-4.14s.26-3.14.83-4.19c.51-1.05,1.58-1.72,2.75-1.7.87,0,1.83.44,2.7.87v9.16Z"/>
  <path class="cls-1" d="m250.17,54.34c-.85,0-1.69.07-2.53.22-.78.18-1.44.44-1.79.79-.7.7-.7,1.57-.7,2.57h1.31c.39-1.88,1.52-2.44,3.14-2.44.82-.03,1.6.31,2.14.93.52.74.87,2.01.87,3.97h-.87c-1.96,0-3.75.22-5.1.83s-2.18,1.61-2.18,3.18.65,2.57,1.48,3.18c.79.53,1.71.82,2.66.83,2.18,0,3.39-.87,4.01-1.61h.13l1,1.31h1.44v-7.72c0-2.57-.62-4.1-1.53-4.97s-2.22-1.05-3.49-1.05Zm2.44,11.03c-.62.87-1.35,1.7-2.75,1.7-.68.02-1.35-.22-1.88-.66-.55-.54-.85-1.28-.83-2.05,0-1.74,1.7-2.88,4.58-2.88h.87v3.88Z"/>
  <path class="cls-1" d="m269.23,55.34c-.93-.79-2.09-1-3.36-1-1.37,0-2.7.51-3.7,1.44h-.13c-.31-.7-.96-1.13-2.44-1.13h-2.57v.57h.57c1.74,0,2.01,1.13,2.01,2.83v10.03h2.57v-10.94c.74-.79,1.7-1.48,2.88-1.48.81-.01,1.59.29,2.18.83.57.62.96,1.61.96,3.01v8.59h2.57v-8.59c0-2.05-.62-3.36-1.53-4.14Z"/>
</svg>