<?xml version="1.0" encoding="UTF-8"?>
<svg id="Layer_1" data-name="Layer 1" xmlns="http://www.w3.org/2000/svg" viewBox="0 0 512 123">
  <defs>
    <style>
      .cls-1 {
        fill: #026a72;
      }

      .cls-1, .cls-2, .cls-3, .cls-4, .cls-5, .cls-6, .cls-7, .cls-8, .cls-9, .cls-10, .cls-11, .cls-12, .cls-13, .cls-14 {
        stroke-width: 0px;
      }

      .cls-2 {
        fill: #0c6d74;
      }

      .cls-3 {
        fill: #0a6e76;
      }

      .cls-4 {
        fill: #1c767d;
      }

      .cls-5 {
        fill: #066a72;
      }

      .cls-6 {
        fill: #0e7077;
      }

      .cls-7 {
        fill: #0c6f76;
      }

      .cls-8 {
        fill: #0f7078;
      }

      .cls-9 {
        fill: #076c73;
      }

      .cls-10 {
        fill: #12737a;
      }

      .cls-11 {
        fill: #af8d48;
      }

      .cls-12 {
        fill: #107278;
      }

      .cls-13 {
        fill: #137379;
      }

      .cls-14 {
        fill: #0b6d75;
      }
    </style>
  </defs>
  <path class="cls-1" d="m276.57,55.11c0,3.08-.05,6.15.01,9.22.05,2.5-.76,4.67-2.23,6.62-2.21,2.93-5.14,4.96-8.5,6.29-9.31,3.69-17.95,2.45-25.76-3.85-2.27-1.83-3.87-4.18-4.38-7.13-.11-.62-.14-1.25-.14-1.88-.01-6.42,0-12.84,0-19.26,0-.25,0-.5.05-.74.13-.71.67-1.15,1.37-1.16.69,0,1.25.44,1.38,1.14.05.28.05.58.05.87,0,6.31.03,12.61-.02,18.92-.02,2.07.63,3.83,1.91,5.39,2.27,2.79,5.24,4.56,8.6,5.66,7.74,2.53,14.84,1.23,21.2-3.84,1.75-1.39,3.08-3.15,3.54-5.42.1-.48.12-.98.12-1.47,0-6.42,0-12.84,0-19.26,0-.22-.01-.45.01-.67.09-.83.71-1.37,1.5-1.32.76.04,1.29.61,1.3,1.44,0,3.48,0,6.96,0,10.44Z"/>
  <path class="cls-1" d="m243.73,42.44c0,7.76,0,15.52,0,23.29,0,.22.01.45-.02.67-.07.48-.36.77-.84.81-.52.05-.86-.23-1-.71-.06-.21-.04-.44-.04-.67,0-15.66,0-31.32,0-46.97,0-.2-.02-.41.03-.6.13-.49.45-.78.97-.75.52.03.82.33.88.84.03.22.01.45.01.67,0,7.81,0,15.61,0,23.42Z"/>
  <path class="cls-1" d="m268.46,42.38c0-7.79,0-15.57,0-23.36,0-.22-.02-.45.01-.67.07-.51.37-.82.89-.84.56-.02.88.29.98.82.04.2.02.4.02.6,0,15.62,0,31.23,0,46.85,0,.2.02.41-.01.6-.09.53-.41.86-.96.84-.55-.01-.86-.34-.92-.88-.02-.2,0-.4,0-.61,0-7.79,0-15.57,0-23.36Z"/>
  <path class="cls-14" d="m281.38,93.73c-.53-2.01-.01-3.36,1.46-3.87,1.44-.49,2.91.14,3.48,1.55-.34.14-.68.28-1.06.44-.29-.75-.82-1.09-1.58-1.02-.63.05-1.09.38-1.35.97-.44,1.03.17,1.97,1.28,1.97,1.45,0,2.91,0,4.3,0,.05-.57.02-1.1.16-1.57.46-1.52,2.21-2.28,3.72-1.66,1.43.59,2.08,2.24,1.44,3.64-.66,1.44-2.51,2.09-3.87,1.22-.63-.4-1.24-.42-1.9-.42-9.15,0-18.3,0-27.46,0-.13,0-.27-.01-.56-.03.07-1.1.04-2.19.22-3.26.15-.87.81-1.5,1.67-1.67,1.13-.23,2.29-.31,3.51-.46v4.17h16.52Zm9.31-2.28c-.87.01-1.57.73-1.57,1.6,0,.89.77,1.64,1.65,1.6.87-.03,1.56-.77,1.53-1.65-.02-.88-.74-1.57-1.61-1.56Zm-27.09,2.3v-2.53c-2.35-.35-3.23.45-2.77,2.53h2.77Z"/>
  <path class="cls-2" d="m213.33,97.06v-1.23c.4,0,.77,0,1.15,0,1.07-.02,1.6-.55,1.61-1.63.01-1.41,0-2.82,0-4.28h1.24v3.82h17.42c-.44-1.03-.48-2.02.18-2.95.44-.62,1.06-.97,1.8-1.06,1.09-.13,2.11.17,2.62,1.13.44.83.53,1.84.81,2.86h1.32v-6.85h1.23v8.11c-.67,0-1.33,0-1.99,0-7.63,0-15.25,0-22.88,0-.22,0-.56.13-.63.29-.53,1.31-1.53,1.81-2.88,1.77-.31,0-.62,0-1.01,0Zm25.33-3.28c0-.6.04-1.13-.01-1.65-.07-.67-.61-1.16-1.28-1.28-.64-.11-1.31.22-1.63.81-.33.59-.26,1.33.19,1.8.14.15.36.3.56.31.71.04,1.41.01,2.17.01Z"/>
  <path class="cls-1" d="m255.15,57.04c0-5,0-10.01,0-15.01,0-.29-.03-.67.13-.83.25-.25.67-.51.98-.48.28.03.55.43.75.72.1.16.04.44.04.66,0,9.98,0,19.97,0,29.95,0,.13,0,.27,0,.4-.03.62-.39,1.02-.92,1.04-.55.02-.97-.4-.98-1.05-.01-1.73,0-3.45,0-5.18,0-3.41,0-6.82,0-10.23Z"/>
  <path class="cls-1" d="m250.71,57.65c0-4.64,0-9.29,0-13.93,0-.32.02-.73.21-.94.2-.22.64-.4.92-.34.28.06.54.4.72.68.1.16.04.44.04.66,0,9.26,0,18.53,0,27.79,0,.04,0,.09,0,.13,0,.82-.36,1.27-.97,1.25-.59-.02-.92-.46-.92-1.24,0-4.69,0-9.37,0-14.06Z"/>
  <path class="cls-1" d="m259.59,57.65c0-4.62,0-9.24,0-13.86,0-.22-.02-.46.03-.67.11-.47.43-.74.91-.74.51,0,.84.28.94.79.04.2.02.4.02.6,0,9.26,0,18.52,0,27.79,0,.04,0,.09,0,.13,0,.82-.36,1.27-.97,1.25-.59-.02-.92-.45-.92-1.24,0-4.69,0-9.37,0-14.06Z"/>
  <path class="cls-9" d="m254.13,29.03c-.72.17-1.44.33-2.14.52-.45.13-.83.08-1-.39-.18-.51.11-.81.59-.94.84-.22,1.69-.42,2.65-.65-.35-.21-.63-.4-.92-.55-.44-.24-.68-.58-.41-1.04.27-.47.69-.41,1.11-.16.42.25.84.51,1.39.84,0-.41-.01-.73,0-1.04.02-.45.27-.79.71-.68.26.06.52.41.63.69.11.26.02.6.02,1.03.51-.31.93-.55,1.34-.8.42-.26.87-.38,1.17.12.3.51-.01.83-.45,1.08-.25.14-.49.3-.88.53.8.18,1.46.33,2.11.48.24.06.48.13.71.22.4.15.62.49.41.84-.14.24-.57.48-.83.44-.79-.11-1.56-.35-2.51-.58.64.9,1.18,1.64,1.7,2.39.27.39.35.81-.11,1.11-.43.28-.76.07-1.02-.31-.48-.68-.98-1.36-1.47-2.04-.06.02-.11.04-.17.06,0,1,0,2,0,2.99,0,.2,0,.4,0,.61-.02.42-.23.69-.66.7-.47,0-.7-.28-.71-.72-.01-.99,0-1.97,0-2.96,0-.22,0-.43-.14-.71-.48.66-.96,1.32-1.43,1.98-.29.41-.61.72-1.11.37-.49-.34-.32-.77-.03-1.17.51-.71,1.01-1.41,1.51-2.12-.03-.05-.05-.09-.08-.14Z"/>
  <path class="cls-5" d="m248.17,60.53c0,3.05,0,6.1,0,9.15,0,.2.01.41-.02.6-.07.48-.38.77-.85.81-.52.04-.86-.24-.99-.73-.06-.21-.04-.45-.04-.67,0-6.15,0-12.3,0-18.44,0-.2-.02-.41.02-.6.11-.53.44-.84.99-.8.52.03.82.34.87.86.02.2.01.4.01.61,0,3.07,0,6.15,0,9.22Z"/>
  <path class="cls-1" d="m264.03,60.48c0-3.1,0-6.19,0-9.29,0-.2-.02-.41.03-.6.11-.46.42-.75.91-.75.52,0,.84.28.94.78.03.15.02.31.02.47,0,6.24,0,12.48,0,18.71,0,.16.01.32-.01.47-.09.51-.41.81-.92.82-.51,0-.84-.29-.94-.79-.04-.19-.02-.4-.02-.6,0-3.07,0-6.15,0-9.22Z"/>
  <path class="cls-14" d="m307.46,94.97h-13.08v-8.08h1.19v6.85h10.71c0-.36,0-.69,0-1.02-.04-1-.56-1.53-1.56-1.55-1.19-.02-2.38,0-3.57,0-.15,0-.31-.02-.5-.03v-1.23c1.53,0,3.03-.08,4.52.02,1.3.09,2.17,1.04,2.28,2.34.07.87.01,1.74.01,2.7Z"/>
  <path class="cls-11" d="m258.1,36.35c.82.3,1.44.54,2.07.77.45.17.78.44.58.96-.2.51-.61.51-1.07.34-1.03-.39-2.05-.79-3.1-1.13-.29-.1-.67-.1-.96,0-1.04.34-2.07.74-3.1,1.13-.46.18-.87.16-1.07-.34-.2-.51.13-.79.57-.96.62-.23,1.25-.46,2.06-.76-1.28-.48-2.37-.89-3.47-1.3-.23-.09-.46-.17-.7-.25-.47-.16-.86-.41-.66-.97.2-.56.67-.5,1.13-.33,1.26.47,2.57.84,3.78,1.42,1.34.64,2.55.63,3.89,0,1.19-.56,2.47-.93,3.71-1.39.47-.18.96-.3,1.18.32.19.56-.22.79-.68.96-1.33.48-2.65.98-4.16,1.54Z"/>
  <path class="cls-7" d="m207.36,94.01c-.49-3.12.92-4.38,4.6-4.12v1.26c-.58,0-1.17,0-1.77,0-1.03.01-1.42.41-1.47,1.56.6,0,1.2,0,1.8,0,1.44.02,2.35.74,2.43,1.9.07,1.15-.88,2.28-2.19,2.38-1.34.1-2.69.09-4.03,0-1.18-.08-2.02-1-2.18-2.21-.06-.48-.01-.97-.01-1.5h1.24c0,.35-.02.7,0,1.05.06.96.58,1.48,1.54,1.5.99.02,1.97.01,2.96,0,.24,0,.5-.03.73-.12.47-.18.73-.53.64-1.05-.08-.48-.45-.65-.89-.65-1.14,0-2.27,0-3.4,0Z"/>
  <path class="cls-14" d="m248.23,97.03h-1.11c-.2-1.45.37-2.41,1.92-3.23-.02-.09-.04-.2-.06-.3-.18-1.33.45-2.51,1.59-2.96,1.24-.49,2.69-.07,3.42,1.01.69,1.02.61,2.38-.21,3.31-.85.96-2.3,1.21-3.45.6-.37-.2-.75-.71-1.18-.29-.38.36-.6.89-.86,1.37-.07.13-.04.31-.07.52Zm5.03-3.99c0-.89-.7-1.59-1.57-1.59-.91,0-1.61.72-1.59,1.64.02.88.74,1.58,1.6,1.56.87-.02,1.56-.74,1.56-1.62Z"/>
  <path class="cls-8" d="m215.04,104.82h-.88v-2.44c-.06-.02-.11-.04-.17-.05-.48.79-.96,1.58-1.49,2.44-.54-.87-1.03-1.68-1.53-2.49-.04,0-.08.02-.12.02v2.52h-.9v-5.19c.27.27.47.4.59.59.65.99,1.28,2,1.94,3.05.88-1.17,1.49-2.46,2.37-3.54.06.03.12.06.18.09v5.01Z"/>
  <path class="cls-14" d="m220.68,102.27c-.24.4-.48.8-.72,1.2-.24.4-.48.8-.79,1.29-.54-.88-1.03-1.69-1.52-2.49-.04.01-.08.02-.12.03v2.49h-.92v-5.08c.75.4.93,1.13,1.32,1.67.42.58.78,1.2,1.23,1.92.43-.68.79-1.31,1.22-1.9.4-.55.58-1.28,1.33-1.7v5.1h-.89v-2.5l-.15-.04Z"/>
  <path class="cls-3" d="m243.2,104.5c.36.09.66.16.99.24-.09.25-.16.48-.24.69-.07.03-.11.07-.14.06-1.07-.38-2.22-.47-3.3-.79-1.45-.42-2.03-2.19-1.34-3.55.7-1.36,2.49-1.84,3.82-1.02,1.3.8,1.64,2.54.72,3.75-.14.19-.31.37-.51.61Zm-1.65-.46c.96,0,1.73-.74,1.74-1.68,0-.97-.79-1.75-1.76-1.73-.95.02-1.71.79-1.71,1.73,0,.94.78,1.69,1.73,1.69Z"/>
  <path class="cls-13" d="m273.22,104.97c-.97-1.03-1.94-2.05-3.04-3.21v3.05h-.93v-4.98c.05-.03.1-.07.15-.1.97,1.03,1.94,2.06,3.03,3.22v-3.08h.93v5.02s-.09.06-.14.08Z"/>
  <path class="cls-6" d="m251.76,102.94v1.85h-.91v-4.96c.51,0,1.02,0,1.53,0,.92.02,1.58.42,1.82,1.12.24.69,0,1.26-.82,1.91.41.62.83,1.25,1.26,1.9-.69.22-1.14.09-1.38-.57-.11-.29-.32-.54-.44-.83-.2-.5-.55-.59-1.05-.42Zm.03-2.41v1.91c.56-.22,1.03-.34,1.43-.6.12-.08.1-.67-.03-.76-.39-.25-.87-.36-1.4-.56Z"/>
  <path class="cls-8" d="m289.92,102.85c.43.65.83,1.27,1.26,1.93-.64.18-1.11.13-1.36-.55-.11-.29-.33-.54-.44-.83-.19-.49-.53-.63-1.07-.47v1.88h-.93v-4.94c.68,0,1.33-.05,1.97.01.73.08,1.26.5,1.44,1.23.19.76-.18,1.3-.87,1.74Zm-1.61-.61c.55,0,1.14.2,1.46-.39.11-.2.08-.6-.05-.79-.34-.5-.88-.39-1.41-.32v1.51Z"/>
  <path class="cls-10" d="m243.61,86.88h1.2v8.07h-1.2v-8.07Z"/>
  <path class="cls-3" d="m263.86,99.87h.9c0,.88,0,1.72,0,2.57,0,.22,0,.45.02.67.08.59.43.93,1.03.94.55.01.98-.42,1.01-1.05.03-.76.01-1.52.01-2.28,0-.27,0-.53,0-.84h.83c0,1.23.1,2.48-.03,3.7-.1.92-1.04,1.43-2.03,1.36-.92-.07-1.67-.72-1.73-1.66-.07-1.11-.02-2.23-.02-3.41Z"/>
  <path class="cls-3" d="m207.54,99.87h.92c0,1.12.05,2.22-.01,3.31-.06,1.07-.87,1.76-1.92,1.77-1.07.01-1.87-.71-1.99-1.78-.01-.13-.01-.27-.01-.4,0-.94,0-1.88,0-2.87h.94c0,.99,0,1.96,0,2.94,0,.71.35,1.14.91,1.21.65.08,1.14-.38,1.16-1.16.02-.98,0-1.97,0-3.01Z"/>
  <path class="cls-9" d="m256.69,94.97h-1.16v-8.07h1.16v8.07Z"/>
  <path class="cls-6" d="m248.43,99.86h.85c0,1.25.11,2.5-.03,3.72-.11.95-1.09,1.46-2.1,1.36-.9-.09-1.65-.79-1.69-1.72-.05-1.09-.01-2.19-.01-3.34h.93c0,1.02-.01,2.02,0,3.02,0,.66.36,1.08.91,1.14.63.07,1.12-.38,1.14-1.11.02-1,0-2.01,0-3.08Z"/>
  <path class="cls-6" d="m283.86,102.67v1.3h2.11v.83h-3.03v-4.92h3.02v.84h-2.1v1.17h1.79v.78h-1.79Z"/>
  <path class="cls-3" d="m225.29,104.8c.74-1.63,1.44-3.19,2.16-4.75.05-.11.27-.27.33-.24.16.08.31.23.39.39.7,1.5,1.38,3.01,2.09,4.57-.5.09-.98.29-1.19-.4,0-.02-.02-.06-.03-.06-.84,0-1.75-.19-2.5.08-.52.19-.42.47-1.24.4Zm3.37-1.38c-.3-.67-.56-1.27-.88-2-.32.74-.59,1.34-.88,2h1.76Z"/>
  <path class="cls-3" d="m260.35,104.81c-.56.04-1.05.21-1.23-.46-.02-.08-.16-.19-.24-.19-.69-.01-1.39-.01-2.08,0-.08,0-.16.13-.22.22q-.36.53-1.19.39c.72-1.58,1.42-3.14,2.15-4.7.19-.41.47-.41.66.01.71,1.54,1.41,3.09,2.16,4.73Zm-1.61-1.39c-.3-.68-.56-1.27-.89-2-.33.75-.59,1.35-.87,2h1.76Z"/>
  <path class="cls-6" d="m295.39,100.65c-.19.17-.34.31-.4.36-.47-.14-.86-.32-1.25-.33-.19,0-.46.27-.54.48-.04.11.21.42.39.52.4.23.86.37,1.28.59.48.26.78.67.73,1.26-.05.57-.38.94-.88,1.18-.96.46-2.1.16-2.67-.73.14-.15.29-.31.36-.38.58.16,1.06.36,1.56.4.21.02.58-.26.63-.46.04-.18-.21-.5-.42-.65-.28-.2-.65-.29-.97-.45-.77-.36-1.1-.88-.96-1.51.14-.64.73-1.1,1.48-1.15.7-.05,1.28.15,1.66.86Z"/>
  <path class="cls-8" d="m279.36,103.22c.42-.96.81-1.78,1.13-2.63.23-.62.55-.94,1.31-.68-.27.62-.54,1.24-.82,1.86-.42.94-.85,1.88-1.27,2.82-.18.4-.45.5-.65.07-.73-1.56-1.42-3.13-2.14-4.74.65-.19,1.04-.08,1.27.58.31.88.73,1.72,1.17,2.73Z"/>
  <path class="cls-3" d="m301.14,100.71v4.08h-.92v-4.05h-1.31v-.86h3.55c.01.23.02.49.04.83h-1.35Z"/>
  <path class="cls-12" d="m307.45,99.92c-.85,1.55-2.16,2.92-1.57,4.9h-1.09c.59-1.98-.69-3.36-1.56-4.91.67-.19,1.12-.09,1.39.56.17.4.44.76.72,1.23.26-.43.51-.77.68-1.15.27-.6.66-.87,1.42-.62Z"/>
  <path class="cls-6" d="m232.28,103.97h2.21v.83h-3.1v-4.92h.89v4.09Z"/>
  <path class="cls-10" d="m275.8,104.82h-.87v-4.94h.87v4.94Z"/>
  <path class="cls-12" d="m296.81,104.82v-4.93h.85v4.93h-.85Z"/>
  <path class="cls-4" d="m256.96,86.53h-1.74c.03-.59.19-1.08.66-1.41.35-.25.67-.12,1.19.44-.39.06-.7.11-1.02.17.16.49,1.17-.18.91.8Z"/>
  <path class="cls-4" d="m235.35,102.74v-.7h2.51c.02.22.03.43.05.7h-2.56Z"/>
  <path class="cls-13" d="m235.92,89.06c-.18-.26-.5-.54-.48-.78.02-.22.43-.59.64-.57.26.03.65.36.68.61.03.22-.34.5-.53.75-.1,0-.2,0-.31,0Z"/>
  <path class="cls-10" d="m261.01,87.51c.33.45.69.73.66.95-.03.25-.42.62-.66.62-.23,0-.62-.37-.66-.61-.03-.22.32-.5.65-.95Z"/>
  <path class="cls-8" d="m238.06,89.06c-.19-.25-.49-.49-.53-.76-.06-.41.29-.7.68-.61.26.06.62.37.63.59.02.25-.3.52-.47.78-.1,0-.21,0-.31,0Z"/>
  <path class="cls-13" d="m262.94,89.22c-.17-.27-.51-.57-.47-.79.05-.24.45-.55.71-.56.2-.01.59.39.59.61,0,.25-.34.5-.53.76-.1,0-.2,0-.3-.01Z"/>
  <path class="cls-6" d="m303.12,95.35c.17.26.46.51.48.79.04.42-.32.68-.71.57-.25-.07-.6-.4-.6-.62,0-.25.33-.5.52-.75.1,0,.21,0,.31,0Z"/>
</svg>