<?xml version="1.0" encoding="UTF-8"?>
<svg id="Layer_1" data-name="Layer 1" xmlns="http://www.w3.org/2000/svg" viewBox="0 0 512 123">
  <defs>
    <style>
      .cls-1 {
        fill: #1a4687;
      }

      .cls-1, .cls-2 {
        stroke-width: 0px;
      }

      .cls-2 {
        fill: #1aaebc;
      }
    </style>
  </defs>
  <g>
    <path class="cls-1" d="m228.67,63.55c0,.43-.02.72,0,1.01.06.89.62,1.5,1.5,1.63.26.04.54.02.8.02,3.65,0,7.29,0,10.94,0,.32,0,.64,0,1.03,0v2.64c-.19.03-.39.08-.6.08-3.91,0-7.83.02-11.74,0-2.19-.02-3.95-1.39-4.51-3.45-.09-.33-.14-.69-.15-1.03-.02-1.05-.02-2.09-.02-3.14,0-.15.05-.31.09-.53h5.56c.02-.35.05-.63.06-.92.02-.62-.03-1.24.05-1.85.32-2.33,2.07-4.01,4.45-4.12,2.19-.1,4.4-.01,6.59,0,.05,0,.1.04.22.08v2.67c-.31,0-.6,0-.88,0-1.9,0-3.81,0-5.71,0-1.34,0-1.92.58-1.93,1.9,0,.69,0,1.39,0,2.06.66.19,9.39.23,10.39.05.01-.27.03-.55.04-.84.02-.56,0-1.13.06-1.68.29-2.32,1.79-3.95,4.09-4.17,1.77-.17,3.58-.03,5.47-.03.09.74.03,1.48.04,2.22.01.75,0,1.5,0,2.25v2.21c.7.18,10.62.21,11.52.04,0-.91.06-1.85-.02-2.77-.06-.7-.73-1.18-1.49-1.22-.53-.03-1.07-.01-1.61-.01-1.5,0-3,0-4.5,0-.26,0-.53,0-.85,0-.13-.93-.04-1.8-.06-2.71.28-.03.48-.07.69-.07,1.96,0,3.91-.02,5.87,0,2.47.04,4.4,1.69,4.75,4.07.09.63.04,1.28.06,1.93,0,.26.03.52.05.83h2.86c.15-2.23-.01-4.47.09-6.77h2.73c.06,2.26-.01,4.49.04,6.79.59,0,1.1.06,1.59-.02.66-.1,1.11-.52,1.27-1.19.07-.31.09-.64.09-.95,0-2.63,0-5.26,0-7.88,0-.32,0-.63,0-1.01h2.68c.02.29.05.55.05.8,0,2.74-.05,5.47.02,8.21.06,2.42-1.93,4.88-4.76,4.8-.11,0-.21,0-.32,0-15.15.02-30.3.04-45.45.05-.34,0-.69,0-1.15,0Zm23.04-6.87c-.96,0-1.84-.05-2.71.02-.63.05-1.06.48-1.27,1.09-.16.46-.12,2.39.08,2.96,1.28.02,2.58.05,3.91-.02v-4.05Z"/>
    <path class="cls-1" d="m286.06,49.68v13.81h-2.69v-13.81h2.69Z"/>
    <path class="cls-1" d="m276.21,52.31h-2.65v-2.67h2.65v2.67Z"/>
    <path class="cls-1" d="m265.93,67.92h-2.65c-.18-.88-.06-1.74-.07-2.66h2.72v2.66Z"/>
    <path class="cls-1" d="m269.27,52.29v-2.64c.87-.12,1.71-.06,2.62-.03v2.67h-2.62Z"/>
  </g>
  <g>
    <path class="cls-1" d="m257.96,80.51h2.94c.06-1.34.02-2.67.03-4,0-1.31,0-2.61,0-3.97h2.71c.04.33.08.66.13,1.09.28.02.57.04.85.04,1.74,0,3.49-.02,5.23,0,2.2.03,4,1.37,4.56,3.4.15.53.18,1.11.21,1.67.03.56,0,1.12,0,1.77.6,0,1.14.07,1.64-.02.65-.11,1.11-.54,1.24-1.22.06-.31.08-.64.08-.96,0-2.6,0-5.2,0-7.81,0-.32,0-.64,0-1.07.91-.12,1.76-.09,2.73-.01v.92c0,2.68,0,5.36,0,8.05,0,2.84-1.88,4.79-4.74,4.93-.27.01-.54,0-.8,0-9.06,0-18.13,0-27.19,0-1.93,0-3.86,0-5.79.01-.29,0-.57,0-.97,0v-6.87c-.61,0-1.12-.06-1.61.01-.82.12-1.33.79-1.34,1.75-.02,1.37,0,2.74,0,4.1,0,.29,0,.58,0,.92-.27.03-.48.08-.68.08-2.15,0-4.29.02-6.44,0-2.27-.03-4.04-1.34-4.64-3.41-.1-.36-.17-.74-.18-1.11-.02-1.2,0-2.4,0-3.7,1.89-.02,3.72-.05,5.59.04v2.72h-2.74c-.19.85-.22,1.59.39,2.16.27.25.69.48,1.05.49,1.53.05,3.06.02,4.58.02.07,0,.15-.05.34-.11,0-.68.01-1.4,0-2.11,0-1.31.5-2.4,1.41-3.31.84-.83,1.86-1.28,3.02-1.33,1.2-.05,2.41-.01,3.62-.01.1,0,.2.05.39.09v6.61c.7.21,10.77.23,11.6.04.07-.88.13-1.79-.03-2.68-.14-.77-.73-1.24-1.54-1.29-.59-.03-1.18-.01-1.77-.01-1.45,0-2.9,0-4.34,0-.26,0-.53,0-.83,0-.18-.91-.04-1.76-.1-2.69.31-.03.56-.08.82-.08,1.9,0,3.81,0,5.71,0,3.26,0,5,2.66,4.86,4.88-.04.61,0,1.23,0,1.95Zm13.89.01c0-.78-.05-1.47.01-2.16.09-1.03-.65-1.96-1.94-1.93-1.82.05-3.64,0-5.46.01-.23,0-.46.04-.74.07,0,1.37-.04,2.67.02,4h8.1Z"/>
    <path class="cls-1" d="m286.02,83.31h-2.57c-.18-.69-.2-13.09-.01-13.86h2.51c.17.57.23,12.58.07,13.86Z"/>
    <path class="cls-1" d="m237.09,87.59h-2.67v-2.65c.87-.1,1.74-.05,2.67-.03v2.68Z"/>
    <path class="cls-1" d="m232.8,84.94v2.61c-.86.16-1.69.07-2.6.06-.18-.89-.07-1.75-.07-2.67h2.68Z"/>
  </g>
  <g>
    <path class="cls-1" d="m214.76,102.87c-.01.28-.04.56-.04.84,0,.67,0,1.34-.01,2.01-.01.41-.03.41-.58.44v-4.35h1.09c.39.97.78,1.95,1.17,2.93.06,0,.12,0,.18,0,.38-.96.75-1.92,1.14-2.91h1.09v4.31c-.44.17-.58-.01-.58-.39,0-.72,0-1.45,0-2.17,0-.25-.02-.51-.18-.8-.09.2-.2.4-.28.61-.3.8-.57,1.62-.89,2.41-.07.17-.27.28-.41.41-.14-.14-.33-.26-.4-.43-.29-.72-.54-1.46-.81-2.19-.09-.25-.19-.49-.29-.73h-.2Z"/>
    <path class="cls-1" d="m241.05,104.24v1.88c-.47.16-.71.08-.71-.38,0-1.28,0-2.56,0-3.91.26-.01.45-.02.72-.04v1.71h2.19c.02-.44.03-.86.06-1.28.03-.39.04-.38.63-.38.02.23.06.46.06.69,0,.96,0,1.93,0,2.89,0,.03,0,.05,0,.08-.05.26.13.68-.33.68-.52,0-.33-.44-.37-.72-.03-.24,0-.48-.02-.72-.01-.15-.06-.31-.1-.51h-2.14Z"/>
    <path class="cls-1" d="m279.47,105.21c.17.14.31.26.45.37-.78.95-2.21,1.03-3.16.2-.96-.83-1.02-2.56-.11-3.48.86-.88,2.32-.88,3.16.01-.14.11-.28.23-.41.33-1.04-.52-1.81-.42-2.31.28-.49.68-.43,1.71.14,2.3.57.59,1.27.6,2.23-.01Z"/>
    <path class="cls-1" d="m227.47,101.51h.69v2.78c.5-.1.68-.45.91-.71.28-.32.59-.43,1.09-.29-.38.44-.73.84-1.12,1.29.41.51.8,1,1.23,1.53-.51.18-.84.1-1.11-.29-.24-.34-.52-.66-.78-.98-.06.01-.12.03-.17.04-.02.4-.05.81-.08,1.24-.32.1-.65.17-.65-.27-.03-1.44-.01-2.87-.01-4.35Z"/>
    <path class="cls-1" d="m225.3,104.59c.42.52.8.99,1.22,1.51-.48.22-.8.14-1.08-.24-.25-.34-.52-.66-.83-1.05-.25.36-.15.69-.17.99-.03.42-.25.49-.65.35v-4.63h.66v2.78c.77-.22.92-1.34,1.96-.98-.36.42-.7.81-1.1,1.27Z"/>
    <path class="cls-1" d="m257.22,101.48c.28.02.44.02.67.04v1.92c.31-.11.52-.21.74-.26.66-.15,1.2.2,1.26.87.05.58.04,1.18.02,1.76,0,.32-.04.32-.63.34,0-.29,0-.57,0-.86,0-1.16-.14-1.5-.62-1.52-.56-.03-.75.34-.75,1.49,0,.19.04.39-.02.56-.05.15-.18.34-.31.37-.27.07-.36-.13-.36-.39,0-1.41,0-2.83,0-4.33Z"/>
    <path class="cls-1" d="m234.88,106.12v-4.6c.19,0,.37-.02.63-.03v1.95c.29-.11.48-.19.66-.24.73-.2,1.3.17,1.35.92.04.56.01,1.12.01,1.68,0,.36-.18.48-.63.31,0-.3,0-.64,0-.98,0-.27,0-.54-.05-.8-.06-.35-.26-.59-.66-.56-.37.03-.61.23-.64.6-.04.45-.02.91-.04,1.36-.01.43-.21.58-.65.37Z"/>
    <path class="cls-1" d="m285.36,106.26c-.6-.35-1.11-.03-1.64,0-.64.04-1-.33-1.05-1.05-.04-.61,0-1.22,0-1.9.24-.02.43-.03.7-.05,0,.57-.01,1.07,0,1.58.02.58.24.85.64.84.41,0,.68-.3.7-.82.03-.5,0-1.01,0-1.56.24-.02.41-.03.65-.04v3Z"/>
    <path class="cls-1" d="m247.88,104.96h-2.12c.19.77.56.97,1.23.69.29-.12.53-.29.75.07-.5.61-1.37.75-2.05.33-.65-.41-.9-1.25-.58-1.97.32-.73,1.17-1.1,1.94-.85.69.22.97.78.83,1.74Zm-.54-.56c-.32-.67-.49-.8-.93-.74-.4.06-.67.25-.66.74h1.59Z"/>
    <path class="cls-1" d="m295.03,104.96h-2.2c.17.8.56,1,1.29.66.32-.15.53-.23.68.15-.61.58-1.47.67-2.1.23-.58-.41-.81-1.26-.51-1.94.28-.66,1.07-1.04,1.8-.88.74.16,1.06.66,1.05,1.77Zm-2.24-.58c.58.1,1.08.21,1.57-.07-.07-.49-.37-.66-.79-.66-.42,0-.7.2-.78.73Z"/>
    <path class="cls-1" d="m273.48,104.96h-2.13c.23.79.57.95,1.27.69q.4-.15.72.09c-.55.6-1.42.72-2.08.28-.64-.43-.87-1.29-.53-2,.33-.68,1.16-1.04,1.91-.81.7.22.99.77.84,1.75Zm-2.16-.65c.53.24,1.04.22,1.57.01-.05-.45-.3-.65-.69-.68-.45-.03-.77.14-.89.66Z"/>
    <path class="cls-1" d="m220.11,103.7c.65-.59,1.45-.73,1.99-.36.18.12.38.35.42.55.14.76.11,1.52.01,2.39-.5-.26-.9-.22-1.32-.03-.18.08-.43.03-.63,0-.37-.07-.62-.31-.69-.69-.07-.37.11-.76.5-.92.29-.12.62-.16.93-.23.2-.04.41-.06.61-.08.05-.48-.22-.64-.57-.65-.23-.01-.47.09-.7.11-.15.01-.31-.04-.54-.08Zm1.76,1.12c-.33.05-.67.07-.97.17-.13.04-.28.28-.27.41.01.14.19.31.34.37.54.2.93-.18.91-.95Z"/>
    <path class="cls-1" d="m250.92,104.34c-.2-.64-.42-.77-1.01-.66-.24.04-.48.33-.72,0,.33-.47.87-.64,1.51-.48.57.14.8.39.83,1.02.03.64,0,1.28,0,1.98-.22-.02-.41.01-.5-.06-.19-.17-.32-.06-.5,0-.25.08-.52.14-.78.13-.51-.01-.86-.31-.92-.73-.06-.42.18-.81.66-.97.25-.08.52-.11.78-.16.18-.03.37-.04.63-.06Zm-.07.46c-.38.06-.69.08-.97.18-.14.05-.32.29-.29.39.05.16.23.35.4.41.52.16.86-.19.87-.97Z"/>
    <path class="cls-1" d="m233.56,106.21c-.44-.14-.87-.14-1.32.04-.16.06-.37.02-.55-.01-.37-.07-.62-.3-.7-.68-.07-.38.1-.76.48-.92.29-.12.61-.17.93-.23.2-.04.41-.05.62-.08-.13-.63-.36-.77-1.02-.63-.24.05-.49.31-.69-.07.54-.53,1.41-.66,1.95-.25.16.12.29.32.36.51.15.38.1,1.76-.06,2.34Zm-.54-1.4c-.38.05-.69.05-.97.16-.15.06-.34.31-.32.44.03.15.25.33.43.37.48.12.78-.19.86-.97Z"/>
    <path class="cls-1" d="m264.51,103.72c.63-.62,1.5-.76,2.04-.35.18.13.36.38.38.58.05.74.02,1.48.02,2.32-.54-.24-.97-.16-1.41-.01-.17.06-.38.02-.56-.02-.37-.08-.62-.3-.7-.69-.07-.38.1-.76.49-.92.29-.12.62-.17.93-.23.2-.04.41-.05.62-.08.06-.48-.22-.63-.56-.65-.23-.02-.47.09-.7.11-.15.01-.31-.03-.55-.06Zm1.8,1.08c-.41.07-.74.1-1.04.21-.12.04-.24.28-.24.43,0,.11.16.27.29.32.51.23.93-.12,1-.96Z"/>
    <path class="cls-1" d="m254.77,104.01c-.23-.21-.41-.37-.59-.53.17-.13.35-.27.59-.44.02-.15.05-.38.08-.6q.59-.09.73.7c.23.06.48.12.72.18.13.66-.45.37-.73.62v1.61c.25.09.49.17.77.27-.04.13-.03.31-.11.36-.62.36-1.34-.01-1.41-.73-.04-.4-.01-.8-.02-1.2,0-.11-.02-.21-.03-.24Z"/>
    <path class="cls-1" d="m288.5,103.69c-.18.04-.35.1-.53.1-.15,0-.32-.13-.45-.1-.16.03-.29.18-.44.28.11.13.19.31.33.38.23.12.51.14.76.24.32.13.51.37.51.74,0,.36-.15.61-.46.78-.52.29-1.32.19-1.85-.23.12-.28.26-.43.61-.24.19.1.45.13.68.11.11-.01.27-.2.29-.32.01-.11-.12-.29-.24-.35-.24-.11-.51-.16-.76-.24-.37-.12-.6-.37-.59-.76,0-.38.21-.65.56-.81.5-.23.97-.16,1.59.42Z"/>
    <path class="cls-1" d="m289.81,103.92c-.15-.06-.35-.07-.43-.17-.08-.11-.04-.3-.06-.46.57-.03.5-.51.57-.86q.52-.05.74.74c.21.04.44.08.68.13.13.63-.39.44-.69.57-.2.46-.14.97-.05,1.46.03.15.26.31.43.37.19.07.41.1.33.33-.04.12-.28.22-.43.24-.74.07-1.01-.18-1.05-.95-.01-.24,0-.48,0-.72,0-.21-.02-.42-.03-.67Z"/>
    <path class="cls-1" d="m263.55,105.93c-.87.53-1.75.43-2.26-.23-.47-.6-.43-1.51.09-2.06.55-.59,1.4-.63,2.19-.09-.14.27-.23.47-.64.32-.55-.2-.87-.06-1.11.32-.22.35-.23.71,0,1.05.27.41.67.55,1.11.37.35-.14.49,0,.64.32Z"/>
    <path class="cls-1" d="m252.74,106.16v-4.63c.21-.01.4-.02.67-.04,0,1.48,0,2.9,0,4.31,0,.46-.28.42-.67.36Z"/>
    <path class="cls-1" d="m280.9,106.13v-4.6c.16-.02.33-.04.54-.06.04.16.1.28.1.41,0,1.25.02,2.51,0,3.76,0,.54-.03.54-.64.49Z"/>
    <path class="cls-1" d="m297.87,103.72c-1.03.21-1.14.35-1.14,1.46,0,.32,0,.63,0,.95-.4.14-.68.13-.69-.3-.02-.83,0-1.66,0-2.5.16-.04.28-.11.35-.08.37.19.69.13,1.06-.04.38-.17.46-.04.42.51Z"/>
    <path class="cls-1" d="m269.93,103.74c-1,.17-1.16.35-1.17,1.32,0,.34,0,.69,0,1.05-.39.15-.64.15-.64-.29-.01-.83,0-1.65,0-2.5.15-.03.27-.1.34-.06.35.18.65.14,1-.03.37-.18.46-.06.47.52Z"/>
  </g>
  <g>
    <path class="cls-1" d="m277.67,90.52c.18.57-.03.71-.44.71-1.07,0-2.14,0-3.22,0-.35,0-.7,0-1.05,0-1.21,0-1.42.27-1.18,1.62.26.02.54.06.82.06,1.53,0,3.05,0,4.58,0,1.64,0,1.88.19,2.27,1.77.17.02.35.05.53.05.83,0,1.65,0,2.52,0,.04-.18.08-.3.1-.42.16-.96.58-1.37,1.53-1.42.5-.03,1,0,1.56,0v2.53h-27.02c0-.42-.04-.85,0-1.26.1-.72.62-1.18,1.37-1.23.29-.02.59-.01.88-.02.24,0,.48,0,.8,0,.04.59.07,1.14.1,1.67.61.19,15.86.22,16.69.05.13-.83,0-1.03-.82-1.03-1.88-.02-3.75,0-5.63,0-.32,0-.63,0-.97,0-.18-.76-.15-1.46-.06-2.14.08-.57.56-.92,1.23-.93,1.07-.02,2.14,0,3.22,0,.72,0,1.44,0,2.17,0Zm7.33,3.18c-.31-.02-.55-.05-.78-.04-.76.01-.89.18-.76,1.03.51.07,1.02.16,1.55-.07v-.92Zm-23.97.03c-1.48-.16-1.75.03-1.49.95h1.49v-.95Z"/>
    <path class="cls-1" d="m247.92,94.7h1.39c.06-.07.11-.1.12-.15.27-1.28.66-1.6,1.97-1.6.37,0,.74,0,1.17,0,.02.33.04.59.05.85,0,.26,0,.53,0,.86h1.4v-4.1h.68v4.91h-16.46c-.43,1.48-.69,1.74-1.74,1.74-.13-.29-.2-.56.24-.63.55-.09.67-.45.66-.93-.01-.75,0-1.49,0-2.23.66-.15.68-.14.71.36.02.26,0,.53,0,.78.6.2,7.9.26,8.91.08.19-.83.03-1.05-.85-1.05-1.93-.02-3.86,0-5.79,0-.32,0-.63,0-.97,0-.18-.76-.16-1.46-.06-2.14.09-.6.59-.93,1.31-.93,1.21-.01,2.41,0,3.62,0,.69,0,1.38,0,2.06,0,.12.66.11.7-.4.71-1.07.02-2.14,0-3.22,0-.62,0-1.23,0-1.85,0-.74.01-.89.16-.9.9,0,.21.03.42.06.72.31.02.59.06.87.06,1.8,0,3.59,0,5.39.01.82,0,1.33.4,1.5,1.07.05.2.07.42.12.71Zm2.35-.05h1.63c-.02-.36-.04-.63-.06-.89-1.37-.16-1.57-.05-1.57.89Z"/>
    <path class="cls-1" d="m229.31,92.95c.04.64.07,1.17.11,1.74h3.38c.4-1.63.64-1.81,2.33-1.8.26,0,.53,0,.88,0,.08.86.03,1.65.03,2.43-.59.2-8.69.24-9.74.06,0-.46-.06-.94.02-1.39.1-.58.51-.96,1.09-1.02.6-.06,1.21-.01,1.9-.01Zm-2.29,1.74h1.56v-.99c-.3-.01-.53-.04-.77-.03-.72.02-.81.13-.8,1.03Zm8.25-1c-.3-.02-.54-.04-.78-.04-.75.02-.89.2-.74,1.04h1.52v-1Z"/>
    <path class="cls-1" d="m255.79,90.6c.5-.18.6.07.6.46,0,1.15,0,2.3,0,3.45,0,.19,0,.37,0,.56,0,.38-.22.45-.54.35-.16-.57-.2-3.69-.06-4.83Z"/>
    <path class="cls-1" d="m261.09,92.01v-.58c.2-.03.4-.06.65-.09.02.24.04.44.06.68h-.71Z"/>
    <path class="cls-1" d="m260.65,91.39v.64c-.29,0-.62.21-.67-.28-.05-.47.28-.42.67-.36Z"/>
    <path class="cls-1" d="m226.47,91.39q.67,0,.67.61c-.19.02-.38.05-.62.08-.02-.24-.03-.44-.05-.69Z"/>
    <path class="cls-1" d="m227.61,92.13c-.02-.31-.03-.48-.04-.72.2-.01.42-.09.53-.01.11.07.19.39.13.45-.13.13-.35.17-.62.28Z"/>
  </g>
  <polygon class="cls-2" points="297.86 16.65 297.86 95.61 287.92 95.61 287.92 90.4 292.65 90.4 292.65 21.86 219.47 21.86 219.47 90.4 224.19 90.4 224.19 95.61 214.26 95.61 214.26 16.65 297.86 16.65"/>
</svg>