<?xml version="1.0" encoding="UTF-8"?>
<svg id="Layer_1" data-name="Layer 1" xmlns="http://www.w3.org/2000/svg" viewBox="0 0 512 123">
  <defs>
    <style>
      .cls-1 {
        fill: #936d2c;
      }

      .cls-1, .cls-2, .cls-3, .cls-4, .cls-5, .cls-6, .cls-7, .cls-8, .cls-9, .cls-10 {
        stroke-width: 0px;
      }

      .cls-2 {
        fill: #676767;
      }

      .cls-3 {
        fill: #c69836;
      }

      .cls-4 {
        fill: #060606;
      }

      .cls-5 {
        fill: #050505;
      }

      .cls-6 {
        fill: #0c0c0c;
      }

      .cls-7 {
        fill: #090909;
      }

      .cls-8 {
        fill: #0a0a0a;
      }

      .cls-9 {
        fill: #070707;
      }

      .cls-10 {
        fill: #080808;
      }
    </style>
  </defs>
  <g>
    <path class="cls-10" d="m211.5,52.11c-.03-2.32-.21-4.45.79-6.47,1.63-3.28,4.42-4.98,7.86-5.76,1.02-.23,2.08-.35,3.12-.37,3.11-.04,6.22,0,9.33,0,.21,0,.43.03.69.05v3.7c-.5,0-.96,0-1.42,0-2.67,0-5.35-.07-8.01.03-1.34.05-2.7.27-3.98.67-1.8.57-2.71,1.96-2.8,3.97.4.02.78.06,1.15.06,5.3.02,10.6-.05,15.9.09,1.99.05,4.01.39,5.94.91,3.49.94,5.28,3.45,5.56,6.98.14,1.74.02,3.49.02,5.33h-59.85v-3.96h14.22c.18-1.67.2-3.22-.22-4.74-.37-1.31-1.27-1.9-2.93-1.93-1.88-.04-3.77-.01-5.65-.01-1.13,0-2.27,0-3.49,0v-4.02c.31-.02.64-.07.98-.07,2.32,0,4.64-.02,6.96,0,1.05.01,2.11.03,3.14.21,3.76.66,5.72,2.73,6.23,6.56.16,1.25.17,2.52.25,3.87h34.82c-.03-1.86-.84-3.2-2.39-4.1-1.4-.81-2.95-1.03-4.55-1.02-6.75,0-13.49,0-20.24,0-.43,0-.87,0-1.43,0Z"/>
    <path class="cls-4" d="m170.47,61.37h-45.11c-.03-.35-.08-.68-.09-1.01,0-1.71-.02-3.42,0-5.12,0-.65.04-1.32.14-1.96.62-3.77,2.82-5.91,6.64-6.3,1.65-.17,3.32-.17,4.98-.18,3.06-.03,6.13,0,9.34,0v10.65h19.11v-10.59h4.98v14.52Zm-29.24-10.5c-.82,0-1.52,0-2.21,0-1.84,0-3.68-.03-5.51.04-1.67.06-2.6.8-2.92,2.47-.24,1.31-.24,2.66-.35,4.03h10.99v-6.54Z"/>
    <path class="cls-4" d="m206.67,86.37h-4.46v-18.47h5.65c3.17,4.28,6.42,8.66,9.69,13.08v-13.05h4.45v18.4h-5.7c-3.16-4.28-6.39-8.66-9.63-13.05v13.09Z"/>
    <path class="cls-4" d="m157.27,86.4v-18.51c.39-.03.73-.07,1.07-.07,2.89.02,5.77.03,8.66.08,1.85.03,3.65.33,5.27,1.32,3.24,1.98,4.79,5.76,4.02,9.79-.69,3.59-3.57,6.4-7.36,7.1-.85.16-1.73.26-2.6.27-2.97.03-5.94.01-9.05.01Zm4.68-3.92c1.75,0,3.42.14,5.05-.03,2.32-.24,3.78-1.73,4.25-4.01.59-2.88-.66-5.49-3.09-6.35-2.02-.72-4.11-.36-6.2-.44v10.83Z"/>
    <path class="cls-5" d="m144.33,68.05c-2.4,2.1-4.8,4.2-7.19,6.3-.39.34-.78.68-1.22,1.07,3,3.63,5.95,7.19,9.02,10.91h-6.24c-2.04-2.53-4.17-5.17-6.35-7.88-.84.73-1.62,1.41-2.46,2.14v5.8h-4.56v-18.47h4.55v7.18c2.87-2.54,5.5-4.88,8.13-7.21h6.18c-.02.11.03.16.14.17Z"/>
    <path class="cls-9" d="m247.07,86.38h-5.22c-.45-.92-.93-1.89-1.42-2.88h-9.06c-.41.91-.83,1.86-1.28,2.87h-5.19c2.95-6.22,5.87-12.37,8.79-18.51h4.61c2.9,6.13,5.81,12.28,8.77,18.53Zm-8.43-6.82c-.98-2.12-1.89-4.09-2.9-6.28-.96,2.23-1.8,4.21-2.69,6.28h5.59Z"/>
    <path class="cls-4" d="m186.24,67.84h4.59c2.9,6.13,5.81,12.26,8.77,18.52h-5.23c-.41-.86-.87-1.79-1.36-2.82h-9.11c-.39.87-.83,1.85-1.27,2.83h-5.19c2.97-6.25,5.88-12.38,8.81-18.53Zm-.63,11.68h5.56c-.98-2.1-1.89-4.06-2.89-6.23-.95,2.21-1.78,4.16-2.66,6.23Z"/>
    <path class="cls-8" d="m175.67,61.32v-22.38h5v22.38h-5Z"/>
    <path class="cls-7" d="m152.48,67.88v18.48h-4.57v-18.48h4.57Z"/>
    <path class="cls-5" d="m129.68,40.16c1.06-1.06,2.27-2.26,3.58-3.57,1.19,1.17,2.39,2.34,3.69,3.62,1.19-1.23,2.33-2.42,3.49-3.61,1.26,1.32,2.46,2.57,3.62,3.78-1.13,1.1-2.39,2.34-3.69,3.61-.97-1.05-2.09-2.25-3.27-3.51-1.3,1.41-2.42,2.61-3.49,3.77-1.43-1.48-2.65-2.75-3.93-4.09Z"/>
    <path class="cls-6" d="m157,49.4c-1.27-1.28-2.49-2.51-3.65-3.68,1.23-1.24,2.48-2.49,3.7-3.72,1.18,1.15,2.45,2.39,3.7,3.61-1.24,1.25-2.46,2.48-3.76,3.79Z"/>
    <path class="cls-2" d="m144.33,68.05c-.11,0-.15-.06-.14-.17.09,0,.18,0,.26,0-.04.06-.09.11-.13.17Z"/>
  </g>
  <g>
    <path class="cls-3" d="m386.74,59.37c.08-1.61-2.03,3.7-3.09,6.31-1,2.48-2.67,7.93-15.25,14.19-6,2.99-16.57,8.15-31.82,8.97,0,0-25.23,2.07-45.47-1.34-20.24-3.42-26.81-9.2-26.81-9.2,0,0,3.55,19.58,46.13,23,39.04,3.13,58.19-10.96,61.11-13.33.25-.2.51-.4.77-.59,2.21-1.59,13.52-10.57,14.41-28Z"/>
    <path class="cls-3" d="m301.75,37.31s-13.72,17.11-6.39,16.59c.8-.06,1.6-.06,2.4-.05l46.94.06c1.71,0,3.41.28,5,.87,3.76,1.4,8.18,4.93.82,13.52,0,0-4.71-4.71-16.55-4.85-11.84-.14-42,0-42,0-2.08-.04-5.06-.2-8.61-.8-2.42-.41-3.97-.67-5.78-1.31-2.69-.96-8.91-3.17-9.99-8.15-.92-4.24,2.41-8.07,3.15-8.88-1.25,1.02-4.35,3.83-5.78,8.62-.3,1.02-1.82,6.12.17,10.53,2.56,5.66,10.29,8.68,16.91,10.27,4.75,1.14,9.62,1.67,14.5,1.67h29.94s10.9,0,15.37,3.68c0,0,9.73-4.47,15.51-12.09,0,0,13.14-15.51-1.31-21.56,0,0-2.87-1.41-8.22-1.2-.91.04-1.81.07-2.72.08-14.58.11-29.16.22-43.74.33.13-2.45.25-4.89.38-7.34Z"/>
    <path class="cls-1" d="m302.61,43.46c3.06-3.85,15.33-18.03,24.66-10.94.25.19.59.23.88.11,1.51-.63,5.95-2.86,6.6-7.43,0,0-.87-2.95-6.13-3.77-2.78-.44-5.62-.03-8.21,1.06-4.17,1.76-11.32,5.93-19.31,15.59,0,0-3.67,4.83-1.08,6.04.9.42,1.97.11,2.58-.66Z"/>
    <path class="cls-1" d="m302.94,29.14l-4.73,4.73s-32.07,8.94-26.81,22.61c0,0,1.31,6.05,26.55,6.83,0,0-35.65,2.33-31.4-11.72.08-.25.14-.51.21-.76.62-2.36,5.33-14.81,36.18-21.69Z"/>
    <path class="cls-1" d="m337.65,33.35l2.63-4.21s29.27,2.04,39.72,14.62c.33.4.67.78,1.02,1.16,2.55,2.78,12.98,15.93-2.89,29.69-17.88,15.51-55.47,14.98-55.47,14.98,0,0,52.71-1.18,58.23-26.68,5.52-25.5-38.38-29.97-43.24-29.57Z"/>
  </g>
</svg>