<?xml version="1.0" encoding="UTF-8"?>
<svg id="Layer_1" data-name="Layer 1" xmlns="http://www.w3.org/2000/svg" viewBox="0 0 512 123">
  <defs>
    <style>
      .cls-1 {
        fill: #cba181;
      }

      .cls-1, .cls-2 {
        stroke-width: 0px;
      }

      .cls-2 {
        fill: #8f4d6c;
      }
    </style>
  </defs>
  <g>
    <circle class="cls-1" cx="239.71" cy="32.46" r="7.71"/>
    <circle class="cls-1" cx="252.71" cy="32.46" r="7.71"/>
    <g>
      <g>
        <path class="cls-2" d="m139.72,95.03c-.99,0-1.76-.3-2.31-.91-.55-.6-.82-1.55-.82-2.85s.28-2.21.83-2.87c.55-.66,1.32-.99,2.29-.99s1.74.33,2.3.99c.56.66.84,1.62.84,2.87s-.27,2.25-.82,2.85-1.32.91-2.31.91Zm-.49-9.84c0,.25-.08.43-.23.55-.15.12-.32.18-.51.18s-.36-.06-.51-.18-.23-.31-.23-.55v-.88c0-.25.08-.43.23-.55.15-.12.32-.18.51-.18s.36.06.51.18c.15.12.23.31.23.55v.88Zm.49,8.4c.54,0,.94-.17,1.21-.51.26-.34.4-.94.4-1.8s-.13-1.55-.4-1.93c-.27-.38-.67-.57-1.21-.57-.5,0-.89.19-1.17.57s-.42,1.03-.42,1.93.13,1.47.4,1.8c.27.34.66.51,1.19.51Zm1.9-8.4c0,.25-.08.43-.23.55s-.32.18-.51.18-.36-.06-.51-.18-.23-.31-.23-.55v-.88c0-.25.08-.43.23-.55.15-.12.32-.18.51-.18s.36.06.51.18c.15.12.23.31.23.55v.88Z"/>
        <path class="cls-2" d="m145.01,95.03c-.24,0-.41-.08-.54-.23-.12-.15-.18-.32-.18-.49,0-.19.06-.35.18-.5s.3-.22.54-.22h3.36v-2.96c0-.22-.02-.43-.05-.63-.03-.21-.09-.4-.18-.57-.08-.17-.2-.32-.35-.45s-.35-.22-.58-.28c-.49-.12-.74-.36-.74-.74,0-.19.06-.36.18-.51s.31-.23.55-.23c.32,0,.64.07.96.21.31.14.6.34.85.6s.45.57.61.94c.16.37.24.77.24,1.22v3.4h2.28v1.44h-7.13Zm3.34-10.15c0,.25-.08.43-.23.55-.15.12-.32.18-.51.18s-.36-.06-.51-.18c-.15-.12-.23-.31-.23-.55v-.88c0-.25.08-.43.23-.55.15-.12.32-.18.51-.18s.36.06.51.18.23.31.23.55v.88Z"/>
        <path class="cls-2" d="m153,97.52c0,.25-.08.43-.23.55-.15.12-.32.18-.51.18s-.36-.06-.51-.18c-.15-.12-.23-.31-.23-.55v-.88c0-.25.08-.43.23-.55.15-.12.32-.18.51-.18s.36.06.51.18c.15.12.23.31.23.55v.88Zm-1.16-2.49v-1.44h.49c.51,0,.91-.17,1.19-.51.28-.34.42-.79.42-1.35v-3.49c0-.25.08-.43.23-.55s.32-.18.51-.18.36.06.51.18.23.31.23.55v3.55c0,.48-.07.92-.22,1.32-.15.4-.36.74-.63,1.02-.28.29-.61.51-1,.66-.39.16-.83.24-1.31.24h-.4Zm3.55,2.49c0,.25-.08.43-.23.55s-.32.18-.51.18-.36-.06-.51-.18-.23-.31-.23-.55v-.88c0-.25.08-.43.23-.55.15-.12.32-.18.51-.18s.36.06.51.18c.15.12.23.31.23.55v.88Z"/>
        <path class="cls-2" d="m157.55,95.03c-.24,0-.41-.08-.54-.23-.12-.15-.18-.32-.18-.49,0-.19.06-.35.18-.5s.3-.22.54-.22h3.36v-2.96c0-.22-.02-.43-.05-.63-.03-.21-.09-.4-.18-.57-.08-.17-.2-.32-.35-.45s-.35-.22-.58-.28c-.49-.12-.74-.36-.74-.74,0-.19.06-.36.18-.51s.31-.23.55-.23c.32,0,.64.07.96.21.31.14.6.34.85.6s.45.57.61.94c.16.37.24.77.24,1.22v3.4h2.28v1.44h-7.13Zm3.34-10.15c0,.25-.08.43-.23.55-.15.12-.32.18-.51.18s-.36-.06-.51-.18c-.15-.12-.23-.31-.23-.55v-.88c0-.25.08-.43.23-.55.15-.12.32-.18.51-.18s.36.06.51.18.23.31.23.55v.88Z"/>
        <path class="cls-2" d="m164.39,95.03v-1.44h.49c.51,0,.91-.17,1.19-.51.28-.34.42-.79.42-1.35v-7.31c0-.25.08-.43.23-.55s.32-.18.51-.18.36.06.51.18.23.31.23.55v7.36c0,.48-.07.92-.22,1.32-.15.4-.36.74-.63,1.02-.28.29-.61.51-1,.66-.39.16-.83.24-1.31.24h-.4Z"/>
        <path class="cls-2" d="m175.35,95.03c-.42,0-.84-.06-1.24-.18-.41-.12-.77-.32-1.1-.6-.32-.28-.58-.65-.78-1.11-.2-.46-.29-1.04-.29-1.74,0-.66.08-1.23.24-1.72.16-.49.38-.9.67-1.22.29-.32.64-.56,1.04-.72.4-.16.85-.24,1.36-.24h2.46c.2,0,.37.07.52.22.15.15.22.32.22.52v5.35h1.9v1.44h-4.98Zm1.58-6.19h-1.61c-.39,0-.71.09-.96.26-.25.18-.43.4-.57.66-.13.26-.22.54-.26.83s-.07.57-.07.81.03.48.1.74c.07.26.18.49.32.7.15.21.34.39.57.53.23.14.51.21.83.21h1.63v-4.74Zm-1.47-3.54c0,.25-.08.43-.23.55-.15.12-.32.18-.51.18s-.36-.06-.51-.18c-.15-.12-.23-.31-.23-.55v-.88c0-.25.08-.43.23-.55s.32-.18.51-.18.36.06.51.18c.15.12.23.31.23.55v.88Zm2.39,0c0,.25-.08.43-.23.55-.15.12-.32.18-.51.18s-.36-.06-.51-.18c-.15-.12-.23-.31-.23-.55v-.88c0-.25.08-.43.23-.55s.32-.18.51-.18.36.06.51.18.23.31.23.55v.88Z"/>
        <path class="cls-2" d="m190.22,95.03c-.31,0-.65-.04-1.01-.13-.36-.09-.69-.27-.99-.54-.29.65-.67,1.17-1.16,1.55-.49.39-1.07.58-1.74.58s-1.23-.19-1.74-.56c-.51-.37-.9-.9-1.16-1.58-.26.23-.56.39-.91.5-.35.11-.71.17-1.06.18h-.41v-1.44h.4c.59,0,1.01-.15,1.27-.46s.4-.68.43-1.13c.03-.53.12-1.02.27-1.47.15-.45.35-.84.62-1.16.27-.32.59-.58.97-.77.38-.19.83-.28,1.34-.28.47,0,.9.09,1.29.26.39.17.72.42.99.74.27.32.49.72.64,1.19.15.47.23,1.01.23,1.61.04.47.22.83.55,1.09.33.26.73.38,1.21.38h.47v1.44h-.49Zm-4.9.01c.56,0,.97-.22,1.24-.67.27-.45.4-1.1.4-1.97,0-.93-.13-1.62-.4-2.06-.26-.44-.68-.66-1.25-.66s-.96.22-1.24.66c-.28.44-.41,1.12-.41,2.04,0,1.78.55,2.67,1.65,2.67Z"/>
        <path class="cls-2" d="m197.03,95.03c-.31,0-.62-.03-.92-.09-.3-.06-.6-.14-.91-.25-.3.11-.61.19-.91.25s-.61.09-.92.09h-2.96v-1.44h3.2c-.24-.18-.46-.39-.67-.63-.21-.24-.4-.5-.56-.77-.16-.28-.29-.56-.38-.85-.09-.29-.14-.57-.14-.85,0-.49.08-.94.24-1.33.16-.4.39-.74.68-1.02.29-.28.65-.5,1.05-.65s.86-.23,1.36-.23.95.08,1.36.23c.41.15.76.37,1.05.65.29.28.52.62.69,1.02.16.4.24.84.24,1.33,0,.28-.05.56-.14.85-.09.29-.22.57-.38.85-.16.28-.35.53-.56.77-.21.24-.43.45-.67.63h3.34v1.44h-3.11Zm-2.28-10.02c0,.25-.08.43-.23.55-.15.12-.32.18-.51.18s-.36-.06-.51-.18c-.15-.12-.23-.31-.23-.55v-.88c0-.25.08-.43.23-.55.15-.12.32-.18.51-.18s.36.06.51.18c.15.12.23.31.23.55v.88Zm.46,8.13c.23-.13.45-.29.66-.5.22-.21.41-.43.58-.67s.31-.49.41-.74c.1-.25.15-.5.15-.72,0-.61-.17-1.08-.52-1.41-.34-.33-.78-.49-1.3-.49s-.95.16-1.3.49c-.34.33-.52.8-.52,1.41,0,.23.05.47.16.72.1.26.24.5.41.74.17.24.37.46.58.67.22.21.44.37.66.5Zm1.93-8.13c0,.25-.08.43-.23.55-.15.12-.32.18-.51.18s-.36-.06-.51-.18c-.15-.12-.23-.31-.23-.55v-.88c0-.25.08-.43.23-.55s.32-.18.51-.18.36.06.51.18c.15.12.23.31.23.55v.88Z"/>
        <path class="cls-2" d="m199.84,95.03v-1.44h.49c.51,0,.91-.17,1.19-.51.28-.34.42-.79.42-1.35v-7.31c0-.25.08-.43.23-.55s.32-.18.51-.18.36.06.51.18.23.31.23.55v7.36c0,.48-.07.92-.22,1.32-.15.4-.36.74-.63,1.02-.28.29-.61.51-1,.66-.39.16-.83.24-1.31.24h-.4Z"/>
      </g>
      <g>
        <path class="cls-2" d="m136.6,44.33c0-.69.54-1.25,1.25-1.25s1.27.56,1.27,1.25v12.91c0,.71-.56,1.25-1.27,1.25s-1.25-.54-1.25-1.25v-12.91Z"/>
        <path class="cls-2" d="m141.68,55.22v-.04c0-2.37,1.85-3.54,4.54-3.54,1.23,0,2.1.19,2.96.46v-.27c0-1.56-.96-2.4-2.73-2.4-.96,0-1.75.17-2.44.44-.15.04-.27.06-.4.06-.58,0-1.06-.46-1.06-1.04,0-.46.31-.85.69-1,1.04-.4,2.1-.64,3.54-.64,1.64,0,2.87.44,3.64,1.23.81.79,1.19,1.96,1.19,3.39v5.41c0,.69-.54,1.21-1.23,1.21-.73,0-1.23-.5-1.23-1.06v-.42c-.75.9-1.89,1.6-3.58,1.6-2.06,0-3.89-1.19-3.89-3.39Zm7.54-.79v-.75c-.65-.25-1.5-.44-2.5-.44-1.62,0-2.58.69-2.58,1.83v.04c0,1.06.94,1.67,2.14,1.67,1.67,0,2.94-.96,2.94-2.35Z"/>
        <path class="cls-2" d="m154.63,48.54c0-.71.54-1.27,1.25-1.27s1.27.56,1.27,1.27v.52c.71-.98,1.67-1.89,3.35-1.89,1.58,0,2.71.77,3.29,1.94.87-1.17,2.04-1.94,3.71-1.94,2.39,0,3.85,1.52,3.85,4.2v5.87c0,.71-.54,1.25-1.25,1.25s-1.27-.54-1.27-1.25v-5.1c0-1.75-.81-2.69-2.23-2.69s-2.35.96-2.35,2.73v5.06c0,.71-.56,1.25-1.25,1.25s-1.27-.54-1.27-1.25v-5.12c0-1.71-.83-2.67-2.23-2.67s-2.35,1.04-2.35,2.73v5.06c0,.71-.56,1.25-1.27,1.25s-1.25-.54-1.25-1.25v-8.71Z"/>
        <path class="cls-2" d="m174.42,48.54c0-.71.54-1.27,1.25-1.27s1.27.56,1.27,1.27v.52c.71-.98,1.67-1.89,3.35-1.89,1.58,0,2.71.77,3.29,1.94.87-1.17,2.04-1.94,3.71-1.94,2.39,0,3.85,1.52,3.85,4.2v5.87c0,.71-.54,1.25-1.25,1.25s-1.27-.54-1.27-1.25v-5.1c0-1.75-.81-2.69-2.23-2.69s-2.35.96-2.35,2.73v5.06c0,.71-.56,1.25-1.25,1.25s-1.27-.54-1.27-1.25v-5.12c0-1.71-.83-2.67-2.23-2.67s-2.35,1.04-2.35,2.73v5.06c0,.71-.56,1.25-1.27,1.25s-1.25-.54-1.25-1.25v-8.71Z"/>
        <path class="cls-2" d="m193.47,55.22v-.04c0-2.37,1.85-3.54,4.54-3.54,1.23,0,2.1.19,2.96.46v-.27c0-1.56-.96-2.4-2.73-2.4-.96,0-1.75.17-2.44.44-.15.04-.27.06-.4.06-.58,0-1.06-.46-1.06-1.04,0-.46.31-.85.69-1,1.04-.4,2.1-.64,3.54-.64,1.64,0,2.87.44,3.64,1.23.81.79,1.19,1.96,1.19,3.39v5.41c0,.69-.54,1.21-1.23,1.21-.73,0-1.23-.5-1.23-1.06v-.42c-.75.9-1.89,1.6-3.58,1.6-2.06,0-3.89-1.19-3.89-3.39Zm7.54-.79v-.75c-.65-.25-1.5-.44-2.5-.44-1.62,0-2.58.69-2.58,1.83v.04c0,1.06.94,1.67,2.14,1.67,1.67,0,2.94-.96,2.94-2.35Z"/>
        <path class="cls-1" d="m136.6,63.39c0-.69.53-1.22,1.22-1.22s1.24.53,1.24,1.22v4.79c.79-1.12,1.91-2.02,3.67-2.02,2.53,0,4.99,2,4.99,5.58v.04c0,3.57-2.45,5.58-4.99,5.58-1.79,0-2.91-.9-3.67-1.89v.55c0,.67-.55,1.22-1.24,1.22s-1.22-.55-1.22-1.22v-12.63Zm8.62,8.39v-.04c0-2.08-1.41-3.44-3.08-3.44s-3.14,1.39-3.14,3.44v.04c0,2.06,1.47,3.44,3.14,3.44s3.08-1.32,3.08-3.44Z"/>
        <path class="cls-1" d="m159.83,76.02c0,.67-.55,1.22-1.24,1.22s-1.24-.53-1.24-1.22v-.55c-.69,1.02-1.69,1.89-3.36,1.89-2.42,0-3.83-1.63-3.83-4.14v-5.73c0-.69.55-1.24,1.22-1.24s1.24.55,1.24,1.24v4.99c0,1.67.84,2.61,2.3,2.61s2.42-.98,2.42-2.65v-4.95c0-.69.55-1.24,1.24-1.24s1.24.55,1.24,1.24v8.52Z"/>
        <path class="cls-1" d="m162.91,67.5c0-.69.53-1.24,1.22-1.24s1.24.55,1.24,1.24v1.1c.57-1.34,1.63-2.36,2.71-2.36.77,0,1.22.51,1.22,1.22,0,.65-.43,1.08-.98,1.18-1.75.31-2.95,1.65-2.95,4.2v3.18c0,.67-.55,1.22-1.24,1.22s-1.22-.53-1.22-1.22v-8.52Z"/>
        <path class="cls-1" d="m171.65,79.48c-.43-.16-.69-.51-.69-.98,0-.55.47-1.02,1.04-1.02.18,0,.33.04.45.1.98.55,2.06.86,3.3.86,2.2,0,3.4-1.14,3.4-3.3v-.84c-.9,1.16-2.02,1.98-3.79,1.98-2.53,0-4.89-1.87-4.89-5.03v-.04c0-3.18,2.38-5.05,4.89-5.05,1.81,0,2.93.84,3.77,1.83v-.51c0-.67.55-1.22,1.22-1.22s1.24.55,1.24,1.24v7.44c0,1.81-.47,3.16-1.36,4.05-.98.98-2.49,1.45-4.42,1.45-1.51,0-2.85-.33-4.16-.96Zm7.52-8.25v-.04c0-1.75-1.45-2.95-3.16-2.95s-3.06,1.18-3.06,2.95v.04c0,1.75,1.36,2.96,3.06,2.96s3.16-1.2,3.16-2.96Z"/>
        <path class="cls-1" d="m189.63,77.38c-3.12,0-5.52-2.26-5.52-5.58v-.04c0-3.08,2.18-5.6,5.26-5.6,3.42,0,5.11,2.81,5.11,5.3,0,.69-.53,1.18-1.16,1.18h-6.74c.26,1.75,1.51,2.73,3.1,2.73,1.04,0,1.85-.37,2.55-.94.18-.14.35-.22.63-.22.55,0,.98.43.98,1,0,.31-.14.57-.33.75-.98.88-2.2,1.43-3.87,1.43Zm2.44-6.38c-.16-1.59-1.1-2.83-2.73-2.83-1.51,0-2.57,1.16-2.79,2.83h5.52Z"/>
        <path class="cls-1" d="m197.01,67.5c0-.69.53-1.24,1.22-1.24s1.24.55,1.24,1.24v1.1c.57-1.34,1.63-2.36,2.71-2.36.77,0,1.22.51,1.22,1.22,0,.65-.43,1.08-.98,1.18-1.75.31-2.95,1.65-2.95,4.2v3.18c0,.67-.55,1.22-1.24,1.22s-1.22-.53-1.22-1.22v-8.52Z"/>
      </g>
    </g>
    <path class="cls-2" d="m211.4,92.31v-.03c0-2.77,2.24-5.1,5.07-5.1s5.07,2.3,5.07,5.07v.03c0,2.77-2.24,5.1-5.07,5.1s-5.07-2.3-5.07-5.07Zm9.16-.03v-.03c0-2.26-1.75-4.11-4.09-4.11s-4.09,1.88-4.09,4.14v.03c0,2.26,1.75,4.11,4.09,4.11s4.09-1.88,4.09-4.14Zm-6.19-2.07c0-.38.29-.67.64-.67h1.84c1.25,0,2.13.58,2.13,1.75,0,.79-.41,1.34-1.05,1.6l.79.96c.15.15.17.29.17.47,0,.35-.26.61-.64.61-.23,0-.38-.12-.52-.26l-1.22-1.52h-.85v1.14c0,.35-.29.64-.64.64s-.64-.29-.64-.64v-4.08Zm2.39,1.89c.58,0,.9-.29.9-.73,0-.47-.35-.73-.9-.73h-1.11v1.46h1.11Z"/>
  </g>
  <path class="cls-2" d="m368.85,24.75h0c-3.62,0-6.55,2.93-6.55,6.55v37.99h0c0,1.13-.14,2.23-.41,3.28-1.45,5.65-6.58,9.82-12.69,9.82-2.18,0-4.24-.54-6.05-1.48,0,0,0,0,0,0-.04-.02-.08-.05-.12-.07-3.19-1.71-5.59-4.69-6.51-8.27-.1-.39-.18-.79-.25-1.2-.02-.14-.04-.27-.06-.41-.03-.2-.04-.4-.06-.6.01-.35.02-.71.02-1.07,0-14.15-11.51-25.66-25.66-25.66s-25.66,11.51-25.66,25.66c0,1.36.11,2.7.31,4.01,0,0,0,0,0,0,.11,4.69-3.81,9.96-10.05,7.72-3.35-1.2-4.69-4.37-4.43-7.68.07-.44.14-.89.19-1.33,0,0,0-.02,0-.03,0,0,0,0,0,0,.11-.95.16-1.92.16-2.89,0-14.15-11.51-25.66-25.66-25.66s-25.66,11.51-25.66,25.66,11.51,25.66,25.66,25.66c6.23,0,11.95-2.23,16.4-5.94.8.7,1.7,1.45,2.61,2.17,2.77,2.2,6.65,3.77,10.69,4.23,6.7.76,14.14-.83,19.25-5.42.12-.1.23-.21.34-.32,4.37,3.44,9.87,5.49,15.84,5.49,7.51,0,14.27-3.24,18.97-8.4,1.35,1.52,2.98,2.99,4.64,4.16.01,0,.02.02.04.02.27.19.54.37.81.55.29.19.58.37.87.54l.67.39c.44.24.89.47,1.34.69.64.31,1.3.59,1.97.85.45.17.9.33,1.36.48.23.07.46.14.69.21,2.09.61,4.29.96,6.56,1.03.25,0,.51.01.76.01.86,0,1.72-.04,2.56-.12,3.37-.33,6.55-1.29,9.42-2.77.24-.12.48-.25.71-.38,2.08-1.15,3.98-2.58,5.67-4.24.42-.41.83-.84,1.22-1.28.2-.22.39-.44.58-.67.94-1.14,1.79-2.35,2.54-3.64.7-1.2,1.3-2.47,1.8-3.79,1.1-2.89,1.71-6.03,1.71-9.32h0V31.3c0-3.62-2.93-6.55-6.55-6.55Zm-123.48,57.07c-7.02,0-12.73-5.71-12.73-12.73s5.71-12.73,12.73-12.73,12.73,5.71,12.73,12.73-5.71,12.73-12.73,12.73Zm65.14.2c-7.02,0-12.73-5.71-12.73-12.73s5.71-12.73,12.73-12.73,12.73,5.71,12.73,12.73-5.71,12.73-12.73,12.73Z"/>
</svg>