<?xml version="1.0" encoding="UTF-8"?>
<svg id="Layer_1" data-name="Layer 1" xmlns="http://www.w3.org/2000/svg" xmlns:xlink="http://www.w3.org/1999/xlink" viewBox="0 0 512 123">
  <defs>
    <style>
      .cls-1 {
        fill: url(#linear-gradient);
      }

      .cls-1, .cls-2, .cls-3, .cls-4, .cls-5 {
        stroke-width: 0px;
      }

      .cls-2 {
        fill: #b4b8a0;
      }

      .cls-3 {
        fill: #088e97;
      }

      .cls-4 {
        fill: #b4b89f;
      }

      .cls-5 {
        fill: #047174;
      }
    </style>
    <linearGradient id="linear-gradient" x1="345.34" y1="95.84" x2="365.53" y2="38.17" gradientUnits="userSpaceOnUse">
      <stop offset="0" stop-color="#047174"/>
      <stop offset="1" stop-color="#1abec0"/>
    </linearGradient>
  </defs>
  <g>
    <path class="cls-5" d="m145.52,39.92v1.02l-.13.17h-2.47v-.95c-.74.46-1.41.69-2,.69-.64,0-1.15-.18-1.52-.54-.37-.36-.55-.83-.55-1.42s.15-1.19.46-1.81l3.61-1.01v-1.06h1.2v4.74h1.28l.13.17Zm-5.25-5.53l-.89-1.03,1.11-.93.79.94,1.12-.93.87,1.03-1.12.93-.79-.94-1.1.93Zm.85,5.13c.59,0,1.19-.15,1.8-.46v-1.88l-2.85.78c-.05.2-.08.41-.08.63,0,.62.38.93,1.13.93Z"/>
    <path class="cls-5" d="m145.38,39.74h2.18c.13,0,.19.06.19.19v.99c0,.13-.06.19-.19.19h-2.18c-.12,0-.19-.06-.19-.19v-.99c0-.13.06-.19.19-.19Z"/>
    <path class="cls-5" d="m145.44,39.74h2.18c.13,0,.19.06.19.19v.99c0,.13-.06.19-.19.19h-2.18c-.12,0-.19-.06-.19-.19v-.99c0-.13.06-.19.19-.19Z"/>
    <path class="cls-5" d="m152.68,39.89v1.09l-.13.13h-.25c-.53,0-1.07-.27-1.62-.81l-.5.81h-2.55l-.19-.19v-1.03l.19-.15h2.24v-3.57h1.22v3.25c.31.21.73.32,1.26.32h.2l.13.15Zm-3.69,2.35l.89,1.07-1.12.93-.89-1.07,1.12-.93Zm2,0l.89,1.07-1.1.93-.9-1.07,1.12-.93Z"/>
    <path class="cls-5" d="m157.17,39.89v1.09l-.13.13h-.17c-.6,0-1.16-.26-1.67-.77l-.46.77h-2.19l-.19-.19v-1.03l.19-.15h1.87v-8.71h1.22v8.37c.29.22.72.34,1.28.34h.12l.13.15Z"/>
    <path class="cls-5" d="m165.55,38.75c0,.82-.28,1.74-.83,2.75-1.33-.17-2.52-.48-3.57-.94-.79.37-1.8.55-3.04.55h-1.07l-.13-.17v-1.01l.13-.19h2.67c-.62-.42-1.15-.99-1.58-1.71.21-.48.48-.9.81-1.26l-.87.21-.09-.08v-1.13c1.25-.3,2.32-.44,3.18-.44,1.33,0,2.4.3,3.2.9.8.6,1.2,1.44,1.2,2.51Zm-4.31.67c.27-.2.47-.43.62-.71.14-.28.21-.54.21-.79,0-.4-.13-.73-.38-.99-.25-.26-.58-.38-.96-.38-.59.03-1.07.44-1.44,1.24.41.72,1.06,1.26,1.95,1.64Zm3.17-.44c0-.56-.15-1.04-.44-1.42-.3-.38-.7-.67-1.22-.85.3.36.44.73.44,1.12,0,.74-.3,1.41-.91,1.99.64.21,1.26.35,1.87.43.18-.44.27-.86.27-1.26Z"/>
    <path class="cls-5" d="m169.19,31.31l.11.69c-.41.11-.9.16-1.48.16h-1.3v-.75l.67.03c-.17-.22-.25-.45-.25-.69,0-.33.08-.65.24-.95.33-.12.67-.17,1.02-.17.26,0,.52.03.79.09l-.07.67c-.29-.04-.56-.05-.83-.05-.13,0-.28.01-.44.04-.02.05-.03.15-.03.3,0,.31.09.57.27.78.51,0,.92-.05,1.24-.16l.07.03Zm2.75,5.41c.85,1.06,1.5,2.1,1.93,3.12l-.56,1.28h-5.98l-.46-1.18.03-.15c1.38-.76,2.52-1.67,3.41-2.73l.19-.23c-.85-.91-2-1.95-3.44-3.12v-.11l.86-.77c1.33,1.1,2.4,2.09,3.2,2.96.33-.76.5-1.79.5-3.09v-1.67h1.2v1.48c0,1.82-.29,3.22-.87,4.2Zm-.7.94l-.12.15c-.64.75-1.5,1.42-2.55,2h4.14c-.36-.68-.85-1.4-1.46-2.15Z"/>
    <path class="cls-5" d="m176.64,41.11h-1.21v-10.08h1.21v10.08Z"/>
    <path class="cls-5" d="m191.2,35.73v5.39h-6.22c-2.36,0-3.53-.99-3.53-2.98,0-.53.1-1.09.31-1.69l.93-.19.09.08c-.13.59-.2,1.09-.2,1.5,0,.66.2,1.15.59,1.45.39.3,1.1.46,2.12.46h4.7v-4.02h1.21Zm-5.7-.3l-.89-1.03,1.12-.93.79.94,1.12-.93.87,1.03-1.11.93-.79-.94-1.1.93Z"/>
    <path class="cls-5" d="m196.16,39.9v1.06l-.13.15h-2.63v-10.08h1.21v8.71h1.42l.13.16Z"/>
    <path class="cls-5" d="m196.02,39.74h2.18c.13,0,.19.06.19.19v.99c0,.13-.06.19-.19.19h-2.18c-.12,0-.19-.06-.19-.19v-.99c0-.13.06-.19.19-.19Z"/>
    <path class="cls-5" d="m196.08,39.74h2.18c.13,0,.19.06.19.19v.99c0,.13-.06.19-.19.19h-2.18c-.12,0-.19-.06-.19-.19v-.99c0-.13.06-.19.19-.19Z"/>
    <path class="cls-5" d="m203.32,39.89v1.09l-.13.13h-.25c-.53,0-1.07-.27-1.62-.81l-.5.81h-2.55l-.19-.19v-1.03l.19-.15h2.24v-3.57h1.22v3.25c.31.21.73.32,1.26.32h.2l.13.15Zm-3.69,2.35l.89,1.07-1.12.93-.89-1.07,1.12-.93Zm2,0l.89,1.07-1.1.93-.9-1.07,1.12-.93Z"/>
    <path class="cls-5" d="m211.97,39.93v.99l-.13.19h-1.69c-.93,0-1.79-.22-2.57-.66-.94.44-2.06.66-3.37.66h-1.02l-.13-.17v-1.01l.13-.19h1.41c.72,0,1.34-.04,1.88-.13-.7-.74-1.21-1.63-1.54-2.66l-.55.15-.11-.07.12-1.2c1.16-.38,2.25-.56,3.25-.56.95,0,1.91.16,2.88.47l.19,1.36c-.38,1.01-.99,1.87-1.85,2.57.35.05.75.08,1.2.08h1.79l.13.19Zm-2.38-3.1c-.52-.16-1.21-.24-2.07-.24-.51,0-1,.04-1.48.12.26.9.73,1.68,1.42,2.34.08.08.17.15.27.21.87-.59,1.49-1.4,1.85-2.43Z"/>
    <path class="cls-5" d="m219.84,39.89v1.09l-.13.13h-.25c-.55,0-1.07-.23-1.56-.69v.03s-.95.9-.95.9l-3.06-1.4c-.28.42-.56.72-.85.89-.29.17-.65.26-1.09.26h-.11l-.13-.2v-.94l.13-.23h.21c.32,0,.59-.12.81-.36s.5-.67.83-1.31c.41-.79.83-1.4,1.26-1.83.43-.43.91-.65,1.44-.65.59,0,1.07.27,1.44.81.37.54.56,1.22.56,2.06,0,.33-.04.67-.12,1.01.3.18.71.27,1.24.27h.2l.13.15Zm-5.37-.97l2.49,1.14c.2-.45.3-.9.3-1.37,0-.53-.1-.95-.3-1.26-.2-.31-.47-.46-.8-.46-.27,0-.52.14-.75.42-.23.28-.51.73-.82,1.34l-.11.19Z"/>
    <path class="cls-5" d="m228.29,39.88v1.13l-.13.11h-1.13c-.82,0-1.48-.37-2-1.1-.86.38-1.6.65-2.22.83-.62.18-1.31.27-2.05.27h-1.05l-.19-.19v-.99l.19-.19h1.14c.38,0,.72-.02,1.02-.05.3-.03.64-.1.99-.22.36-.11.61-.19.77-.24.15-.05.47-.18.95-.38.48-.21.79-.34.93-.39-.88-.61-1.54-1.02-1.98-1.24-.44-.22-.91-.33-1.4-.33-.46,0-.93.09-1.41.26l-.12-.07v-1.18c.64-.26,1.21-.39,1.69-.39.57,0,1.2.21,1.87.63s1.59,1.11,2.77,2.07l-.31,1.11-.56.24c.24.12.56.17.97.17h1.14l.13.13Zm-3.86,1.89l.9,1.07-1.12.93-.9-1.07,1.12-.93Z"/>
    <path class="cls-5" d="m230.86,31.04v10.08h-2.7l-.15-.15v-1.06l.15-.16h1.45v-8.71h1.25Z"/>
    <path class="cls-5" d="m234.38,41.11h-1.21v-10.08h1.21v10.08Z"/>
    <path class="cls-5" d="m254.26,39.89v1.09l-.13.13h-.25c-.52,0-1.03-.24-1.53-.73l-.46.73c-1.18,0-2.21-.26-3.09-.78l-.52.78c-.92,0-1.72-.21-2.41-.65v1.96c-1.08.56-2.13.85-3.14.85-1.16,0-2.03-.31-2.63-.94-.6-.63-.9-1.49-.9-2.58,0-.64.12-1.34.36-2.08l.97-.16.07.07c-.17.65-.25,1.26-.25,1.84,0,.82.21,1.45.62,1.87s1.1.63,2.05.63c.57,0,1.13-.08,1.67-.24v-5.33h1.2v3.02c.56.24,1.23.37,2.02.38l.44-3.4h1.21l-.4,3.06c.6.21,1.39.32,2.36.34-.12-.89-.33-2.17-.64-3.84l1.21-.27c.33,1.75.54,3.01.63,3.8.3.21.72.31,1.24.31h.2l.13.15Z"/>
    <path class="cls-5" d="m254.13,39.74h2.18c.13,0,.19.06.19.19v.99c0,.13-.06.19-.19.19h-2.18c-.12,0-.19-.06-.19-.19v-.99c0-.13.06-.19.19-.19Z"/>
    <path class="cls-5" d="m254.19,39.74h2.18c.13,0,.19.06.19.19v.99c0,.13-.06.19-.19.19h-2.18c-.12,0-.19-.06-.19-.19v-.99c0-.13.06-.19.19-.19Z"/>
    <path class="cls-5" d="m260.99,39.89v1.09l-.13.13h-.17c-.6,0-1.16-.26-1.67-.77l-.46.77h-2.19l-.19-.19v-1.03l.19-.15h1.87v-8.71h1.22v8.37c.29.22.72.34,1.28.34h.12l.13.15Z"/>
    <path class="cls-5" d="m269.44,39.88v1.13l-.13.11h-1.13c-.82,0-1.48-.37-2-1.1-.86.38-1.6.65-2.22.83-.62.18-1.31.27-2.05.27h-1.05l-.19-.19v-.99l.19-.19h1.14c.38,0,.72-.02,1.02-.05.3-.03.64-.1.99-.22.36-.11.61-.19.77-.24.15-.05.47-.18.95-.38.48-.21.79-.34.93-.39-.88-.61-1.54-1.02-1.98-1.24-.44-.22-.91-.33-1.4-.33-.46,0-.93.09-1.41.26l-.12-.07v-1.18c.64-.26,1.21-.39,1.69-.39.57,0,1.2.21,1.87.63s1.59,1.11,2.77,2.07l-.31,1.11-.56.24c.24.12.56.17.97.17h1.14l.13.13Zm-3.86,1.89l.9,1.07-1.12.93-.9-1.07,1.12-.93Z"/>
    <path class="cls-5" d="m273.86,35.6c.59,0,1.07.27,1.44.81.37.54.56,1.22.56,2.06,0,.71-.17,1.37-.51,1.99l-.94.9-3.06-1.4c-.28.42-.56.72-.85.89-.29.17-.65.26-1.09.26h-.11l-.13-.2v-.94l.13-.23h.21c.32,0,.59-.12.81-.36s.5-.67.83-1.31c.41-.79.83-1.4,1.26-1.83.43-.43.91-.65,1.44-.65Zm-1.92,3.32l2.49,1.14c.2-.45.3-.9.3-1.37,0-.53-.1-.95-.3-1.26-.2-.31-.47-.46-.8-.46-.27,0-.52.14-.75.42-.23.28-.51.73-.82,1.34l-.11.19Z"/>
    <path class="cls-5" d="m145.52,56.04v1.02l-.13.17h-2.47v-.95c-.74.46-1.41.69-2,.69-.64,0-1.15-.18-1.52-.54-.37-.36-.55-.83-.55-1.42s.15-1.19.46-1.81l3.61-1.01v-1.06h1.2v4.74h1.28l.13.17Zm-5.25-5.53l-.89-1.03,1.11-.93.79.94,1.12-.93.87,1.03-1.12.93-.79-.94-1.1.93Zm.85,5.13c.59,0,1.19-.15,1.8-.46v-1.88l-2.85.78c-.05.2-.08.41-.08.63,0,.62.38.93,1.13.93Z"/>
    <path class="cls-5" d="m145.38,55.86h2.18c.13,0,.19.06.19.19v.99c0,.13-.06.19-.19.19h-2.18c-.12,0-.19-.06-.19-.19v-.99c0-.13.06-.19.19-.19Z"/>
    <path class="cls-5" d="m147.23,55.86h2.18c.13,0,.19.06.19.19v.99c0,.13-.06.19-.19.19h-2.18c-.12,0-.19-.06-.19-.19v-.99c0-.13.06-.19.19-.19Z"/>
    <path class="cls-5" d="m149.4,55.86h2.18c.13,0,.19.06.19.19v.99c0,.13-.06.19-.19.19h-2.18c-.12,0-.19-.06-.19-.19v-.99c0-.13.06-.19.19-.19Z"/>
    <path class="cls-5" d="m156.13,51.72c.59,0,1.07.27,1.44.81.37.54.56,1.22.56,2.06,0,.71-.17,1.37-.51,1.99l-.94.9-3.06-1.4c-.28.42-.56.72-.85.89-.29.17-.65.26-1.09.26h-.11l-.13-.2v-.94l.13-.23h.21c.32,0,.59-.12.81-.36s.5-.67.83-1.31c.41-.79.83-1.4,1.26-1.83.43-.43.91-.65,1.44-.65Zm-1.92,3.32l2.49,1.14c.2-.45.3-.9.3-1.37,0-.53-.1-.95-.3-1.26-.2-.31-.47-.46-.8-.46-.27,0-.52.14-.75.42-.23.28-.51.73-.82,1.34l-.11.19Z"/>
    <path class="cls-5" d="m164.04,56.01v1.09l-.13.13h-.21c-.42,0-.88-.19-1.37-.56v.27c0,2.13-.81,3.2-2.44,3.2-.35,0-.69-.08-1.01-.23l-.21-1.17.09-.08c.35.11.74.16,1.18.16.4,0,.7-.13.9-.38.2-.25.29-.68.29-1.27v-4.88h1.2v3.28c.35.2.81.3,1.38.3h.2l.13.15Z"/>
    <path class="cls-5" d="m163.91,55.86h2.18c.13,0,.19.06.19.19v.99c0,.13-.06.19-.19.19h-2.18c-.12,0-.19-.06-.19-.19v-.99c0-.13.06-.19.19-.19Z"/>
    <path class="cls-5" d="m175.53,56.01v1.09l-.13.13h-.26c-.54,0-1.04-.23-1.52-.69l-.38.69h-7.16l-.15-.24v-.91l.15-.21h6.74c-.12-.98-.44-1.64-.95-1.99-.51-.35-1.22-.52-2.14-.52-.75,0-1.6.07-2.55.2l-.5-1.13,4.86-5.25h.12l.63,1.01-4.11,4.11c.72-.14,1.39-.21,2.03-.21,1,0,1.84.28,2.52.84.68.56,1.08,1.44,1.2,2.64.32.21.74.31,1.25.31h.2l.13.15Z"/>
    <path class="cls-5" d="m175.4,55.86h2.18c.13,0,.19.06.19.19v.99c0,.13-.06.19-.19.19h-2.18c-.12,0-.19-.06-.19-.19v-.99c0-.13.06-.19.19-.19Z"/>
    <path class="cls-5" d="m185.58,56.01v1.09l-.13.13h-.25c-.55,0-1.07-.23-1.56-.69v.03s-.95.9-.95.9l-3.06-1.4c-.28.42-.56.72-.85.89-.29.17-.65.26-1.09.26h-.11l-.13-.2v-.94l.13-.23h.21c.32,0,.59-.12.81-.36s.5-.67.83-1.31c.41-.79.83-1.4,1.26-1.83.43-.43.91-.65,1.44-.65.59,0,1.07.27,1.44.81.37.54.56,1.22.56,2.06,0,.33-.04.67-.12,1.01.3.18.71.27,1.24.27h.2l.13.15Zm-5.37-.97l2.49,1.14c.2-.45.3-.9.3-1.37,0-.53-.1-.95-.3-1.26-.2-.31-.47-.46-.8-.46-.27,0-.52.14-.75.42-.23.28-.51.73-.82,1.34l-.11.19Z"/>
    <path class="cls-5" d="m185.44,55.86h2.18c.13,0,.19.06.19.19v.99c0,.13-.06.19-.19.19h-2.18c-.12,0-.19-.06-.19-.19v-.99c0-.13.06-.19.19-.19Z"/>
    <path class="cls-5" d="m190.32,47.16v10.08h-2.7l-.15-.15v-1.06l.15-.16h1.45v-8.71h1.25Z"/>
    <path class="cls-5" d="m193.84,57.23h-1.21v-10.08h1.21v10.08Z"/>
    <path class="cls-5" d="m205.07,56.04v1.02l-.13.17h-2.47v-.95c-.74.46-1.41.69-2,.69-.64,0-1.15-.18-1.52-.54-.37-.36-.55-.83-.55-1.42s.15-1.19.46-1.81l3.61-1.01v-1.06h1.2v4.74h1.28l.13.17Zm-5.25-5.53l-.89-1.03,1.11-.93.79.94,1.12-.93.87,1.03-1.12.93-.79-.94-1.1.93Zm.85,5.13c.59,0,1.19-.15,1.8-.46v-1.88l-2.85.78c-.05.2-.08.41-.08.63,0,.62.38.93,1.13.93Z"/>
    <path class="cls-5" d="m214.38,56.01v1.09l-.13.13h-.26c-.54,0-1.04-.23-1.52-.69l-.38.69h-7.16l-.15-.24v-.91l.15-.21h6.74c-.12-.98-.44-1.64-.95-1.99-.51-.35-1.22-.52-2.14-.52-.75,0-1.6.07-2.55.2l-.5-1.13,4.86-5.25h.12l.63,1.01-4.11,4.11c.72-.14,1.39-.21,2.03-.21,1,0,1.84.28,2.52.84.68.56,1.08,1.44,1.2,2.64.32.21.74.31,1.25.31h.2l.13.15Z"/>
    <path class="cls-5" d="m214.25,55.86h2.18c.13,0,.19.06.19.19v.99c0,.13-.06.19-.19.19h-2.18c-.12,0-.19-.06-.19-.19v-.99c0-.13.06-.19.19-.19Z"/>
    <path class="cls-5" d="m216.09,55.86h2.18c.13,0,.19.06.19.19v.99c0,.13-.06.19-.19.19h-2.18c-.12,0-.19-.06-.19-.19v-.99c0-.13.06-.19.19-.19Z"/>
    <path class="cls-5" d="m218.26,55.86h2.18c.13,0,.19.06.19.19v.99c0,.13-.06.19-.19.19h-2.18c-.12,0-.19-.06-.19-.19v-.99c0-.13.06-.19.19-.19Z"/>
    <path class="cls-5" d="m225,51.72c.59,0,1.07.27,1.44.81.37.54.56,1.22.56,2.06,0,.71-.17,1.37-.51,1.99l-.94.9-3.06-1.4c-.28.42-.56.72-.85.89-.29.17-.65.26-1.09.26h-.11l-.13-.2v-.94l.13-.23h.21c.32,0,.59-.12.81-.36s.5-.67.83-1.31c.41-.79.83-1.4,1.26-1.83.43-.43.91-.65,1.44-.65Zm-1.92,3.32l2.49,1.14c.2-.45.3-.9.3-1.37,0-.53-.1-.95-.3-1.26-.2-.31-.47-.46-.8-.46-.27,0-.52.14-.75.42-.23.28-.51.73-.82,1.34l-.11.19Z"/>
    <path class="cls-5" d="m237.93,56.04v1.02l-.13.17h-2.47v-.95c-.74.46-1.41.69-2,.69-.64,0-1.15-.18-1.52-.54-.37-.36-.55-.83-.55-1.42s.15-1.19.46-1.81l3.61-1.01v-1.06h1.2v4.74h1.28l.13.17Zm-5.25-5.53l-.89-1.03,1.11-.93.79.94,1.12-.93.87,1.03-1.12.93-.79-.94-1.1.93Zm.85,5.13c.59,0,1.19-.15,1.8-.46v-1.88l-2.85.78c-.05.2-.08.41-.08.63,0,.62.38.93,1.13.93Z"/>
    <path class="cls-5" d="m237.8,55.86h2.18c.13,0,.19.06.19.19v.99c0,.13-.06.19-.19.19h-2.18c-.12,0-.19-.06-.19-.19v-.99c0-.13.06-.19.19-.19Z"/>
    <path class="cls-5" d="m239.64,55.86h2.18c.13,0,.19.06.19.19v.99c0,.13-.06.19-.19.19h-2.18c-.12,0-.19-.06-.19-.19v-.99c0-.13.06-.19.19-.19Z"/>
    <path class="cls-5" d="m249.17,55.98v1.13l-.13.12h-.67c-.89,0-1.75-.19-2.59-.56-.82.38-1.83.56-3.02.56h-.93l-.13-.17v-1.01l.13-.19h2.61c-.65-.48-1.16-1.07-1.5-1.75.26-.88.65-1.56,1.18-2.04.52-.48,1.08-.72,1.66-.72.66,0,1.2.23,1.62.69.42.46.62,1.02.62,1.69,0,.78-.3,1.47-.9,2.07.3.04.77.05,1.4.05h.54l.13.12Zm-4.82-5.68l-.89-1.03,1.12-.93.79.94,1.11-.93.87,1.03-1.11.93-.79-.94-1.1.93Zm1.2,2.4c-.29,0-.57.11-.83.33-.26.22-.47.5-.64.85.43.74,1.07,1.29,1.92,1.64.28-.2.49-.43.65-.69.15-.26.23-.53.23-.79,0-.39-.12-.72-.35-.97-.23-.25-.56-.38-.97-.38Z"/>
    <path class="cls-5" d="m259.66,56.01v1.09l-.13.13h-.25c-.53,0-1.06-.25-1.58-.74l-.5.74h-8.15l-.13-.13v-1.1l.13-.13h1.45v-8.71h1.2v6.45c1.69-1.37,2.95-2.06,3.77-2.06s1.41.39,1.86,1.18.71,1.72.76,2.81c.3.21.72.32,1.25.32h.2l.13.15Zm-7.99-.15h5.27c-.15-1.95-.73-2.93-1.75-2.93-.72,0-1.89.61-3.52,1.83v1.1Z"/>
    <path class="cls-5" d="m264.59,56.01v1.09l-.13.13h-.25c-.53,0-1.07-.27-1.62-.81l-.5.81h-2.55l-.19-.19v-1.03l.19-.15h2.24v-3.57h1.22v3.25c.31.21.73.32,1.26.32h.2l.13.15Zm-2.36-5.08l-.89-1.05,1.13-.93.87,1.05-1.12.93Z"/>
    <path class="cls-5" d="m272.46,56.01v1.09l-.13.13h-.25c-.55,0-1.07-.23-1.56-.69v.03s-.95.9-.95.9l-3.06-1.4c-.28.42-.56.72-.85.89-.29.17-.65.26-1.09.26h-.11l-.13-.2v-.94l.13-.23h.21c.32,0,.59-.12.81-.36s.5-.67.83-1.31c.41-.79.83-1.4,1.26-1.83.43-.43.91-.65,1.44-.65.59,0,1.07.27,1.44.81.37.54.56,1.22.56,2.06,0,.33-.04.67-.12,1.01.3.18.71.27,1.24.27h.2l.13.15Zm-5.37-.97l2.49,1.14c.2-.45.3-.9.3-1.37,0-.53-.1-.95-.3-1.26-.2-.31-.47-.46-.8-.46-.27,0-.52.14-.75.42-.23.28-.51.73-.82,1.34l-.11.19Z"/>
    <path class="cls-5" d="m275.68,51.85v5.39h-3.36l-.19-.19v-1.03l.19-.15h2.15v-4.02h1.21Zm-1.01,6.42l.9,1.07-1.12.93-.9-1.07,1.11-.93Z"/>
    <path class="cls-5" d="m142.28,68.83c-.59,0-1.14.11-1.65.32-.39.81-.59,1.81-.59,3.02,0,1.02.18,1.78.53,2.26.35.49.91.73,1.66.73s1.5-.17,2.25-.5l.08.03v1.01c-.74.34-1.56.51-2.45.51-1.1,0-1.92-.33-2.46-.98s-.8-1.65-.8-2.98c0-.71.09-1.41.28-2.11.18-.7.42-1.28.72-1.74.82-.42,1.66-.62,2.54-.62.82,0,1.54.14,2.17.42v1.04l-.08.05c-.74-.29-1.47-.44-2.21-.44Z"/>
    <path class="cls-5" d="m149.13,67.77c1.11,0,1.93.33,2.47.98.54.65.81,1.65.81,2.98,0,.73-.09,1.45-.27,2.14-.18.7-.42,1.27-.73,1.72-.81.42-1.63.62-2.47.62-1.11,0-1.93-.33-2.47-.98s-.81-1.65-.81-2.98c0-.73.09-1.45.27-2.14.18-.7.42-1.27.73-1.72.81-.42,1.63-.62,2.47-.62Zm1.49,7.04c.38-.82.57-1.81.57-2.98,0-1.04-.17-1.79-.51-2.26-.34-.47-.89-.7-1.64-.7-.55,0-1.08.1-1.58.31-.38.82-.57,1.81-.57,2.98,0,1.04.17,1.79.51,2.26s.89.7,1.64.7c.55,0,1.08-.1,1.58-.31Z"/>
    <path class="cls-5" d="m156.99,76.21c-1,0-1.77-.27-2.29-.8-.53-.53-.79-1.3-.79-2.31v-5.15h1.18v5.06c0,.68.16,1.2.49,1.56.33.36.8.54,1.42.54s1.09-.18,1.42-.54c.33-.36.49-.88.49-1.56v-5.06h1.18v5.15c0,1.01-.27,1.78-.8,2.31-.53.53-1.29.8-2.29.8Z"/>
    <path class="cls-5" d="m167.25,76.04l-3.17-4.74c-.44-.65-.74-1.15-.89-1.49h-.07c.04.53.06,1.08.06,1.68v4.55h-1.07v-8.09h1.17l3.17,4.76c.48.74.77,1.24.89,1.49h.07c-.05-.48-.07-1.04-.07-1.69v-4.56h1.09v8.09h-1.17Z"/>
    <path class="cls-5" d="m173.34,68.83c-.59,0-1.14.11-1.65.32-.39.81-.59,1.81-.59,3.02,0,1.02.18,1.78.53,2.26.35.49.91.73,1.66.73s1.5-.17,2.25-.5l.08.03v1.01c-.74.34-1.56.51-2.45.51-1.1,0-1.92-.33-2.46-.98s-.8-1.65-.8-2.98c0-.71.09-1.41.28-2.11.18-.7.42-1.28.72-1.74.82-.42,1.66-.62,2.54-.62.82,0,1.54.14,2.17.42v1.04l-.08.05c-.74-.29-1.47-.44-2.21-.44Z"/>
    <path class="cls-5" d="m178.44,67.95v8.09h-1.18v-8.09h1.18Z"/>
    <path class="cls-5" d="m185.32,74.99v1.05h-4.85v-8.09h1.18v7.04h3.67Z"/>
    <path class="cls-5" d="m192.44,67.77c1.11,0,1.93.33,2.47.98.54.65.81,1.65.81,2.98,0,.73-.09,1.45-.27,2.14-.18.7-.42,1.27-.73,1.72-.81.42-1.63.62-2.47.62-1.11,0-1.93-.33-2.47-.98s-.81-1.65-.81-2.98c0-.73.09-1.45.27-2.14.18-.7.42-1.27.73-1.72.81-.42,1.63-.62,2.47-.62Zm1.49,7.04c.38-.82.57-1.81.57-2.98,0-1.04-.17-1.79-.51-2.26-.34-.47-.89-.7-1.64-.7-.55,0-1.08.1-1.58.31-.38.82-.57,1.81-.57,2.98,0,1.04.17,1.79.51,2.26s.89.7,1.64.7c.55,0,1.08-.1,1.58-.31Z"/>
    <path class="cls-5" d="m198.41,69v2.46h3.66v1.05h-3.66v3.52h-1.18v-8.09h5.07v1.05h-3.89Z"/>
    <path class="cls-5" d="m211.88,76.04l-3.17-4.74c-.44-.65-.74-1.15-.89-1.49h-.07c.04.53.06,1.08.06,1.68v4.55h-1.07v-8.09h1.17l3.17,4.76c.48.74.77,1.24.89,1.49h.07c-.05-.48-.07-1.04-.07-1.69v-4.56h1.09v8.09h-1.17Z"/>
    <path class="cls-5" d="m220.73,71.91v3.65c-.86.43-1.8.65-2.81.65-1.14,0-1.99-.33-2.54-.98-.55-.65-.83-1.65-.83-2.98,0-.73.09-1.45.27-2.14.18-.7.43-1.27.73-1.72.83-.42,1.71-.62,2.62-.62.86,0,1.6.14,2.24.42v1.04l-.08.05c-.76-.29-1.52-.44-2.28-.44-.61,0-1.19.11-1.76.33-.38.83-.58,1.83-.58,3,0,1.04.18,1.8.55,2.27.37.47.94.71,1.73.71.58,0,1.12-.08,1.61-.24v-2.01h-1.98v-.98h3.1Z"/>
    <path class="cls-5" d="m225.25,67.77c1.11,0,1.93.33,2.47.98.54.65.81,1.65.81,2.98,0,.73-.09,1.45-.27,2.14-.18.7-.42,1.27-.73,1.72-.81.42-1.63.62-2.47.62-1.11,0-1.93-.33-2.47-.98s-.81-1.65-.81-2.98c0-.73.09-1.45.27-2.14.18-.7.42-1.27.73-1.72.81-.42,1.63-.62,2.47-.62Zm1.49,7.04c.38-.82.57-1.81.57-2.98,0-1.04-.17-1.79-.51-2.26-.34-.47-.89-.7-1.64-.7-.55,0-1.08.1-1.58.31-.38.82-.57,1.81-.57,2.98,0,1.04.17,1.79.51,2.26s.89.7,1.64.7c.55,0,1.08-.1,1.58-.31Z"/>
    <path class="cls-5" d="m237.71,67.95v8.09h-1.18v-4.45c0-.69.03-1.25.09-1.66h-.08c-.09.39-.29.89-.59,1.5l-1.63,3.38h-1.05l-1.62-3.38c-.29-.64-.48-1.14-.57-1.5h-.08c.06.42.09.97.09,1.66v4.45h-1.07v-8.09h1.22l2.67,5.75,2.66-5.75h1.13Z"/>
    <path class="cls-5" d="m243.95,73.67h-3.03l-.81,2.37h-1.13l2.81-8.09h1.42l2.78,8.09h-1.25l-.8-2.37Zm-.33-1.01l-1.17-3.44-1.18,3.44h2.34Z"/>
    <path class="cls-5" d="m253.29,75.92v.12h-1.4l-3.44-3.8v3.8h-1.18v-8.09h1.18v3.93l3.45-3.93h1.25v.12l-3.48,3.89,3.62,3.96Z"/>
    <path class="cls-5" d="m260.57,75.92v.12h-1.4l-3.44-3.8v3.8h-1.18v-8.09h1.18v3.93l3.45-3.93h1.25v.12l-3.48,3.89,3.62,3.96Z"/>
    <path class="cls-5" d="m266.03,73.67h-3.03l-.81,2.37h-1.13l2.81-8.09h1.42l2.78,8.09h-1.25l-.8-2.37Zm-.33-1.01l-1.17-3.44-1.18,3.44h2.34Z"/>
    <path class="cls-5" d="m275.7,67.95v8.09h-1.18v-3.52h-4v3.52h-1.18v-8.09h1.18v3.51h4v-3.51h1.18Z"/>
    <path class="cls-5" d="m143.32,88.67v.8h-4.25l-.18-.81.95-.95c.9-.87,1.51-1.52,1.82-1.96.31-.44.46-.85.46-1.22,0-.65-.38-.97-1.13-.97-.55,0-1.12.12-1.71.36l-.07-.04v-.79c.62-.24,1.24-.36,1.86-.36s1.1.15,1.44.45c.34.3.51.72.51,1.26,0,.5-.18,1.01-.54,1.54-.36.52-1.04,1.27-2.05,2.23l-.44.45h3.32Z"/>
    <path class="cls-5" d="m146.59,82.75c1.54,0,2.3,1.07,2.3,3.22,0,.61-.06,1.2-.17,1.77-.11.56-.26,1.02-.45,1.37-.54.34-1.12.51-1.73.51-1.55,0-2.33-1.08-2.33-3.23,0-.62.06-1.21.17-1.77.11-.56.27-1.02.46-1.37.56-.33,1.14-.5,1.75-.5Zm1.01,5.77c.26-.66.38-1.51.37-2.55,0-.82-.12-1.42-.35-1.81-.23-.38-.58-.57-1.06-.57-.38,0-.72.08-1.03.23-.27.72-.4,1.57-.39,2.55,0,.81.13,1.42.36,1.8.23.39.58.58,1.05.58.39,0,.75-.08,1.05-.23Z"/>
    <path class="cls-5" d="m152.97,86.01c.85.29,1.27.86,1.27,1.7,0,.61-.18,1.13-.55,1.55-.46.23-1.03.35-1.71.35-.73,0-1.44-.12-2.12-.36l.23-.86c.55.24,1.18.36,1.9.36.39,0,.76-.06,1.11-.18.14-.27.21-.56.21-.86,0-.4-.15-.71-.46-.93-.31-.23-.77-.34-1.38-.34h-.85v-.86h.94c.56,0,1.02-.08,1.36-.24.14-.33.22-.62.22-.88,0-.29-.1-.5-.31-.65-.2-.14-.47-.22-.8-.22-.58,0-1.15.11-1.71.33l-.22-.86c.58-.22,1.23-.33,1.96-.33.61,0,1.11.13,1.48.4s.55.66.55,1.18c0,.41-.15.91-.46,1.49-.23.09-.44.17-.65.22Z"/>
    <path class="cls-5" d="m156.56,85.59h.44c1.76,0,2.64.69,2.64,2.06,0,.64-.18,1.18-.55,1.62-.44.23-.99.35-1.66.35-.71,0-1.42-.12-2.12-.36l.22-.86c.57.24,1.21.36,1.92.36.36,0,.71-.06,1.04-.17.14-.28.21-.6.21-.94,0-.82-.56-1.23-1.69-1.23h-1.27l-.1-.13.36-3.4h3.38v.9h-2.61l-.19,1.8Z"/>
    <path class="cls-5" d="m165.13,88.67v.8h-4.25l-.18-.81.95-.95c.9-.87,1.51-1.52,1.82-1.96.31-.44.46-.85.46-1.22,0-.65-.38-.97-1.13-.97-.55,0-1.12.12-1.71.36l-.07-.04v-.79c.62-.24,1.24-.36,1.86-.36s1.1.15,1.44.45c.34.3.51.72.51,1.26,0,.5-.18,1.01-.54,1.54-.36.52-1.04,1.27-2.05,2.23l-.44.45h3.32Z"/>
    <path class="cls-5" d="m168.4,82.75c1.54,0,2.3,1.07,2.3,3.22,0,.61-.06,1.2-.17,1.77-.11.56-.26,1.02-.45,1.37-.54.34-1.12.51-1.73.51-1.55,0-2.33-1.08-2.33-3.23,0-.62.06-1.21.17-1.77.11-.56.27-1.02.46-1.37.56-.33,1.14-.5,1.75-.5Zm1.01,5.77c.26-.66.38-1.51.37-2.55,0-.82-.12-1.42-.35-1.81-.23-.38-.58-.57-1.06-.57-.38,0-.72.08-1.03.23-.27.72-.4,1.57-.39,2.55,0,.81.13,1.42.36,1.8.23.39.58.58,1.05.58.39,0,.75-.08,1.05-.23Z"/>
    <path class="cls-5" d="m179.2,88.62v.76l-.09.09h-.18c-.38,0-.75-.16-1.09-.48l-.61.58-2.13-.77-.18.43.84,2.39-.75.34h-.07l-.88-2.7c.12-.31.23-.56.31-.75.08-.19.19-.45.35-.78.15-.33.3-.6.44-.81.14-.21.3-.42.48-.64s.38-.38.58-.49c.2-.11.41-.16.63-.16.38,0,.7.19.96.55.26.37.39.84.39,1.4,0,.26-.03.5-.09.72.21.13.5.2.88.2h.14l.09.1Zm-2.55-2.03c-.19,0-.39.12-.57.35-.19.23-.4.6-.65,1.12l1.79.63c.11-.28.17-.6.17-.94s-.07-.62-.21-.83c-.14-.22-.31-.32-.52-.32Z"/>
    <path class="cls-5" d="m179.1,88.51h1.52c.09,0,.13.04.13.13v.7c0,.09-.04.13-.13.13h-1.52c-.09,0-.13-.04-.13-.13v-.7c0-.09.04-.13.13-.13Z"/>
    <path class="cls-5" d="m180.62,88.51h1.52c.09,0,.13.04.13.13v.7c0,.09-.04.13-.13.13h-1.52c-.09,0-.13-.04-.13-.13v-.7c0-.09.04-.13.13-.13Z"/>
    <path class="cls-5" d="m184.64,84.62c.36,0,.68.15.96.44.28.29.48.65.62,1.09.13.43.2.89.2,1.36,0,.71-.07,1.36-.21,1.97h-4.06l-.09-.13v-.69l.09-.14h3.46c.01-.18.02-.32.02-.43-1.18.01-2.12-.29-2.81-.89.08-.69.28-1.29.62-1.8.34-.51.74-.77,1.2-.77Zm-.89-.7l-.62-.72.78-.65.55.66.78-.65.61.72-.78.65-.55-.66-.77.65Zm-.15,2.87c.45.34,1.12.5,2.01.47-.05-.46-.17-.86-.36-1.18-.19-.32-.42-.48-.7-.48-.2,0-.39.11-.58.34-.19.23-.31.51-.38.85Z"/>
    <path class="cls-5" d="m189.37,86.01v3.25c0,1.49-.57,2.24-1.71,2.24-.25,0-.48-.05-.71-.16l-.15-.82.07-.06c.24.08.52.11.83.11.28,0,.49-.09.63-.27.14-.18.21-.48.21-.89v-3.41h.84Z"/>
    <path class="cls-5" d="m194.98,86.01v3.25c0,1.49-.57,2.24-1.71,2.24-.25,0-.48-.05-.71-.16l-.15-.82.07-.06c.24.08.52.11.83.11.28,0,.49-.09.63-.27.14-.18.21-.48.21-.89v-3.41h.84Z"/>
    <path class="cls-5" d="m197.23,89.47h-.85v-7.05h.85v7.05Z"/>
    <path class="cls-5" d="m201.57,88.62v.76l-.09.09h-.15c-.29,0-.61-.13-.96-.4v.19c0,1.49-.57,2.24-1.71,2.24-.25,0-.48-.05-.71-.16l-.15-.82.07-.06c.24.08.52.11.83.11.28,0,.49-.09.63-.27.14-.18.21-.48.21-.89v-3.41h.84v2.29c.24.14.57.21.97.21h.14l.09.1Z"/>
    <path class="cls-5" d="m201.48,88.51h1.52c.09,0,.13.04.13.13v.7c0,.09-.04.13-.13.13h-1.52c-.09,0-.13-.04-.13-.13v-.7c0-.09.04-.13.13-.13Z"/>
    <path class="cls-5" d="m203,88.51h1.52c.09,0,.13.04.13.13v.7c0,.09-.04.13-.13.13h-1.52c-.09,0-.13-.04-.13-.13v-.7c0-.09.04-.13.13-.13Z"/>
    <path class="cls-5" d="m209.67,88.6v.79l-.09.08h-.47c-.62,0-1.23-.13-1.81-.4-.58.26-1.28.4-2.12.4h-.65l-.09-.12v-.71l.09-.13h1.82c-.46-.34-.81-.75-1.05-1.22.18-.61.46-1.09.82-1.42.37-.34.75-.5,1.16-.5.46,0,.84.16,1.13.48.29.32.44.71.44,1.19,0,.55-.21,1.03-.63,1.45.21.02.54.04.98.04h.38l.09.08Zm-3.38-3.98l-.62-.72.78-.65.55.66.78-.65.61.72-.78.65-.55-.66-.77.65Zm.84,1.68c-.21,0-.4.08-.58.23s-.33.35-.45.6c.3.52.75.9,1.34,1.15.19-.14.34-.3.45-.48.11-.18.16-.37.16-.55,0-.28-.08-.5-.24-.68-.16-.18-.39-.26-.68-.26Z"/>
    <path class="cls-5" d="m211.92,85.7v3.77h-2.35l-.13-.13v-.72l.13-.1h1.5v-2.81h.85Zm-.71,4.49l.63.75-.78.65-.63-.75.78-.65Z"/>
    <path class="cls-5" d="m221.73,88.62v.76l-.09.09h-.08c-.29,0-.62-.13-.97-.4v1.48c-.75.4-1.49.59-2.21.59-.81,0-1.44-.21-1.87-.64-.43-.43-.64-1.04-.64-1.85,0-.44.09-.92.26-1.43l.68-.12.05.05c-.12.48-.19.9-.19,1.28,0,.6.15,1.05.44,1.34.29.29.79.43,1.49.43.41,0,.79-.06,1.15-.17v-7.6h.85v5.88c.26.14.59.22.99.22h.07l.09.1Z"/>
    <path class="cls-5" d="m225.18,88.62v.76l-.09.09h-.18c-.37,0-.75-.19-1.14-.56l-.35.56h-1.79l-.13-.13v-.72l.13-.1h1.57v-2.5h.86v2.28c.22.15.51.23.88.23h.14l.09.1Zm-2.59,1.65l.62.75-.78.65-.62-.75.78-.65Zm1.4,0l.62.75-.77.65-.63-.75.78-.65Z"/>
    <path class="cls-5" d="m231.1,88.61v.79l-.09.08h-.79c-.57,0-1.04-.26-1.4-.77-.6.26-1.12.46-1.56.58-.44.13-.91.19-1.43.19h-.73l-.13-.13v-.7l.13-.13h.8c.26,0,.5-.01.71-.03s.45-.07.7-.15c.25-.08.43-.13.54-.17.11-.03.33-.12.67-.27.34-.14.55-.24.65-.27-.61-.43-1.08-.72-1.39-.87-.31-.15-.64-.23-.98-.23-.32,0-.65.06-.99.18l-.08-.05v-.83c.45-.18.85-.27,1.18-.27.4,0,.84.15,1.31.44.47.29,1.12.78,1.94,1.45l-.22.78-.39.17c.17.08.39.12.68.12h.8l.09.09Zm-2.7,1.33l.63.75-.78.65-.63-.75.78-.65Z"/>
    <path class="cls-5" d="m231,88.51h1.52c.09,0,.13.04.13.13v.7c0,.09-.04.13-.13.13h-1.52c-.09,0-.13-.04-.13-.13v-.7c0-.09.04-.13.13-.13Z"/>
    <path class="cls-5" d="m232.52,88.51h1.52c.09,0,.13.04.13.13v.7c0,.09-.04.13-.13.13h-1.52c-.09,0-.13-.04-.13-.13v-.7c0-.09.04-.13.13-.13Z"/>
    <path class="cls-5" d="m241.77,88.62v.76l-.09.09h-.18c-.38,0-.74-.17-1.09-.51l-.32.51c-.83,0-1.55-.18-2.16-.55l-.37.55c-.67,0-1.26-.17-1.76-.52l-.08.52h-1.67l-.09-.08v-.81l.09-.08h1l.34-2.38h.85l-.32,2.12c.39.17.85.26,1.37.26l.3-2.38h.85l-.27,2.14c.44.14.99.22,1.65.24-.11-.88-.24-1.73-.39-2.56l.85-.19c.17.95.3,1.79.4,2.52.21.15.51.23.88.23h.14l.09.1Z"/>
    <path class="cls-5" d="m243.18,85.7h.85v3.77h-2.35l-.13-.13v-.72l.13-.1h1.5v-2.81Zm-.49-.77l-.62-.72.78-.65.55.66.78-.65.61.72-.78.65-.55-.66-.77.65Z"/>
    <path class="cls-5" d="m249.79,85.17h.08c.73,1.23,1.3,2.26,1.71,3.07l-.35.98c-.51.26-1.04.4-1.59.4s-.95-.13-1.26-.39c-.31-.26-.46-.58-.46-.97s.13-.78.39-1.12c.26-.35.62-.7,1.07-1.05-.11-.15-.19-.28-.25-.38l.65-.54Zm-.82-.42l-.62-.72.78-.65.55.66.78-.65.61.72-.78.65-.55-.66-.77.65Zm-.25,3.27c0,.19.1.34.29.47.19.12.45.18.78.18s.67-.07.99-.2c-.36-.66-.7-1.25-1.01-1.77-.29.19-.54.41-.74.65s-.31.46-.31.67Z"/>
    <path class="cls-5" d="m254.32,85.02h.1c1.02,1.27,1.65,2.46,1.88,3.55l-.5.9h-3.08l-.23-.87.08-.08h2.89c-.31-.86-.89-1.82-1.76-2.88l.62-.62Z"/>
    <path class="cls-5" d="m259.58,88.63v.74l-.09.1h-1.84v-7.05h.85v6.09h1l.09.11Z"/>
    <path class="cls-5" d="m266.56,88.62v.76l-.09.09h-.15c-.34,0-.71-.17-1.1-.51-.1.26-.22.52-.36.78-.93-.12-1.76-.34-2.5-.66-.55.26-1.26.39-2.12.39h-.75l-.09-.12v-.71l.09-.13h1.87c-.43-.29-.8-.69-1.11-1.19.15-.34.34-.63.56-.88l-.61.15-.07-.06v-.79c.88-.21,1.62-.31,2.23-.31.93,0,1.68.21,2.24.63.56.42.84,1.01.84,1.76,0,.15-.02.32-.05.51.25.12.56.19.93.19h.14l.09.1Zm-4.14-.33c.19-.14.33-.3.43-.5.1-.19.15-.38.15-.55,0-.28-.09-.51-.27-.7-.18-.18-.4-.27-.67-.26-.41.02-.75.31-1.01.87.29.5.74.88,1.36,1.15Zm2.22-.31c0-.4-.1-.73-.31-1-.21-.27-.49-.47-.86-.59.21.25.31.51.31.78,0,.52-.21.98-.64,1.39.45.14.88.24,1.31.3.12-.31.19-.6.19-.88Z"/>
    <path class="cls-5" d="m266.47,88.51h1.52c.09,0,.13.04.13.13v.7c0,.09-.04.13-.13.13h-1.52c-.09,0-.13-.04-.13-.13v-.7c0-.09.04-.13.13-.13Z"/>
    <path class="cls-5" d="m267.99,88.51h1.52c.09,0,.13.04.13.13v.7c0,.09-.04.13-.13.13h-1.52c-.09,0-.13-.04-.13-.13v-.7c0-.09.04-.13.13-.13Z"/>
    <path class="cls-5" d="m276.15,88.53l-.6.94c-.83,0-1.55-.18-2.16-.55l-.37.55c-.68,0-1.28-.18-1.78-.54l-.08.54h-1.65l-.09-.08v-.81l.09-.08h.98l.36-2.38h.85l-.34,2.11c.39.18.85.27,1.39.27l.3-2.38h.85l-.27,2.14c.44.14.99.22,1.66.24-.11-.87-.26-1.76-.45-2.67l.85-.21c.21.99.37,1.96.48,2.9Zm-3.65-3.4l-.61-.72.77-.65.6.72-.76.65Zm.72-1.25l-.59-.71.75-.63.59.71-.75.63Zm.02.54l.77-.64.6.72-.76.64-.61-.72Z"/>
  </g>
  <g>
    <path class="cls-2" d="m329.49,84.3c.39.71.76,1.42,1.16,2.12,1.14,1.98,2.71,3.6,4.53,4.93,2.3,1.69,4.74,3.19,7.12,4.76.53.35,1.11.61,1.79.99-.86.5-1.62.95-2.38,1.39-2.42,1.4-4.84,2.79-7.26,4.19-.33.19-.65.42-1,.57-.18.08-.47.09-.64,0-4.18-2.41-8.34-4.85-12.52-7.27-3.51-2.03-7.04-4.03-10.55-6.06-3.09-1.78-6.17-3.59-9.25-5.38-1.13-.65-2.24-1.34-3.39-1.94-.45-.24-.59-.49-.59-.99.02-6.83.01-13.66.01-20.49,0-6.76,0-13.53-.01-20.29,0-.55.2-.85.65-1.11,3.82-2.18,7.64-4.36,11.45-6.56,4-2.31,7.98-4.64,11.97-6.94,4.1-2.37,8.22-4.73,12.33-7.07.15-.09.45-.07.6.02,3.78,2.16,7.56,4.33,11.33,6.5,2.72,1.57,5.43,3.15,8.15,4.72,2.16,1.25,4.31,2.5,6.47,3.74.29.16.37.3.28.66-.32,1.25-1.17,2.05-2.17,2.74-.21.15-.42.3-.58.55,1.75.1,3.3-.32,4.58-1.58,1.35-1.33,1.25-2.99,1.15-4.83.46.31.86.59,1.26.86,0,.24-.03.47,0,.71.23,2.2-.65,3.91-2.3,5.29-1.42,1.2-3.06,1.97-4.82,2.49-4.7,1.39-9.43,2.72-14.12,4.14-5.5,1.66-10.91,3.61-16.05,6.22-2.68,1.36-5.13,3.05-6.91,5.54-2.41,3.37-3.93,6.99-2.89,11.25.1.42.23.83.34,1.25.2-.11.27-.19.28-.28.27-2.25,1.37-4.09,2.86-5.71,2.3-2.5,5.18-4.17,8.32-5.33,3.47-1.28,6.99-2.46,10.54-3.54,5.43-1.65,10.91-3.16,16.35-4.76,1.88-.55,3.86-.97,5.59-1.84,4.31-2.15,6.84-6.56,4.96-11.77-.23-.64-.5-1.27-.76-1.9.14.15.3.29.41.46.69,1.1,1.36,2.2,2.04,3.3-.04.24-.14.5-.1.73.42,2.99-.44,5.59-2.42,7.83-2.01,2.27-4.59,3.73-7.39,4.74-2.73.99-5.51,1.84-8.31,2.61-4.51,1.25-9.08,2.32-13.46,4-3.04,1.16-6.08,2.33-9.04,3.67-2.57,1.16-4.75,2.91-6.31,5.31-1.92,2.96-2.01,6.17-1.02,9.44,1.24,4.12,3.79,7.46,6.67,10.55,1.59,1.7,3.37,3.24,5.07,4.84.21.2.49.33.73.49.04-.05.08-.1.12-.14-.06-.12-.1-.26-.19-.37-1.4-1.82-2.62-3.75-3.52-5.86-.88-2.07-1.49-4.19-1.3-6.47.21.62.38,1.26.65,1.86.46,1.03.98,2.04,1.48,3.06Zm9.83-41.85c2.81,0,5.02-2.17,5.02-4.94,0-2.82-2.27-5.12-5.04-5.09-2.73.03-4.99,2.29-5,5.02,0,2.81,2.2,5.01,5.02,5.01Z"/>
    <path class="cls-4" d="m359.5,33.21c-1.01-.55-2.03-1.09-3.03-1.66-1.93-1.1-3.84-2.21-5.76-3.32-2.42-1.41-4.83-2.83-7.25-4.23-2.38-1.38-4.78-2.74-7.16-4.12-.85-.49-1.7-.98-2.55-1.48-.4-.23-.75-.23-1.19.03-4.34,2.52-8.7,5.01-13.05,7.51-3.35,1.93-6.68,3.87-10.03,5.8-3.96,2.28-7.89,4.6-11.89,6.79-1.27.7-1.77,1.44-1.76,2.95.08,13.51.05,27.02.03,40.52,0,.55.18.87.63,1.12,3.74,2.14,7.48,4.29,11.22,6.45,2.75,1.59,5.49,3.2,8.24,4.79,3.34,1.93,6.7,3.84,10.04,5.77,2.18,1.26,4.35,2.54,6.51,3.82.43.26.82.25,1.26,0,3.05-1.77,6.1-3.52,9.15-5.28.55-.32,1.09-.67,1.65-.98.16-.09.42-.16.57-.09,1.23.54,2.44,1.11,3.76,1.71-.91.53-1.75,1.02-2.59,1.5-2.7,1.56-5.4,3.11-8.1,4.66-1.81,1.04-3.62,2.1-5.45,3.12-.16.09-.48.05-.66-.05-1.84-1.04-3.66-2.12-5.49-3.18-1.72-.99-3.44-1.98-5.15-2.97-2.25-1.31-4.5-2.62-6.75-3.92-2.37-1.37-4.74-2.72-7.11-4.09-2.46-1.42-4.92-2.84-7.38-4.26-2-1.15-3.99-2.3-5.99-3.45-.81-.47-1.64-.92-2.43-1.43-.18-.12-.3-.45-.3-.68-.02-2-.01-3.99-.01-5.99,0-13.29,0-26.59-.01-39.88,0-.61.22-.92.72-1.2,3.16-1.79,6.3-3.61,9.44-5.43,3.38-1.95,6.77-3.89,10.15-5.85,3.4-1.97,6.79-3.95,10.19-5.91,3.42-1.98,6.85-3.94,10.28-5.9.16-.09.46-.07.62.03,3.8,2.18,7.59,4.36,11.38,6.57,3.06,1.79,6.15,3.53,9.15,5.42,2.18,1.37,4.11,3.07,5.53,5.27.28.44.44.96.66,1.45-.03.02-.06.05-.09.07Z"/>
    <path class="cls-1" d="m373.63,38.39c-.04,1.48-.03,2.96-.03,4.44v7.47c0,2.32,0,4.64,0,6.96,0,3.13,0,6.27,0,9.4,0,2.75,0,5.5,0,8.25,0,.73,0,1.47,0,2.2,0,.08,0,.16,0,.24,0,1.03,0,2.07,0,3.1v1.67c0,.35,0,.7,0,1.04v.9s-.04.03-.04.03c0,.03.02.06.04.08v.26s-.07,0-.1,0c.03.04.07.08.1.12-.03.63-.49.85-.98,1.1-.84.42-1.64.9-2.46,1.36-1.12.64-2.23,1.29-3.35,1.93-.68.43-1.36.86-2.05,1.29-.17.1-.35.17-.53.26-.09.07-.19.13-.28.2-.07.02-.14.05-.2.07-.88.51-1.75,1.01-2.63,1.52-.09.04-.17.08-.26.12-.25.14-.51.27-.76.41-2.15,1.28-4.3,2.57-6.45,3.85-.96.57-1.92,1.12-2.9,1.65-.19.1-.51.15-.69.06-4.29-2.11-8.3-4.64-11.59-8.16-1.5-1.6-2.79-3.35-3.67-5.38h0s-.07-.09-.1-.14c-.42-1.42-.83-2.83-1.25-4.25-.02-.29-.05-.58-.07-.87-.27-1.62-.09-3.22.29-4.8.25-.78.5-1.57.75-2.35.08-.27.15-.53.26-.93-.27.2-.45.32-.62.45-.05.04-.09.09-.14.13-.05.04-.09.08-.14.12h0c-.09.08-.17.16-.26.24h-.03c-.85.97-1.77,1.88-2.53,2.9-1.69,2.29-2.42,4.84-1.71,7.69.1.42.16.84.24,1.26-.5-1.02-1.02-2.02-1.48-3.06-.27-.6-.44-1.24-.65-1.86,0-.4-.07-.82,0-1.21.43-2.6,1.6-4.82,3.46-6.69,1.21-1.11,2.39-2.24,3.86-3.02,2.26-1.37,4.75-2.19,7.2-3.1.05-.03.1-.08.16-.1,4.22-1.51,8.45-3.01,12.67-4.52.41-.21.81-.46,1.25-.62,3.52-1.28,6.74-3.07,9.55-5.57.16-.17.31-.35.47-.52,1.45-1.46,2.65-3.09,3.42-5.02.04-.09.08-.17.12-.26.03-.09.07-.18.1-.27.63-1.98.73-3.99.33-6.03-.43-1.61-1.03-3.13-2.11-4.43-.68-1.1-1.35-2.21-2.04-3.3-.11-.17-.27-.31-.41-.46-.43-.58-.86-1.17-1.29-1.75.16.02.35-.01.48.06,2.86,1.64,5.71,3.31,8.57,4.95.36.21.5.43.49.86Z"/>
    <path class="cls-3" d="m373.6,84.58s-.07-.08-.1-.12c.03,0,.07,0,.1,0,.02.04.02.08,0,.12Z"/>
    <path class="cls-3" d="m373.59,84.19s-.03-.06-.04-.08c0,0,.02-.02.04-.03.02.04.02.08,0,.12Z"/>
  </g>
</svg>