<?xml version="1.0" encoding="UTF-8"?>
<svg id="Layer_1" data-name="Layer 1" xmlns="http://www.w3.org/2000/svg" viewBox="0 0 512 123">
  <defs>
    <style>
      .cls-1, .cls-2 {
        fill: #008556;
      }

      .cls-1, .cls-2, .cls-3, .cls-4 {
        stroke-width: 0px;
      }

      .cls-2, .cls-4 {
        fill-rule: evenodd;
      }

      .cls-3, .cls-4 {
        fill: #9e925e;
      }
    </style>
  </defs>
  <path class="cls-4" d="m381.27,68.14c-1.29.78-2.59,1.64-3.27,2.11-2.1,1.46-4.23,3-6.35,4.61-9.36,7.09-18.63,15.41-25.72,23.37h-16.9s41.37-35.7,60.36-38.44c16.92-2.44,23.49,9.8,22.09,22.98.17-1.62.15-3.26-.1-4.73-.59-3.53-2.1-6.42-4.16-8.67-1.67-1.82-3.74-3.44-6.52-4.49-2.39-.9-4.98-1.31-7.76-1.06,0,0-4.87.2-11.68,4.31"/>
  <path class="cls-4" d="m318.69,68.14c1.29.78,2.59,1.64,3.27,2.11,2.1,1.46,4.23,3,6.35,4.61,9.36,7.09,18.63,15.41,25.72,23.37h16.9s-41.37-35.7-60.36-38.44c-16.93-2.44-23.49,9.8-22.09,22.98-.17-1.62-.15-3.26.1-4.73.6-3.53,2.1-6.42,4.16-8.67,1.67-1.82,3.74-3.44,6.52-4.49,2.39-.9,4.98-1.31,7.76-1.06,0,0,4.87.2,11.68,4.31"/>
  <polygon class="cls-1" points="314.89 77.02 309.12 71.25 304.06 76.32 298.99 71.25 293.22 77.02 298.99 82.78 304.06 77.72 309.12 82.78 314.89 77.02"/>
  <path class="cls-1" d="m376.42,34.1c-.44-1.03-.97-2.03-1.6-3-5.23-8.1-15.21-11.27-23.93-8.22-.51-1.87-.91-2.96-.91-2.96,0,0-.41,1.09-.92,2.96-8.71-3.05-18.7.12-23.93,8.22-.62.97-1.16,1.98-1.6,3,3.68-4.04,8.74-6.33,13.97-6.63-4.85,3.74-7.99,9.61-7.99,16.22,0,1.16.1,2.29.28,3.39,1-5.97,4.59-11.06,9.56-14.09-3.14,6.26-3,13.99,1.08,20.3.63.97,1.33,1.87,2.08,2.7-3.4-7.86-1.5-17.05,4.7-22.93-.14,1.52-.23,3.12-.23,4.78,0,9.9,2.98,17.92,2.98,17.92,0,0,2.98-8.02,2.98-17.92,0-1.65-.08-3.25-.22-4.78,6.2,5.87,8.1,15.07,4.7,22.93.76-.83,1.45-1.73,2.08-2.7,4.08-6.32,4.23-14.04,1.08-20.3,4.98,3.03,8.57,8.12,9.57,14.09.19-1.1.28-2.24.28-3.39,0-6.6-3.13-12.47-7.99-16.22,5.24.3,10.29,2.59,13.97,6.63"/>
  <path class="cls-2" d="m329.27,67.75s14.71-21.23,40.57,6.31c24.35,25.93,33.48,21.56,40.41,13.32,0,0-.37,1.01-.99,1.98-.48.75-.76,1.18-.86,1.32-3.44,4.62-8.36,7.49-14.41,7.55-7.75.08-17.37-4.57-28.14-16.47-23.97-26.48-36.58-14.01-36.58-14.01"/>
  <path class="cls-3" d="m108.29,94.91h-.11l-5.41-10.66h-2.38v13.89h1.03v-11.3h.16l5.77,11.3h.48l5.7-11.38h.08v11.38h2.34v-13.89h-2.34l-5.31,10.66Zm10.74-7.09v10.32h2.11v-10.93h-.62l-1.5.61Zm1.9-5.56c-.11-.1-.24-.17-.39-.23-.15-.06-.31-.08-.47-.08s-.32.03-.47.08c-.15.06-.27.13-.38.23-.11.1-.2.21-.26.34-.07.13-.1.27-.1.41s.03.29.1.42c.07.13.15.24.26.34.11.1.24.17.38.23.15.06.3.09.47.09s.32-.03.47-.09c.15-.06.28-.13.39-.23.11-.1.2-.21.26-.34.07-.13.1-.27.1-.42s-.03-.28-.1-.41c-.06-.13-.15-.24-.26-.34m10.99,5.9c-.24-.29-.53-.52-.86-.69-.33-.17-.68-.26-1.05-.26-.72,0-1.44.18-2.14.54-.7.36-1.37.91-2.01,1.63v-1.96h-2.12v10.71h2.12v-7.94c.24-.23.49-.44.75-.63.26-.19.52-.35.78-.49.26-.14.51-.24.77-.31.25-.07.49-.11.72-.11.5,0,.91.18,1.23.55.32.37.48.9.48,1.61v7.33h2.13v-7.69c0-.44-.07-.87-.21-1.26-.14-.4-.34-.74-.58-1.03m5.24-5.9c-.11-.1-.24-.17-.39-.23-.15-.06-.31-.08-.48-.08s-.32.03-.47.08c-.15.06-.27.13-.38.23-.11.1-.2.21-.27.34-.07.13-.1.27-.1.41s.03.29.1.42c.07.13.15.24.27.34.11.1.24.17.38.23.15.06.3.09.47.09s.33-.03.48-.09c.15-.06.28-.13.39-.23.11-.1.2-.21.26-.34.07-.13.1-.27.1-.42s-.04-.28-.1-.41c-.07-.13-.15-.24-.26-.34m-1.9,5.56v10.32h2.11v-10.93h-.62l-1.49.61Zm11.25,5.26c-.29-.26-.62-.48-1-.67-.37-.19-.75-.37-1.15-.54-.39-.17-.78-.34-1.15-.5-.37-.16-.7-.34-1-.53-.29-.19-.53-.41-.71-.65-.18-.24-.27-.52-.27-.84,0-.19.05-.38.15-.55.1-.18.24-.32.42-.46.18-.13.4-.23.65-.31.25-.08.53-.11.83-.11.57,0,1.11.16,1.61.49.5.33.95.82,1.36,1.49l.78-.7c-.32-.42-.63-.76-.92-1.02-.3-.26-.59-.46-.89-.6-.3-.14-.6-.24-.91-.29-.31-.05-.65-.07-1-.07-.53,0-1.02.07-1.47.22-.45.15-.84.36-1.16.63-.32.27-.58.58-.76.95-.18.36-.27.77-.27,1.2,0,.46.08.86.24,1.19.16.34.38.63.65.89.27.25.58.48.92.68.35.2.69.38,1.05.55.36.17.71.33,1.05.49.35.16.65.34.92.53.27.2.49.42.65.66.16.25.24.53.24.85,0,.2-.05.4-.15.59-.1.19-.24.36-.41.51-.18.14-.39.26-.63.35-.24.09-.51.14-.81.14s-.59-.04-.85-.11c-.26-.08-.51-.2-.76-.36-.24-.16-.48-.37-.72-.63-.24-.26-.49-.57-.75-.93l-.87.79c.32.42.65.76.98,1.02.34.26.67.46,1.01.6.34.14.67.24,1,.29.33.05.65.08.96.08.69,0,1.28-.08,1.8-.25.51-.16.94-.39,1.28-.68.34-.29.59-.63.76-1.03.17-.39.26-.82.26-1.27s-.09-.84-.27-1.17c-.18-.33-.41-.63-.71-.89m7.79,3.77c-.2.12-.41.18-.65.18-.16,0-.31-.03-.45-.09-.14-.06-.27-.14-.37-.24-.11-.1-.19-.22-.25-.37-.06-.14-.09-.29-.09-.45v-7.55h2.4v-.9h-2.4v-3.66h-.61c-.11.55-.23,1.06-.37,1.55-.14.49-.33.91-.58,1.28-.25.37-.56.66-.95.88-.38.22-.88.32-1.48.32v.53h1.86v7.55c0,.37.04.71.13,1.02.08.31.21.57.38.79.17.22.39.39.65.51.27.12.58.18.93.18.69,0,1.27-.14,1.75-.43.47-.28.85-.67,1.14-1.17l-.53-.36c-.15.17-.32.32-.51.43m8.68-9.25c-.15-.12-.32-.21-.52-.28-.2-.07-.41-.1-.65-.1-.29,0-.57.06-.84.18-.28.12-.54.28-.8.49-.26.2-.51.45-.75.72-.24.27-.46.56-.67.86v-2.02h-2.11v10.71h2.11v-7.42c.15-.24.29-.46.44-.66.15-.2.29-.38.43-.53.14-.15.29-.27.43-.35.14-.08.29-.12.42-.12.18,0,.33.02.45.07.12.05.24.11.36.17.12.06.24.12.39.17.14.05.33.07.57.07.39,0,.69-.09.9-.26.21-.17.32-.44.32-.78,0-.17-.04-.34-.13-.49-.09-.16-.2-.29-.35-.41m7.34,7.58l-4.14-7.73h-2.42l5.49,10.2-.72,1.61c-.09.19-.18.4-.29.63-.11.23-.23.43-.37.62-.14.19-.3.35-.47.47-.17.13-.37.19-.59.19-.21,0-.37-.02-.49-.07-.12-.05-.23-.11-.34-.17-.11-.06-.22-.12-.35-.17-.13-.05-.31-.07-.53-.07-.19,0-.37.03-.52.1-.16.06-.29.15-.4.26-.11.11-.2.23-.26.37-.06.14-.09.29-.09.43,0,.18.05.35.14.5.09.15.21.28.37.39.16.11.34.2.55.25.21.06.43.09.66.09.34,0,.68-.06,1.04-.18.35-.12.7-.31,1.03-.56.34-.25.65-.57.95-.95.3-.39.57-.84.8-1.37l5.47-12.58h-1.14l-3.37,7.73Zm21.1-6.43c-.51-.48-1.1-.85-1.79-1.12-.69-.27-1.44-.41-2.26-.41s-1.57.15-2.27.45c-.7.3-1.29.71-1.8,1.22-.5.52-.9,1.12-1.18,1.81-.28.7-.42,1.44-.42,2.23s.14,1.46.42,2.12c.28.66.67,1.24,1.18,1.73.5.49,1.1.88,1.8,1.17.69.29,1.45.43,2.27.43s1.57-.15,2.26-.47c.69-.31,1.29-.73,1.79-1.27.5-.54.9-1.16,1.18-1.88.28-.72.42-1.48.42-2.29,0-.73-.14-1.42-.42-2.06-.28-.64-.68-1.2-1.18-1.68m-1,6.38c-.14.49-.34.91-.59,1.27-.25.36-.56.65-.91.87-.35.22-.73.33-1.15.33-.58,0-1.1-.15-1.56-.45-.46-.3-.84-.7-1.16-1.21-.31-.51-.55-1.1-.72-1.79-.17-.69-.25-1.42-.25-2.2,0-.54.08-1.05.23-1.53.15-.48.36-.9.61-1.26.26-.36.55-.64.88-.85.33-.21.68-.31,1.04-.31.7,0,1.29.14,1.76.43.48.29.87.69,1.17,1.19.3.5.51,1.09.65,1.77.13.67.2,1.4.2,2.18,0,.54-.07,1.05-.21,1.54m12.13-12.64c-.25-.16-.56-.3-.93-.39-.37-.1-.79-.14-1.26-.14-.55,0-1.07.11-1.56.33-.49.22-.91.52-1.27.9-.36.38-.64.83-.85,1.35-.21.52-.31,1.07-.31,1.65v1.26h-2.24v.9h2.24v9.81h2.14v-9.81h2.86v-.9h-2.86v-2.54c0-.27.04-.54.11-.8.07-.26.18-.49.31-.69.13-.2.29-.36.47-.48.18-.12.38-.19.59-.19.28,0,.49.05.64.15.15.1.27.23.35.38.08.15.14.32.18.49.04.18.1.34.17.49.07.15.18.28.31.38.14.1.33.15.59.15.15,0,.29-.02.42-.07.13-.05.25-.11.35-.2.1-.09.18-.19.24-.31.06-.12.09-.27.09-.42,0-.25-.07-.49-.2-.71-.13-.22-.33-.42-.58-.58m16.36,8.1h-6.98v-6.33h-2.33v13.89h2.33v-6.66h6.98v6.66h2.34v-13.89h-2.34v6.33Zm14.03,4.52c-.24.32-.54.59-.88.84-.35.24-.73.44-1.16.59-.43.15-.87.22-1.34.22-.55,0-1.06-.13-1.52-.38-.47-.25-.87-.6-1.2-1.05-.33-.45-.59-.98-.78-1.59-.19-.61-.28-1.28-.28-2h7.99c0-.6-.12-1.17-.35-1.71-.23-.55-.56-1.03-.98-1.44-.42-.41-.92-.75-1.51-.99-.59-.25-1.23-.37-1.94-.37-.79,0-1.51.15-2.16.45-.65.3-1.2.71-1.66,1.24-.46.53-.81,1.17-1.07,1.9-.25.73-.38,1.52-.38,2.38,0,.72.14,1.39.41,2.02.27.63.65,1.18,1.13,1.64.48.47,1.03.84,1.67,1.11.64.27,1.31.41,2.04.41.55,0,1.1-.11,1.64-.32.54-.21,1.04-.49,1.49-.85.46-.36.86-.78,1.2-1.26.34-.48.59-1,.74-1.55l-.61-.27c-.1.33-.27.66-.51.97m-6.87-5.37c.15-.35.34-.65.57-.9.23-.25.49-.45.79-.6.3-.14.6-.22.92-.22.38,0,.74.07,1.08.22.34.15.63.35.88.6.25.26.45.56.59.91.14.35.21.73.21,1.13h-5.32c.03-.42.12-.79.27-1.14m17.03-1.74c-.3-.24-.69-.44-1.18-.57-.48-.14-1.08-.2-1.79-.2-.58,0-1.13.06-1.66.2-.53.13-.99.3-1.38.53-.39.22-.7.49-.94.79-.23.31-.35.63-.35.99,0,.18.03.35.08.5.05.15.13.29.23.4.1.11.22.2.35.27.14.06.29.09.45.09.21,0,.39-.04.52-.12.14-.08.24-.18.32-.31.08-.13.14-.28.17-.45.03-.17.04-.35.04-.54,0-.2.02-.4.07-.59.05-.2.14-.37.27-.52.13-.15.31-.28.53-.37.23-.09.52-.14.88-.14.32,0,.61.05.86.13.26.09.48.24.65.44.18.21.32.47.42.81.1.34.14.75.14,1.23v.67c-.48.12-.97.25-1.47.39-.5.14-.99.3-1.46.48-.47.18-.92.38-1.34.61-.42.23-.79.49-1.11.78-.32.29-.57.62-.75.99-.18.37-.27.78-.27,1.24,0,.38.06.73.19,1.06.13.33.31.61.55.85.24.24.53.43.87.57.34.14.72.21,1.14.21.45,0,.85-.05,1.19-.15.34-.11.65-.24.94-.41.28-.17.55-.35.79-.55.24-.2.49-.39.74-.59v1.47h2.14v-8.09c0-.42-.07-.81-.2-1.17-.13-.35-.35-.65-.65-.9m-1.29,7.91c-.21.16-.42.31-.62.46-.2.14-.4.27-.61.37-.21.11-.41.19-.63.26-.22.07-.45.09-.69.09-.23,0-.44-.05-.65-.15-.21-.1-.39-.24-.56-.42-.16-.18-.29-.38-.38-.62-.1-.24-.14-.48-.14-.74s.06-.49.19-.73c.13-.23.3-.45.51-.66.22-.21.47-.4.75-.58.29-.18.59-.35.9-.51.31-.16.64-.3.97-.43.33-.13.65-.24.95-.34v4Zm5.08-13.35v15.59h2.12v-16.2h-.61l-1.51.61Zm9.38,14.3c-.2.12-.41.18-.65.18-.16,0-.31-.03-.45-.09-.14-.06-.27-.14-.37-.24-.1-.1-.18-.22-.24-.37-.06-.14-.09-.29-.09-.45v-7.55h2.4v-.9h-2.4v-3.66h-.61c-.11.55-.23,1.06-.37,1.55-.14.49-.33.91-.58,1.28-.25.37-.56.66-.95.88-.39.22-.88.32-1.48.32v.53h1.86v7.55c0,.37.04.71.12,1.02.08.31.21.57.38.79.17.22.39.39.65.51.26.12.57.18.93.18.69,0,1.27-.14,1.75-.43.47-.28.85-.67,1.14-1.17l-.53-.36c-.15.17-.32.32-.51.43m11.09-7.66c-.14-.4-.33-.74-.57-1.03-.24-.29-.53-.52-.86-.69-.33-.17-.68-.26-1.05-.26-.73,0-1.44.18-2.14.54-.7.36-1.37.91-2.02,1.63v-7.44h-.61l-1.52.61v15.59h2.12v-7.94c.24-.23.49-.44.74-.63.26-.19.52-.35.77-.49.26-.14.52-.24.77-.31.25-.07.49-.11.72-.11.51,0,.92.18,1.24.55.32.37.48.9.48,1.61v7.33h2.12v-7.69c0-.44-.07-.87-.21-1.26"/>
  <path class="cls-1" d="m182.96,68.88h-7.55l.08-.46c.23-1.32.34-2.7.34-3.49,0-4.63-2.05-10.04-7.82-10.04-1.98,0-3.89.89-5.46,2-1.8,1.27-3.42,2.82-4.63,4.68-1.37,2.09-2.4,4.43-3.57,6.64-.12.22-.23.44-.35.66h-.12v-8.93h-2.34v8.93h-6.83v-.89c0-9.44-6.83-12.79-12.67-12.79h-9v1.99c.66-.05,8.31-.07,8.7-.07,6.53,0,10.44,4.24,10.48,11.35v.4s-28.88,0-28.88,0v-15.03c-.69-.08-1.9-.14-2.43-.14-4.26,0-10.57,3.07-10.57,9.65,0,2.21.79,4.06,2.3,5.37,1.39,1.21,3.33,1.88,5.44,1.88h.75l1.49-1.59.13-.14h-1.71c-3.5,0-5.86-2.26-5.86-5.63,0-3.1,1.5-4.94,2.76-5.93,1.59-1.25,3.44-1.69,4.55-1.69h.82v14.97h74.31v-26.79h-2.34v25.06Zm-9.9-.3l-.07.3h-16.73l.11-.48c1.46-6.52,7.32-11.58,11.39-11.58,1.31,0,5.59.61,5.59,8.53,0,.5-.02,2.19-.28,3.23m19.65,2.03h2.34v-26.79h-2.34v26.79Zm-86.21-20.62c.98,0,1.78-.8,1.78-1.78s-.8-1.78-1.78-1.78-1.78.8-1.78,1.78.8,1.78,1.78,1.78m106.38.02c.99,0,1.78-.8,1.78-1.78s-.8-1.78-1.78-1.78-1.78.8-1.78,1.78.8,1.78,1.78,1.78m-101.05-.02c.98,0,1.78-.8,1.78-1.78s-.8-1.78-1.78-1.78-1.78.8-1.78,1.78.8,1.78,1.78,1.78m125.31,20.62h2.34v-26.79h-2.34v26.79Zm-30.44-7.06c0,4.02,3.33,7.06,7.74,7.06h5.26v-16.76c-.67-.09-1.44-.14-2.28-.14-6.01,0-10.72,4.32-10.72,9.84m10.66,5.33h-2.23c-4.07,0-5.89-2.83-5.89-5.63,0-4.94,3.75-7.61,7.27-7.61h.85v13.24Zm31.27-22.43c-.98,0-1.78.8-1.78,1.78s.8,1.78,1.78,1.78,1.78-.8,1.78-1.78-.8-1.78-1.78-1.78m17.31,7.8c-6.1,0-10.88,4.16-10.88,9.46s4.45,6.9,7.44,6.9c.41,0,.71,0,.88-.02l1.17-1.2.5-.51h-1.55c-2.95,0-5.93-1.68-5.93-5.44,0-3.36,3.11-7.12,7.27-7.12h.4v14.65c0,2.8-.53,5.4-4.33,5.4-.33,0-.75-.05-1.2-.12l-.3,1.79c.56.11,1.17.18,2.11.18,1.82,0,6.06-.61,6.06-6.25v-17.58c-.65-.09-1.18-.14-1.63-.14m-18.48,17.83c0,3.07-1.23,4.33-4.25,4.33-.32,0-.79-.06-1.17-.12l-.29,1.88c.96.14,1.35.17,2.11.17,1.79,0,5.95-.54,5.95-5.53v-16.57h-2.34v15.84Zm-29.25-25.63c-.98,0-1.78.8-1.78,1.78s.8,1.78,1.78,1.78,1.78-.8,1.78-1.78-.8-1.78-1.78-1.78m9.42,25.63c0,3.07-1.23,4.33-4.26,4.33-.32,0-.79-.06-1.16-.12l-.3,1.88c.96.14,1.36.17,2.11.17,1.79,0,5.94-.54,5.94-5.53v-16.57h-2.34v15.84Z"/>
</svg>