<?xml version="1.0" encoding="UTF-8"?>
<svg id="Layer_1" data-name="Layer 1" xmlns="http://www.w3.org/2000/svg" viewBox="0 0 512 123">
  <defs>
    <style>
      .cls-1 {
        fill: #064956;
      }

      .cls-1, .cls-2, .cls-3, .cls-4, .cls-5, .cls-6 {
        stroke-width: 0px;
      }

      .cls-2 {
        fill: #064a57;
      }

      .cls-3 {
        fill: #054955;
      }

      .cls-4 {
        fill: #0a4b57;
      }

      .cls-5 {
        fill: #00a078;
      }

      .cls-6 {
        fill: #084a56;
      }
    </style>
  </defs>
  <path class="cls-5" d="m252.51,38.44c-.26.21-.42.33-.57.47-2.62,2.49-4.48,5.48-5.73,8.86-1.43,3.86-1.85,7.85-1.54,11.94.18,2.4.62,4.76,1.25,7.08.02.06.02.12-.02.2-3.35-3.91-5.31-8.44-5.96-13.54-.66-5.09.23-9.98,2.17-14.81-.21.09-.33.13-.45.19-2.46,1.28-4.48,3.09-6.21,5.23-2.3,2.84-3.85,6.06-4.9,9.55-.13.43-.25.87-.37,1.3-.04,0-.07,0-.11,0-.07-.59-.17-1.18-.2-1.78-.44-7.32,1.94-13.67,6.63-19.21.81-.95,1.72-1.82,2.6-2.71.08-.09.23-.11.35-.17-.06-.08-.12-.15-.18-.23-6.82.28-12.39,3.26-17.2,7.98.25-.45.48-.91.74-1.35,2.66-4.49,6.1-8.22,10.64-10.86,4.61-2.68,9.59-3.64,14.88-3.12,2.02.2,4,.6,5.94,1.17.48.14.77-.11.89-.64.2-.89.45-1.76.68-2.64.02-.06.05-.12.09-.17.01-.02.04-.02.1-.05.41.76.62,1.59.75,2.44.02.14.03.29.05.43.09.57.41.77.97.61,3.41-.99,6.88-1.48,10.44-1.21,5.35.4,10.02,2.43,14.1,5.86,3.08,2.6,5.54,5.7,7.43,9.25.05.09.09.18.12.31-4.77-4.75-10.35-7.74-17.22-7.94,3.29,3.14,5.96,6.68,7.64,10.91,1.68,4.23,2.28,8.59,1.61,13.1-.04,0-.07.02-.11.03-.07-.23-.13-.45-.2-.68-1.22-4.35-3.19-8.29-6.33-11.59-1.44-1.51-3.05-2.81-4.91-3.78-.12-.06-.24-.11-.35-.16-.02,0-.05,0-.12.03,2.84,7.12,3.28,14.28.34,21.48-1.08,2.64-3.3,6.16-4.24,6.82.18-.76.37-1.49.53-2.22.75-3.37,1.06-6.78.73-10.23-.57-5.89-2.72-11.08-6.9-15.35-.24-.25-.51-.48-.84-.7.2,4.83.08,9.64-.49,14.43-.57,4.78-1.5,9.49-3.05,14.07-1.55-4.58-2.48-9.29-3.05-14.07-.57-4.78-.69-9.59-.43-14.52Z"/>
  <path class="cls-2" d="m227.86,78.4c0,.37,0,.61,0,.85,0,.87-.03,1.75.02,2.62.02.3.15.64.34.87.25.32.47.24.61-.15.38-1.05.89-2.03,1.59-2.91.96-1.19,2.1-2.11,3.65-2.38,3.12-.56,5.18,1.49,5.22,4.13.02,1.37.2,1.54,1.58,1.54,1.5,0,3,0,4.5,0,1.22,0,1.55-.34,1.55-1.57,0-1.91,0-3.81,0-5.72,0-.33.1-.53.4-.68.56-.27,1.1-.58,1.72-.92.02.22.04.35.04.49,0,2.32,0,4.65,0,6.97,0,2.14-1.36,3.49-3.5,3.5-1.72,0-3.45,0-5.17,0-.72,0-1.4-.11-2.02-.51-.09-.06-.28-.05-.38.01-.59.37-1.22.5-1.9.5-2.39,0-4.78,0-7.16,0-.71,0-1.37-.11-1.98-.51-.09-.06-.29-.05-.38,0-.6.37-1.25.5-1.94.5-2.17,0-4.33-.01-6.5,0-1.33,0-2.58-.16-3.58-1.16-.07-.07-.3-.07-.41-.01-1.52.87-3.16,1.19-4.89,1.17-1.84-.02-3.68,0-5.52,0-.27,0-.48.02-.55.35-.25,1.06-.95,1.77-1.9,2.2-1.9.86-3.88.97-5.83.24-1.72-.64-2.66-1.95-2.75-3.82-.04-.82.02-1.63.43-2.35.1-.17.3-.32.49-.38.41-.13.84-.19,1.26-.27.11-.02.22-.02.4-.04-.08.2-.13.32-.19.45-.3.67-.45,1.36-.42,2.09.07,1.56.97,2.59,2.53,2.73.78.07,1.59-.02,2.37-.13.58-.08,1.06-.4,1.41-1.04-.53-.03-1-.05-1.56-.08.15-.31.31-.55.39-.82.32-1.03.98-1.3,2.05-1.26,2.57.1,5.14.02,7.71.03,1.48,0,2.85-.32,4.05-1.21.7-.51.71-.58.17-1.27-1.08-1.4-2.49-1.68-4.01-.77-.42.25-.81.56-1.27.88,0-.63-.01-1.21.01-1.78,0-.11.14-.22.23-.31,1.64-1.64,3.84-1.74,5.68-.24.84.69,1.48,1.54,2,2.48.24.43.15,1-.18,1.38-.12.13-.23.27-.37.43.45.29.91.37,1.37.37,2.01.02,4.02.02,6.03.02.46,0,.91,0,1.37,0,.68-.02,1-.34,1.02-1.02.02-.67.02-1.33,0-2,0-.3.1-.48.37-.61.57-.28,1.13-.59,1.8-.94Zm2.96,4.55c.26.02.42.05.58.05,1.43,0,2.87,0,4.3,0,1.23,0,1.43-.2,1.42-1.43,0-1.75-1.24-2.71-2.92-2.22-1.78.52-2.68,1.92-3.39,3.6Z"/>
  <path class="cls-4" d="m268.89,85.98c.68.13,1.28.29,1.9.34.63.05,1.17-.23,1.56-.74.28-.36.21-.52-.23-.58-.37-.06-.75-.09-1.12-.18-1.49-.35-2.54-1.51-2.73-3.03-.17-1.39.02-2.71,1.09-3.72,1.04-.99,2.31-1.07,3.58-.6,1.19.45,1.71,1.44,1.76,2.68.03.77.03,1.54,0,2.31,0,.38.11.53.51.53,1.89-.02,3.78-.02,5.68,0,.4,0,.59-.15.65-.51.03-.18.04-.36.04-.54,0-2.07,0-4.15,0-6.22,0-.34.1-.55.42-.7.54-.26,1.06-.56,1.71-.9v4.7s.09.02.13.03c.13-.1.25-.21.38-.31,1.31-1.09,2.81-1.54,4.49-1.19,1.84.39,3.07,1.87,3.2,3.77.02.25.01.5.02.74.02.78.35,1.12,1.13,1.13,1.74.01,3.47,0,5.21,0,.55,0,1.1,0,1.64,0,.74-.02,1.04-.31,1.06-1.06.02-.94.02-1.88,0-2.82,0-.33.1-.53.4-.67.56-.27,1.11-.57,1.73-.89.02.23.04.38.04.52,0,1.16,0,2.32,0,3.48,0,.16,0,.31.01.47.06.65.35.95,1,.96.97.02,1.93,0,2.9,0,1.17,0,2.35,0,3.52,0,1,0,1.38-.36,1.4-1.37.02-1.94.02-3.89,0-5.83,0-.39.1-.63.47-.8.53-.24,1.03-.54,1.61-.86.03.22.06.35.06.48,0,2.35.01,4.7,0,7.05-.01,1.61-.82,2.78-2.19,3.22-.38.12-.79.17-1.19.18-2.21.02-4.41,0-6.62,0-.64,0-1.23-.15-1.8-.46-.13-.07-.36-.07-.49,0-.56.32-1.16.46-1.8.46-2.37,0-4.75,0-7.12,0-.63,0-1.21-.14-1.76-.45-.11-.07-.33-.06-.45,0-.57.33-1.19.44-1.84.44-4.49,0-8.98,0-13.47,0-.7,0-.62.03-.75.57-.41,1.75-2.28,2.89-4.19,2.58-.41-.07-.8-.23-1.19-.35-.24-.08-.35-.24-.34-.5.01-.48,0-.96,0-1.38Zm17.64-2.98s0,0,0,0c.82,0,1.64.01,2.46,0,.53-.01.73-.17.76-.69.02-.54.02-1.1-.11-1.62-.22-.9-.99-1.43-1.91-1.43-1.57-.01-3.65,1.69-4,3.26-.08.37.01.5.41.5.79,0,1.59,0,2.38,0Zm-13.96-1.6s0,0,0,0c0-.43.02-.86,0-1.29-.03-.49-.3-.78-.71-.86-.67-.12-1.2.2-1.38.85-.08.3-.13.61-.13.92-.02,1.22.59,1.85,1.81,1.93.3.02.44-.07.43-.38-.01-.39,0-.78,0-1.17Z"/>
  <path class="cls-2" d="m265.25,80.49c-.22-.2-.43-.41-.66-.6-.72-.57-1.53-.88-2.44-.64-.32.08-.66.3-.86.56-.83,1.06-.23,2.72,1.08,3.03.4.09.83.09,1.24.1.72.02,1.43.01,2.15,0,.29,0,.4.11.39.4-.01.43-.01.86,0,1.29,0,.29-.13.39-.4.39-.81,0-1.62,0-2.43,0-.3,0-.6,0-.9.06-1.13.19-1.79.91-1.82,1.97-.03,1.09.62,1.92,1.72,2.16,1.2.26,2.33.02,3.42-.49.16-.08.32-.16.53-.26.03.13.07.23.07.32,0,.34-.03.68.01,1.02.07.54-.19.8-.64,1-1.55.69-3.12.85-4.71.19-2.72-1.14-3.38-4.74-1.25-6.75.24-.23.23-.37,0-.59-1.26-1.23-1.57-4.48.64-5.9,1.48-.95,3.5-.71,4.62.61.18.21.27.52.31.8.05.43.01.88.01,1.31-.04,0-.07.02-.11.03Z"/>
  <path class="cls-1" d="m268.19,96.75c0,.43,0,.86,0,1.28,0,1.08,0,2.17,0,3.25,0,.32-.11.46-.43.44-.27-.01-.55,0-.82,0-.27,0-.37-.12-.37-.38,0-2.36,0-4.72,0-7.08,0-.26.08-.4.36-.37.01,0,.03,0,.04,0,.71-.14,1.17.17,1.57.76.95,1.39,1.96,2.73,2.95,4.09.07.1.15.2.31.4.02-.26.03-.4.03-.55,0-1.41.01-2.82,0-4.23,0-.37.1-.54.49-.49.17.02.34,0,.51,0q.67,0,.67.64c0,2.22,0,4.43,0,6.65,0,.51-.03.49-.53.54-.66.07-1.09-.16-1.47-.7-.95-1.35-1.96-2.67-2.94-4-.08-.11-.17-.21-.25-.32-.04.02-.08.03-.11.05Z"/>
  <path class="cls-2" d="m306.28,96.73c0,.15-.02.3-.02.45,0,1.36-.01,2.71,0,4.07,0,.36-.12.49-.47.48-1.35-.03-1.13.17-1.14-1.1-.01-2.06,0-4.12,0-6.18,0-.55,0-.51.53-.56.62-.07,1.01.17,1.36.67.97,1.39,1.98,2.75,2.98,4.12.09.12.18.25.35.47.02-.25.04-.38.04-.51,0-1.37,0-2.74,0-4.11q0-.63.62-.63c.2,0,.39.02.59,0,.34-.03.46.11.45.45-.01,1.15,0,2.3,0,3.44,0,1.16,0,2.32,0,3.48,0,.34-.12.43-.45.47-.7.09-1.16-.17-1.57-.74-.93-1.33-1.93-2.63-2.89-3.94-.09-.12-.18-.23-.28-.35-.03.01-.06.02-.09.03Z"/>
  <path class="cls-6" d="m232.87,97.86c0,1.13,0,2.27,0,3.4,0,.34-.11.47-.45.46-1.45-.03-1.19.2-1.21-1.18-.01-.59-.01-1.17,0-1.76,0-.31-.1-.45-.43-.45-.83.01-1.67.01-2.5,0-.31,0-.4.14-.4.43.01.83,0,1.67,0,2.5,0,.34-.12.48-.46.45-.23-.02-.47-.02-.7,0-.35.03-.45-.13-.45-.46,0-2.3.01-4.59,0-6.89,0-.38.13-.52.5-.48.23.02.47.02.7,0,.31-.02.41.12.4.42-.01.73.01,1.46,0,2.19,0,.36.1.52.48.51.78-.02,1.57-.02,2.35,0,.37,0,.52-.12.51-.5-.02-.73,0-1.46,0-2.19,0-.32.11-.45.43-.43.26.02.52.02.78,0,.34-.03.46.11.46.45-.01,1.17,0,2.35,0,3.52Z"/>
  <path class="cls-2" d="m199.25,97.82c0,1.14-.01,2.27,0,3.41,0,.37-.13.53-.5.49-.25-.02-.5-.02-.74,0-.31.02-.41-.13-.41-.42.01-.83,0-1.67,0-2.51,0-.34-.12-.47-.46-.46-.81.01-1.62.02-2.43,0-.35,0-.45.14-.45.47.01.82,0,1.64,0,2.47,0,.34-.13.46-.46.46-1.36-.03-1.13.18-1.14-1.13-.01-2.05,0-4.1,0-6.15,0-.55,0-.55.53-.55q1.06,0,1.06,1.05c0,.55,0,1.1,0,1.64,0,.3.12.42.42.42.82,0,1.64-.01,2.47,0,.35,0,.45-.16.45-.48-.01-.73,0-1.46,0-2.19,0-.34.11-.48.45-.45.25.02.5.02.74,0,.35-.03.46.12.45.45-.01,1.16,0,2.32,0,3.48Z"/>
  <path class="cls-2" d="m248.26,101.81c-2,0-3.31-1.15-3.55-3.07-.16-1.26-.02-2.46.69-3.56,1.23-1.92,4.36-1.94,5.56-.03,1.01,1.6,1.1,3.31.26,4.99-.6,1.2-1.65,1.77-2.95,1.68Zm-2-4.04c.11.61.16,1.11.31,1.57.22.71.73,1.09,1.48,1.14.77.05,1.39-.27,1.68-.97.48-1.16.46-2.35-.08-3.49-.28-.59-.79-.89-1.45-.89-.66,0-1.19.29-1.44.9-.24.58-.34,1.21-.49,1.74Z"/>
  <path class="cls-6" d="m300.22,101.69c-.56,0-1.04.02-1.53-.01-.09,0-.19-.2-.25-.32-.34-.72-.67-1.44-1-2.16-.12-.26-.9-.44-1.1-.24-.08.08-.09.24-.09.36,0,.66-.02,1.33,0,1.99,0,.31-.11.43-.41.42-.26-.01-.52-.01-.78,0-.34.02-.45-.13-.45-.46.01-1.86,0-3.73,0-5.59,0-.48-.02-.97.01-1.45,0-.12.16-.34.25-.34.97-.04,1.97-.19,2.92-.05,1.78.26,2.55,1.96,1.73,3.6-.13.26-.31.52-.51.73-.21.22-.23.4-.11.66.38.8.75,1.61,1.12,2.41.06.13.11.25.19.46Zm-3.98-5.43c0,.3-.01.6,0,.9,0,.12.05.27.14.33.4.27,1.24.1,1.47-.32.29-.53.35-1.1.08-1.64-.27-.52-.78-.47-1.27-.46-.32,0-.44.15-.43.46.01.25,0,.49,0,.74Z"/>
  <path class="cls-6" d="m319.32,99.22c0,.51.01,1.02,0,1.53,0,.13-.08.33-.19.39-1.18.69-2.46.9-3.77.54-1.33-.36-1.95-1.43-2.23-2.69-.24-1.08-.18-2.16.29-3.18.98-2.12,3.47-2.75,5.28-1.34.25.19.27.35.11.61-.41.64-.4.65-1.05.33-1.4-.67-2.58-.08-2.93,1.5-.19.87-.19,1.74.29,2.54.5.83,1.35,1.18,2.28.96.23-.06.37-.16.36-.42-.01-.3,0-.6,0-.9,0-.27-.12-.38-.38-.37-.05,0-.11,0-.16,0-.27-.04-.74-.02-.78-.14-.12-.34-.07-.74-.05-1.11,0-.07.19-.17.29-.18.77-.01,1.54,0,2.31,0,.26,0,.33.14.33.37,0,.52,0,1.04,0,1.57Z"/>
  <path class="cls-2" d="m264.71,96.7c-.08,1.02-.07,2.06-.26,3.07-.26,1.36-1.19,2.03-2.57,2.04-.44,0-.9.02-1.32-.08-.99-.24-1.58-.93-1.81-1.9-.1-.43-.15-.88-.16-1.32-.02-1.38,0-2.76-.01-4.15,0-.34.1-.48.47-.48,1.17,0,1.17-.01,1.17,1.14,0,1.13-.01,2.27,0,3.4,0,.37.04.76.13,1.12.16.63.62.94,1.27.94.64,0,1.11-.35,1.25-.97.08-.34.11-.7.11-1.05.01-1.37.01-2.74,0-4.11,0-.34.09-.52.46-.48.22.02.44,0,.66,0,.5,0,.52.01.52.54,0,.76,0,1.51,0,2.27.02,0,.05,0,.07,0Z"/>
  <path class="cls-1" d="m200.99,97.77c0-1.15,0-2.29,0-3.44,0-.34.1-.45.45-.45,1.41.02,2.82.02,4.22,0,.38,0,.5.12.49.49-.01.83,0,.83-.83.83-.76,0-1.51,0-2.27,0-.29,0-.43.1-.42.41.01.33.01.65,0,.98-.01.31.14.41.43.41.68,0,1.36,0,2.03,0,.33,0,.47.1.46.45-.02.99.09.88-.88.89-.55,0-1.1,0-1.64,0-.28,0-.41.1-.4.39.01.42.02.83,0,1.25-.01.33.13.43.44.43.91-.01,1.83,0,2.74,0,.35,0,.49.11.48.47-.02.96.05.85-.84.85-1.33,0-2.66,0-3.99,0-.35,0-.49-.12-.48-.48.01-1.16,0-2.32,0-3.48Z"/>
  <path class="cls-1" d="m281.92,97.76c0-1.15,0-2.3,0-3.44,0-.32.09-.44.42-.43,1.43.02,2.87.01,4.3,0,.28,0,.41.07.41.37,0,1.09.07.94-.9.95-.72,0-1.43,0-2.15,0-.3,0-.43.12-.42.42,0,.31,0,.63,0,.94-.01.32.13.45.45.44.67,0,1.33.01,2,0,.36-.01.48.13.47.48-.02.96.06.85-.83.86-.53,0-1.07.01-1.6,0-.36-.01-.49.14-.48.49.02.38.02.76,0,1.13-.01.34.14.46.47.45.9-.01,1.8,0,2.7,0,.35,0,.49.1.48.47-.02.91.09.85-.84.85-1.27,0-2.53,0-3.8,0q-.66,0-.66-.68c0-1.1,0-2.19,0-3.29Z"/>
  <path class="cls-6" d="m288.17,97.81c0-1.15,0-2.3,0-3.44,0-.35.1-.48.47-.48,1.41.02,2.82.02,4.23,0,.35,0,.45.13.45.46,0,.86.02.86-.84.86-.74,0-1.49,0-2.23,0-.31,0-.46.1-.44.43.02.31.02.63,0,.94-.02.33.13.44.44.43.67-.01,1.33,0,2,0,.35,0,.49.1.48.47-.03.94.12.86-.86.87-.56,0-1.12,0-1.68,0-.26,0-.38.1-.37.37.01.43.01.86,0,1.29-.01.31.12.41.42.41.93,0,1.85,0,2.78,0,.34,0,.47.11.46.45-.02.97.07.86-.86.87-1.3,0-2.61,0-3.91,0-.38,0-.53-.1-.52-.51.02-1.13,0-2.27,0-3.41Z"/>
  <path class="cls-6" d="m213.62,101.7c-.54,0-1,.02-1.46-.01-.1,0-.22-.17-.27-.29-.13-.33-.2-.68-.34-1-.06-.13-.24-.29-.38-.29-.73-.03-1.46-.03-2.19,0-.13,0-.32.16-.38.3-.14.31-.23.64-.33.96-.07.26-.22.36-.49.35-.4-.01-.79,0-1.24,0,.06-.2.08-.31.12-.42.86-2.34,1.72-4.67,2.57-7.02.11-.29.26-.4.57-.4,1.18.03.9-.14,1.28.88.8,2.15,1.59,4.31,2.38,6.46.04.12.08.25.14.47Zm-4.47-2.97c.61,0,1.12,0,1.63-.01.05,0,.15-.16.13-.22-.24-.78-.51-1.55-.76-2.32-.04,0-.08,0-.11,0-.28.81-.57,1.63-.89,2.55Z"/>
  <path class="cls-2" d="m244.02,93.89c-.26.71-.47,1.33-.69,1.93-.66,1.83-1.34,3.65-1.99,5.48-.11.31-.27.45-.6.42-.09-.01-.18-.01-.27,0-.41.06-.6-.12-.73-.51-.79-2.22-1.6-4.44-2.4-6.66-.07-.19-.12-.39-.2-.65.54,0,1.02-.03,1.49.02.11.01.24.25.29.41.48,1.35.94,2.71,1.41,4.07.05.16.12.31.23.58.1-.23.16-.36.21-.5.48-1.39.97-2.78,1.44-4.18.1-.29.24-.43.56-.41.39.02.77,0,1.26,0Z"/>
  <path class="cls-1" d="m254.23,74.1c.01.25.02.39.02.53,0,3.3,0,6.59,0,9.89,0,.56,0,.56-.57.56-.35,0-.7,0-1.06,0-.52,0-.53-.02-.53-.52,0-2.51,0-5.03,0-7.54,0-.48,0-.96,0-1.45,0-.13.04-.32.13-.38.63-.36,1.27-.7,2-1.09Z"/>
  <path class="cls-2" d="m319.3,74.19c0,.15.02.28.02.42,0,3.31,0,6.62,0,9.93,0,.51-.02.53-.53.53-.42,0-.83,0-1.25,0-.28,0-.4-.09-.4-.39,0-3.05,0-6.1.01-9.15,0-.13.08-.32.19-.38.59-.34,1.19-.64,1.79-.96.03-.02.07,0,.16,0Z"/>
  <path class="cls-6" d="m222.69,98.48c0,.93,0,1.85,0,2.78,0,.33-.1.47-.45.47-1.44-.03-1.2.19-1.22-1.18-.01-1.59,0-3.18,0-4.78,0-.53-.03-.56-.55-.56-.44,0-.89,0-1.33,0-.24,0-.36-.11-.36-.35,0-1.16-.06-.95.88-.95,1.66-.01,3.31,0,4.97,0,.36,0,.48.12.48.47,0,.85.01.85-.85.85-.39,0-.78.01-1.17,0-.3,0-.42.11-.41.42.01.95,0,1.91,0,2.86h0Z"/>
  <path class="cls-6" d="m278.54,98.47c0,.94,0,1.88,0,2.82,0,.32-.12.44-.44.44-1.45-.02-1.19.18-1.2-1.15-.02-1.63-.01-3.26,0-4.89,0-.35-.11-.49-.47-.48-.47.02-.94,0-1.41,0-.28,0-.4-.11-.39-.4.01-1.09-.08-.91.88-.92,1.64,0,3.29,0,4.93,0,.38,0,.54.09.53.5-.03.86.09.82-.84.82-.31,0-.63,0-.94,0q-.66,0-.66.68c0,.86,0,1.72,0,2.58Z"/>
  <path class="cls-3" d="m253.43,97.77c0-1.15,0-2.3,0-3.44,0-.34.12-.47.46-.45.26.02.52.02.78,0,.33-.02.43.13.43.44,0,1.24,0,2.48,0,3.72,0,.65,0,1.3,0,1.96,0,.3.12.42.42.42.68,0,1.36,0,2.03,0,.32,0,.47.09.47.44,0,.88.02.88-.86.88-1.08,0-2.17-.01-3.25,0-.35,0-.49-.11-.48-.47.02-1.16,0-2.32,0-3.48Z"/>
  <path class="cls-2" d="m214.68,97.82c0-1.16,0-2.32,0-3.48,0-.34.11-.48.45-.45.25.02.5.02.74,0,.38-.04.47.14.46.48-.01,1.08,0,2.17,0,3.25,0,.77.01,1.54,0,2.31,0,.35.1.5.47.49.66-.02,1.33,0,2,0,.34,0,.45.12.45.46,0,.86.01.86-.84.86-1.08,0-2.17-.01-3.25,0-.38,0-.5-.13-.49-.5.02-1.13,0-2.27,0-3.4Z"/>
  <path class="cls-2" d="m302.7,97.82c0,1.15,0,2.29,0,3.44,0,.33-.1.47-.45.46-1.4-.03-1.16.16-1.17-1.15-.01-2.05,0-4.09,0-6.14,0-.54.01-.55.54-.55.22,0,.44.01.66,0,.32-.02.41.13.4.42,0,1.17,0,2.34,0,3.52Z"/>
  <path class="cls-1" d="m196.41,91.38c-.69,0-1.14-.47-1.13-1.17,0-.71.41-1.1,1.14-1.09.69.01,1.11.44,1.11,1.14,0,.72-.4,1.12-1.12,1.11Z"/>
  <path class="cls-1" d="m299.9,76.35c-.69,0-1.14-.43-1.14-1.11,0-.69.42-1.13,1.11-1.14.7,0,1.12.42,1.13,1.12,0,.73-.38,1.13-1.09,1.13Z"/>
  <path class="cls-3" d="m302.51,76.35c-.7,0-1.16-.45-1.16-1.14,0-.66.47-1.11,1.15-1.11.68,0,1.09.42,1.09,1.11,0,.74-.37,1.14-1.08,1.14Z"/>
  <path class="cls-1" d="m192.69,90.19c.02-.68.46-1.1,1.16-1.07.66.02,1.07.47,1.06,1.15-.01.74-.42,1.13-1.16,1.11-.67-.02-1.08-.48-1.06-1.18Z"/>
</svg>