<?xml version="1.0" encoding="UTF-8"?>
<svg id="Layer_1" data-name="Layer 1" xmlns="http://www.w3.org/2000/svg" viewBox="0 0 512 123">
  <defs>
    <style>
      .cls-1 {
        isolation: isolate;
      }

      .cls-2 {
        fill: #0674aa;
        stroke-width: 0px;
      }
    </style>
  </defs>
  <g class="cls-1">
    <path class="cls-2" d="m162.51,83.57c.09-.6.17-1.21.28-1.81.55-2.97,1.95-5.52,3.91-7.78,3.11-3.59,6.97-6.13,11.34-7.89,1.68-.68,3.47-1.1,5.21-1.64.11-.03.21-.08.42-.16-.24-.11-.4-.17-.55-.24-1.53-.69-3.08-1.32-4.58-2.07-3.04-1.53-4.97-4.1-6.28-7.15-1.78-4.14-1.16-8.14.98-11.98,1.31-2.34,2.95-4.46,5-6.16,1.53-1.25,3.29-2.23,5.02-3.21,2.02-1.15,4.19-1.99,6.45-2.57.16-.04.32-.07.55-.12-.23.84-.45,1.63-.68,2.42-.4,1.4-.78,2.81-1.22,4.2-.08.26-.32.54-.56.68-2.54,1.44-4.86,3.13-6.61,5.51-1.21,1.65-1.96,3.47-1.87,5.55.09,1.94.93,3.58,1.98,5.18,1.69,2.6,4.25,3.76,7.11,4.45,6.08,1.48,11.41-.09,16.12-4.07,1.4-1.19,2.69-2.48,3.54-4.14,1.32-2.58,1.27-5.19.06-7.76-.5-1.07-1.26-2.02-1.89-3.03-.09-.14-.19-.33-.16-.47.53-2.34,1.07-4.68,1.61-7.02.01-.06.04-.12.08-.22,2.68,1.16,4.89,2.93,6.94,5.11.28-1.1.53-2.07.77-3.04.86-3.4,1.72-6.81,2.57-10.21.06-.24.09-.44.42-.44,2.42,0,4.85,0,7.41,0-1.44,5.61-2.84,11.07-4.25,16.54.03.02.07.04.1.06.11-.08.24-.15.34-.25,6.13-5.36,12.26-10.71,18.4-16.06.17-.15.43-.28.65-.28,2.89.01,5.78.05,8.67.08.03,0,.06.02.17.05-5.74,4.93-11.45,9.82-17.27,14.82.7.07,1.24.09,1.76.19,4.22.82,7.68,2.85,10,6.52,2.03,3.21,1.79,6.52.01,9.77-.75,1.38-1.73,2.6-2.82,3.72-.13.14-.26.28-.49.53.78.19,1.44.39,2.11.52,3.19.59,5.99-.12,8.26-2.55,1.22-1.3,2.1-2.82,2.82-4.44,1.35-3.01,2.13-6.2,2.9-9.39.33-1.35.67-2.7.98-4.05.07-.29.2-.38.48-.38,2.26.02,4.52.02,6.78.04.08,0,.15.03.28.05-.28,1.23-.56,2.44-.84,3.64-.84,3.63-1.69,7.25-2.53,10.88-.49,2.12,1.14,4.67,3.31,5.14,1.71.37,3.34-.08,4.98-.54,1.73-.48,2.8-1.57,3.54-3.15,1.21-2.6,1.98-5.34,2.67-8.11.6-2.41,1.15-4.83,1.69-7.25.09-.4.25-.54.66-.54,2.18.02,4.36.02,6.53,0,.44,0,.57.1.46.58-1.03,4.79-2.04,9.58-3.04,14.38-.28,1.36.38,3.19,1.91,4,.98.52,2.04.71,3.13.68,3.01-.09,5.72-1.07,8.06-2.99.58-.47,1.07-1.02,1.45-1.77-.74-.04-1.39-.09-2.05-.1-2.49-.05-4.98-.1-7.48-.12-.44,0-.57-.13-.55-.57.17-3.17,1.34-5.94,3.36-8.34,2.89-3.44,6.62-5.52,10.99-6.48,3.53-.77,7.04-.84,10.51.3,3.75,1.23,6.69,3.41,8.23,7.19,1.01,2.49,1.02,5,.18,7.53-.12.36-.3.47-.68.47-3.79.02-7.58.05-11.37.08-.18,0-.36,0-.57,0,.03.15.03.26.07.34,1.22,2.36,2.95,4.14,5.66,4.68,1.88.37,3.63-.18,5.36-.88,2.29-.93,3.37-2.85,4.27-4.94.95-2.2,1.48-4.53,1.98-6.86.52-2.48,1.07-4.95,1.64-7.42,1.14-4.99,2.31-9.97,3.46-14.95.07-.3.13-.5.52-.5,2.44.02,4.89,0,7.33.01.1,0,.19.02.34.04-.28,1.19-.56,2.34-.84,3.5-2.17,9.11-4.35,18.23-6.52,27.34-.74,3.11-1.49,6.21-2.22,9.33-.09.37-.23.51-.63.5-2.26-.02-4.52,0-6.78-.01-.13,0-.26-.01-.45-.02.14-.65.27-1.27.43-2.03-.26.13-.42.2-.56.28-2.38,1.26-4.89,2.03-7.61,2.07-3.68.05-6.71-1.39-9.15-4.09-.67-.74-1.22-1.57-1.82-2.37-.1-.13-.19-.26-.31-.44-.18.16-.32.28-.47.41-3.28,2.89-6.89,5.21-11.12,6.43-3.87,1.12-7.67,1-11.3-.93-1.45-.77-2.74-1.75-3.89-2.93-.27-.28-.45-.31-.78-.06-2.6,1.98-5.5,3.29-8.76,3.64-3.37.36-6.5-.44-9.32-2.32-.7-.47-1.38-.99-2.02-1.53-.29-.24-.46-.25-.75-.01-2.52,2.01-5.33,3.41-8.48,4.12-3.63.82-7.15.5-10.56-.99-.46-.2-.84-.23-1.32-.04-2.42.95-4.94,1.41-7.54,1.39-3.41-.03-6.59-.91-9.44-2.82-.14-.09-.28-.17-.51-.31-.19.55-.39,1.04-.52,1.56-.1.38-.29.52-.69.53-2.08.04-4.15.1-6.23.16-.18,0-.36,0-.63,0,.37-1.53.72-2.98,1.07-4.44-.04-.02-.08-.05-.12-.07-3.35,2.7-7.09,4.62-11.29,5.73,3.31,1.24,6.23,2.99,8.49,5.87.08-.23.15-.37.18-.51.4-1.56.81-3.11,1.18-4.67.1-.4.23-.57.68-.56,2.13.06,4.25.08,6.38.12.1,0,.19.02.35.04-.74,2.99-1.47,5.95-2.23,9.02.23-.07.37-.1.49-.15,2.87-1.27,5.88-1.87,9.01-1.71,4.17.22,7.93,1.53,10.97,4.52,1.32,1.3,2.28,2.84,2.88,4.6.05.14.1.27.17.46.09-.1.15-.14.19-.21,2.5-4.46,6.39-7.14,11.16-8.69,1.99-.65,4.04-.98,6.12-.89,4.99.22,9.32,1.92,12.44,5.98.77,1,1.22,2.23,1.82,3.35.06.11.11.23.27.34.21-.84.42-1.68.63-2.51.46-1.86.92-3.73,1.37-5.6.07-.29.17-.43.49-.42,2.18.05,4.35.09,6.53.14.03,0,.06.02.18.06-.89,3.69-1.77,7.39-2.66,11.09l.11.06c.12-.1.25-.19.37-.29,4.06-3.53,8.13-7.06,12.18-10.61.34-.29.66-.42,1.11-.42,2.56.02,5.12,0,7.68,0,.16,0,.32,0,.6,0-4.67,4.05-9.24,8.02-13.87,12.04,2.02,2.63,4.02,5.23,6.11,7.95-.02-.22,0-.3-.03-.36-1.33-3.33-.88-6.55.72-9.64,1.92-3.71,4.91-6.31,8.6-8.16,3.16-1.58,6.52-2.35,10.06-2.11,2.85.19,5.46,1.06,7.66,2.96.09.08.18.15.27.21.02.02.06.01.16.03.21-.86.42-1.72.62-2.58.17-.73.17-.73.92-.73,1.85,0,3.69,0,5.54,0,.37,0,.51.1.49.48-.03.46,0,.92,0,1.48.23-.09.38-.13.51-.2,2.24-1.15,4.6-2.01,7.1-2.32,2.81-.34,5.58-.22,8.15,1.15,2.11,1.13,3.25,2.95,3.58,5.31.28,2.05-.14,4.02-.6,6-1,4.3-1.99,8.61-3,12.92-.04.18-.24.42-.4.45-2.34.45-4.69.88-7.03,1.3-.04,0-.09,0-.19-.02.25-1.24.5-2.47.75-3.69.76-3.76,1.55-7.52,2.27-11.3.24-1.27.11-2.56-.34-3.78-.8-2.17-2.48-2.76-4.29-2.71-.67.02-1.36.12-2.02.27-2.85.63-4.64,2.57-5.8,5.08-.54,1.18-.69,2.55-1.01,3.83-.85,3.42-1.69,6.85-2.52,10.27-.09.38-.24.53-.66.53-2.18,0-4.35.05-6.53.08-.18,0-.36,0-.6,0,.18-.8.34-1.53.52-2.34-.18.07-.29.1-.38.16-2.7,1.78-5.65,2.93-8.86,3.33-3.59.45-7.02-.01-10.12-2.04-.3-.2-.59-.42-.97-.55.31.42.63.84,1.01,1.35h-.6c-3.04,0-6.08,0-9.13,0-.39,0-.63-.12-.87-.43-2.49-3.22-4.99-6.43-7.49-9.64-.14-.18-.29-.34-.51-.6-.27,1.03-.51,1.96-.75,2.88-.63,2.45-1.26,4.91-1.88,7.36-.07.26-.14.42-.45.42-2.14.02-4.29.05-6.43.08-.06,0-.13-.02-.26-.05.8-3.27,1.59-6.53,2.37-9.69h-24.26c.18.39.26.64.39.86,1.33,2.36,3.4,3.7,6.02,4.15,3.55.62,6.78-.17,9.64-2.41.12-.1.29-.17.44-.17,1.98-.01,3.95,0,5.97,0-.03.11-.02.18-.06.23-2.07,2.47-4.34,4.72-7.19,6.31-2.15,1.19-4.43,1.95-6.89,2.1-5.35.32-9.82-1.52-13.33-5.6-.82-.95-1.39-2.06-1.82-3.24-.04-.11-.09-.21-.18-.39-2.86,5.04-7.26,7.81-12.79,8.79-5.53.97-10.62-.11-15.05-3.88-.24.91-.47,1.73-.66,2.56-.09.41-.27.56-.7.56-2.09,0-4.19.06-6.28.09-.18,0-.36,0-.62,0,.42-1.67.82-3.28,1.22-4.89-.03-.03-.07-.05-.1-.08-.13.08-.26.16-.38.25-3.9,2.79-8.24,4.52-12.95,5.34-2.35.41-4.72.55-7.09.37-4.7-.35-9.06-1.67-12.73-4.78-2.73-2.33-4.32-5.29-4.78-8.85-.05-.36-.09-.71-.14-1.07,0-.37,0-.73,0-1.1Zm20.78,9.63s.01.09.02.13c1.47-.22,2.97-.34,4.41-.67,3.76-.88,7.02-2.67,9.56-5.65,1.52-1.78,2.55-3.81,2.74-6.17.24-2.94-.81-5.41-3.02-7.36-2.49-2.19-5.51-3.04-8.75-3.19-2.53-.11-4.99.31-7.36,1.2-3.61,1.36-6.63,3.48-8.64,6.86-1.17,1.96-1.72,4.09-1.36,6.38.38,2.39,1.61,4.3,3.53,5.75,2.62,1.98,5.64,2.71,8.87,2.72Zm121.23.69c.37-.04,1.12-.09,1.85-.23,2.53-.5,4.75-1.55,6.43-3.59,3.45-4.2,1.7-10.24-3.42-11.78-2.22-.67-4.44-.48-6.61.18-2.9.87-5.23,2.52-6.57,5.32-1.4,2.93-.62,6.12,1.92,8.12,1.77,1.39,3.82,1.94,6.41,1.97Zm-86.45.1c.38-.03.9-.06,1.4-.12,2.85-.36,5.34-1.46,7.27-3.63,1.51-1.7,2.24-3.67,1.73-5.96-.42-1.86-1.56-3.2-3.16-4.17-2.49-1.51-5.19-1.82-8.01-1.3-2.27.42-4.3,1.35-5.97,2.98-.22.22-.39.53-.47.84-.45,1.68-.78,3.39-1.3,5.04-.36,1.14-.1,2.03.6,2.89.19.23.37.47.58.68,1.98,1.99,4.47,2.69,7.33,2.77Zm8.99-34.89c.77.02,2.13-.21,3.44-.63,2.5-.8,4.65-2.12,6.09-4.38.89-1.39,1.29-2.9.89-4.55-.54-2.19-2.03-3.53-4.02-4.37-2.92-1.24-5.88-1.13-8.84-.14-2.34.78-4.34,2.07-5.71,4.18-1.95,3-1.24,6.35,1.76,8.31,1.75,1.14,3.7,1.56,6.39,1.58Zm33.92,23.83c-.14-.28-.21-.46-.31-.62-.96-1.64-2.33-2.79-4.11-3.45-1.93-.72-3.91-.81-5.93-.5-2.86.44-5.18,1.79-6.86,4.17-.09.13-.15.27-.22.41h17.43Zm36.45-34.97h16.38c-.98-2.01-4.12-4.54-8.15-4.55-3.87-.01-7.07,2.32-8.23,4.55Z"/>
    <path class="cls-2" d="m349.49,23.45c-.32,1.31-.64,2.59-.96,3.87-2.64,10.71-5.28,21.41-7.91,32.12-.34,1.4-.69,2.8-1.03,4.2-.07.27-.13.47-.5.47-2.34-.02-4.69-.01-7.03-.01-.05,0-.09-.02-.21-.04.2-.87.39-1.74.59-2.6,2.32-9.9,4.64-19.79,6.96-29.69.62-2.64,1.25-5.28,1.86-7.93.06-.28.13-.44.47-.44,2.49.01,4.99,0,7.48,0,.08,0,.15.03.29.05Z"/>
    <path class="cls-2" d="m202.89,30.69c-.52,2.14-1.03,4.19-1.54,6.26-2.48-.63-4.99-.57-7.55-.78.15-.74.3-1.45.45-2.15.25-1.2.52-2.39.75-3.59.07-.37.24-.5.6-.48,1.55.12,3.1.24,4.66.37.69.06,1.38.16,2.07.25.17.02.35.07.57.12Z"/>
    <path class="cls-2" d="m271.77,70.17c.28-1.2.54-2.33.82-3.45.12-.48.14-1.11.46-1.37.29-.24.92-.09,1.4-.09,1.66,0,3.32.03,4.98.04.16,0,.32.03.54.04-.32,1.35-.63,2.65-.95,3.95-.21.87-.22.87-1.12.87-1.86,0-3.72,0-5.58,0-.16,0-.32,0-.55,0Z"/>
    <path class="cls-2" d="m262.63,65.39c-.37,1.53-.72,2.99-1.09,4.45-.03.13-.21.32-.33.33-2.22.02-4.45.01-6.77.01.13-.56.24-1.07.36-1.57.23-.98.47-1.96.7-2.94.06-.26.16-.4.46-.4,2.09.03,4.18.04,6.28.05.11,0,.22.04.39.07Z"/>
    <path class="cls-2" d="m248.53,70.17c-1,0-1.99-.02-2.99,0-.48.01-.55-.13-.43-.58.34-1.28.63-2.57.92-3.86.08-.33.2-.49.59-.48,2.01.04,4.02.05,6.03.05.38,0,.54.07.42.52-.34,1.31-.64,2.64-.94,3.96-.07.28-.19.41-.51.4-1.03-.02-2.06,0-3.09,0h0Z"/>
  </g>
</svg>