<?xml version="1.0" encoding="UTF-8"?>
<svg id="Layer_1" data-name="Layer 1" xmlns="http://www.w3.org/2000/svg" viewBox="0 0 512 123">
  <defs>
    <style>
      .cls-1 {
        fill: #33b09c;
      }

      .cls-1, .cls-2, .cls-3 {
        stroke-width: 0px;
      }

      .cls-2 {
        fill: #054045;
      }

      .cls-3 {
        fill: #3e7fbf;
      }
    </style>
  </defs>
  <g>
    <path class="cls-2" d="m332.22,61.62c2.44-2.6,4.42-2.87,7.53-1.03,7,4.13,14,8.26,20.99,12.4.53.31,1.07.62,1.54,1.01,1.13.93,1.48,2.42.91,3.67-.61,1.34-1.99,2.04-3.52,1.72-.54-.11-1.05-.34-1.57-.54-5.16-2.01-10.32-4.03-15.48-6.04-1.33-.52-1.37-.51-1.52.91-.59,5.82-1.15,11.64-1.71,17.46-.42,4.35-.83,8.7-1.25,13.05-.04.37-.1.73-.19,1.09-.59,2.34-3.29,3.16-5.09,1.55-.31-.28-.59-.59-.89-.89-.03-.74-.1-1.48-.1-2.22-.02-12.96-.05-25.91-.04-38.87,0-1.1.25-2.19.39-3.29Z"/>
    <path class="cls-3" d="m364.65,37.53c-.1,1.4-.75,2.4-2.06,3-4.4,2.02-8.78,4.07-13.17,6.1-3.32,1.54-6.62,3.14-10,4.56-2.7,1.14-4.79.74-6.28-.85-.71-.76-1.16-1.57-1.12-2.63.02-.68.01-1.36-.01-2.03-.09-2.08-.29-4.17-.27-6.25.06-7.32.18-14.65.29-21.97.03-1.73,1.03-3.04,2.51-3.13,1.58-.09,2.93.46,3.38,2.21.33,1.3.53,2.63.7,3.96.31,2.43.55,4.86.85,7.29.23,1.88.5,3.76.76,5.63.23,1.63.49,3.26.69,4.9.17,1.43.27,1.51,1.72,1.11,6.08-1.66,12.15-3.34,18.25-4.94,1.77-.46,4,.73,3.77,3.05Z"/>
    <path class="cls-1" d="m301.54,73.71c-1.36,0-2.26-.5-2.94-1.99-.55-1.21-.28-2.54.83-3.51,1.71-1.49,3.49-2.9,5.25-4.34,2.99-2.45,6-4.88,8.96-7.36,1.29-1.08,1.25-1.14.01-2.38-4.4-4.4-8.8-8.81-13.22-13.2-.81-.81-1.41-1.66-1.37-2.9.09-2.39,2.33-3.78,4.43-2.66.97.52,1.86,1.19,2.76,1.84,5.13,3.69,10.25,7.4,15.37,11.09,1.49,1.08,3.02,2.1,4.47,3.22,2.75,2.14,3.36,6.19-.28,8.53-3.35,2.16-6.85,4.09-10.31,6.08-3.98,2.29-7.98,4.55-11.98,6.79-.61.34-1.32.52-1.99.77Z"/>
  </g>
  <g>
    <g>
      <path class="cls-2" d="m147.38,45c0-1.3.38-2.29,1.14-2.99.76-.69,1.87-1.04,3.31-1.04.2,0,.41,0,.63.02.23.01.45.03.66.05s.4.05.58.09c.18.03.32.06.43.09.11.04.19.08.22.12.04.04.05.1.05.19v4.21c0,.3.06.49.19.59.13.09.34.14.64.14h.53v2.4h-.84c-.44,0-.86-.06-1.26-.17s-.72-.34-.97-.67c-.27.15-.56.27-.89.35-.33.08-.64.12-.95.12h-.15c-.46,0-.9-.06-1.31-.19s-.76-.31-1.07-.57c-.3-.26-.54-.59-.71-1-.17-.41-.26-.9-.26-1.48v-.26Zm1.05-7.12c0-.1.04-.19.11-.26.07-.07.16-.1.26-.1h1.35c.1,0,.19.03.27.1s.12.15.12.26v1.47c0,.09-.04.17-.12.24-.08.07-.17.1-.26.1h-1.35c-.1,0-.19-.03-.26-.1-.07-.07-.11-.15-.11-.24v-1.47Zm1.24,7.01c0,.51.11.86.32,1.06.21.2.52.3.94.3h.19c.28,0,.5-.05.67-.14.17-.09.26-.26.26-.49v-2.49c-.09-.02-.19-.03-.28-.03h-.31c-.56,0-.99.14-1.31.41-.31.27-.47.67-.47,1.18v.2Zm1.9-7.01c0-.1.04-.19.12-.26s.17-.1.26-.1h1.35c.1,0,.19.03.26.1.07.07.11.15.11.26v1.47c0,.09-.04.17-.11.24-.07.07-.16.1-.26.1h-1.35c-.09,0-.18-.03-.26-.1-.08-.07-.12-.15-.12-.24v-1.47Z"/>
      <path class="cls-2" d="m155.16,46.64c0-.05.06-.09.18-.12.12-.03.22-.05.32-.05h.73c.08,0,.17,0,.26-.02s.18-.03.25-.06.13-.08.18-.15c.05-.07.07-.16.07-.27v-3.71c0-.08.03-.15.09-.21s.14-.09.24-.09h1.75c.08,0,.15.03.22.09s.09.13.09.21v4.01s.08.07.15.1c.07.03.15.05.24.06.09.02.17.03.26.03.08,0,.15,0,.22,0h.48v2.4h-.2c-.43,0-.86-.03-1.29-.1-.43-.07-.79-.21-1.08-.43-.14.1-.31.19-.5.25-.19.07-.39.12-.59.16s-.4.07-.6.09-.4.02-.58.02h-.37c-.09,0-.2-.02-.32-.05-.12-.03-.18-.07-.18-.12v-2.06Zm.36,3.88c0-.1.04-.19.11-.25.07-.07.16-.1.26-.1h1.35c.1,0,.19.03.27.1.08.07.12.15.12.25v1.49c0,.08-.04.16-.12.22-.08.07-.17.1-.26.1h-1.35c-.1,0-.19-.03-.26-.1-.07-.07-.11-.14-.11-.22v-1.49Zm3.14,0c0-.1.04-.19.12-.25.08-.07.17-.1.26-.1h1.35c.1,0,.19.03.26.1.07.07.11.15.11.25v1.49c0,.08-.04.16-.11.22-.07.07-.16.1-.26.1h-1.35c-.09,0-.18-.03-.26-.1-.08-.07-.12-.14-.12-.22v-1.49Z"/>
      <path class="cls-2" d="m160.25,46.64c0-.05.06-.09.18-.12.12-.03.22-.05.32-.05h.46c.13,0,.28-.02.45-.05s.26-.12.29-.26c.02-.04.03-.09.03-.14v-1.32c0-.59.09-1.1.27-1.54.18-.44.43-.81.75-1.1.32-.3.7-.52,1.15-.67s.94-.22,1.48-.22,1.02.07,1.46.22c.44.14.81.36,1.13.66.31.3.56.66.73,1.1.17.44.25.95.25,1.54v1.16c0,.1,0,.19-.03.27.03.07.08.13.15.18.07.05.14.08.23.11.09.03.17.04.26.05s.15.02.2.02h.45v2.4h-.37c-.35,0-.7-.04-1.06-.11-.36-.07-.69-.2-1-.37-.29.27-.64.46-1.06.58s-.87.18-1.37.18c-.25,0-.5-.02-.76-.05-.26-.03-.51-.08-.74-.14-.24-.06-.46-.14-.66-.24s-.36-.21-.49-.33c-.23.18-.5.3-.83.37-.32.07-.65.11-.97.11h-.42c-.09,0-.2-.02-.32-.05-.12-.03-.18-.07-.18-.12v-2.06Zm4.05-1.84v.65c0,.22.01.42.05.6.06.33.2.56.43.7.22.13.5.2.83.2.42,0,.74-.11.96-.33.22-.22.33-.61.33-1.17v-.65c0-.57-.11-.97-.32-1.2-.21-.23-.53-.35-.97-.35s-.76.12-.98.35c-.22.23-.32.63-.32,1.2Z"/>
      <path class="cls-2" d="m169.84,46.64c0-.05.06-.09.18-.12.12-.03.22-.05.32-.05h.73c.08,0,.17,0,.26-.02s.18-.03.25-.06.13-.08.18-.15c.05-.07.07-.16.07-.27v-3.71c0-.08.03-.15.09-.21s.14-.09.24-.09h1.75c.08,0,.15.03.22.09s.09.13.09.21v4.01s.08.07.15.1c.07.03.15.05.24.06.09.02.17.03.26.03.08,0,.15,0,.22,0h.48v2.4h-.2c-.43,0-.86-.03-1.29-.1-.43-.07-.79-.21-1.08-.43-.14.1-.31.19-.5.25-.19.07-.39.12-.59.16s-.4.07-.6.09-.4.02-.58.02h-.37c-.09,0-.2-.02-.32-.05-.12-.03-.18-.07-.18-.12v-2.06Zm2.01-8.03c0-.1.04-.19.11-.25.07-.07.16-.1.26-.1h1.58c.09,0,.17.03.24.1.07.07.1.15.1.25v1.47c0,.09-.03.17-.1.24-.07.07-.15.1-.25.1h-1.56c-.11,0-.2-.03-.27-.1-.07-.07-.1-.15-.1-.24v-1.47Z"/>
      <path class="cls-2" d="m174.93,46.64c0-.05.06-.09.18-.12.12-.03.22-.05.32-.05h.73c.08,0,.17,0,.26-.02s.18-.03.25-.06.13-.08.18-.15c.05-.07.07-.16.07-.27v-3.71c0-.08.03-.15.09-.21s.14-.09.24-.09h1.75c.08,0,.15.03.22.09s.09.13.09.21v4.01s.08.07.15.1c.07.03.15.05.24.06.09.02.17.03.26.03.08,0,.15,0,.22,0h.48v2.4h-.2c-.43,0-.86-.03-1.29-.1-.43-.07-.79-.21-1.08-.43-.14.1-.31.19-.5.25-.19.07-.39.12-.59.16s-.4.07-.6.09-.4.02-.58.02h-.37c-.09,0-.2-.02-.32-.05-.12-.03-.18-.07-.18-.12v-2.06Zm.54-8.03c0-.1.04-.19.11-.25s.16-.1.26-.1h1.35c.1,0,.19.03.27.1s.12.15.12.25v1.47c0,.09-.04.17-.12.24-.08.07-.17.1-.26.1h-1.35c-.1,0-.19-.03-.26-.1-.07-.07-.11-.15-.11-.24v-1.47Zm3.14,0c0-.1.04-.19.12-.25s.17-.1.26-.1h1.35c.1,0,.19.03.26.1.07.07.11.15.11.25v1.47c0,.09-.04.17-.11.24-.07.07-.16.1-.26.1h-1.35c-.09,0-.18-.03-.26-.1-.08-.07-.12-.15-.12-.24v-1.47Z"/>
      <path class="cls-2" d="m180.02,46.64c0-.05.06-.09.18-.12.12-.03.22-.05.32-.05h.94c.22,0,.37-.02.45-.06.08-.04.12-.18.12-.42v-8.66c0-.09.03-.17.09-.23s.14-.09.23-.09h1.78c.08,0,.15.03.22.09s.09.14.09.23v9.03c0,.31,0,.63-.02.95-.01.33-.04.64-.07.94-.02.1-.05.19-.1.26-.05.07-.13.13-.25.17-.12.03-.3.06-.53.09-.23.03-.48.05-.75.06-.27.02-.55.03-.84.03-.29,0-.55,0-.77,0h-.59c-.09,0-.2-.02-.32-.05-.12-.03-.18-.07-.18-.12v-2.06Z"/>
      <path class="cls-2" d="m190.39,46.5c0-.12,0-.27.02-.43,0-.16.02-.35.04-.54.01-.2.04-.39.06-.59.03-.2.06-.39.1-.57.02-.1.05-.18.09-.23.04-.05.12-.08.23-.08h1.53c.19,0,.28.09.28.28-.02.22-.04.43-.05.63-.01.2-.02.37-.02.52,0,.56.03,1.07.1,1.52.07.46.2.85.41,1.18.21.33.5.58.88.76.38.18.89.27,1.53.27.27,0,.49,0,.67-.02.18-.02.37-.04.58-.07,0-.24.02-.45.02-.64s.01-.37.02-.54c0-.17,0-.34,0-.51v-1.73c0-1.24.36-2.15,1.09-2.74.73-.59,1.79-.88,3.18-.88.46,0,.91.02,1.35.06.43.04.78.09,1.04.14.08.02.15.05.2.09.05.04.08.11.08.22v3.37c0,.22.05.36.14.43.09.07.26.1.51.1h.71v2.4h-1.35c-.38,0-.72-.03-1.01-.08-.29-.05-.54-.15-.75-.31-.21-.15-.36-.37-.47-.66s-.16-.66-.16-1.12v-2.41c-.12-.02-.22-.03-.3-.04-.08,0-.17,0-.29,0-.55,0-.95.12-1.2.37-.25.25-.38.68-.38,1.3v2.4c0,.43,0,.87-.02,1.32s-.03.88-.05,1.29c0,.19-.11.3-.34.34-.46.08-.98.14-1.55.19-.57.04-1.16.06-1.77.06-1.75,0-3.05-.41-3.9-1.21-.85-.81-1.27-2.08-1.27-3.8Zm2.03,6.31c0-.1.04-.18.11-.24.07-.06.16-.09.26-.09h1.32c.09,0,.18.03.25.09.07.06.11.14.11.24v1.31c0,.07-.04.14-.12.2s-.16.09-.24.09h-1.32c-.1,0-.19-.03-.26-.09-.07-.06-.11-.13-.11-.2v-1.31Zm3.11,0c0-.1.04-.18.11-.24.07-.06.15-.09.23-.09h1.36c.08,0,.16.03.23.09.07.06.11.14.11.24v1.31c0,.07-.04.14-.11.2-.07.06-.15.09-.23.09h-1.36c-.08,0-.16-.03-.23-.09-.07-.06-.11-.13-.11-.2v-1.31Z"/>
      <path class="cls-2" d="m204.58,46.64c0-.05.06-.09.18-.12.12-.03.22-.05.32-.05h.73c.08,0,.17,0,.26-.02s.18-.03.25-.06.13-.08.18-.15c.05-.07.07-.16.07-.27v-3.71c0-.08.03-.15.09-.21s.14-.09.24-.09h1.75c.08,0,.15.03.22.09s.09.13.09.21v4.01s.08.07.15.1c.07.03.15.05.24.06.09.02.17.03.26.03.08,0,.15,0,.22,0h.48v2.4h-.2c-.43,0-.86-.03-1.29-.1-.43-.07-.79-.21-1.08-.43-.14.1-.31.19-.5.25-.19.07-.39.12-.59.16s-.4.07-.6.09-.4.02-.58.02h-.37c-.09,0-.2-.02-.32-.05-.12-.03-.18-.07-.18-.12v-2.06Zm2.01-8.03c0-.1.04-.19.11-.25.07-.07.16-.1.26-.1h1.58c.09,0,.17.03.24.1.07.07.1.15.1.25v1.47c0,.09-.03.17-.1.24-.07.07-.15.1-.25.1h-1.56c-.11,0-.2-.03-.27-.1-.07-.07-.1-.15-.1-.24v-1.47Z"/>
      <path class="cls-2" d="m209.67,46.64c0-.05.06-.09.18-.12.12-.03.22-.05.32-.05h1.61v-9.14c0-.09.03-.17.09-.23.06-.06.13-.09.22-.09h1.81c.09,0,.17.03.23.09.06.06.09.14.09.23v4.46c.27-.18.56-.32.87-.42.31-.1.63-.18.93-.23.31-.05.6-.09.87-.1.27-.02.5-.02.69-.02.66,0,1.27.07,1.82.22.55.15,1.03.38,1.42.72.4.34.7.78.92,1.33.22.55.32,1.22.32,2.01v.56c0,.18,0,.37-.02.6,0,.22-.02.45-.04.67-.01.23-.03.45-.05.67-.02.22-.05.4-.08.56-.02.1-.06.2-.12.29s-.17.14-.32.16c-.16.02-.4.03-.74.04s-.71.01-1.1.02c-.39.01-.77.02-1.14.02h-8.29c-.09,0-.2-.02-.32-.05-.12-.03-.18-.07-.18-.12v-2.06Zm9.65-.11c.13,0,.23-.05.29-.15.06-.1.08-.32.08-.65v-.25c0-.79-.21-1.35-.63-1.68s-1.13-.49-2.12-.49c-.18,0-.38,0-.62.02-.24.01-.48.03-.73.07-.25.04-.5.09-.74.17-.24.08-.45.18-.63.3v2.63c.22.01.49.02.81.02.32,0,.67,0,1.07,0h3.23Z"/>
      <path class="cls-2" d="m224.29,50.77c0-.19.09-.28.28-.28h1.47c.4,0,.75-.02,1.03-.05.28-.04.52-.1.7-.19.19-.09.32-.22.41-.39.09-.16.14-.37.16-.62v-.37h-.84c-1.19,0-2.11-.3-2.77-.89-.66-.59-.99-1.47-.99-2.62v-.26c0-1.3.37-2.29,1.12-2.98.75-.69,1.83-1.03,3.26-1.03.19,0,.41,0,.65.02.24.01.46.03.68.05s.42.05.6.08c.19.03.33.07.43.11.1.05.17.1.22.13.04.04.06.1.06.18v4.81h1.35v2.4h-1.39v.48c-.06.67-.22,1.22-.46,1.65-.25.43-.56.76-.94,1-.38.24-.8.4-1.28.49-.48.09-.98.13-1.49.13h-.42c-.2,0-.4,0-.61-.02-.21-.01-.41-.02-.6-.03s-.32-.03-.39-.05c-.09-.02-.16-.06-.19-.11s-.05-.12-.05-.2v-1.44Zm1.76-5.72c0,.51.1.88.32,1.13.21.25.57.37,1.08.37h.94v-3.28c-.11-.01-.23-.02-.36-.02-.12,0-.24,0-.36,0-.53,0-.93.15-1.21.45-.28.3-.42.71-.42,1.22v.14Z"/>
      <path class="cls-2" d="m231.5,46.64c0-.05.06-.09.18-.12.12-.03.22-.05.32-.05h.94c.22,0,.37-.02.45-.06.08-.04.12-.18.12-.42v-8.66c0-.09.03-.17.09-.23s.14-.09.23-.09h1.78c.08,0,.15.03.22.09s.09.14.09.23v9.03c0,.31,0,.63-.02.95-.01.33-.04.64-.07.94-.02.1-.05.19-.1.26-.05.07-.13.13-.25.17-.12.03-.3.06-.53.09-.23.03-.48.05-.75.06-.27.02-.55.03-.84.03-.29,0-.55,0-.77,0h-.59c-.09,0-.2-.02-.32-.05-.12-.03-.18-.07-.18-.12v-2.06Z"/>
      <path class="cls-2" d="m238.15,37.33c0-.09.03-.17.09-.23s.14-.09.24-.09h1.76c.09,0,.17.03.23.09.06.06.09.14.09.23v11.22c0,.08-.03.16-.09.22-.06.07-.14.1-.23.1h-1.76c-.1,0-.18-.03-.24-.1-.06-.07-.09-.14-.09-.22v-11.22Z"/>
      <path class="cls-2" d="m245.32,50.79c0-.18.09-.27.28-.27h.31c.26,0,.48-.01.67-.03.19-.02.35-.07.46-.16.12-.09.21-.22.26-.39.06-.17.09-.4.09-.7v-6.98c0-.08.03-.15.09-.21.06-.06.14-.09.23-.09h1.75c.08,0,.15.03.22.09s.09.13.09.21v4.21h1.35v2.4h-1.41v.56c0,.36-.03.7-.08,1.01-.05.31-.13.58-.25.82-.26.5-.61.85-1.06,1.05s-1.01.31-1.68.31h-.22c-.09,0-.19,0-.3,0-.11,0-.22-.01-.32-.02-.11-.01-.2-.02-.27-.03-.14-.03-.22-.13-.22-.31v-1.45Zm2.14-12.18c0-.1.04-.19.11-.25.07-.07.16-.1.26-.1h1.58c.09,0,.17.03.24.1.07.07.1.15.1.25v1.47c0,.09-.03.17-.1.24-.07.07-.15.1-.26.1h-1.56c-.11,0-.2-.03-.27-.1-.07-.07-.1-.15-.1-.24v-1.47Z"/>
      <path class="cls-2" d="m250.5,46.77c0-.08.05-.15.16-.21s.22-.09.33-.09h6.78c.23,0,.45,0,.65,0,.2,0,.33,0,.38,0,0-.12.02-.27.02-.43,0-.16,0-.3,0-.41,0-.76-.24-1.31-.73-1.64-.49-.33-1.19-.49-2.12-.49h-3.45c-.26,0-.39-.09-.4-.28,0-.02,0-.06,0-.12,0-.06,0-.13-.01-.2s0-.14,0-.2v-.11c0-.27.02-.52.07-.77.05-.24.11-.48.2-.73.09-.24.19-.49.32-.75.12-.26.27-.54.43-.84l1.18-2.18c.05-.08.11-.15.18-.22s.16-.09.27-.09h1.79c.08,0,.14.02.17.05.03.04.05.08.05.13s-.02.11-.05.17l-1.45,2.78c-.04.07-.09.16-.15.28s-.11.23-.16.35c-.05.12-.1.22-.13.32-.04.09-.05.15-.05.19.39-.02.7-.04.94-.05.23-.01.44-.02.63-.02.94,0,1.73.11,2.36.33.64.22,1.14.54,1.52.96.38.42.65.93.81,1.53.16.6.24,1.28.24,2.03v.45c0,.1,0,.25,0,.43s-.01.37-.03.56c-.02.19-.03.38-.05.56-.01.18-.03.33-.04.44-.03.19-.15.28-.37.29-.18.02-.41.03-.7.04-.29,0-.6.01-.94.02-.34.01-.69.02-1.04.02h-7.1c-.11,0-.22-.03-.33-.08-.11-.05-.16-.12-.16-.2v-1.83Z"/>
      <path class="cls-2" d="m261.61,50.79c0-.18.09-.27.28-.27h.31c.26,0,.48-.01.67-.03.19-.02.35-.07.46-.16.12-.09.21-.22.26-.39.06-.17.09-.4.09-.7v-6.98c0-.08.03-.15.09-.21.06-.06.14-.09.23-.09h1.75c.08,0,.15.03.22.09s.09.13.09.21v4.21h1.35v2.4h-1.41v.56c0,.36-.03.7-.08,1.01-.05.31-.13.58-.25.82-.26.5-.61.85-1.06,1.05s-1.01.31-1.68.31h-.22c-.09,0-.19,0-.3,0-.11,0-.22-.01-.32-.02-.11-.01-.2-.02-.27-.03-.14-.03-.22-.13-.22-.31v-1.45Z"/>
      <path class="cls-2" d="m266.79,46.64c0-.05.06-.09.18-.12.12-.03.22-.05.32-.05h.46c.13,0,.28-.02.45-.05s.26-.12.29-.26c.02-.04.03-.09.03-.14v-1.32c0-.59.09-1.1.27-1.54.18-.44.43-.81.75-1.1.32-.3.7-.52,1.15-.67.45-.15.94-.22,1.48-.22s1.02.07,1.46.22c.44.14.81.36,1.13.66.31.3.56.66.73,1.1.17.44.25.95.25,1.54v1.16c0,.1,0,.19-.03.27.03.07.08.13.15.18.07.05.14.08.23.11.09.03.17.04.26.05s.15.02.2.02h.45v2.4h-.37c-.35,0-.7-.04-1.06-.11-.36-.07-.69-.2-1-.37-.29.27-.64.46-1.06.58s-.87.18-1.37.18c-.25,0-.5-.02-.76-.05-.26-.03-.51-.08-.74-.14-.24-.06-.46-.14-.66-.24s-.36-.21-.49-.33c-.23.18-.5.3-.83.37-.32.07-.65.11-.97.11h-.42c-.09,0-.2-.02-.32-.05-.12-.03-.18-.07-.18-.12v-2.06Zm4.05-1.84v.65c0,.22.01.42.05.6.06.33.2.56.43.7.22.13.5.2.83.2.42,0,.74-.11.96-.33.22-.22.33-.61.33-1.17v-.65c0-.57-.11-.97-.32-1.2-.21-.23-.53-.35-.97-.35s-.76.12-.98.35c-.22.23-.32.63-.32,1.2Z"/>
      <path class="cls-2" d="m276.38,46.64c0-.05.06-.09.18-.12.12-.03.22-.05.32-.05h.94c.22,0,.37-.02.45-.06.08-.04.12-.18.12-.42v-8.66c0-.09.03-.17.09-.23s.14-.09.23-.09h1.78c.08,0,.15.03.22.09s.09.14.09.23v9.03c0,.31,0,.63-.02.95-.01.33-.04.64-.07.94-.02.1-.05.19-.1.26-.05.07-.13.13-.25.17-.12.03-.3.06-.53.09-.23.03-.48.05-.75.06-.27.02-.55.03-.84.03-.29,0-.55,0-.77,0h-.59c-.09,0-.2-.02-.32-.05-.12-.03-.18-.07-.18-.12v-2.06Z"/>
      <path class="cls-2" d="m283.03,37.33c0-.09.03-.17.09-.23s.14-.09.24-.09h1.76c.09,0,.17.03.23.09.06.06.09.14.09.23v11.22c0,.08-.03.16-.09.22-.06.07-.14.1-.23.1h-1.76c-.1,0-.18-.03-.24-.1-.06-.07-.09-.14-.09-.22v-11.22Z"/>
      <path class="cls-2" d="m147.34,66.39c0-.12,0-.27.02-.43,0-.16.02-.35.04-.54.01-.2.04-.39.06-.59.03-.2.06-.39.1-.57.02-.1.05-.18.09-.23.04-.05.12-.08.23-.08h1.53c.19,0,.28.09.28.28-.02.22-.04.43-.05.63-.01.2-.02.37-.02.52,0,.56.03,1.07.1,1.52.07.46.2.85.41,1.18.21.33.5.58.88.76.38.18.89.27,1.53.27.27,0,.49,0,.67-.02.18-.02.37-.04.58-.07,0-.24.02-.45.02-.64s.01-.37.02-.54c0-.17,0-.34,0-.51v-1.73c0-1.24.36-2.15,1.09-2.74.73-.59,1.79-.88,3.18-.88.46,0,.91.02,1.35.06.43.04.78.09,1.04.14.08.02.15.05.2.09.05.04.08.11.08.22v3.37c0,.22.05.36.14.43.09.07.26.1.51.1h.71v2.4h-1.35c-.38,0-.72-.03-1.01-.08-.29-.05-.54-.15-.75-.31-.21-.15-.36-.37-.47-.66-.11-.28-.16-.66-.16-1.12v-2.41c-.12-.02-.22-.03-.3-.04-.08,0-.17,0-.29,0-.55,0-.95.12-1.2.37-.25.25-.38.68-.38,1.3v2.4c0,.43,0,.87-.02,1.32s-.03.88-.05,1.29c0,.19-.11.3-.34.34-.46.08-.98.14-1.55.19-.57.04-1.16.06-1.77.06-1.75,0-3.05-.41-3.9-1.21-.85-.81-1.27-2.08-1.27-3.8Zm2.03,6.31c0-.1.04-.18.11-.24.07-.06.16-.09.26-.09h1.32c.09,0,.18.03.25.09.07.06.11.14.11.24v1.31c0,.07-.04.14-.12.2s-.16.09-.24.09h-1.32c-.1,0-.19-.03-.26-.09-.07-.06-.11-.13-.11-.2v-1.31Zm3.11,0c0-.1.04-.18.11-.24.07-.06.15-.09.23-.09h1.36c.08,0,.16.03.23.09.07.06.11.14.11.24v1.31c0,.07-.04.14-.11.2-.07.06-.15.09-.23.09h-1.36c-.08,0-.16-.03-.23-.09-.07-.06-.11-.13-.11-.2v-1.31Z"/>
      <path class="cls-2" d="m162.02,68.76c-.09,0-.2-.02-.32-.05-.12-.03-.18-.07-.18-.12v-2.06c0-.05.06-.09.18-.12.12-.03.22-.05.32-.05h3.45v2.4h-3.45Z"/>
      <path class="cls-2" d="m165.34,68.76c-.09,0-.2-.02-.32-.05-.12-.03-.18-.07-.18-.12v-2.06c0-.05.06-.09.18-.12.12-.03.22-.05.32-.05h3.45v2.4h-3.45Z"/>
      <path class="cls-2" d="m168.67,68.76c-.1,0-.21-.02-.32-.05-.11-.04-.17-.07-.17-.12v-2.06c0-.05.06-.09.18-.12.12-.03.22-.05.32-.05h6.22l-.34-.71-.26-.54c-.14-.29-.32-.55-.53-.8-.21-.24-.46-.45-.75-.63-.29-.18-.64-.32-1.02-.42s-.83-.15-1.32-.15h-.13c-.06,0-.12,0-.19,0-.07,0-.14,0-.2,0h-.16c-.22,0-.32-.09-.32-.26v-1.47c0-.15.11-.25.32-.29.29-.05.54-.09.77-.11.22-.02.48-.03.78-.03.6,0,1.15.06,1.66.19.51.13.98.34,1.42.63.43.29.84.68,1.21,1.15.37.47.72,1.06,1.04,1.75l.22.46c.08.16.17.35.26.55.09.2.16.34.22.43.06.08.12.14.17.18.05.04.13.05.23.05h.17v2.4h-9.45Z"/>
      <path class="cls-2" d="m177.5,66.53c0-.05.06-.09.18-.12.12-.03.22-.05.32-.05h.9c.23,0,.38-.02.46-.06.08-.04.12-.18.12-.42v-1.73c0-.66-.01-1.35-.03-2.06,0-.08.03-.15.08-.21.06-.06.13-.08.22-.08h1.7c.11,0,.2.03.25.08.06.06.09.13.1.21.01.32.02.61.02.87s0,.51.01.74c0,.23,0,.46,0,.7v.73c0,.76,0,1.38-.02,1.85-.01.47-.03.85-.06,1.15-.02.1-.05.19-.1.26-.05.07-.13.13-.25.17-.12.03-.3.06-.52.09-.22.03-.46.05-.73.06-.26.02-.53.03-.81.03-.28,0-.53,0-.76,0h-.6c-.09,0-.2-.02-.32-.05-.12-.03-.18-.07-.18-.12v-2.06Zm.88,3.88c0-.1.04-.19.12-.25.08-.07.16-.1.25-.1h1.53c.1,0,.19.03.27.1.08.07.12.15.12.25v1.49c0,.08-.04.16-.12.22s-.17.1-.27.1h-1.53c-.09,0-.18-.03-.25-.1s-.12-.14-.12-.22v-1.49Z"/>
      <path class="cls-2" d="m182.31,70.68c0-.18.09-.27.28-.27h.31c.26,0,.48-.01.67-.03.19-.02.35-.07.46-.16.12-.09.21-.22.26-.39.06-.17.09-.4.09-.7v-6.98c0-.08.03-.15.09-.21.06-.06.14-.09.23-.09h1.75c.08,0,.15.03.22.09s.09.13.09.21v4.21h1.35v2.4h-1.41v.56c0,.36-.03.7-.08,1.01-.05.31-.13.58-.25.82-.26.5-.61.85-1.06,1.05s-1.01.31-1.68.31h-.22c-.09,0-.19,0-.3,0-.11,0-.22-.01-.32-.02-.11-.01-.2-.02-.27-.03-.14-.03-.22-.13-.22-.31v-1.45Z"/>
      <path class="cls-2" d="m187.5,66.53c0-.05.06-.09.18-.12.12-.03.22-.05.32-.05h.94c.22,0,.37-.02.45-.06.08-.04.12-.18.12-.42v-8.66c0-.09.03-.17.09-.23s.14-.09.23-.09h1.78c.08,0,.15.03.22.09s.09.14.09.23v9.03c0,.31,0,.63-.02.95-.01.33-.04.64-.07.94-.02.1-.05.19-.1.26-.05.07-.13.13-.25.17-.12.03-.3.06-.53.09-.23.03-.48.05-.75.06-.27.02-.55.03-.84.03-.29,0-.55,0-.77,0h-.59c-.09,0-.2-.02-.32-.05-.12-.03-.18-.07-.18-.12v-2.06Z"/>
      <path class="cls-2" d="m194.15,57.22c0-.09.03-.17.09-.23s.14-.09.24-.09h1.76c.09,0,.17.03.23.09.06.06.09.14.09.23v11.22c0,.08-.03.16-.09.22-.06.07-.14.1-.23.1h-1.76c-.1,0-.18-.03-.24-.1-.06-.07-.09-.14-.09-.22v-11.22Z"/>
      <path class="cls-2" d="m202.32,70.68c0-.18.09-.27.28-.27h.31c.26,0,.48-.01.67-.03.19-.02.35-.07.46-.16.12-.09.21-.22.26-.39.06-.17.09-.4.09-.7v-6.98c0-.08.03-.15.09-.21.06-.06.14-.09.23-.09h1.75c.08,0,.15.03.22.09s.09.13.09.21v4.21h1.35v2.4h-1.41v.56c0,.36-.03.7-.08,1.01-.05.31-.13.58-.25.82-.26.5-.61.85-1.06,1.05s-1.01.31-1.68.31h-.22c-.09,0-.19,0-.3,0-.11,0-.22-.01-.32-.02-.11-.01-.2-.02-.27-.03-.14-.03-.22-.13-.22-.31v-1.45Z"/>
      <path class="cls-2" d="m207.5,66.53c0-.05.06-.09.18-.12.12-.03.22-.05.32-.05h.73c.08,0,.17,0,.26-.02s.18-.03.25-.06.13-.08.18-.15c.05-.07.07-.16.07-.27v-3.71c0-.08.03-.15.09-.21s.14-.09.24-.09h1.75c.08,0,.15.03.22.09s.09.13.09.21v4.01s.08.07.15.1c.07.03.15.05.24.06.09.02.17.03.26.03.08,0,.15,0,.22,0h.48v2.4h-.2c-.43,0-.86-.03-1.29-.1-.43-.07-.79-.21-1.08-.43-.14.1-.31.19-.5.25-.19.07-.39.12-.59.16s-.4.07-.6.09-.4.02-.58.02h-.37c-.09,0-.2-.02-.32-.05-.12-.03-.18-.07-.18-.12v-2.06Zm.36,3.88c0-.1.04-.19.11-.25.07-.07.16-.1.26-.1h1.35c.1,0,.19.03.27.1.08.07.12.15.12.25v1.49c0,.08-.04.16-.12.22-.08.07-.17.1-.26.1h-1.35c-.1,0-.19-.03-.26-.1-.07-.07-.11-.14-.11-.22v-1.49Zm3.14,0c0-.1.04-.19.12-.25.08-.07.17-.1.26-.1h1.35c.1,0,.19.03.26.1.07.07.11.15.11.25v1.49c0,.08-.04.16-.11.22-.07.07-.16.1-.26.1h-1.35c-.09,0-.18-.03-.26-.1-.08-.07-.12-.14-.12-.22v-1.49Z"/>
      <path class="cls-2" d="m213.09,68.76c-.09,0-.2-.02-.32-.05-.12-.03-.18-.07-.18-.12v-2.06c0-.05.06-.09.18-.12.12-.03.22-.05.32-.05h3.45v2.4h-3.45Z"/>
      <path class="cls-2" d="m216.42,68.76c-.09,0-.2-.02-.32-.05-.12-.03-.18-.07-.18-.12v-2.06c0-.05.06-.09.18-.12.12-.03.22-.05.32-.05h3.45v2.4h-3.45Z"/>
      <path class="cls-2" d="m219.25,66.53c0-.05.06-.09.18-.12.12-.03.22-.05.32-.05h1.44c-.14-.2-.26-.47-.34-.81s-.12-.7-.12-1.08v-.19c0-.62.11-1.14.33-1.58.22-.43.52-.78.89-1.04.37-.26.8-.45,1.29-.57.49-.12,1-.18,1.52-.18.38,0,.72.02,1.01.05.29.03.62.08.97.14.11.02.2.05.26.09.06.04.09.11.09.22v1.44c0,.21-.1.3-.31.29-.32-.02-.59-.04-.81-.05-.22,0-.49-.01-.81-.01-.68,0-1.19.12-1.54.35-.35.23-.52.64-.52,1.21v.14c0,.37.06.71.19,1.01.13.3.29.49.49.57h3.3c.21,0,.31.1.31.29v1.83c0,.19-.1.28-.31.28h-7.33c-.09,0-.2-.02-.32-.05-.12-.03-.18-.07-.18-.12v-2.06Zm3.91-8.85c0-.1.04-.19.11-.26.07-.07.16-.1.26-.1h1.58c.09,0,.17.03.24.1.07.07.1.15.1.26v1.47c0,.09-.03.17-.1.24s-.15.1-.25.1h-1.56c-.11,0-.2-.03-.27-.1-.07-.07-.1-.15-.1-.24v-1.47Z"/>
      <path class="cls-2" d="m238.91,72.44c0,.21-.11.32-.33.34-.08.01-.19.02-.32.02h-.23c-1.23,0-2.18-.32-2.85-.97-.67-.64-1.01-1.67-1.01-3.07,0-.33.01-.67.04-1.03.03-.36.05-.65.09-.89.03-.22.15-.32.37-.32.01,0,.07,0,.19,0,.12,0,.25-.01.39-.02.14,0,.27,0,.4,0h.25c-.14-.24-.27-.52-.36-.84-.1-.33-.15-.68-.15-1.06v-.29c0-.63.12-1.16.35-1.59.23-.43.54-.77.93-1.04s.83-.45,1.33-.57c.5-.12,1.02-.18,1.57-.18.37,0,.71.02,1.01.05.3.03.62.08.97.14.11.02.2.05.27.09.07.04.1.11.1.22v1.44c0,.21-.11.3-.34.29-.31-.02-.59-.04-.84-.05-.25,0-.53-.01-.84-.01-.71,0-1.25.11-1.6.34-.36.23-.53.63-.53,1.22v.14c0,.41.08.76.24,1.04.16.28.34.46.55.54h3.31c.21,0,.31.1.31.29v1.81c0,.08-.03.15-.08.21s-.13.09-.22.09h-4.76c-.22,0-.4,0-.54.02,0,.05,0,.12,0,.21,0,.09,0,.15,0,.19.05,1.06.59,1.59,1.61,1.59h.39c.22,0,.33.1.33.29v1.38Z"/>
      <path class="cls-2" d="m244.21,57.22c0-.09.03-.17.09-.23s.14-.09.23-.09h1.76c.1,0,.18.03.24.09.06.06.08.14.08.23v8.45c0,.3.06.49.19.57.12.08.32.12.59.12h.57v2.4h-1.28c-.37,0-.71-.03-1.01-.09-.31-.06-.57-.17-.78-.33s-.38-.4-.5-.7c-.12-.3-.18-.7-.18-1.2v-9.22Z"/>
      <path class="cls-2" d="m247.84,68.76c-.09,0-.2-.02-.32-.05-.12-.03-.18-.07-.18-.12v-2.06c0-.05.06-.09.18-.12.12-.03.22-.05.32-.05h3.45v2.4h-3.45Z"/>
      <path class="cls-2" d="m251.17,68.76c-.09,0-.2-.02-.32-.05-.12-.03-.18-.07-.18-.12v-2.06c0-.05.06-.09.18-.12.12-.03.22-.05.32-.05h3.45v2.4h-3.45Z"/>
      <path class="cls-2" d="m254,66.53c0-.05.06-.09.18-.12.12-.03.22-.05.32-.05h1.61v-9.14c0-.09.03-.17.1-.23.07-.06.14-.09.22-.09h1.79c.09,0,.17.03.23.09.06.06.09.14.09.23v4.46c.27-.18.56-.32.87-.42.31-.1.63-.18.93-.23.31-.05.6-.09.87-.1.27-.02.5-.02.69-.02.66,0,1.27.07,1.82.22.56.14,1.03.38,1.42.72s.7.78.92,1.33.33,1.22.33,2.02v.37c0,.1,0,.25,0,.43s-.02.31-.05.38h1.24v2.4h-13.1c-.09,0-.2-.02-.32-.05-.12-.03-.18-.07-.18-.12v-2.06Zm9.68-.11c.12,0,.21-.05.27-.16s.09-.32.09-.64v-.25c0-.79-.21-1.35-.64-1.68s-1.14-.49-2.13-.49c-.18,0-.38,0-.62.02-.24.01-.48.03-.73.07-.25.04-.5.09-.74.17-.24.08-.45.18-.63.3v2.63c.22.01.47.02.75.02.28,0,.62,0,1.01,0h3.37Z"/>
      <path class="cls-2" d="m266.98,66.53c0-.05.06-.09.18-.12.12-.03.22-.05.32-.05h1.53c-.16-.18-.28-.4-.37-.68-.09-.28-.14-.61-.14-1v-.25c0-.6.1-1.12.31-1.57.21-.45.5-.82.87-1.12.38-.3.83-.52,1.35-.66s1.1-.22,1.73-.22c.22,0,.45,0,.7.02s.5.03.73.05c.24.02.46.05.67.08.21.04.37.07.49.1.11.03.19.07.22.12.04.05.05.12.05.2v4.91h1.36v2.4h-9.53c-.09,0-.2-.02-.32-.05-.12-.03-.18-.07-.18-.12v-2.06Zm2.65-8.85c0-.1.04-.19.11-.26.07-.07.16-.1.26-.1h1.35c.1,0,.19.03.27.1.08.07.12.15.12.26v1.47c0,.09-.04.17-.12.24-.08.07-.17.1-.26.1h-1.35c-.1,0-.19-.03-.26-.1-.07-.07-.11-.15-.11-.24v-1.47Zm3.64,8.76v-3.43c-.24-.03-.49-.05-.76-.05-1.08,0-1.62.53-1.62,1.59v.23c0,.54.11.95.34,1.23.23.28.59.43,1.1.43h.94Zm-.49-8.76c0-.1.04-.19.12-.26.08-.07.17-.1.26-.1h1.35c.1,0,.19.03.26.1.07.07.11.15.11.26v1.47c0,.09-.04.17-.11.24-.07.07-.16.1-.26.1h-1.35c-.09,0-.18-.03-.26-.1-.08-.07-.12-.15-.12-.24v-1.47Z"/>
      <path class="cls-2" d="m276.38,66.53c0-.05.06-.09.18-.12.12-.03.22-.05.32-.05h.94c.22,0,.37-.02.45-.06.08-.04.12-.18.12-.42v-8.66c0-.09.03-.17.09-.23s.14-.09.23-.09h1.78c.08,0,.15.03.22.09s.09.14.09.23v9.03c0,.31,0,.63-.02.95-.01.33-.04.64-.07.94-.02.1-.05.19-.1.26-.05.07-.13.13-.25.17-.12.03-.3.06-.53.09-.23.03-.48.05-.75.06-.27.02-.55.03-.84.03-.29,0-.55,0-.77,0h-.59c-.09,0-.2-.02-.32-.05-.12-.03-.18-.07-.18-.12v-2.06Z"/>
      <path class="cls-2" d="m283.03,57.22c0-.09.03-.17.09-.23s.14-.09.24-.09h1.76c.09,0,.17.03.23.09.06.06.09.14.09.23v11.22c0,.08-.03.16-.09.22-.06.07-.14.1-.23.1h-1.76c-.1,0-.18-.03-.24-.1-.06-.07-.09-.14-.09-.22v-11.22Z"/>
      <path class="cls-2" d="m156.83,88.06c0,.16-.06.3-.18.42-.12.11-.26.17-.43.17h-1.52c-.16,0-.31-.03-.43-.09-.12-.06-.25-.19-.37-.39l-3.53-6.1c-.05-.08-.1-.12-.14-.12-.05,0-.08.04-.08.12v6.27c0,.08-.03.15-.09.22-.06.06-.13.09-.22.09h-1.83c-.08,0-.15-.03-.22-.09-.06-.06-.09-.13-.09-.22v-10.6c0-.16.06-.3.17-.42.11-.11.25-.17.42-.17h1.56c.16,0,.28.04.37.12.09.08.19.2.28.36l3.67,6.37c.05.08.09.12.12.12.05,0,.08-.05.08-.14v-6.54c0-.08.03-.15.09-.21s.13-.09.22-.09h1.83c.08,0,.16.03.22.09.06.06.09.13.09.21v10.61Z"/>
      <path class="cls-2" d="m165.68,88.34c0,.08-.03.15-.09.22-.06.06-.13.09-.22.09h-1.73c-.08,0-.15-.03-.22-.09-.06-.06-.09-.13-.09-.22v-.25c-.3.22-.62.39-.95.51s-.73.19-1.2.19c-.34,0-.67-.04-.98-.13-.31-.09-.6-.23-.84-.44-.25-.21-.45-.48-.6-.82-.15-.34-.22-.76-.22-1.27v-.14c0-.91.3-1.57.9-1.99.6-.42,1.57-.63,2.9-.63h.84v-.56c0-.44-.1-.73-.31-.87-.21-.13-.49-.2-.85-.2-.25,0-.5,0-.75,0-.25,0-.5.01-.73.02-.23.01-.44.02-.63.04-.19.02-.34.03-.46.04h-.08c-.08,0-.15-.02-.2-.06s-.08-.11-.08-.22v-1.25c0-.18.1-.29.29-.34.29-.07.68-.14,1.17-.22.49-.07.99-.11,1.51-.11.56,0,1.06.06,1.51.18.45.12.83.3,1.14.56.31.25.55.58.72.97.17.4.25.88.25,1.45v5.52Zm-2.46-3.48h-.88c-.27,0-.49.02-.67.07-.17.05-.31.12-.42.21-.1.09-.18.21-.22.36s-.06.31-.06.5v.14c0,.33.08.54.24.63.16.09.4.14.73.14.24,0,.46-.03.67-.1.21-.07.41-.15.6-.24v-1.7Z"/>
      <path class="cls-2" d="m172.27,88.36c0,.17-.1.28-.29.31-.24.04-.44.07-.62.09-.18.02-.38.03-.6.03-.42,0-.79-.03-1.12-.1-.32-.07-.59-.2-.81-.39-.22-.2-.38-.47-.49-.81-.11-.35-.17-.79-.17-1.34v-4.49l-1.24-.2c-.08-.02-.16-.06-.22-.12-.07-.06-.1-.13-.1-.21v-1.02c0-.08.03-.16.1-.22s.14-.1.22-.1h1.24v-1.27c0-.08.03-.15.09-.2.06-.05.13-.09.22-.11l1.88-.33h.05c.08,0,.15.02.2.07s.08.11.08.19v1.64h1.27c.08,0,.16.03.22.09.06.06.09.14.09.22v1.26c0,.08-.03.16-.09.22-.06.06-.13.09-.22.09h-1.27v4.5c0,.31.03.51.08.6.05.09.2.13.43.13h.76c.22,0,.33.09.33.26v1.2Z"/>
      <path class="cls-2" d="m176.33,78.47c0,.08-.03.15-.09.22-.06.06-.13.09-.22.09h-2.01c-.08,0-.16-.03-.22-.09-.06-.06-.09-.13-.09-.22v-1.44c0-.08.03-.15.09-.22.06-.06.13-.09.22-.09h2.01c.08,0,.15.03.22.09.06.06.09.13.09.22v1.44Zm-.06,9.87c0,.08-.03.15-.09.22-.06.06-.13.09-.22.09h-1.89c-.08,0-.15-.03-.22-.09-.06-.06-.09-.13-.09-.22v-8.25c0-.08.03-.15.09-.22.06-.06.13-.09.22-.09h1.89c.08,0,.15.03.22.09.06.06.09.13.09.22v8.25Z"/>
      <path class="cls-2" d="m185.7,84.77c0,.62-.09,1.18-.26,1.67-.17.5-.42.92-.74,1.26-.33.35-.73.61-1.21.8-.48.19-1.04.29-1.67.29s-1.19-.1-1.67-.29c-.48-.19-.89-.46-1.22-.8-.33-.35-.58-.77-.75-1.26-.17-.49-.25-1.05-.25-1.67v-1.08c0-.62.08-1.18.25-1.67.17-.49.42-.92.75-1.26.33-.35.74-.61,1.22-.8.48-.19,1.04-.29,1.67-.29s1.19.1,1.67.29c.48.19.88.46,1.21.8.33.35.57.77.74,1.26.17.5.26,1.05.26,1.67v1.08Zm-2.51-1.08c0-1.26-.46-1.89-1.37-1.89-.45,0-.79.16-1.03.47-.24.31-.35.79-.35,1.42v1.08c0,.63.12,1.1.35,1.42.24.32.58.48,1.03.48.91,0,1.37-.63,1.37-1.9v-1.08Z"/>
      <path class="cls-2" d="m194.91,88.33c0,.08-.03.16-.1.22-.07.07-.14.1-.22.1h-1.87c-.08,0-.16-.03-.22-.1-.06-.07-.09-.14-.09-.22v-5.14c0-.27-.01-.49-.05-.68-.03-.19-.09-.33-.17-.45s-.2-.19-.35-.24c-.15-.05-.34-.07-.58-.07s-.46.05-.7.14c-.24.09-.49.21-.76.35v6.08c0,.08-.03.16-.09.22-.06.07-.13.1-.22.1h-1.87c-.08,0-.16-.03-.22-.1-.07-.07-.1-.14-.1-.22v-8.23c0-.08.03-.15.09-.22.06-.06.13-.09.22-.09h1.73c.08,0,.15.03.22.09.06.06.09.13.09.22v.37c.42-.3.82-.51,1.21-.63.38-.12.82-.18,1.32-.18.56,0,1.01.09,1.37.28.36.19.63.44.84.75.2.31.34.69.42,1.11.08.43.12.88.12,1.37v5.15Z"/>
      <path class="cls-2" d="m203.6,88.34c0,.08-.03.15-.09.22-.06.06-.13.09-.22.09h-1.73c-.08,0-.15-.03-.22-.09-.06-.06-.09-.13-.09-.22v-.25c-.3.22-.62.39-.95.51s-.73.19-1.2.19c-.34,0-.67-.04-.98-.13-.31-.09-.6-.23-.84-.44-.25-.21-.45-.48-.6-.82-.15-.34-.22-.76-.22-1.27v-.14c0-.91.3-1.57.9-1.99.6-.42,1.57-.63,2.9-.63h.84v-.56c0-.44-.1-.73-.31-.87-.21-.13-.49-.2-.85-.2-.25,0-.5,0-.75,0-.25,0-.5.01-.73.02-.23.01-.44.02-.63.04-.19.02-.34.03-.46.04h-.08c-.08,0-.15-.02-.2-.06s-.08-.11-.08-.22v-1.25c0-.18.1-.29.29-.34.29-.07.68-.14,1.17-.22.49-.07.99-.11,1.51-.11.56,0,1.06.06,1.51.18.45.12.83.3,1.14.56.31.25.55.58.72.97.17.4.25.88.25,1.45v5.52Zm-2.46-3.48h-.88c-.27,0-.49.02-.67.07-.17.05-.31.12-.42.21-.1.09-.18.21-.22.36s-.06.31-.06.5v.14c0,.33.08.54.24.63.16.09.4.14.73.14.24,0,.46-.03.67-.1.21-.07.41-.15.6-.24v-1.7Z"/>
      <path class="cls-2" d="m207.96,88.33c0,.08-.03.16-.08.22-.06.07-.13.1-.21.1h-1.89c-.08,0-.16-.03-.22-.1-.07-.07-.1-.14-.1-.22v-11.23c0-.08.03-.15.1-.22.07-.06.14-.09.22-.09h1.89c.08,0,.15.03.21.09.06.06.08.13.08.22v11.23Z"/>
      <path class="cls-2" d="m220.65,88.17c0,.11-.03.19-.08.24-.06.05-.14.09-.26.12-.16.05-.45.11-.87.17-.41.06-.89.09-1.44.09-.59,0-1.16-.08-1.71-.25-.55-.16-1.04-.44-1.46-.83-.42-.39-.76-.89-1.02-1.52-.26-.63-.39-1.4-.39-2.32v-1.95c0-.92.13-1.69.39-2.32.26-.63.6-1.13,1.02-1.52.42-.38.91-.65,1.46-.82.55-.16,1.12-.25,1.71-.25.55,0,1.03.03,1.44.09.41.06.7.12.87.17.11.03.2.07.26.11.06.04.08.12.08.23v1.51c0,.21-.1.31-.29.31h-.05c-.3-.02-.65-.05-1.04-.08-.4-.03-.81-.05-1.25-.05-.27,0-.52.04-.75.12-.23.08-.43.22-.61.42-.18.2-.31.47-.41.8-.1.33-.15.76-.15,1.27v1.95c0,.51.05.94.15,1.27.1.33.23.6.41.8.18.2.38.34.61.42.23.08.48.12.75.12.43,0,.85-.02,1.25-.05.4-.03.75-.06,1.04-.08h.05c.2,0,.29.1.29.31v1.5Z"/>
      <path class="cls-2" d="m229.72,84.63c0,.25-.11.37-.32.37h-4.94v.03c0,.21.03.42.08.63.05.2.14.38.26.54.12.15.29.28.49.37.2.09.46.14.77.14.25,0,.51,0,.79-.02.28-.01.55-.02.83-.03s.53-.02.77-.04c.24-.02.43-.03.59-.05h.05c.2,0,.29.08.29.25v1.18c0,.12-.02.22-.06.28-.04.06-.13.11-.26.14-.49.12-.98.22-1.45.28-.48.06-1.05.09-1.72.09-.46,0-.93-.07-1.39-.2-.46-.13-.88-.36-1.25-.67-.37-.31-.67-.72-.9-1.23-.23-.51-.34-1.14-.34-1.88v-1.08c0-.62.09-1.18.26-1.69.17-.5.43-.93.77-1.28s.74-.62,1.23-.81c.49-.19,1.04-.29,1.66-.29s1.18.1,1.66.31c.48.21.88.49,1.2.85.32.36.56.79.72,1.28.16.49.24,1.04.24,1.62v.9Zm-2.44-1.24c0-.58-.12-1.01-.37-1.29-.25-.28-.59-.43-1.02-.43s-.78.14-1.04.43c-.26.29-.39.72-.39,1.28v.06h2.82v-.06Z"/>
      <path class="cls-2" d="m238.96,88.33c0,.08-.03.16-.1.22-.07.07-.14.1-.22.1h-1.87c-.08,0-.16-.03-.22-.1-.06-.07-.09-.14-.09-.22v-5.14c0-.27-.01-.49-.05-.68-.03-.19-.09-.33-.17-.45s-.2-.19-.35-.24c-.15-.05-.34-.07-.58-.07s-.46.05-.7.14c-.24.09-.49.21-.76.35v6.08c0,.08-.03.16-.09.22-.06.07-.13.1-.22.1h-1.87c-.08,0-.16-.03-.22-.1-.07-.07-.1-.14-.1-.22v-8.23c0-.08.03-.15.09-.22.06-.06.13-.09.22-.09h1.73c.08,0,.15.03.22.09.06.06.09.13.09.22v.37c.42-.3.82-.51,1.21-.63.38-.12.82-.18,1.32-.18.56,0,1.01.09,1.37.28.36.19.63.44.84.75.2.31.34.69.42,1.11.08.43.12.88.12,1.37v5.15Z"/>
      <path class="cls-2" d="m245.7,88.36c0,.17-.1.28-.29.31-.24.04-.44.07-.62.09-.18.02-.38.03-.6.03-.42,0-.79-.03-1.12-.1-.32-.07-.59-.2-.81-.39-.22-.2-.38-.47-.49-.81-.11-.35-.17-.79-.17-1.34v-4.49l-1.24-.2c-.08-.02-.16-.06-.22-.12-.07-.06-.1-.13-.1-.21v-1.02c0-.08.03-.16.1-.22s.14-.1.22-.1h1.24v-1.27c0-.08.03-.15.09-.2.06-.05.13-.09.22-.11l1.88-.33h.05c.08,0,.15.02.2.07s.08.11.08.19v1.64h1.27c.08,0,.16.03.22.09.06.06.09.14.09.22v1.26c0,.08-.03.16-.09.22-.06.06-.13.09-.22.09h-1.27v4.5c0,.31.03.51.08.6.05.09.2.13.43.13h.76c.22,0,.33.09.33.26v1.2Z"/>
      <path class="cls-2" d="m254.63,84.63c0,.25-.11.37-.32.37h-4.94v.03c0,.21.03.42.08.63.05.2.14.38.26.54.12.15.29.28.49.37.2.09.46.14.77.14.25,0,.51,0,.79-.02.28-.01.55-.02.83-.03s.53-.02.77-.04c.24-.02.43-.03.59-.05h.05c.2,0,.29.08.29.25v1.18c0,.12-.02.22-.06.28-.04.06-.13.11-.26.14-.49.12-.98.22-1.45.28-.48.06-1.05.09-1.72.09-.46,0-.93-.07-1.39-.2-.46-.13-.88-.36-1.25-.67-.37-.31-.67-.72-.9-1.23-.23-.51-.34-1.14-.34-1.88v-1.08c0-.62.09-1.18.26-1.69.17-.5.43-.93.77-1.28.34-.35.74-.62,1.23-.81.49-.19,1.04-.29,1.66-.29s1.18.1,1.66.31c.48.21.88.49,1.2.85.32.36.56.79.72,1.28.16.49.24,1.04.24,1.62v.9Zm-2.44-1.24c0-.58-.12-1.01-.37-1.29-.25-.28-.59-.43-1.02-.43s-.78.14-1.04.43c-.26.29-.39.72-.39,1.28v.06h2.82v-.06Z"/>
      <path class="cls-2" d="m261.11,81.46c0,.07-.02.14-.06.2-.04.06-.1.09-.17.09h-.12c-.38,0-.74.05-1.07.15-.33.1-.64.23-.93.39v6.04c0,.08-.03.16-.09.22-.06.07-.13.1-.22.1h-1.87c-.08,0-.16-.03-.22-.1-.07-.07-.1-.14-.1-.22v-8.23c0-.08.03-.15.09-.22.06-.06.13-.09.22-.09h1.84c.08,0,.15.03.22.09.06.06.09.13.09.22v.31c.29-.24.62-.42.98-.55.37-.13.73-.19,1.11-.19.08,0,.15.03.22.09.06.06.09.14.09.22v1.48Z"/>
      <path class="cls-2" d="m271.25,78.27c0,.17-.11.26-.32.26h-.76c-.24,0-.38.04-.43.13-.05.09-.08.29-.08.6v.52h1.27c.08,0,.15.03.22.09.06.06.09.14.09.22v1.26c0,.08-.03.16-.09.22-.06.06-.13.09-.22.09h-1.27v6.67c0,.08-.03.15-.09.22-.06.06-.13.09-.22.09h-1.89c-.08,0-.15-.03-.22-.09-.06-.06-.09-.13-.09-.22v-6.68l-1.24-.2c-.08-.02-.16-.06-.22-.12-.07-.06-.1-.13-.1-.21v-1.02c0-.08.03-.16.1-.22.07-.07.14-.1.22-.1h1.24v-.5c0-.55.06-.99.17-1.34.11-.35.28-.61.49-.8.22-.19.49-.32.81-.39.32-.07.7-.11,1.12-.11.23,0,.43.01.6.03s.38.05.62.09c.2.03.29.13.29.31v1.2Z"/>
      <path class="cls-2" d="m279.82,84.77c0,.62-.09,1.18-.26,1.67-.17.5-.42.92-.74,1.26-.33.35-.73.61-1.21.8-.48.19-1.04.29-1.67.29s-1.19-.1-1.67-.29c-.48-.19-.89-.46-1.22-.8-.33-.35-.58-.77-.75-1.26-.17-.49-.25-1.05-.25-1.67v-1.08c0-.62.08-1.18.25-1.67.17-.49.42-.92.75-1.26.33-.35.74-.61,1.22-.8.48-.19,1.04-.29,1.67-.29s1.19.1,1.67.29c.48.19.88.46,1.21.8.33.35.57.77.74,1.26.17.5.26,1.05.26,1.67v1.08Zm-2.51-1.08c0-1.26-.46-1.89-1.37-1.89-.45,0-.79.16-1.03.47-.24.31-.35.79-.35,1.42v1.08c0,.63.12,1.1.35,1.42.24.32.58.48,1.03.48.91,0,1.37-.63,1.37-1.9v-1.08Z"/>
      <path class="cls-2" d="m286.27,81.46c0,.07-.02.14-.06.2-.04.06-.1.09-.17.09h-.12c-.38,0-.74.05-1.07.15-.33.1-.64.23-.93.39v6.04c0,.08-.03.16-.09.22-.06.07-.13.1-.22.1h-1.87c-.08,0-.16-.03-.22-.1-.07-.07-.1-.14-.1-.22v-8.23c0-.08.03-.15.09-.22.06-.06.13-.09.22-.09h1.84c.08,0,.15.03.22.09.06.06.09.13.09.22v.31c.29-.24.62-.42.98-.55.37-.13.73-.19,1.11-.19.08,0,.15.03.22.09.06.06.09.14.09.22v1.48Z"/>
      <path class="cls-2" d="m156.83,107.95c0,.16-.06.3-.18.42-.12.11-.26.17-.43.17h-1.52c-.16,0-.31-.03-.43-.09-.12-.06-.25-.19-.37-.39l-3.53-6.1c-.05-.08-.1-.12-.14-.12-.05,0-.08.04-.08.12v6.27c0,.08-.03.15-.09.22-.06.06-.13.09-.22.09h-1.83c-.08,0-.15-.03-.22-.09-.06-.06-.09-.13-.09-.22v-10.6c0-.16.06-.3.17-.42s.25-.17.42-.17h1.56c.16,0,.28.04.37.12.09.08.19.2.28.36l3.67,6.37c.05.08.09.12.12.12.05,0,.08-.05.08-.14v-6.54c0-.08.03-.15.09-.21s.13-.09.22-.09h1.83c.08,0,.16.03.22.09.06.06.09.13.09.21v10.61Z"/>
      <path class="cls-2" d="m166.36,104.66c0,.62-.09,1.18-.26,1.67-.17.5-.42.92-.74,1.26-.33.35-.73.61-1.21.8-.48.19-1.04.29-1.67.29s-1.19-.1-1.67-.29c-.48-.19-.89-.46-1.22-.8-.33-.35-.58-.77-.75-1.26-.17-.49-.25-1.05-.25-1.67v-1.08c0-.62.08-1.18.25-1.67.17-.49.42-.92.75-1.26.33-.35.74-.61,1.22-.8.48-.19,1.04-.29,1.67-.29s1.19.1,1.67.29c.48.19.88.46,1.21.8.33.35.57.77.74,1.26.17.5.26,1.05.26,1.67v1.08Zm-2.51-1.08c0-1.26-.46-1.89-1.37-1.89-.45,0-.79.16-1.03.47-.24.31-.35.79-.35,1.42v1.08c0,.63.12,1.1.35,1.42.24.32.58.48,1.03.48.91,0,1.37-.63,1.37-1.9v-1.08Z"/>
      <path class="cls-2" d="m175.57,108.22c0,.08-.03.16-.1.22-.07.07-.14.1-.22.1h-1.87c-.08,0-.16-.03-.22-.1-.06-.07-.09-.14-.09-.22v-5.14c0-.27-.01-.49-.05-.68-.03-.19-.09-.33-.17-.45s-.2-.19-.35-.24c-.15-.05-.34-.07-.58-.07s-.46.05-.7.14c-.24.09-.49.21-.76.35v6.08c0,.08-.03.16-.09.22-.06.07-.13.1-.22.1h-1.87c-.08,0-.16-.03-.22-.1-.07-.07-.1-.14-.1-.22v-8.23c0-.08.03-.15.09-.22.06-.06.13-.09.22-.09h1.73c.08,0,.15.03.22.09.06.06.09.13.09.22v.37c.42-.3.82-.51,1.21-.63.38-.12.82-.18,1.32-.18.56,0,1.01.09,1.37.28.36.19.63.44.84.75.2.31.34.69.42,1.11.08.43.12.88.12,1.37v5.15Z"/>
      <path class="cls-2" d="m199.79,100.78c0,.72-.13,1.32-.4,1.8-.26.48-.61.86-1.05,1.15-.43.29-.93.49-1.48.61-.55.12-1.12.18-1.7.18-.19,0-.39,0-.62-.02-.23-.01-.44-.02-.64-.03v3.76c0,.08-.03.15-.09.22-.06.06-.13.09-.22.09h-2c-.08,0-.15-.03-.22-.09s-.09-.13-.09-.21v-10.4c0-.27.06-.45.17-.54.11-.09.29-.16.53-.2.39-.06.88-.11,1.45-.15.57-.04,1.14-.05,1.7-.05.59,0,1.16.06,1.72.17.56.11,1.05.31,1.49.6.43.29.78.67,1.05,1.15s.4,1.08.4,1.8v.14Zm-2.65-.14c0-.56-.17-.95-.5-1.18-.34-.23-.83-.35-1.48-.35-.05,0-.14,0-.26,0-.12,0-.25.01-.38.02-.13,0-.25.01-.37.02-.12,0-.2,0-.24,0v3.16s.12,0,.24,0c.12,0,.25.01.39.02s.27,0,.39,0h.24c.69,0,1.19-.13,1.51-.39.31-.26.47-.65.47-1.18v-.14Z"/>
      <path class="cls-2" d="m206.07,101.35c0,.07-.02.14-.06.2-.04.06-.1.09-.17.09h-.12c-.38,0-.74.05-1.07.15-.33.1-.64.23-.93.39v6.04c0,.08-.03.16-.09.22-.06.07-.13.1-.22.1h-1.87c-.08,0-.16-.03-.22-.1-.07-.07-.1-.14-.1-.22v-8.23c0-.08.03-.15.09-.22.06-.06.13-.09.22-.09h1.84c.08,0,.15.03.22.09.06.06.09.13.09.22v.31c.29-.24.62-.42.98-.55.37-.13.73-.19,1.11-.19.08,0,.15.03.22.09.06.06.09.14.09.22v1.48Z"/>
      <path class="cls-2" d="m214.56,104.66c0,.62-.09,1.18-.26,1.67-.17.5-.42.92-.74,1.26-.33.35-.73.61-1.21.8-.48.19-1.04.29-1.67.29s-1.19-.1-1.67-.29c-.48-.19-.89-.46-1.22-.8-.33-.35-.58-.77-.75-1.26-.17-.49-.25-1.05-.25-1.67v-1.08c0-.62.08-1.18.25-1.67.17-.49.42-.92.75-1.26.33-.35.74-.61,1.22-.8.48-.19,1.04-.29,1.67-.29s1.19.1,1.67.29c.48.19.88.46,1.21.8.33.35.57.77.74,1.26.17.5.26,1.05.26,1.67v1.08Zm-2.51-1.08c0-1.26-.46-1.89-1.37-1.89-.45,0-.79.16-1.03.47-.24.31-.35.79-.35,1.42v1.08c0,.63.12,1.1.35,1.42.24.32.58.48,1.03.48.91,0,1.37-.63,1.37-1.9v-1.08Z"/>
      <path class="cls-2" d="m221.31,98.18c0,.18-.11.26-.32.26h-.76c-.24,0-.38.04-.43.13-.05.09-.08.29-.08.6v.51h5.07c.08,0,.16.03.22.1.06.07.09.14.09.22v8.21c0,.08-.03.16-.09.22-.06.07-.13.1-.22.1h-1.87c-.08,0-.16-.03-.22-.1s-.1-.14-.1-.22v-6.65h-2.88v6.67c0,.08-.03.15-.09.22-.06.06-.13.09-.22.09h-1.89c-.08,0-.15-.03-.22-.09-.06-.06-.09-.13-.09-.22v-6.68l-1.24-.2c-.08-.02-.16-.06-.22-.12-.07-.06-.1-.13-.1-.21v-1.02c0-.08.03-.16.1-.22.07-.07.14-.1.22-.1h1.24v-.5c0-.55.06-.99.17-1.34.11-.35.28-.61.49-.8.22-.19.48-.32.81-.39.32-.07.69-.11,1.11-.11.23,0,.43.01.6.03.18.02.38.05.62.09.2.03.29.13.29.31v1.21Zm3.85.19c0,.08-.03.15-.1.22-.07.06-.14.09-.22.09h-1.97c-.08,0-.16-.03-.23-.09-.07-.06-.11-.13-.11-.22v-1.44c0-.08.04-.15.11-.22.07-.06.15-.09.23-.09h1.97c.08,0,.16.03.22.09.07.06.1.13.1.22v1.44Z"/>
      <path class="cls-2" d="m232.1,108.25c0,.17-.1.28-.29.31-.24.04-.44.07-.62.09-.18.02-.38.03-.6.03-.42,0-.79-.03-1.12-.1-.32-.07-.59-.2-.81-.39-.22-.2-.38-.47-.49-.81s-.17-.79-.17-1.34v-4.49l-1.24-.2c-.08-.02-.16-.06-.22-.12-.07-.06-.1-.13-.1-.21v-1.02c0-.08.03-.16.1-.22s.14-.1.22-.1h1.24v-1.27c0-.08.03-.15.09-.2.06-.05.13-.09.22-.11l1.88-.33h.05c.08,0,.15.02.2.07s.08.11.08.19v1.64h1.27c.08,0,.16.03.22.09.06.06.09.14.09.22v1.26c0,.08-.03.16-.09.22-.06.06-.13.09-.22.09h-1.27v4.5c0,.31.03.51.08.6.05.09.2.13.43.13h.76c.22,0,.33.09.33.26v1.2Z"/>
      <path class="cls-2" d="m247.9,105.29c0,.41-.07.82-.22,1.22-.14.4-.38.76-.72,1.08-.34.32-.77.58-1.31.78-.54.2-1.2.3-1.98.3-.62,0-1.16-.03-1.63-.09-.47-.06-.9-.14-1.29-.25-.08-.02-.15-.06-.22-.11-.06-.05-.09-.12-.09-.2v-1.52c0-.11.02-.19.08-.23.05-.04.12-.06.2-.06h.05c.15.02.37.04.64.06.27.02.55.04.84.05.29.02.56.03.83.05.26.01.47.02.63.02.54,0,.9-.09,1.09-.26.19-.18.29-.45.29-.82,0-.23-.07-.42-.21-.58-.14-.16-.41-.36-.81-.6l-2.14-1.27c-.36-.22-.66-.44-.89-.67-.23-.23-.42-.46-.56-.71-.14-.25-.24-.5-.29-.77s-.08-.53-.08-.81c0-.42.06-.82.19-1.18.13-.37.35-.69.66-.96.31-.27.72-.49,1.22-.64.5-.15,1.13-.23,1.89-.23.28,0,.58.01.9.03s.64.05.94.08c.3.03.58.07.84.11s.46.08.6.12c.06.02.12.05.16.09.05.04.07.1.07.19v1.56c0,.07-.02.13-.05.19-.04.05-.11.08-.21.08h-.03c-.11-.01-.3-.02-.55-.04s-.54-.03-.86-.05c-.32-.02-.65-.04-.98-.05-.34-.02-.63-.02-.89-.02-.44,0-.75.07-.94.2-.18.13-.27.34-.27.62,0,.11.02.21.05.29.03.08.08.16.16.24.08.08.18.16.32.25.13.09.3.19.51.3l1.98,1.07c.81.43,1.35.91,1.65,1.42.29.52.44,1.09.44,1.72Z"/>
      <path class="cls-2" d="m256.98,104.52c0,.25-.11.37-.32.37h-4.94v.03c0,.21.03.42.08.63.05.2.14.38.26.54.12.15.29.28.49.37.2.09.46.14.77.14.25,0,.51,0,.79-.02s.55-.02.83-.03c.27-.01.53-.02.77-.04s.43-.03.59-.05h.05c.2,0,.29.08.29.25v1.18c0,.12-.02.22-.06.28-.04.06-.13.11-.26.14-.49.12-.98.22-1.45.28-.48.06-1.05.09-1.72.09-.46,0-.93-.07-1.39-.2-.46-.13-.88-.36-1.25-.67-.37-.31-.67-.72-.9-1.23-.23-.51-.34-1.14-.34-1.88v-1.08c0-.62.09-1.18.26-1.69.17-.5.43-.93.77-1.28s.74-.62,1.23-.81c.49-.19,1.04-.29,1.66-.29s1.18.1,1.66.31c.48.21.88.49,1.2.85.32.36.56.79.72,1.28.16.49.24,1.04.24,1.62v.9Zm-2.44-1.24c0-.58-.12-1.01-.37-1.29-.25-.28-.59-.43-1.02-.43s-.78.14-1.04.43c-.26.29-.39.72-.39,1.28v.06h2.82v-.06Z"/>
      <path class="cls-2" d="m264.36,108.09c0,.11-.03.19-.08.24-.05.05-.13.09-.25.12-.22.05-.5.1-.84.15-.35.05-.75.08-1.21.08-1.09,0-1.97-.34-2.62-1.01-.65-.67-.98-1.64-.98-2.91v-1.3c0-1.27.33-2.24.98-2.91.66-.67,1.53-1.01,2.62-1.01.46,0,.87.03,1.21.08.35.05.63.1.84.15.11.03.2.07.25.12.05.05.08.13.08.24v1.38c0,.08-.03.15-.09.19s-.13.07-.21.07h-.03c-.29-.03-.56-.06-.83-.08-.26-.02-.62-.03-1.06-.03-.18,0-.34.03-.49.09-.16.06-.29.15-.4.29s-.2.32-.27.56c-.07.23-.1.52-.1.86v1.3c0,.34.03.63.1.86.07.23.16.42.27.56s.25.24.4.29c.15.06.32.09.49.09.44,0,.8-.01,1.06-.03.26-.02.54-.05.83-.08h.03c.08,0,.15.02.21.07.06.05.09.11.09.19v1.38Z"/>
      <path class="cls-2" d="m271.03,108.25c0,.17-.1.28-.29.31-.24.04-.44.07-.62.09-.18.02-.38.03-.6.03-.42,0-.79-.03-1.12-.1-.32-.07-.59-.2-.81-.39-.22-.2-.38-.47-.49-.81s-.17-.79-.17-1.34v-4.49l-1.24-.2c-.08-.02-.16-.06-.22-.12-.07-.06-.1-.13-.1-.21v-1.02c0-.08.03-.16.1-.22s.14-.1.22-.1h1.24v-1.27c0-.08.03-.15.09-.2.06-.05.13-.09.22-.11l1.88-.33h.05c.08,0,.15.02.2.07s.08.11.08.19v1.64h1.27c.08,0,.16.03.22.09.06.06.09.14.09.22v1.26c0,.08-.03.16-.09.22-.06.06-.13.09-.22.09h-1.27v4.5c0,.31.03.51.08.6.05.09.2.13.43.13h.76c.22,0,.33.09.33.26v1.2Z"/>
      <path class="cls-2" d="m279.82,104.66c0,.62-.09,1.18-.26,1.67-.17.5-.42.92-.74,1.26-.33.35-.73.61-1.21.8-.48.19-1.04.29-1.67.29s-1.19-.1-1.67-.29c-.48-.19-.89-.46-1.22-.8-.33-.35-.58-.77-.75-1.26-.17-.49-.25-1.05-.25-1.67v-1.08c0-.62.08-1.18.25-1.67.17-.49.42-.92.75-1.26.33-.35.74-.61,1.22-.8.48-.19,1.04-.29,1.67-.29s1.19.1,1.67.29c.48.19.88.46,1.21.8.33.35.57.77.74,1.26.17.5.26,1.05.26,1.67v1.08Zm-2.51-1.08c0-1.26-.46-1.89-1.37-1.89-.45,0-.79.16-1.03.47-.24.31-.35.79-.35,1.42v1.08c0,.63.12,1.1.35,1.42.24.32.58.48,1.03.48.91,0,1.37-.63,1.37-1.9v-1.08Z"/>
      <path class="cls-2" d="m286.27,101.35c0,.07-.02.14-.06.2-.04.06-.1.09-.17.09h-.12c-.38,0-.74.05-1.07.15-.33.1-.64.23-.93.39v6.04c0,.08-.03.16-.09.22-.06.07-.13.1-.22.1h-1.87c-.08,0-.16-.03-.22-.1-.07-.07-.1-.14-.1-.22v-8.23c0-.08.03-.15.09-.22.06-.06.13-.09.22-.09h1.84c.08,0,.15.03.22.09.06.06.09.13.09.22v.31c.29-.24.62-.42.98-.55.37-.13.73-.19,1.11-.19.08,0,.15.03.22.09.06.06.09.14.09.22v1.48Z"/>
    </g>
    <rect class="cls-2" x="178.32" y="100.86" width="10.31" height="1.84" rx=".23" ry=".23"/>
  </g>
</svg>