<?xml version="1.0" encoding="UTF-8"?>
<svg id="Layer_1" data-name="Layer 1" xmlns="http://www.w3.org/2000/svg" viewBox="0 0 512 123">
  <defs>
    <style>
      .cls-1 {
        fill: #fff;
      }

      .cls-1, .cls-2, .cls-3, .cls-4 {
        stroke-width: 0px;
      }

      .cls-2 {
        fill: #344748;
      }

      .cls-3 {
        fill: #00926f;
      }

      .cls-4 {
        fill: #459a79;
      }
    </style>
  </defs>
  <g>
    <path class="cls-4" d="m352,37.59l-32.07-18.46c-1.88-1.09-4.38-1.09-6.26,0l-31.91,18.46c-1.88,1.09-3.13,3.13-3.13,5.47v36.91c0,2.19,1.25,4.22,3.13,5.47l32.07,18.46c.94.47,2.03.78,3.13.78s2.19-.31,3.13-.78l32.07-18.46c1.88-1.09,3.13-3.13,3.13-5.47v-37.07c-.16-2.19-1.41-4.22-3.28-5.32"/>
    <path class="cls-1" d="m351.07,39.31l-32.07-18.61c-1.41-.78-2.97-.78-4.38,0l-31.91,18.61c-1.25.78-2.19,2.19-2.19,3.75v36.91c0,1.56.78,2.97,2.19,3.75l32.07,18.46c.63.31,1.41.63,2.19.63s1.56-.16,2.19-.63l32.07-18.46c1.25-.78,2.19-2.19,2.19-3.75v-37.07c-.16-1.41-1.09-2.82-2.35-3.6"/>
    <path class="cls-4" d="m317.91,35.87l31.28,15.64c.78.31,1.56-.16,1.56-.94v-6.26c0-1.41-.78-2.82-2.03-3.44l-30.34-17.52c-.47-.31-.94,0-.94.47v11.26c0,.47.16.63.47.78"/>
    <path class="cls-4" d="m316.19,35.24v-11.26c0-.47-.47-.78-.94-.47l-30.19,17.36c-1.25.78-2.03,2.03-2.03,3.44v6.1c0,.78.94,1.41,1.56.94l31.28-15.64c.31,0,.31-.16.31-.47"/>
    <path class="cls-4" d="m313.37,97.5l.94.63-1.09-5.16,1.09.47c-.63-1.88-1.09-4.54-1.09-4.54.47.31,1.09.47,1.09.47l-1.25-4.69c.31.16.94.16.94.16-.16-.78-.78-3.13-.78-3.13.16.16.78.47.78.47l-.94-3.75c.63.78,1.25.78,1.25.78l-.63-3.6c-1.41.94-1.56,2.97-1.56,2.97l-.47-.94c-.78,1.88-.63,3.6-.63,3.6l-.78-.78c-.47,1.72,0,3.44,0,3.44l-.94-.94c-.47,1.88.31,3.44.31,3.44-.31,0-1.56-.63-1.56-.63,0,2.35.94,3.91.94,3.91-2.03-1.25-2.03-2.97-2.03-2.97l-.78.94c-.78-1.88-.47-3.13-.47-3.13-.63,0-1.09.31-1.09.31-.31-2.35,1.09-3.75,1.09-3.75-.47-.16-1.09,0-1.09,0,.47-2.82,2.5-3.6,2.5-3.6-.78.16-1.25,0-1.25,0,1.41-2.03,3.6-2.5,3.6-2.5l-.31-.47c1.72-.78,3.13-1.09,4.38-1.09h0c0-.16,0-.31.16-.47-1.88-.47-3.6.78-3.6.78l.16-.94c-1.88.47-3.28,1.56-3.28,1.56l.16-1.09c-1.72.47-2.82,2.03-2.82,2.03l.31-1.25c-1.72.63-2.66,2.35-2.66,2.35-.16-.31-.47-1.56-.47-1.56-2.03,1.25-2.5,2.97-2.5,2.97-.31-2.35,1.09-3.44,1.09-3.44h-1.25c1.09-1.72,2.35-2.19,2.35-2.19-.31-.47-.94-.63-.94-.63,1.72-1.72,3.6-1.25,3.6-1.25,0-.47-.63-.94-.63-.94,2.66-1.25,4.38,0,4.38,0-.63-.63-.78-.94-.78-.94,2.5-.16,4.07,1.56,4.07,1.56l.16-.47c1.09.63,1.88,1.25,2.5,1.88-.16-.63,0-1.09.31-1.25-1.09-1.41-2.97-1.72-2.97-1.72l.78-.63c-1.72-.78-3.6-.78-3.6-.78l.78-.78c-1.72-.63-3.44-.16-3.44-.16l.94-.78c-1.72-.63-3.6.16-3.6.16,0-.31.63-1.56.63-1.56-2.35-.31-3.75.78-3.75.78,1.25-2.03,2.97-2.03,2.97-2.03l-.47-1.09c1.88-.78,3.13-.31,3.13-.31,0-.63-.31-1.09-.31-1.09,2.35-.31,3.6,1.25,3.6,1.25.31-.47.16-1.09.16-1.09,2.82.63,3.6,2.66,3.6,2.66-.16-.78,0-1.25,0-1.25,2.03,1.41,2.19,2.35,2.19,2.35l.31-.47c-.47-1.09-1.09-3.6-1.09-3.6l1.41,1.09c-.94-2.82-.78-6.26-.78-6.26l1.25,2.03c.63-1.88.94-4.54.94-4.54v-4.54c0-.47-.47-.78-.94-.63l-31.75,12.98c-.47.16-.63.63-.63,1.09v17.21c0,1.41.78,2.82,2.03,3.44l28.31,16.42-.16-.78Z"/>
    <path class="cls-4" d="m317.44,47.91v4.54s.16,2.5.94,4.54l1.25-2.03s.16,3.6-.78,6.26l1.41-1.09s-.63,2.5-1.09,3.6l.31.47s.16-.94,2.19-2.35c0,0,.16.31,0,1.25,0,0,.78-2.03,3.6-2.66,0,0-.16.63.16,1.09,0,0,1.25-1.56,3.6-1.25,0,0-.31.47-.31,1.09,0,0,1.25-.47,3.13.31l-.94.78s1.88,0,2.97,2.03c0,0-1.56-.94-3.75-.78,0,0,.63,1.09.63,1.56,0,0-1.72-.78-3.6-.16l.94.78s-1.72-.47-3.44.16l.78.78s-1.72,0-3.6.78l.78.63s-1.72.31-2.97,1.72c.16.16.47.63.31,1.25.63-.63,1.41-1.25,2.5-1.88l.16.47s1.56-1.56,4.07-1.56c0,0-.16.31-.78.94,0,0,1.88-1.25,4.38,0,0,0-.47.47-.63.94,0,0,1.88-.31,3.6,1.25,0,0-.63.16-.94.63,0,0,1.25.47,2.35,2.19h-1.25s1.41,1.09,1.09,3.44c0,0-.63-1.72-2.5-2.97,0,0-.31,1.25-.47,1.56,0,0-.94-1.72-2.66-2.35l.31,1.25s-1.09-1.41-2.82-2.03l.16,1.09s-1.41-1.09-3.28-1.56l.16.94s-1.72-1.25-3.6-.63c0,.16.16.31.16.47,1.25,0,2.66.31,4.38,1.09l-.16.63s2.19.47,3.6,2.5c0,0-.31.16-1.25,0,0,0,2.03.78,2.5,3.6,0,0-.63-.16-1.09,0,0,0,1.41,1.41,1.09,3.75,0,0-.47-.31-1.09-.31,0,0,.31,1.25-.47,3.13l-.78-.94s0,1.88-2.03,2.97c0,0,1.09-1.41.94-3.75,0,0-1.25.47-1.56.63,0,0,.94-1.72.31-3.44l-.94.94s.47-1.72,0-3.44l-.78.78s.16-1.72-.63-3.6l-.63.78s-.16-2.03-1.56-2.97l-.63,3.6s.63,0,1.25-.78l-.94,3.75s.63-.16.78-.47c0,0-.63,2.35-.78,3.13,0,0,.47,0,.94-.16l-1.25,4.69s.63-.16,1.09-.47c0,0-.47,2.66-1.09,4.54l1.09-.47-1.09,5.32.94-.63.16.78,28.31-16.42c1.25-.78,2.03-2.03,2.03-3.44v-17.21c0-.47-.31-.78-.63-1.09l-31.75-12.98c-.31-.31-.78,0-.78.47"/>
    <path class="cls-3" d="m352,37.59l-32.07-18.46c-1.88-1.09-4.38-1.09-6.26,0l-31.91,18.46c-1.88,1.09-3.13,3.13-3.13,5.47v36.91c0,2.19,1.25,4.22,3.13,5.47l32.07,18.46c.94.47,2.03.78,3.13.78s2.19-.31,3.13-.78l32.07-18.46c1.88-1.09,3.13-3.13,3.13-5.47v-37.07c-.16-2.19-1.41-4.22-3.28-5.32"/>
    <path class="cls-1" d="m351.07,39.31l-32.07-18.61c-1.41-.78-2.97-.78-4.38,0l-31.91,18.61c-1.25.78-2.19,2.19-2.19,3.75v36.91c0,1.56.78,2.97,2.19,3.75l32.07,18.46c.63.31,1.41.63,2.19.63s1.56-.16,2.19-.63l32.07-18.46c1.25-.78,2.19-2.19,2.19-3.75v-37.07c-.16-1.41-1.09-2.82-2.35-3.6"/>
    <path class="cls-3" d="m317.91,35.87l31.28,15.64c.78.31,1.56-.16,1.56-.94v-6.26c0-1.41-.78-2.82-2.03-3.44l-30.34-17.52c-.47-.31-.94,0-.94.47v11.26c0,.47.16.63.47.78"/>
    <path class="cls-3" d="m316.19,35.24v-11.26c0-.47-.47-.78-.94-.47l-30.19,17.36c-1.25.78-2.03,2.03-2.03,3.44v6.1c0,.78.94,1.41,1.56.94l31.28-15.64c.31,0,.31-.16.31-.47"/>
    <path class="cls-3" d="m313.37,97.5l.94.63-1.09-5.16,1.09.47c-.63-1.88-1.09-4.54-1.09-4.54.47.31,1.09.47,1.09.47l-1.25-4.69c.31.16.94.16.94.16-.16-.78-.78-3.13-.78-3.13.16.16.78.47.78.47l-.94-3.75c.63.78,1.25.78,1.25.78l-.63-3.6c-1.41.94-1.56,2.97-1.56,2.97l-.47-.94c-.78,1.88-.63,3.6-.63,3.6l-.78-.78c-.47,1.72,0,3.44,0,3.44l-.94-.94c-.47,1.88.31,3.44.31,3.44-.31,0-1.56-.63-1.56-.63,0,2.35.94,3.91.94,3.91-2.03-1.25-2.03-2.97-2.03-2.97l-.78.94c-.78-1.88-.47-3.13-.47-3.13-.63,0-1.09.31-1.09.31-.31-2.35,1.09-3.75,1.09-3.75-.47-.16-1.09,0-1.09,0,.47-2.82,2.5-3.6,2.5-3.6-.78.16-1.25,0-1.25,0,1.41-2.03,3.6-2.5,3.6-2.5l-.31-.47c1.72-.78,3.13-1.09,4.38-1.09h0c0-.16,0-.31.16-.47-1.88-.47-3.6.78-3.6.78l.16-.94c-1.88.47-3.28,1.56-3.28,1.56l.16-1.09c-1.72.47-2.82,2.03-2.82,2.03l.31-1.25c-1.72.63-2.66,2.35-2.66,2.35-.16-.31-.47-1.56-.47-1.56-2.03,1.25-2.5,2.97-2.5,2.97-.31-2.35,1.09-3.44,1.09-3.44h-1.25c1.09-1.72,2.35-2.19,2.35-2.19-.31-.47-.94-.63-.94-.63,1.72-1.72,3.6-1.25,3.6-1.25,0-.47-.63-.94-.63-.94,2.66-1.25,4.38,0,4.38,0-.63-.63-.78-.94-.78-.94,2.5-.16,4.07,1.56,4.07,1.56l.16-.47c1.09.63,1.88,1.25,2.5,1.88-.16-.63,0-1.09.31-1.25-1.09-1.41-2.97-1.72-2.97-1.72l.78-.63c-1.72-.78-3.6-.78-3.6-.78l.78-.78c-1.72-.63-3.44-.16-3.44-.16l.94-.78c-1.72-.63-3.6.16-3.6.16,0-.31.63-1.56.63-1.56-2.35-.31-3.75.78-3.75.78,1.25-2.03,2.97-2.03,2.97-2.03l-.47-1.09c1.88-.78,3.13-.31,3.13-.31,0-.63-.31-1.09-.31-1.09,2.35-.31,3.6,1.25,3.6,1.25.31-.47.16-1.09.16-1.09,2.82.63,3.6,2.66,3.6,2.66-.16-.78,0-1.25,0-1.25,2.03,1.41,2.19,2.35,2.19,2.35l.31-.47c-.47-1.09-1.09-3.6-1.09-3.6l1.41,1.09c-.94-2.82-.78-6.26-.78-6.26l1.25,2.03c.63-1.88.94-4.54.94-4.54v-4.54c0-.47-.47-.78-.94-.63l-31.75,12.98c-.47.16-.63.63-.63,1.09v17.21c0,1.41.78,2.82,2.03,3.44l28.31,16.42-.16-.78Z"/>
    <path class="cls-3" d="m317.44,47.91v4.54s.16,2.5.94,4.54l1.25-2.03s.16,3.6-.78,6.26l1.41-1.09s-.63,2.5-1.09,3.6l.31.47s.16-.94,2.19-2.35c0,0,.16.31,0,1.25,0,0,.78-2.03,3.6-2.66,0,0-.16.63.16,1.09,0,0,1.25-1.56,3.6-1.25,0,0-.31.47-.31,1.09,0,0,1.25-.47,3.13.31l-.94.78s1.88,0,2.97,2.03c0,0-1.56-.94-3.75-.78,0,0,.63,1.09.63,1.56,0,0-1.72-.78-3.6-.16l.94.78s-1.72-.47-3.44.16l.78.78s-1.72,0-3.6.78l.78.63s-1.72.31-2.97,1.72c.16.16.47.63.31,1.25.63-.63,1.41-1.25,2.5-1.88l.16.47s1.56-1.56,4.07-1.56c0,0-.16.31-.78.94,0,0,1.88-1.25,4.38,0,0,0-.47.47-.63.94,0,0,1.88-.31,3.6,1.25,0,0-.63.16-.94.63,0,0,1.25.47,2.35,2.19h-1.25s1.41,1.09,1.09,3.44c0,0-.63-1.72-2.5-2.97,0,0-.31,1.25-.47,1.56,0,0-.94-1.72-2.66-2.35l.31,1.25s-1.09-1.41-2.82-2.03l.16,1.09s-1.41-1.09-3.28-1.56l.16.94s-1.72-1.25-3.6-.63c0,.16.16.31.16.47,1.25,0,2.66.31,4.38,1.09l-.16.63s2.19.47,3.6,2.5c0,0-.31.16-1.25,0,0,0,2.03.78,2.5,3.6,0,0-.63-.16-1.09,0,0,0,1.41,1.41,1.09,3.75,0,0-.47-.31-1.09-.31,0,0,.31,1.25-.47,3.13l-.78-.94s0,1.88-2.03,2.97c0,0,1.09-1.41.94-3.75,0,0-1.25.47-1.56.63,0,0,.94-1.72.31-3.44l-.94.94s.47-1.72,0-3.44l-.78.78s.16-1.72-.63-3.6l-.63.78s-.16-2.03-1.56-2.97l-.63,3.6s.63,0,1.25-.78l-.94,3.75s.63-.16.78-.47c0,0-.63,2.35-.78,3.13,0,0,.47,0,.94-.16l-1.25,4.69s.63-.16,1.09-.47c0,0-.47,2.66-1.09,4.54l1.09-.47-1.09,5.32.94-.63.16.78,28.31-16.42c1.25-.78,2.03-2.03,2.03-3.44v-17.21c0-.47-.31-.78-.63-1.09l-31.75-12.98c-.31-.31-.78,0-.78.47"/>
  </g>
  <g>
    <path class="cls-2" d="m200.87,78.85c0,1.06,0,1.7-.21,2.34,0,.64-.21,1.28-.43,1.7-.21.43-.21.85-.43,1.06-.21.21-.43.43-.64.64-.43.21-.85.43-1.49.64-.64.21-1.28.21-2.13.21h-1.49v-12.35h1.49c.64,0,1.49,0,2.13.21.64.21,1.28.43,1.7.85.43.43.85,1.06,1.06,1.7.43.64.43,1.7.43,2.98m1.28-6.17c-.64-.64-1.49-1.06-2.56-1.28-1.06-.21-2.13-.43-3.41-.43h-4.05c-.43,0-.85,0-1.06.21,0,0-.21,0-.21.21v15.33s0,.21.21.21h4.9c1.49,0,2.77-.21,3.83-.64,1.06-.43,1.92-1.06,2.56-1.7.64-.85,1.28-1.7,1.49-2.77.21-1.06.43-2.34.43-3.62s-.21-2.56-.64-3.41c-.21-.64-.85-1.49-1.49-2.13"/>
    <path class="cls-2" d="m211.95,71.19h-2.98s-.21,0-.21.21v15.54s0,.21.21.21h2.98s.21,0,.21-.21l-.21-15.76q.21,0,0,0"/>
    <path class="cls-2" d="m227.92,71.19h-2.13l-3.62,7.45-3.41-7.45h-3.83v.21l4.9,9.58v5.96s0,.21.21.21h2.98s.21,0,.21-.21v-5.96l4.68-9.79c.21.21.21,0,0,0h0"/>
    <path class="cls-2" d="m182.35,79.71h-4.26l2.13-6.17,2.13,6.17Zm.43-8.73h-3.41l-5.96,15.54v.21h2.34l1.7-5.11h5.32l1.92,5.11h3.62v-.21l-5.54-15.54Z"/>
    <path class="cls-2" d="m170.43,70.98h-2.98s-.21,0-.21.21v8.73h-6.39v-8.73s0-.21-.21-.21h-2.98s-.21,0-.21.21v15.54s0,.21.21.21h2.98s.21,0,.21-.21v-5.11h6.39v5.11s0,.21.21.21h2.98s.21,0,.21-.21l-.21-15.76h0"/>
    <path class="cls-2" d="m238.14,79.71h-4.26l2.13-6.17,2.13,6.17Zm.43-8.73h-3.41l-5.75,15.54v.21h2.34l1.7-5.11h5.32l1.7,5.11h3.62v-.21l-5.54-15.54Z"/>
    <path class="cls-2" d="m260.07,70.98h-2.98s-.21,0-.21.21v8.73h-6.39v-8.73s0-.21-.21-.21h-2.98s-.21,0-.21.21v15.54s0,.21.21.21h2.98s.21,0,.21-.21v-5.11h6.39v5.11s0,.21.21.21h2.98s.21,0,.21-.21l-.21-15.76h0"/>
    <path class="cls-2" d="m168.08,55.01c-.64.21-1.06.21-1.7.43-.85.21-1.7.21-2.34.21-1.28,0-2.13-.43-2.77-1.49-.64-1.06-.85-2.56-.85-4.68,0-1.28,0-2.56.21-3.41s.43-1.49.85-1.7c.21-.21.43-.21.43-.21.21,0,.43-.21.43-.21h2.56c.43,0,.85,0,1.28.21.43,0,.85.21,1.28.21,0,0,.43,0,.85.21v10.43h-.21Zm32.15-11.07h-2.98c-.21,0-.21.21-.21.21v11.29h-25.34v-12.78q0-.21-.21-.21l-.43-.21c-.85-.21-1.92-.43-2.56-.64q-.43,0-.43-.21c-.21,0-.64,0-1.06-.21h-2.13c-.64,0-1.28,0-1.7.21-.64.21-1.28.21-1.92.64-.64.21-1.06.64-1.7,1.06-.43.43-1.06.85-1.49,1.49-.43.64-.64,1.28-.85,2.13-.21.85-.43,1.7-.43,2.77-.21,1.06,0,2.13.21,3.19.21,1.06.64,1.92,1.06,2.56.43.64,1.28,1.28,2.13,1.7.85.43,1.92.64,2.98.64h1.49c.43,0,1.06-.21,1.49-.21s.85-.21,1.49-.43c.21,0,.43-.21.64-.21v.43c0,.21.21.21.21.21h31.94c.21,0,.21-.21.21-.21v-12.99q-.21-.21-.43-.21"/>
    <path class="cls-2" d="m257.3,51.17c0,.64,0,1.06-.21,1.7,0,.43-.21.85-.21,1.28q-.21.43-.43.64c-.43.21-.85.43-1.28.64-.43.21-1.06.21-1.92.21h-2.56v-11.29c.21-.21.43-.21.85-.21.64-.21,1.06-.21,1.7-.21s1.28.21,1.7.43.85.64,1.28,1.06c.43.43.64,1.06.64,1.92.21.85.21,1.49.21,2.34.21.21.21,1.06.21,1.49m-10.01,4.26h-3.83v-1.92c0-.85,0-1.49.21-2.34.21-.64.43-1.28.64-1.92.43-.43.64-.85,1.28-1.06.43-.21,1.06-.43,1.7-.43v7.67Zm13.2-9.37h0c-.43-1.06-.85-1.92-1.49-2.56-.64-.64-1.49-1.28-2.34-1.7-.85-.43-2.13-.64-3.41-.64-.85,0-1.7,0-2.56.21v-2.34c0-.21-.21-.21-.21-.21h-2.98c-.21,0-.21.21-.21.21v6.17c-1.28,0-2.34.21-3.19.64-1.06.43-1.7.85-2.34,1.7-.64.64-1.06,1.49-1.49,2.56-.43,1.06-.43,2.13-.43,3.19,0,.64,0,1.49.21,2.13h-19.59v-4.05c0-1.06-.21-1.92-.43-2.77-.21-.85-.64-1.49-.85-2.13-.43-.64-.85-1.06-1.49-1.49-.43-.43-1.06-.85-1.7-1.06-.64-.21-1.28-.43-1.7-.64-.64-.21-1.28-.21-1.7-.21h-2.13c-.43,0-.64,0-1.06.21,0,0-.21,0-.64.21-.64.21-1.7.43-2.56.64h-.85c-.21,0-.21.21-.21.21v2.56h.21c.64-.21,2.13-.43,2.98-.64.64-.21,1.06-.21,1.06-.21.43,0,.85-.21,1.28-.21s.85-.21,1.28-.21h2.56c.21,0,.43.21.43.21.21,0,.43.21.43.21.43.21.64.85.85,1.7.21.85.21,1.92.21,3.19v4.05h-11.07c-.21,0-.21.21-.21.21v1.7c0,.21.21.21.21.21h47.91c1.28,0,2.34-.21,3.41-.64,1.06-.43,1.7-1.06,2.34-1.7.64-.64,1.06-1.7,1.49-2.56.43-1.06.43-2.13.43-3.41.21-.85,0-1.7-.43-2.77"/>
    <path class="cls-2" d="m195.55,60.12c0-.21-.21-.21,0,0h-.43l-1.7,1.7-1.7-1.7h-.43l-1.92,1.92v.43l1.92,1.92h.43l1.7-1.92,1.7,1.92h.43l1.92-1.92v-.43l-1.92-1.92Z"/>
    <path class="cls-2" d="m162.76,40.1s.21,0,0,0h.43l1.7-1.92,1.7,1.92h.43l1.92-1.92v-.43l-1.92-1.92h-.43l-1.7,1.7-1.7-1.7h-.43l-1.92,1.92v.43l1.92,1.92Z"/>
  </g>
</svg>