<?xml version="1.0" encoding="UTF-8"?>
<svg id="Layer_1" data-name="Layer 1" xmlns="http://www.w3.org/2000/svg" viewBox="0 0 512 123">
  <defs>
    <style>
      .cls-1, .cls-2, .cls-3, .cls-4 {
        stroke-width: 0px;
      }

      .cls-1, .cls-5 {
        fill: #4d4d4d;
      }

      .cls-2 {
        fill: #74af28;
      }

      .cls-5 {
        stroke: #4d4d4d;
        stroke-miterlimit: 10;
        stroke-width: .07px;
      }

      .cls-3 {
        fill: #fff;
      }

      .cls-4 {
        fill: #478021;
      }
    </style>
  </defs>
  <g>
    <rect class="cls-4" x="326.88" y="28.8" width="66.09" height="65.41"/>
    <g>
      <g>
        <polygon class="cls-3" points="386.23 51.39 386.23 35.91 381.61 35.91 381.61 46.78 378.94 46.78 378.94 35.91 374.33 35.91 374.33 46.78 371.65 46.78 371.65 35.91 367.03 35.91 367.03 46.78 367.03 51.4 386.23 51.39"/>
        <polygon class="cls-3" points="367.03 46.78 360.15 46.78 360.15 40.53 365.05 40.53 365.05 35.91 355.54 35.91 355.54 46.78 352.86 46.78 352.86 35.91 340.93 35.91 340.93 46.78 338.23 46.78 338.23 35.91 333.61 35.91 333.61 51.4 345.55 51.39 345.55 40.53 348.24 40.53 348.24 51.4 363.79 51.4 367.03 46.78"/>
      </g>
      <path class="cls-2" d="m391.11,66.89v4.23l-6.98-4.37-4.04-7.6h2.69l1.25-2.01h-23.19l-.91,2.53-.91-2.53h-23.19l1.25,2.01h2.69l-4.05,7.6-6.98,4.37v-4.23l-1.87-1.36v26.46l2.76,1.17,2.16.91,2.16-.91,2.85-1.2v-1.43l8.61-.65,4.46,3.27,1.47,1.07,1.46-1.07,2.17-1.59-.06-.14-.03-.09h0l-.94-2.1,2.22-.17h-.01.03l.14-.02v-.14s.02-.08.02-.08h0s.15-2.34.15-2.34l1.92,1.01h0s.08.04.08.04l.13.09v-.02s.13.06.13.06v-.23h0s1.21-1.95,1.21-1.95l1.21,1.95h0l.03.05.07.14h.02s.01,0,.01,0l.14-.09.07-.03h0s1.91-1.01,1.91-1.01l.15,2.33h0s0,.09,0,.09v.14s.16.02.16.02h.03l2.2.17-.95,2.1h0l-.03.09-.06.13,2.18,1.59,1.46,1.07,1.46-1.07,4.46-3.27,8.6.65v1.43l2.86,1.2,2.16.91,2.16-.91,2.76-1.17v-26.46l-1.88,1.37Zm0,6.56v6.41l-2.1-3.93-2.5.41,1.58-2.15-2.1-3.95,5.12,3.2Zm-5.27.57l-2.06,2.77-3.31.55-.89-1.67-7.18,3.79,3.5-7.79-1.54-.96.51-3.63,2.56-2.21,5.32,3.34,3.09,5.8Zm-7.92-14.87l2.96,5.57-3.65-2.28-1.96,1.71.38-2.7-3.67-2.3h5.93Zm-36,0h5.93l-3.67,2.3.38,2.7-1.96-1.71-3.65,2.28,2.97-5.57Zm-4.83,9.07l5.33-3.34,2.55,2.21.51,3.63-1.54.96,3.5,7.79-7.19-3.79-.89,1.67-3.32-.55-2.05-2.77,3.09-5.8Zm-3.24,2.03l-2.11,3.95,1.59,2.15-2.51-.41-2.1,3.93v-6.41l5.12-3.21Zm1.06,18.41v1.93l-3.13,1.33-3.05-1.29v-6.7l3.08-5.79,3.23.54,2.11,2.86-.88,1.66,6.64,4.86-7.99.61Zm3.84-6.08l.66-1.23-1.64-2.22,2.6.43.65-1.23,7.75,4.09,2.26,5.02-5.12.39-7.16-5.25Zm12.57,9.2l-2.92-2.13,3.5-.27.67,1.48-1.25.91Zm3.22-4.61l-1.49.11-1.54-3.42,3.13,1.66-.1,1.65Zm.25-3.82l-4.6-2.43-3.79-8.43,1.14-.72-.4-2.8,2.04,1.77,1.14-.71,4.83,7.76-.36,5.55Zm1.13-17.46l-.56,8.63-4.47-7.16-1.54.96-2.63-2.28-.5-3.52,5.34-3.35h6.16l1.19,3.31-1.23,3.41h-1.78Zm2.03,19.14l-1.35-.71.24-3.78,1.95,3.14-.84,1.36Zm-.89-7.77l.61-9.36h1.31s.95-2.62.95-2.62l.95,2.63h1.31s.61,9.35.61,9.35l-2.87,4.6-2.86-4.6Zm4.84,7.77l-.85-1.36,1.95-3.14.25,3.78-1.35.71Zm2.03-19.14h-1.77l-1.23-3.41,1.19-3.31h6.16l5.34,3.35-.5,3.52-2.63,2.28-1.54-.96-4.47,7.16-.56-8.63Zm.78,11.91l4.83-7.76,1.13.71,2.04-1.77-.39,2.8,1.14.72-3.79,8.43-4.6,2.43-.36-5.55Zm2.1,9.48l-1.5-.11-.11-1.65,3.14-1.66-1.54,3.42Zm1.72,4.5l-1.25-.91.67-1.48,3.5.27-2.91,2.13Zm5.4-3.95l-5.11-.39,2.25-5.02,7.75-4.09.65,1.23,2.6-.43-1.64,2.22.66,1.23-7.16,5.25Zm17.18,2.8l-3.04,1.29-3.13-1.33v-1.93l-8-.61,6.64-4.86-.89-1.66,2.11-2.86,3.22-.54,3.08,5.79v6.7Z"/>
      <polygon class="cls-2" points="326.86 57.14 326.86 63.35 328.73 61.98 328.73 59.15 332.41 59.15 333.65 57.14 326.86 57.14"/>
      <polygon class="cls-2" points="392.97 57.14 392.97 63.35 391.1 61.98 391.1 59.15 387.42 59.15 386.18 57.14 392.97 57.14"/>
    </g>
  </g>
  <g>
    <path class="cls-1" d="m133.67,66.56v1.13c0,1.26-.28,2.19-.88,2.78-.74.75-1.71,1.13-2.9,1.13h-5.2c-1.22,0-2.22-.39-2.93-1.13-.57-.59-.85-1.52-.85-2.78v-7.14h1.76v6.8c0,.82.06,1.37.14,1.62.09.26.26.46.48.64.37.26.91.39,1.68.39h4.63c.8,0,1.34-.13,1.65-.39.26-.18.46-.39.54-.64.09-.26.14-.8.14-1.62v-.8h-3.33v-1.57h5.23v1.57h-.17Zm-8.84,8.51h1.76v1.57h-1.76v-1.57Zm3.21,0h1.73v1.57h-1.73v-1.57Z"/>
    <path class="cls-1" d="m146.41,64.99h.17v1.57h-12.91v-1.57h10.98v-4.54c0-.64-.09-1.13-.28-1.42-.43-.72-1.17-1.08-2.22-1.08h-4.29v-1.57h4.15c2.62,0,4.41,1.57,4.41,3.92v4.69Z"/>
    <path class="cls-1" d="m150.59,56.38h4.15c2.62,0,4.41,1.57,4.41,3.92v6.26h-12.74v-1.57h10.98v-4.54c0-.64-.09-1.13-.28-1.42-.43-.72-1.17-1.08-2.22-1.08h-4.29v-1.57Zm2.42,13.63h1.73v1.6h-1.73v-1.6Z"/>
    <path class="cls-1" d="m163.47,66.56h-1.76v-16.65h1.76v16.65Z"/>
    <path class="cls-1" d="m170.12,64.99h.2v1.57h-.2v.54c0,2.81-1.71,4.51-4.58,4.51h-.09v-1.62c.65-.03,1.17-.13,1.56-.36.6-.28,1-.72,1.19-1.26.11-.33.17-.93.17-1.73v-10.26h1.73v8.61Z"/>
    <path class="cls-1" d="m174.25,64.99v-15.08h1.76v16.65h-5.89v-1.57h4.12Z"/>
    <path class="cls-1" d="m180.33,66.56h-1.76v-16.65h1.76v16.65Z"/>
    <path class="cls-1" d="m199.21,56.38h1.73v11.32c0,1.26-.28,2.19-.88,2.78-.74.75-1.71,1.13-2.9,1.13h-5.2c-1.22,0-2.22-.39-2.93-1.13-.57-.59-.85-1.52-.85-2.78v-7.14h1.76v6.8c0,.82.06,1.37.14,1.62.09.26.26.46.48.64.37.26.91.39,1.68.39h4.64c.8,0,1.34-.13,1.65-.39.26-.18.45-.39.54-.64.09-.26.14-.8.14-1.62v-10.98Zm-5.4-5.7h1.76v1.6h-1.76v-1.6Z"/>
    <path class="cls-1" d="m205.44,64.99v1.57h-1.93v-16.65h1.76v15.08h.17Z"/>
    <path class="cls-1" d="m217.24,64.99h.17v1.57h-.45c-.77,1.57-2.13,2.37-4.04,2.37h-3.41v-2.37h-4.21v-1.57h4.21v-4.69c0-2.35,1.76-3.92,4.38-3.92h3.35v8.61Zm-6,2.35h1.51c.74,0,1.25-.08,1.56-.23.8-.39,1.19-1.03,1.19-1.98v-7.17h-1.76c-.68,0-1.22.15-1.59.44-.26.18-.48.39-.63.64-.2.34-.28.8-.28,1.42v6.88Z"/>
    <path class="cls-1" d="m222.47,64.99v-8.61h1.76v8.61h.17v1.57h-7.17v-1.57h5.23Zm-3.16,5.03h1.73v1.6h-1.73v-1.6Zm3.16,0h1.76v1.6h-1.76v-1.6Z"/>
    <path class="cls-1" d="m228.36,64.99v-15.08h1.76v15.08h.17v1.57h-6.06v-1.57h4.12Z"/>
    <path class="cls-1" d="m238.97,64.99v-4.43h1.73v4.43h5.52v-6.55h1.73v6.55h5.46v-8.61h1.73v10.18h-25.02v-1.57h8.84Z"/>
    <path class="cls-1" d="m284.01,56.38v8.61h.17v1.57h-16.86c-2.59,0-4.32-1.57-4.32-3.94v-5.05h1.76v5.15c0,.59.14,1.08.46,1.47.37.41.91.8,2.27.8h11.18c-.28-.21-.6-.44-.91-.7-1.34-1.14-1.99-2.42-1.99-3.84s.57-2.47,1.68-3.27c.54-.39,1.08-.62,1.68-.7.34-.08.94-.1,1.82-.1h3.07Zm-1.76,8.61v-7.04h-1.19c-.65,0-1.19.05-1.59.13-1.22.28-1.85,1.08-1.85,2.4,0,.93.43,1.8,1.31,2.65.88.85,1.99,1.47,3.33,1.86Zm-3.13-14.3h1.73v1.6h-1.73v-1.6Z"/>
    <path class="cls-1" d="m284.01,64.99h7.02l-.85-.7c-1.34-1.14-1.99-2.42-1.99-3.84s.57-2.45,1.68-3.27c.51-.36,1.05-.59,1.62-.7.34-.08.94-.1,1.82-.1h3.1v10.18h-12.4v-1.57Zm5.8-14.3h1.76v1.6h-1.76v-1.6Zm4.86,14.3v-7.04h-1.25c-.65,0-1.17.05-1.56.13-1.22.28-1.85,1.08-1.85,2.4,0,.93.43,1.8,1.31,2.65.88.85,1.99,1.47,3.36,1.86Zm-1.68-14.3h1.73v1.6h-1.73v-1.6Z"/>
    <path class="cls-1" d="m304.97,66.56h-1.59c-2.62,0-4.38-1.57-4.38-3.92v-2.32c0-2.35,1.76-3.94,4.38-3.94h3.33v11.32c0,1.26-.29,2.19-.85,2.78-.74.75-1.71,1.13-2.9,1.13h-3.95v-1.6h3.67c.74,0,1.28-.13,1.65-.39.48-.33.65-.64.65-2.22v-.85Zm0-1.57v-7.04h-1.62c-.94,0-1.65.28-2.13.82-.28.28-.43.8-.43,1.55v2.45c0,1.47.77,2.22,2.27,2.22h1.9Z"/>
    <path class="cls-5" d="m134.1,82.56l-3.18,11.2h-1.73l-2.13-8.07-.27-1.01c-.01-.06-.06-.22-.13-.5l-.13-.51h-.02l-.13.51-.13.51-.27,1.02-2.16,8.05h-1.7l-3.1-11.2h1.17l2.18,8.05.3,1.09c.03.09.07.27.15.54l.14.55h.02l.14-.55.14-.54.29-1.08,2.15-8.06h1.69l2.13,8.07.29,1.08.13.55.14.54h.02l.15-.55.15-.55.3-1.1,2.22-8.03h1.19Z"/>
    <path class="cls-5" d="m141.68,91.39h-5.12l-.78,2.37h-1.21l3.7-11.2h1.6l3.78,11.2h-1.19l-.78-2.37Zm-.33-.95l-2.24-6.84-2.21,6.84h4.46Z"/>
    <path class="cls-5" d="m153.9,92.39l-.47.86-.9-.65c-.54.85-1.79,1.27-3.75,1.27s-3.22-.31-3.65-.94c-.44-.63-.66-2.37-.66-5.23,0-2.29.25-3.73.75-4.35.5-.61,1.68-.91,3.56-.91s3.1.31,3.58.93c.48.62.72,2.16.72,4.64,0,1.85-.06,3.07-.19,3.64l1.01.74Zm-5.3-2.64l.53-.86,2.76,2.03c.07-.4.1-1.1.1-2.12,0-2.7-.13-4.26-.37-4.67-.25-.41-1.2-.62-2.85-.62s-2.54.2-2.81.59c-.27.39-.41,1.75-.41,4.05s.14,3.67.41,4.06c.27.39,1.2.59,2.79.59s2.54-.29,2.87-.86l-3.03-2.2Z"/>
    <path class="cls-5" d="m156.53,83.63v3.91h4.92v1.07h-4.92v5.15h-1.14v-11.2h6.2v1.07h-5.06Z"/>
    <path class="cls-5" d="m174.28,85.59h-1.13c0-.9-.14-1.48-.41-1.72-.27-.24-.91-.37-1.92-.37-1.19,0-1.96.12-2.31.35-.35.23-.52.75-.52,1.55,0,.9.14,1.45.41,1.65.27.2,1.08.33,2.42.4,1.57.08,2.58.3,3,.67.43.37.64,1.19.64,2.46,0,1.38-.25,2.27-.74,2.68-.49.41-1.58.61-3.25.61-1.46,0-2.42-.2-2.9-.61-.48-.41-.72-1.23-.72-2.47v-.5s1.13,0,1.13,0v.28c0,1,.14,1.62.41,1.87.28.24.98.36,2.13.36,1.31,0,2.11-.12,2.41-.36.3-.24.45-.89.45-1.95,0-.68-.1-1.14-.31-1.37-.2-.23-.63-.36-1.28-.41l-1.18-.07-1.13-.06c-1.71-.13-2.57-1.12-2.57-2.95,0-1.27.25-2.13.75-2.55.5-.43,1.49-.64,2.98-.64s2.5.2,2.95.6c.46.4.69,1.25.69,2.56Z"/>
    <path class="cls-5" d="m183.08,82.56h1.14v7.85c0,1.42-.26,2.36-.77,2.8-.52.45-1.6.67-3.25.67-1.55,0-2.59-.22-3.15-.64-.56-.43-.83-1.25-.83-2.45v-8.22h1.14v7.85c0,1.06.16,1.73.47,2,.31.27,1.08.41,2.29.41,1.32,0,2.15-.13,2.47-.4.33-.27.49-.93.49-2.01v-7.85Z"/>
    <path class="cls-5" d="m187.66,82.56v10.03h5.2v1.17h-6.34v-11.2h1.14Z"/>
    <path class="cls-5" d="m200.46,91.39h-5.12l-.78,2.37h-1.21l3.7-11.2h1.6l3.78,11.2h-1.19l-.78-2.37Zm-.33-.95l-2.24-6.84-2.21,6.84h4.46Z"/>
    <path class="cls-5" d="m204.99,82.56v11.2h-1.14v-11.2h1.14Z"/>
    <path class="cls-5" d="m218.41,82.56v11.2h-1.14v-9.97s.01-.34.01-.34h-.03l-.09.26c-.05.13-.07.22-.09.25l-.19.53-3.44,9.27h-1.14l-3.45-9.16-.2-.52-.09-.26c-.02-.06-.05-.14-.09-.25h-.03v.3s.01.31.01.31v9.58h-1.14v-11.2h1.98l2.69,7.25.43,1.17.22.58.21.58h.03l.21-.58c.1-.28.17-.47.21-.58l.44-1.17,2.68-7.26h2.01Z"/>
    <path class="cls-5" d="m226.92,91.39h-5.12l-.78,2.37h-1.21l3.7-11.2h1.6l3.78,11.2h-1.19l-.78-2.37Zm-.33-.95l-2.24-6.84-2.21,6.84h4.46Z"/>
    <path class="cls-5" d="m238.94,82.56v11.2h-1.87l-4.23-7.62-.69-1.26-.34-.63-.34-.62h-.03v.42s.01.43.01.43v9.28h-1.14v-11.2h1.87l3.69,6.68.96,1.76.48.87.47.88h.03v-.42s-.01-.43-.01-.43v-9.34h1.14Z"/>
    <path class="cls-5" d="m251.62,91.39h-5.12l-.78,2.37h-1.21l3.7-11.2h1.6l3.78,11.2h-1.19l-.78-2.37Zm-.33-.95l-2.24-6.84-2.21,6.84h4.46Z"/>
    <path class="cls-5" d="m256.16,82.56v10.03h5.2v1.17h-6.34v-11.2h1.14Z"/>
    <path class="cls-5" d="m266.92,93.76v-11.2h4.81c1.08,0,1.85.24,2.29.71.44.48.67,1.3.67,2.48,0,1.03-.12,1.76-.36,2.16-.24.41-.7.67-1.38.79v.03c1.07.09,1.61.81,1.61,2.17v2.86h-1.14v-2.58c0-1.31-.51-1.96-1.53-1.96h-3.82v4.54h-1.14Zm1.14-5.61h3.29c.87,0,1.46-.15,1.78-.44.31-.29.47-.84.47-1.65,0-1.01-.12-1.67-.35-1.98-.23-.31-.74-.46-1.51-.46h-3.69v4.53Z"/>
    <path class="cls-5" d="m282.95,91.39h-5.12l-.78,2.37h-1.21l3.7-11.2h1.6l3.78,11.2h-1.19l-.78-2.37Zm-.33-.95l-2.24-6.84-2.21,6.84h4.46Z"/>
    <path class="cls-5" d="m292.03,82.56v7.9c0,1.32-.22,2.22-.65,2.7-.43.48-1.25.72-2.44.72s-2.04-.2-2.49-.61c-.45-.41-.67-1.16-.67-2.25,0-.51,0-.95.02-1.33h1.12v1.07c0,.91.11,1.49.33,1.72.22.23.77.34,1.64.34s1.41-.15,1.65-.45c.23-.3.35-1,.35-2.1v-7.7h1.14Z"/>
    <path class="cls-5" d="m302.52,82.56v11.2h-1.14v-5.2h-5.91v5.2h-1.14v-11.2h1.14v4.94h5.91v-4.94h1.14Z"/>
    <path class="cls-5" d="m305.96,82.56v11.2h-1.14v-11.2h1.14Z"/>
  </g>
</svg>