<?xml version="1.0" encoding="UTF-8"?>
<svg id="Layer_1" data-name="Layer 1" xmlns="http://www.w3.org/2000/svg" viewBox="0 0 512 123">
  <defs>
    <style>
      .cls-1 {
        fill: #019a8b;
      }

      .cls-1, .cls-2, .cls-3, .cls-4, .cls-5, .cls-6, .cls-7, .cls-8, .cls-9, .cls-10, .cls-11 {
        stroke-width: 0px;
      }

      .cls-2 {
        fill: #929497;
      }

      .cls-3 {
        fill: #00b4a6;
      }

      .cls-4 {
        fill: #00897d;
      }

      .cls-5 {
        fill: #008a79;
      }

      .cls-6 {
        fill: #009d8a;
      }

      .cls-7 {
        fill: #008880;
      }

      .cls-8 {
        fill: #009b8b;
      }

      .cls-9 {
        fill: #00b6a7;
      }

      .cls-10 {
        fill: #00998b;
      }

      .cls-11 {
        fill: #00a08b;
      }
    </style>
  </defs>
  <path class="cls-2" d="m171.29,101.76c.11.13.18.13.24,0l3.38-6.43c.04-.09.11-.13.2-.13h.62c.11,0,.22.11.22.22v7.38c0,.13-.11.22-.22.22h-.62c-.13,0-.22-.11-.22-.22v-5.74l-2.96,5.52c-.33.6-1.06.6-1.37,0l-2.43-4.79v5.04c0,.13-.09.22-.22.22h-.6c-.11,0-.22-.11-.22-.22v-7.38c0-.13.11-.22.22-.22h.62c.09,0,.15.04.2.13h0l3.16,6.41h0Z"/>
  <path class="cls-2" d="m178.67,97.21h.62c.13,0,.22.11.22.22v5.37c0,.13-.09.22-.22.22h-.62c-.13,0-.22-.11-.22-.22v-5.37c0-.13.11-.22.22-.22h0Z"/>
  <path class="cls-2" d="m178.98,95.2c.31,0,.57.27.57.57s-.27.57-.57.57-.57-.27-.57-.57.27-.57.57-.57h0Z"/>
  <path class="cls-2" d="m189.89,97.21h.62c.13,0,.22.11.22.22v5.37c0,.13-.11.22-.22.22h-.62c-.11,0-.22-.11-.22-.22v-5.37c0-.13.11-.22.22-.22h0Z"/>
  <path class="cls-2" d="m190.2,95.2c.31,0,.57.27.57.57s-.27.57-.57.57-.57-.27-.57-.57.27-.57.57-.57h0Z"/>
  <path class="cls-2" d="m270.04,97.21h.62c.11,0,.22.11.22.22v5.37c0,.13-.11.22-.22.22h-.62c-.13,0-.22-.11-.22-.22v-5.37c0-.13.11-.22.22-.22h0Z"/>
  <path class="cls-2" d="m270.34,95.2c.31,0,.57.27.57.57s-.27.57-.57.57-.57-.27-.57-.57.27-.57.57-.57h0Z"/>
  <path class="cls-2" d="m186.29,99.53c0-1.37-1.15-1.83-3.51-1.81v5.06c0,.11-.11.22-.22.22h-.62c-.11,0-.22-.11-.22-.22v-5.37c0-.13.11-.22.22-.22.93,0,1.86-.02,2.78,0,1.66.07,2.63,1.1,2.63,2.72v2.89c0,.11-.11.22-.22.22h-.62c-.11,0-.22-.11-.22-.22v-3.27h0Z"/>
  <path class="cls-2" d="m284.38,99.53c0-1.37-1.15-1.83-3.51-1.81v5.06c0,.11-.11.22-.22.22h-.62c-.11,0-.22-.11-.22-.22v-5.37c0-.13.11-.22.22-.22.93,0,1.86-.02,2.78,0,1.66.07,2.63,1.1,2.63,2.72v2.89c0,.11-.11.22-.22.22h-.62c-.11,0-.22-.11-.22-.22v-3.27h0Z"/>
  <path class="cls-2" d="m245.33,100.65c0,1.37,1.15,1.83,3.51,1.81v-5.06c0-.11.11-.22.22-.22h.62c.11,0,.22.11.22.22v5.37c0,.13-.11.22-.22.22-.93,0-1.86.02-2.78,0-1.66-.07-2.63-1.1-2.63-2.72v-2.89c0-.11.11-.22.22-.22h.62c.11,0,.22.11.22.22v3.27h0Z"/>
  <path class="cls-2" d="m198.24,100.3v-4.88c0-.13.11-.22.22-.22h.62c.13,0,.22.11.22.22v1.68c0,.07.04.11.11.11h1.55c.07,0,.11.04.11.11v.31c0,.07-.04.11-.11.11h-1.55c-.07,0-.11.04-.11.11v2.98c0,.88.51,1.39,1.52,1.61.62.13.8.6.04.57-1.64-.04-2.63-1.1-2.63-2.72h0Z"/>
  <path class="cls-2" d="m265.22,100.3v-4.88c0-.13.11-.22.22-.22h.62c.11,0,.22.11.22.22v1.68c0,.07.04.11.11.11h1.55c.07,0,.11.04.11.11v.31c0,.07-.04.11-.11.11h-1.55c-.07,0-.11.04-.11.11v2.98c0,.88.51,1.39,1.52,1.61.62.13.8.6.04.57-1.66-.04-2.63-1.1-2.63-2.72h0Z"/>
  <path class="cls-2" d="m223.3,97.91v4.88c0,.11.11.22.22.22h.62c.11,0,.22-.11.22-.22v-3.36c0-.07.04-.11.11-.11h1.55c.07,0,.11-.04.11-.11v-.31c0-.07-.04-.11-.11-.11h-1.55c-.07,0-.11-.04-.11-.11v-1.28c0-.88.51-1.39,1.52-1.61.62-.13.8-.6.04-.57-1.66.02-2.63,1.08-2.63,2.7h0Z"/>
  <path class="cls-2" d="m202.75,99.9v2.89c0,.11.11.22.22.22h.62c.11,0,.22-.11.22-.22,0-3.73,0,1.64,0-3.4,0-.88.51-1.39,1.52-1.61.62-.13.8-.6.04-.57-1.66.04-2.63,1.08-2.63,2.7h0Z"/>
  <path class="cls-2" d="m211.3,103.13c0-.07-.04-.11-.11-.11-.42,0-.68,0-1.26-.02-1.66-.07-2.63-1.1-2.63-2.72v-2.89c0-.11.11-.22.22-.22h.62c.11,0,.22.11.22.22v3.25c0,.99.64,1.88,1.5,1.88.53,0,1.46-.42,1.46-1.52v-3.6c0-.11.11-.22.22-.22h.62c.11,0,.22.11.22.22v6.45c0,1.61-.97,2.67-2.63,2.72-.75.02-.57-.44.04-.57,1.02-.22,1.52-.8,1.55-1.68l-.04-1.17h0Z"/>
  <path class="cls-2" d="m230.39,95.2h5.06c.09,0,.15.07.15.15v.44c0,.09-.07.15-.15.15h-4.22v2.61h3.01c.09,0,.15.07.15.15v.44c0,.09-.07.15-.15.15h-3.01v2.96h4.22c.09,0,.15.07.15.15v.44c0,.09-.07.15-.15.15h-5.06c-.13,0-.22-.11-.22-.22v-7.38c0-.11.11-.22.22-.22h0Z"/>
  <path class="cls-2" d="m219.79,97.21h-1.33c-1.22,0-2.21.99-2.21,2.21v1.39c0,1.22.99,2.21,2.21,2.21h1.33c1.22,0,2.21-.99,2.21-2.21v-1.39c0-1.22-.99-2.21-2.21-2.21Zm1.06,3.89c0,.73-.6,1.35-1.35,1.35h-.8c-.73,0-1.35-.6-1.35-1.35v-1.97c.02-.75.62-1.35,1.35-1.35h.8c.73,0,1.35.6,1.35,1.35v1.97Z"/>
  <path class="cls-2" d="m276.18,97.21h-1.33c-1.22,0-2.21.99-2.21,2.21v1.39c0,1.22.99,2.21,2.21,2.21h1.33c1.22,0,2.21-.99,2.21-2.21v-1.39c0-1.22-.99-2.21-2.21-2.21Zm1.08,3.89c0,.73-.6,1.35-1.35,1.35h-.8c-.73,0-1.35-.6-1.35-1.35v-1.97c.02-.75.62-1.35,1.35-1.35h.8c.73,0,1.35.6,1.35,1.35v1.97Z"/>
  <path class="cls-2" d="m242.06,95.2h-.62c-.11,0-.22.11-.22.22v1.68c0,.07-.04.11-.11.11h-2.47c-1.22,0-2.21.99-2.21,2.21v1.39c0,1.22.99,2.21,2.21,2.21h3.42c.13,0,.22-.11.22-.22v-7.38c0-.13-.11-.22-.22-.22Zm-.84,7.2c0,.07-.04.11-.11.11h-1.99c-.88,0-1.61-.73-1.61-1.61v-1.55c0-.88.73-1.61,1.61-1.61h1.99c.07,0,.11.04.11.11v4.55Z"/>
  <path class="cls-2" d="m263.14,97.21h-3.4c-1.22,0-2.21.99-2.21,2.21v1.39c0,1.22.99,2.21,2.21,2.21,1.08,0,2.41-.15,2.56-.13.11.02.15.13.33.13h.51c.13,0,.22-.11.22-.22v-5.37c0-.13-.11-.22-.22-.22Zm-.82,3.93c0,.53-.35,1.48-2.1,1.35-.88-.07-1.61-.73-1.61-1.61v-1.55c0-.88.73-1.61,1.61-1.61h1.99c.07,0,.11.04.11.11v3.31Z"/>
  <path class="cls-2" d="m253.51,103.02c-1.22,0-2.21-.99-2.21-2.21v-1.39c0-1.22.99-2.21,2.21-2.21h2.89s.04.02.04.04v.42s-.02.04-.04.04h-2.43c-.88,0-1.61.73-1.61,1.61v1.55c0,.88.73,1.61,1.61,1.61h2.43s.04.02.04.04v.42s-.02.04-.04.04l-2.89.02h0Z"/>
  <path class="cls-2" d="m195.79,97.65c.53,0,.53-.73.02-.77-1.48-.15-2.85.18-3.2,1.35-.27.88.27,1.68,1.55,1.92,1.68.31,2.32,1.13,1.61,1.88-.38.38-1.5.24-2.32.29-.88.04-.77.71,0,.71,1.33.02,2.81.2,3.34-.68.55-.93.09-2.21-.95-2.43-1.39-.29-2.25-.6-2.08-1.39.15-.8.84-.84,2.03-.86h0Z"/>
  <path class="cls-5" d="m285.61,52.35c.88,0,1.59.71,1.59,1.59s-.71,1.59-1.59,1.59-1.59-.71-1.59-1.59c.02-.88.73-1.59,1.59-1.59h0Z"/>
  <path class="cls-5" d="m285.61,38.67c.95,0,1.72.77,1.72,1.72s-.77,1.72-1.72,1.72-1.72-.77-1.72-1.72c0-.95.77-1.72,1.72-1.72h0Z"/>
  <path class="cls-4" d="m293.52,45.17c.95,0,1.72.77,1.72,1.72s-.77,1.72-1.72,1.72-1.72-.77-1.72-1.72.77-1.72,1.72-1.72h0Z"/>
  <path class="cls-4" d="m278.06,45.46c.95,0,1.72.77,1.72,1.72s-.77,1.72-1.72,1.72-1.72-.77-1.72-1.72c-.02-.95.75-1.72,1.72-1.72h0Z"/>
  <path class="cls-7" d="m262.1,47.87c.88,0,1.59.71,1.59,1.59s-.71,1.59-1.59,1.59-1.59-.71-1.59-1.59.71-1.59,1.59-1.59h0Z"/>
  <path class="cls-7" d="m309.23,47.67c.88,0,1.59.71,1.59,1.59s-.71,1.59-1.59,1.59-1.59-.71-1.59-1.59.73-1.59,1.59-1.59h0Z"/>
  <path class="cls-7" d="m293.92,32.49c1.04,0,1.86.84,1.86,1.86s-.84,1.86-1.86,1.86-1.86-.84-1.86-1.86.82-1.86,1.86-1.86h0Z"/>
  <path class="cls-7" d="m277.61,32.69c1.04,0,1.86.84,1.86,1.86s-.84,1.86-1.86,1.86-1.86-.84-1.86-1.86.84-1.86,1.86-1.86h0Z"/>
  <path class="cls-7" d="m269.5,39.62c1.04,0,1.86.84,1.86,1.86s-.84,1.86-1.86,1.86-1.86-.84-1.86-1.86.84-1.86,1.86-1.86h0Z"/>
  <path class="cls-7" d="m302.03,39.32c1.1,0,1.99.88,1.99,1.99s-.88,1.99-1.99,1.99-1.99-.88-1.99-1.99.91-1.99,1.99-1.99h0Z"/>
  <path class="cls-10" d="m302.63,27.03c1.22,0,2.19.97,2.19,2.19s-.97,2.19-2.19,2.19-2.19-.97-2.19-2.19.97-2.19,2.19-2.19h0Z"/>
  <path class="cls-8" d="m311.86,22.81c1.5,0,2.72,1.22,2.72,2.72s-1.22,2.72-2.72,2.72-2.72-1.22-2.72-2.72,1.22-2.72,2.72-2.72h0Z"/>
  <path class="cls-11" d="m321.45,19.83c1.75,0,3.16,1.41,3.16,3.16s-1.41,3.16-3.16,3.16-3.16-1.41-3.16-3.16,1.41-3.16,3.16-3.16h0Z"/>
  <path class="cls-3" d="m331.26,17.79c1.83,0,3.29,1.48,3.29,3.29s-1.48,3.29-3.29,3.29-3.31-1.48-3.31-3.29,1.48-3.29,3.31-3.29h0Z"/>
  <path class="cls-9" d="m341.23,16.45c2.03,0,3.69,1.66,3.69,3.69s-1.66,3.69-3.69,3.69-3.69-1.66-3.69-3.69c0-2.05,1.66-3.69,3.69-3.69h0Z"/>
  <path class="cls-10" d="m311.24,34.76c1.22,0,2.19.97,2.19,2.19s-.97,2.19-2.19,2.19-2.19-.97-2.19-2.19c-.02-1.19.97-2.19,2.19-2.19h0Z"/>
  <path class="cls-8" d="m320.86,31.23c1.5,0,2.72,1.22,2.72,2.72s-1.22,2.72-2.72,2.72-2.72-1.22-2.72-2.72c0-1.48,1.22-2.72,2.72-2.72h0Z"/>
  <path class="cls-11" d="m330.98,28.97c1.75,0,3.16,1.41,3.16,3.16s-1.41,3.16-3.16,3.16-3.16-1.41-3.16-3.16,1.41-3.16,3.16-3.16h0Z"/>
  <path class="cls-3" d="m341.63,28.62c1.83,0,3.29,1.48,3.29,3.29s-1.48,3.31-3.29,3.31-3.31-1.48-3.31-3.31,1.48-3.29,3.31-3.29h0Z"/>
  <path class="cls-10" d="m319.55,42.89c1.22,0,2.19.97,2.19,2.19s-.97,2.19-2.19,2.19-2.19-.97-2.19-2.19.97-2.19,2.19-2.19h0Z"/>
  <path class="cls-8" d="m330.98,40.18c1.5,0,2.72,1.22,2.72,2.72s-1.22,2.72-2.72,2.72-2.72-1.22-2.72-2.72,1.22-2.72,2.72-2.72h0Z"/>
  <path class="cls-11" d="m341.91,39.89c1.64,0,2.96,1.33,2.96,2.96s-1.33,2.96-2.96,2.96-2.96-1.33-2.96-2.96c-.02-1.64,1.33-2.96,2.96-2.96h0Z"/>
  <path class="cls-10" d="m268.86,27.32c1.22,0,2.19.97,2.19,2.19s-.97,2.19-2.19,2.19-2.19-.97-2.19-2.19c0-1.19.97-2.19,2.19-2.19h0Z"/>
  <path class="cls-6" d="m259.76,23.21c1.5,0,2.72,1.22,2.72,2.72s-1.22,2.72-2.72,2.72-2.72-1.22-2.72-2.72c-.02-1.5,1.22-2.72,2.72-2.72h0Z"/>
  <path class="cls-11" d="m250.1,20.2c1.75,0,3.16,1.41,3.16,3.16s-1.41,3.16-3.16,3.16-3.16-1.41-3.16-3.16c0-1.75,1.41-3.16,3.16-3.16h0Z"/>
  <path class="cls-3" d="m240.32,18.28c1.83,0,3.29,1.48,3.29,3.31s-1.48,3.29-3.29,3.29-3.31-1.48-3.31-3.29,1.48-3.31,3.31-3.31h0Z"/>
  <path class="cls-9" d="m230.37,16.45c2.03,0,3.69,1.66,3.69,3.69s-1.66,3.69-3.69,3.69-3.69-1.66-3.69-3.69c0-2.05,1.66-3.69,3.69-3.69h0Z"/>
  <path class="cls-10" d="m260.29,35.05c1.22,0,2.19.97,2.19,2.19s-.97,2.19-2.19,2.19-2.19-.97-2.19-2.19.97-2.19,2.19-2.19h0Z"/>
  <path class="cls-6" d="m250.59,31.54c1.5,0,2.72,1.22,2.72,2.72s-1.22,2.72-2.72,2.72-2.72-1.22-2.72-2.72,1.22-2.72,2.72-2.72h0Z"/>
  <path class="cls-11" d="m240.32,29.26c1.75,0,3.16,1.41,3.16,3.16s-1.41,3.16-3.16,3.16-3.16-1.41-3.16-3.16,1.41-3.16,3.16-3.16h0Z"/>
  <path class="cls-3" d="m229.97,28.91c1.83,0,3.31,1.48,3.31,3.29s-1.48,3.31-3.31,3.31-3.29-1.48-3.29-3.31,1.46-3.29,3.29-3.29h0Z"/>
  <path class="cls-10" d="m252.03,43.18c1.22,0,2.19.97,2.19,2.19s-.97,2.19-2.19,2.19-2.19-.97-2.19-2.19.97-2.19,2.19-2.19h0Z"/>
  <path class="cls-6" d="m240.89,40.49c1.5,0,2.72,1.22,2.72,2.72s-1.22,2.72-2.72,2.72-2.72-1.22-2.72-2.72,1.22-2.72,2.72-2.72h0Z"/>
  <path class="cls-11" d="m229.49,40.2c1.64,0,2.96,1.33,2.96,2.96s-1.33,2.96-2.96,2.96-2.96-1.33-2.96-2.96,1.33-2.96,2.96-2.96h0Z"/>
  <circle class="cls-1" cx="182.87" cy="86.6" r=".88"/>
  <circle class="cls-1" cx="226.97" cy="72.7" r=".88"/>
  <path class="cls-1" d="m185.85,85.72c-.51,0-.91.4-.88.88,0,.49.4.88.88.88s.88-.4.88-.88-.4-.88-.88-.88Z"/>
  <circle class="cls-1" cx="254.1" cy="72.7" r=".88"/>
  <path class="cls-1" d="m229.95,73.59c.49,0,.88-.4.88-.88s-.4-.88-.88-.88-.91.4-.88.88c0,.49.4.88.88.88Z"/>
  <path class="cls-1" d="m251.14,73.59c.49,0,.88-.4.88-.88s-.4-.88-.88-.88-.91.4-.88.88c0,.49.4.88.88.88Z"/>
  <path class="cls-1" d="m272.36,75.95h-1.44c-.09,0-.15.07-.18.15v7.8c0,2.61-1.22,2.7-1.7,2.87-.64.22-.49.95.27.84,1.1-.15,3.2-.95,3.2-4.46v-7.05c0-.09-.07-.15-.15-.15Z"/>
  <circle class="cls-1" cx="271.67" cy="72.7" r=".88"/>
  <path class="cls-1" d="m285.26,75.91h-5.1c-3.14,0-5.15,1.08-5.13,4.13v3.27c0,.09.07.15.15.15h8.33c.09.04.18.11.18.2v1.99c-.02.49-.71.88-1.1,1.22-.35.31-.35.53.4.46.95-.09,2.45-1.26,2.43-2.34v-8.93c0-.09-.07-.15-.15-.15Zm-1.59,5.99c0,.09-.09.18-.18.18h-6.52c-.09,0-.18-.09-.18-.18v-2.28c0-1.02.71-2.23,2.7-2.23h4c.09,0,.18.09.18.18v4.33Z"/>
  <path class="cls-1" d="m267.43,71.8h-1.44c-.09,0-.15.09-.15.18v11.4c0,.09.07.15.15.15h1.44c.09,0,.15-.07.15-.15v-11.42c0-.09-.07-.15-.15-.15Z"/>
  <path class="cls-1" d="m240.36,71.8h-1.44c-.07,0-.15.09-.15.18v11.4c0,.09.07.15.15.15h1.44c.09,0,.15-.07.15-.15v-11.42c0-.09-.07-.15-.15-.15Z"/>
  <path class="cls-1" d="m262.7,75.95h-1.44c-.09,0-.15.07-.18.15v7.8c0,2.61-1.22,2.7-1.7,2.87-.64.22-.49.95.27.84,1.1-.15,3.2-.95,3.2-4.46v-7.05c0-.09-.07-.15-.15-.15Z"/>
  <path class="cls-1" d="m257.29,75.95h-5.1c-3.14,0-5.15,1.08-5.13,4.13v3.27c0,.09.07.15.15.15h10.08c.09,0,.15-.07.15-.15v-7.25c0-.09-.07-.15-.15-.15Zm-1.61,5.94c0,.09-.09.18-.18.18h-6.52c-.09,0-.18-.09-.18-.18v-2.28c0-1.02.71-2.23,2.7-2.23h4c.09,0,.18.09.18.18v4.33h0Z"/>
  <path class="cls-1" d="m235.68,71.77h-1.41c-.09,0-.15.07-.15.15v9.68c0,.09-.07.15-.15.15h-4.44c-.09,0-.15-.07-.15-.15v-5.55c0-.09-.07-.15-.15-.15h-1.44c-.09,0-.15.07-.15.15v5.55c0,.09-.07.15-.15.15h-18.16c-.09,0-.18-.09-.18-.18v-1.97c0-1.02.71-2.25,2.7-2.25h7.36c.09,0,.15-.07.15-.15v-1.13c0-.09-.07-.15-.15-.15h-6.7c-3.14,0-5.15,1.08-5.13,4.13v1.52c0,.09-.07.15-.15.15h-14.76c-.09,0-.15-.07-.15-.15v-9.7c0-.09-.07-.15-.15-.15h-1.44c-.09,0-.15.07-.15.15v9.72c0,.09-.07.15-.15.15h-4.97c-.09,0-.15-.07-.15-.15v-5.44c0-.09-.07-.15-.15-.15h-1.44c-.09,0-.15.07-.15.15v5.44c0,.09-.07.15-.15.15h-3.23c-.09,0-.15-.07-.15-.15v-1.52c.02-3.05-1.99-4.13-5.13-4.13h-6.3c-.09,0-.15.07-.15.15v9.55h.02c-.02.49-.71.88-1.1,1.22-.35.31-.35.53.4.46.95-.09,2.45-1.26,2.43-2.34v-1.5h65.54c.09,0,.15-.07.15-.15v-11.4c0-.09-.07-.15-.15-.15Zm-57.45,9.81c0,.09-.07.18-.18.18h-7.71c-.09,0-.18-.09-.18-.18v-4.02c0-.09.09-.18.18-.18h5.19c1.99,0,2.7,1.22,2.7,2.23v1.97h0Z"/>
</svg>