<?xml version="1.0" encoding="UTF-8"?>
<svg id="Layer_1" data-name="Layer 1" xmlns="http://www.w3.org/2000/svg" viewBox="0 0 512 123">
  <defs>
    <style>
      .cls-1 {
        fill: #008f66;
      }

      .cls-1, .cls-2 {
        stroke-width: 0px;
      }

      .cls-2 {
        fill: #69bd58;
      }
    </style>
  </defs>
  <path class="cls-1" d="m289.9,39.95v14.31h2.62v-13.65c0-1.51.65-2.26.65-2.26h-1.68c-.88,0-1.6.71-1.6,1.59"/>
  <path class="cls-1" d="m284.98,52.06v-12.11c0-.88-.71-1.59-1.59-1.59h-1.68s.66.75.66,2.25v12.26h-5.3v-8.26c0-1.51.65-2.26.65-2.26h-7.7c-2.68,0-4.57,1.46-4.57,4.11v5.37c0,1.33,1.08,2.41,2.42,2.41h5.18v-1.38h-3.87c-.61,0-1.11-.5-1.11-1.11v-5.04c0-1.83.69-3,2.37-3.02h4.04c-.01.08-.02.15-.03.23h0v11.16c0,3.29-1.7,4.44-3.9,4.44-1.51,0-2.71-.31-2.71-.31l.54,1.16s.97.31,2.71.31c2.8,0,5.97-1.18,5.97-6.24v-.17h8.57s-.62-.73-.65-2.21"/>
  <path class="cls-1" d="m201.32,39.95v14.31h2.62v-13.65c0-1.51.65-2.26.65-2.26h-1.68c-.88,0-1.6.71-1.6,1.59"/>
  <path class="cls-1" d="m196.4,39.95c0-.88-.71-1.59-1.59-1.59h-1.68s.66.75.66,2.25v12.26h-5.1v-4.45c0-5.07-3.53-6.24-8.04-6.24-3.19,0-6.36,1.29-8.02,2.08.09-1.27.63-1.9.63-1.9h-1.68c-.87,0-1.57.7-1.59,1.56v.05s0,8.9,0,8.9h-5.93v-4.45c0-5.07-3.53-6.24-8.04-6.24-3.7,0-5.71,1.26-5.71,1.26l.96,1.44s1.23-.87,4.21-.87c4.25,0,5.97,1.15,5.97,4.44v6.48c0,.88.71,1.59,1.59,1.59h1.67s-.65-.74-.65-2.26h32.99s-.62-.73-.65-2.21v-12.11Zm-23.79,12.92v-6.68c.82-.47,4.05-2.19,7.49-2.19,4.25,0,5.97,1.15,5.97,4.44v4.43h-13.46Z"/>
  <path class="cls-1" d="m330.39,42.36h-6.02c-2.68,0-4.57,1.46-4.57,4.11v5.37c0,1.33,1.08,2.41,2.42,2.41h5.18v-1.38h-3.87c-.61,0-1.11-.5-1.11-1.11v-5.04c0-1.83.69-3,2.37-3.02h4.04c-.01.08-.03.15-.03.23h0v11.16c0,3.29-1.7,4.44-3.9,4.44-1.51,0-2.71-.31-2.71-.31l.54,1.16s.97.31,2.71.31c2.8,0,5.97-1.18,5.97-6.24v-9.83c0-1.51.65-2.26.65-2.26h-1.68Z"/>
  <path class="cls-1" d="m396.08,54.27s-.62-.73-.65-2.21v-3.64c0-5.07-3.53-6.24-8.04-6.24-3.19,0-6.36,1.29-8.02,2.08.09-1.27.63-1.9.63-1.9h-1.68c-.87,0-1.57.7-1.59,1.56v.05s0,8.9,0,8.9h-5.57v-8.25c0-1.51.65-2.26.65-2.26h-1.68c-.87,0-1.57.7-1.59,1.56v.05s0,8.9,0,8.9h-20.87v-4.45c0-5.07-3.53-6.24-8.04-6.24-.88,0-1.65.07-2.33.18v1.77c.51-.07,1.1-.12,1.79-.12,4.25,0,5.97,1.15,5.97,4.44v4.43h-9.82v1.4h60.83Zm-3.27-2.98v1.58h-13.45v-6.68c.82-.47,4.05-2.19,7.49-2.19,4.25,0,5.97,1.15,5.97,4.44v2.84h0Z"/>
  <path class="cls-1" d="m260.12,42.36h-6.02c-2.68,0-4.57,1.46-4.57,4.11v2.06c0,1.33,1.08,2.41,2.42,2.41h1.53c2.66,0,3.27-1.38,3.27-1.38h-3.49c-.61,0-1.11-.5-1.11-1.11v-1.73c0-1.83.7-3,2.37-3.02h4.04c-.01.08-.03.15-.03.23v.05s0,8.9,0,8.9h-24.87v-8.25c0-1.51.65-2.26.65-2.26h-7.7c-2.68,0-4.57,1.46-4.57,4.11v2.06c0,1.33,1.08,2.41,2.42,2.41h1.52c2.66,0,3.27-1.38,3.27-1.38h-3.49c-.61,0-1.11-.5-1.11-1.11v-1.73c0-1.83.69-3,2.37-3.02h4.04c-.01.08-.03.15-.03.23v.05s0,8.9,0,8.9h-12.54c-4.48,0-5.9-2.53-6.4-4.32l-1.54,2.09s.77,3.62,7.93,3.62h42.65s0,0,0,0v-9.64c0-1.51.65-2.26.65-2.26h-1.68Z"/>
  <path class="cls-1" d="m138.17,44.62c0-1.51.65-2.26.65-2.26h-6.16c-2.68,0-4.57,1.46-4.57,4.11v6.4h-4.33c-4.47,0-5.9-2.53-6.4-4.32l-1.54,2.09s.77,3.61,7.93,3.61h6.94s0-.84,0-.84v-6.7c0-1.83.7-3,2.37-3.02h2.51c-.01.08-.03.15-.03.23v.05s0,10.29,0,10.29h1.3s22.67.01,22.67.01v-1.4h-21.35v-8.25Z"/>
  <rect class="cls-1" x="256.38" y="37.47" width="2.27" height="2.27" transform="translate(48.07 193.31) rotate(-44.98)"/>
  <rect class="cls-1" x="364.16" y="37.47" width="2.27" height="2.27" transform="translate(79.6 269.49) rotate(-44.98)"/>
  <rect class="cls-1" x="252.47" y="37.47" width="2.27" height="2.27" transform="translate(46.92 190.55) rotate(-44.98)"/>
  <path class="cls-1" d="m314.86,42.36h-6.02c-2.68,0-4.57,1.46-4.57,4.11v2.06c0,1.33,1.08,2.41,2.42,2.41h1.53c2.66,0,3.27-1.38,3.27-1.38h-3.49c-.61,0-1.11-.5-1.11-1.11v-1.73c0-1.83.69-3,2.37-3.02h4.04c-.01.08-.03.15-.03.23v.05s0,11.38,0,11.38h-5.78c-4.47,0-5.9-2.53-6.4-4.32l-1.54,2.09s.77,3.61,7.93,3.61h8.4s0,0,0,0v-12.12c0-1.51.65-2.26.65-2.26h-1.68Z"/>
  <rect class="cls-1" x="311.13" y="37.47" width="2.27" height="2.27" transform="translate(64.09 232.01) rotate(-44.98)"/>
  <rect class="cls-1" x="307.22" y="37.47" width="2.27" height="2.27" transform="translate(62.94 229.25) rotate(-44.98)"/>
  <rect class="cls-1" x="124.19" y="57.94" width="2.27" height="2.27" transform="translate(-4.99 106.13) rotate(-45.09)"/>
  <rect class="cls-1" x="120.28" y="57.94" width="2.27" height="2.27" transform="translate(-6.14 103.37) rotate(-45.09)"/>
  <rect class="cls-1" x="227.56" y="37.47" width="2.27" height="2.27" transform="translate(39.63 172.94) rotate(-44.98)"/>
  <path class="cls-2" d="m128.14,70.22c-.87,0-1.58.7-1.59,1.56v.05s0,5.01,0,5.01h-7.88v-5.06c-.02-.87-.72-1.56-1.6-1.56h-1.71s.65.74.65,2.26v13.16h2.66v-7.31h7.88v7.31h2.66v-13.16c0-1.51.65-2.26.65-2.26h-1.71Z"/>
  <path class="cls-2" d="m138.84,73.83c-3.68,0-6.04,2.66-6.04,6.18s1.88,6,6.33,6c1.57,0,2.97-.38,4.25-1.08l-.64-1.71c-.86.97-2.02,1.55-3.54,1.55-2.55,0-3.72-2.11-3.72-4.76l8.48.11c.04-.33.07-.82.07-.97,0-3.43-2.08-5.31-5.18-5.31m2.37,5.03h-5.67c.13-2.35,1.35-3.85,3.23-3.85s2.48,1.68,2.48,3.12c0,.18,0,.51-.04.73"/>
  <path class="cls-2" d="m183.18,73.83c-1.71,0-3.12.58-3.85,1.44v-3.49c-.02-.87-.73-1.56-1.6-1.56h-1.71s.65.74.65,2.26v13.16h2.66v-6.67c0-.66.07-1.24.15-1.66.33-1.44,1.55-2.22,2.94-2.22,2.55,0,2.55,2.53,2.55,4.45v6.09h2.66v-7c0-3.1-1.22-4.81-4.45-4.81"/>
  <path class="cls-2" d="m200.39,84.23v-5.89h6.67v-1.48h-6.67v-5.25h2.13c1.59,0,4.3.15,6.24.91v-2.3h-11.75s.65.74.65,2.26v13.16h11.49v-2.3c-1.84.71-4.65.91-6.91.91h-1.86Z"/>
  <path class="cls-2" d="m247.36,73.83c-3.61,0-6.38,2.66-6.38,6.02,0,3.72,2.46,6.16,6.29,6.16s6.11-2.72,6.11-6.22-2.46-5.96-6.02-5.96m0,10.98c-2.1,0-3.65-1.77-3.65-4.96s1.33-4.83,3.59-4.83c2.06,0,3.37,1.68,3.37,4.83s-1.13,4.96-3.3,4.96"/>
  <polygon class="cls-2" points="268.82 82.75 268.76 82.75 265.15 74.18 262.38 74.18 263.55 76.73 260.85 82.75 260.76 82.75 257.22 74.18 254.32 74.18 259.5 85.63 261.14 85.63 264.35 78.54 264.44 78.54 267.63 85.63 269.27 85.63 273.89 74.18 271.9 74.18 268.82 82.75"/>
  <path class="cls-2" d="m290.33,73.83c-2.15,0-3.37.89-3.99,1.9h-.09c-.55-1.11-1.82-1.9-3.68-1.9s-3.09.68-3.79,1.53c-.18-.68-.8-1.17-1.53-1.17h-1.71s.65.74.65,2.26v9.19h2.66v-6.16c0-.91.04-1.64.16-2.17.24-1.11,1.06-2.22,2.7-2.22,2.41,0,2.41,1.97,2.41,4.21v6.33h2.66v-7.42c0-1.75.97-3.12,2.81-3.12,2.41,0,2.46,1.97,2.46,4.21v6.33h2.66v-7.09c0-3.34-1.44-4.72-4.38-4.72"/>
  <path class="cls-2" d="m303.64,73.83c-3.67,0-6.04,2.66-6.04,6.18s1.88,6,6.33,6c1.57,0,2.97-.38,4.25-1.08l-.64-1.71c-.86.97-2.01,1.55-3.54,1.55-2.55,0-3.72-2.11-3.72-4.76l8.48.11c.04-.33.07-.82.07-.97,0-3.43-2.08-5.31-5.18-5.31m2.37,5.03h-5.67c.13-2.35,1.35-3.85,3.23-3.85s2.48,1.68,2.48,3.12c0,.18,0,.51-.04.73"/>
  <path class="cls-2" d="m318.12,73.83c-1.84,0-3.14.66-3.89,1.6-.16-.71-.79-1.24-1.55-1.24h-1.71s.65.74.65,2.26v9.19h2.66v-6.02c0-1.37.18-2.48.8-3.32.51-.69,1.31-1.2,2.41-1.2,1.71,0,2.35,1.17,2.35,3.65v6.89h2.66v-7.38c0-2.94-1.53-4.43-4.36-4.43"/>
  <path class="cls-2" d="m376.57,73.83c-1.84,0-3.14.66-3.9,1.6-.16-.71-.79-1.24-1.55-1.24h-1.72s.65.74.65,2.26v9.19h2.66v-6.02c0-1.37.18-2.48.8-3.32.51-.69,1.31-1.2,2.41-1.2,1.71,0,2.35,1.17,2.35,3.65v6.89h2.66v-7.38c0-2.94-1.53-4.43-4.36-4.43"/>
  <path class="cls-2" d="m359.17,85.98c1.84,0,3.14-.66,3.9-1.6.16.71.79,1.24,1.55,1.24h1.72s-.65-.74-.65-2.26v-9.19h-2.66v6.02c0,1.37-.18,2.48-.8,3.32-.51.69-1.31,1.19-2.41,1.19-1.71,0-2.35-1.17-2.35-3.65v-6.89h-2.66v7.37c0,2.94,1.53,4.43,4.36,4.43"/>
  <path class="cls-2" d="m395.99,80.6v-8.13c0-1.51.65-2.26.65-2.26h-1.71c-.87,0-1.57.7-1.59,1.56v.04s0,.98,0,.98v2.24h-.11c-.6-.64-1.84-1.22-3.5-1.22-2.92,0-5.91,2.21-5.91,6.2,0,3.54,2.19,5.98,5.74,5.98,2.01,0,3.39-.91,4.03-2.17h.09l.24,1.26c.05.38.27.53.69.53h1.48c-.04-1-.09-2.13-.09-3.08v-1.95Zm-2.66.31c0,2.24-1.31,3.83-3.25,3.83s-3.54-1.62-3.54-4.74,1.59-4.92,3.63-4.92c1.1,0,1.94.38,2.54,1.19.45.62.63,1.39.63,2.15v2.48Z"/>
  <path class="cls-2" d="m237.99,72.8v-.33c0-1.51.65-2.26.65-2.26h-1.71c-.87,0-1.57.7-1.59,1.56v.04s0,.98,0,.98v2.24h-.11c-.6-.64-1.84-1.22-3.5-1.22-2.92,0-5.91,2.21-5.91,6.2,0,3.54,2.19,5.98,5.74,5.98,2.02,0,3.39-.91,4.03-2.17h.09l.24,1.26c.05.38.27.53.69.53h1.48c-.04-1-.09-2.13-.09-3.08v-9.75Zm-2.66,8.11c0,2.24-1.31,3.83-3.26,3.83s-3.54-1.62-3.54-4.74,1.59-4.92,3.63-4.92c1.1,0,1.94.38,2.54,1.19.45.62.63,1.39.63,2.15v2.48Z"/>
  <path class="cls-2" d="m342.51,70.22h-.65s.65.74.65,2.26v13.16h2.7v-6.73h6.49v-1.48h-6.49v-5.8h1.9c1.59,0,4.3.16,6.22.91v-2.3h-10.83Z"/>
  <path class="cls-2" d="m160.81,70.22h-1.71s.65.74.65,2.26v13.16h2.66v-13.85c-.02-.87-.72-1.56-1.6-1.56"/>
  <path class="cls-2" d="m155.92,83.37v-3.65l.02-2.2c.02-2.33-1.26-3.7-4.76-3.7-1.64,0-3.39.51-4.72,1.13l.6,1.84c1.11-1,2.46-1.73,3.81-1.73,1.68,0,2.44.86,2.44,2.57v1.4c-2.01-.09-4.25.24-5.42.77-1.57.71-2.08,1.79-2.08,2.97,0,1.93,1.55,3.23,3.92,3.23,1.58,0,2.85-.77,3.58-1.67.14.74.78,1.3,1.56,1.3h1.72s-.65-.74-.65-2.26m-5.29,1.17c-1.31,0-2.13-.82-2.13-2.02,0-.82.42-1.48,1.17-1.84.9-.42,2.06-.55,3.59-.53v1.79h0c-.02,1.44-1.15,2.6-2.64,2.6"/>
  <path class="cls-2" d="m173.94,83.46c-.84.73-1.73,1.31-2.59,1.31-.97,0-1.57-.62-1.57-2.39v-7h.93c1.15,0,2.48.13,3.39.29v-1.48h-4.32v-1.51c-.02-.87-.72-1.56-1.6-1.56h-1.72s.65.74.65,2.26v.82h-2.41v1.2h2.41v7.17c0,2.3.95,3.45,3.72,3.45,1.35,0,2.55-.29,3.5-.58l-.4-1.97Z"/>
  <path class="cls-2" d="m333.54,83.46c-.84.73-1.73,1.31-2.59,1.31-.97,0-1.57-.62-1.57-2.39v-7h.93c1.15,0,2.48.13,3.39.29v-1.48h-4.32v-1.51c-.02-.87-.72-1.56-1.6-1.56h-1.71s.65.74.65,2.26v.82h-2.41v1.2h2.41v7.17c0,2.3.95,3.45,3.72,3.45,1.35,0,2.55-.29,3.5-.58l-.4-1.97Z"/>
  <path class="cls-2" d="m218.57,73.83c-1.84,0-3.14.66-3.89,1.6-.16-.71-.79-1.24-1.55-1.24h-1.71s.65.74.65,2.26v9.19h2.66v-6.02c0-1.37.18-2.48.8-3.32.51-.69,1.31-1.2,2.41-1.2,1.71,0,2.35,1.17,2.35,3.65v6.89h2.66v-7.38c0-2.94-1.53-4.43-4.36-4.43"/>
</svg>