<?xml version="1.0" encoding="UTF-8"?>
<svg id="Layer_1" data-name="Layer 1" xmlns="http://www.w3.org/2000/svg" xmlns:xlink="http://www.w3.org/1999/xlink" viewBox="0 0 512 123">
  <defs>
    <style>
      .cls-1 {
        fill: url(#linear-gradient);
      }

      .cls-1, .cls-2, .cls-3, .cls-4 {
        stroke-width: 0px;
      }

      .cls-2 {
        fill: #198084;
      }

      .cls-3 {
        fill: url(#linear-gradient-2);
      }

      .cls-4 {
        fill: url(#linear-gradient-3);
      }
    </style>
    <linearGradient id="linear-gradient" x1="259.96" y1="648.37" x2="287.32" y2="671.32" gradientTransform="translate(0 696) scale(1 -1)" gradientUnits="userSpaceOnUse">
      <stop offset="0" stop-color="#f49220"/>
      <stop offset=".11" stop-color="#f5a11e"/>
      <stop offset=".23" stop-color="#f8b318"/>
      <stop offset=".26" stop-color="#ecb41e"/>
      <stop offset=".32" stop-color="#cfb52c"/>
      <stop offset=".39" stop-color="#9db641"/>
      <stop offset=".48" stop-color="#55b25e"/>
      <stop offset=".53" stop-color="#24b373"/>
      <stop offset=".66" stop-color="#1b9a7c"/>
      <stop offset=".77" stop-color="#178185"/>
    </linearGradient>
    <linearGradient id="linear-gradient-2" x1="274.24" y1="642.49" x2="302.67" y2="666.35" xlink:href="#linear-gradient"/>
    <linearGradient id="linear-gradient-3" x1="268.14" y1="642.47" x2="296.75" y2="666.47" xlink:href="#linear-gradient"/>
  </defs>
  <g>
    <path class="cls-1" d="m261.36,27.71c.92-2.55,2.92-3.74,5.42-3.31,4.13.71,8.27,1.44,12.4,2.18.48.08.73,0,1-.44.43-.71.92-1.38,1.48-2,1.1-1.25,2.76-1.58,4.41-.95-.64.63-1.31,1.21-1.88,1.87-3.35,3.84-5.22,8.34-5.73,13.39-.27,2.68-.4,5.38-.68,8.06-.26,2.67-1.15,5.25-2.59,7.51-.94,1.49-2.24,2.72-3.78,3.57-1.43.79-3.14.24-4.06-1.25-1.7-2.77-3.37-5.56-5.06-8.34-1.95-3.21-3.88-6.43-5.85-9.64-.68-1.11-.79-2.22-.05-3.31s1.8-1.41,3.09-1.17c5.29.96,10.58,1.89,15.86,2.83.25.04.49.08.75.12.19-.94.36-1.81.55-2.78-.98-.18-1.92-.35-2.86-.52-3.7-.65-7.4-1.3-11.11-1.92-1.58-.27-3.12-.2-4.51.83.43-2.19,2.83-3.66,5.26-3.26,2.25.39,4.5.79,6.74,1.19,2.25.4,4.45.75,6.68,1.17.42.08.62-.03.77-.43.25-.69.56-1.36.88-2.12-.25-.05-.46-.11-.67-.15-3.9-.67-7.8-1.37-11.71-2.03-1.62-.28-3.21-.25-4.74.88Zm10.71,26.43c-.03-.21-.1-.42-.18-.61-.48-.81-1-1.6-1.49-2.41-2.76-4.58-5.52-9.15-8.28-13.73-.15-.27-.38-.49-.66-.61-.67-.18-1.35-.3-2.04-.36-.26-.02-.52.08-.71.27-.12.17-.04.5,0,.75.02.13.13.25.2.36,2.5,4.11,5.01,8.22,7.51,12.33.97,1.59,1.91,3.21,2.88,4.8.35.58.85.73,1.33.39s.89-.72,1.43-1.18Zm1.63-2.28c.41-1.14.8-2.09,1.09-3.08.08-.36.03-.74-.15-1.07-1.64-2.77-3.36-5.51-4.95-8.3-.57-1-1.22-1.61-2.41-1.66-.75-.03-1.5-.25-2.36-.4l8.78,14.5Zm-1.62-13.16c1.13,1.87,2.19,3.63,3.37,5.57.12-1.77.22-3.32.33-4.91l-3.69-.66Z"/>
    <path class="cls-3" d="m295.66,38.71c-.6,2.17-2.71,3.57-4.94,3.28-.98-.13-1.95-.32-2.95-.5-.13,1.71-.2,3.36-.4,5.01-.38,3.1-.99,6.16-2.47,8.95-1.13,2.12-2.96,3.47-5.46,4.26.45-.56.8-.95,1.1-1.38,2.12-3.04,3.5-6.54,4.03-10.21.4-2.64.5-5.32.72-7.98.19-2.35.43-4.7,1.55-6.83,1.91-3.62,4.47-6.59,8.41-8.12,1.38-.54,2.78-.23,3.6.73-1.85,1-3.69,2-5.54,3.01.03.1.05.2.08.3,2.94.21,5.88,1.77,8.83-.1-.57,2.2-2.76,3.6-5.12,3.23-1.78-.27-3.55-.59-5.31-.94-.58-.11-.95-.02-1.25.5-.35.61-.79,1.18-1.28,1.89.81.15,1.41.25,2,.36,1.3.21,2.59.47,3.89.61,1.35.15,2.66-.05,3.84-.96-.78,2.41-2.89,3.71-5.28,3.31-1.75-.29-3.49-.61-5.32-.93-.17.94-.33,1.83-.5,2.79,2.67.33,5.24,1.41,7.76-.28Z"/>
    <path class="cls-4" d="m292.35,24.3c-1.14.86-2.34,1.62-3.36,2.56-3.42,3.07-5.52,7.36-5.84,11.95-.23,2.69-.33,5.39-.62,8.07-.36,3.34-1.29,6.51-3.28,9.29-1.29,1.79-2.96,3.03-5.2,3.36-.25.04-.5.04-.83.06.73-.67,1.44-1.19,1.99-1.85,2.7-3.21,4.22-6.98,4.76-11.1.34-2.55.41-5.15.62-7.72.31-3.85,1.48-7.4,3.76-10.55,1.04-1.5,2.3-2.83,3.76-3.93,1.2-.87,3.09-.93,4.25-.15Z"/>
  </g>
  <g>
    <path class="cls-2" d="m216.34,77.9c-.43,0-.85-.02-1.27-.08-.34-.05-.65-.22-.88-.48-.27-.35-.44-.77-.5-1.21-.12-.74-.18-1.5-.16-2.25-.33.05-.66.13-.98.25-.21.07-.41.18-.59.32-.13.1-.23.22-.29.37-.05.14-.08.28-.08.43,0,.13.01.26.05.38.03.08.08.16.16.21.07.05.16.08.25.09l.36.03c.15,0,.31-.02.45-.07l.56,1.68c-.29.11-.61.16-.92.16-.32,0-.63-.04-.94-.11-.31-.07-.61-.21-.86-.4-.27-.2-.49-.47-.64-.77-.18-.37-.27-.79-.25-1.2-.02-.49.12-.97.38-1.39.23-.36.54-.67.89-.91.32-.22.68-.4,1.05-.52.27-.1.55-.18.84-.25l.55,1.02v-1.9h1.73c0,1.17.01,2.09.03,2.76.02.67.03,1,.03.98,0,.2.01.39.05.59.02.12.07.23.14.33.05.07.12.12.2.15.08.02.17.03.25.03h.57c.14-.02.28.02.39.1.07.07.1.17.1.27v1.03c0,.1-.03.2-.1.28-.11.08-.25.11-.39.1h-.18Zm-5.01-7.42c-.25.01-.49-.08-.67-.25-.17-.16-.27-.39-.27-.63,0-.24.09-.47.27-.64.17-.18.42-.29.67-.28.25,0,.48.09.65.27.17.17.27.4.27.64,0,.24-.09.47-.27.63-.17.17-.41.27-.65.27Zm2.19,0c-.25.01-.49-.08-.67-.25-.17-.16-.27-.39-.27-.63,0-.24.09-.47.27-.64.18-.18.42-.27.67-.27.25,0,.48.09.65.27.17.17.27.4.27.64,0,.24-.09.47-.27.63-.17.17-.41.26-.65.25h0Z"/>
    <path class="cls-2" d="m216.05,76.5c0-.1.03-.2.1-.27.11-.08.25-.11.39-.1h1.61c.14-.02.27.02.39.1.07.07.1.17.1.27v1.03c0,.1-.03.2-.1.28-.11.08-.25.11-.39.1h-1.61c-.14.02-.27-.02-.39-.1-.07-.08-.1-.17-.1-.28v-1.03Z"/>
    <path class="cls-2" d="m217.66,76.5c0-.1.03-.2.1-.27.11-.08.25-.11.39-.1h1.61c.14-.02.28.02.39.1.07.07.1.17.1.27v1.03c0,.1-.03.2-.1.28-.11.08-.25.11-.39.1h-1.61c-.14.02-.27-.02-.39-.1-.07-.07-.1-.17-.1-.28v-1.03Z"/>
    <path class="cls-2" d="m219.27,76.5c0-.1.03-.2.1-.27.11-.08.25-.11.39-.1h1.61c.14-.02.28.02.39.1.07.07.1.17.1.27v1.03c0,.1-.03.2-.1.28-.11.08-.25.11-.39.1h-1.61c-.14.02-.27-.02-.39-.1-.07-.07-.1-.17-.1-.28v-1.03Z"/>
    <path class="cls-2" d="m220.88,76.5c0-.1.03-.2.1-.27.11-.08.25-.11.39-.1h1.61c.14-.02.28.02.39.1.07.07.1.17.1.27v1.03c0,.1-.03.2-.1.28-.11.08-.25.11-.39.1h-1.61c-.14.02-.27-.02-.39-.1-.07-.07-.1-.17-.1-.28v-1.03Z"/>
    <path class="cls-2" d="m228.32,77.9c-.43,0-.85-.06-1.27-.15-.41-.09-.79-.25-1.15-.47l.36-.77-1.45,1.06c-.13.06-.24.1-.32.15-.09.05-.19.08-.29.11-.15.03-.29.05-.44.06-.18.01-.44.02-.77.02-.14.02-.27-.02-.39-.1-.07-.08-.1-.17-.1-.28v-1.03c0-.1.03-.2.1-.27.11-.08.25-.11.39-.1.37.01.74-.03,1.1-.12.29-.1.54-.29.73-.53.03-.13.04-.26.05-.39,0-.17.02-.37.02-.62v-.5c0-.18,0-.37-.03-.59l1.77-.53c.03.44.05.88.05,1.32,0,.28,0,.55-.03.81s-.04.47-.06.63l.4.23c.12.06.24.12.36.16.13.05.27.08.41.1.19.02.38.04.56.03.14-.02.28.02.39.1.07.07.1.17.1.27v1.03c0,.1-.03.2-.1.28-.11.08-.25.12-.39.1Zm-3.76,2.74c-.25,0-.49-.08-.67-.25-.17-.16-.27-.39-.27-.63,0-.24.09-.47.27-.64.18-.18.42-.27.67-.27.25,0,.48.09.65.27.17.17.27.4.27.64,0,.24-.09.47-.27.63-.18.17-.41.26-.65.25Zm2.19,0c-.25,0-.49-.08-.67-.25-.17-.16-.27-.39-.27-.63,0-.24.09-.47.27-.64.18-.18.42-.27.67-.27.24,0,.48.09.65.27.17.17.27.4.27.64,0,.24-.09.47-.27.63-.17.17-.41.26-.65.25Z"/>
    <path class="cls-2" d="m233.65,77.9c-.43,0-.85-.06-1.27-.15-.41-.09-.79-.25-1.14-.47l.35-.77-1.45,1.06c-.13.06-.24.1-.32.15-.09.05-.19.08-.29.11-.15.03-.29.05-.44.06-.18.01-.44.02-.77.02-.14.02-.27-.02-.39-.1-.07-.07-.1-.17-.1-.28v-1.03c0-.1.03-.2.1-.27.11-.08.25-.11.39-.1.37.01.74-.03,1.1-.12.29-.1.54-.28.73-.53.03-.13.04-.26.05-.39,0-.17.02-.37.02-.62v-.5c0-.18-.01-.37-.03-.59l1.77-.53c.03.44.05.88.05,1.32,0,.28,0,.55-.02.81s-.04.47-.06.63l.4.23c.12.06.24.12.36.16.13.05.27.08.41.1.19.02.38.04.56.03.14-.02.28.02.39.1.07.07.1.17.1.27v1.03c0,.1-.03.2-.1.28-.11.08-.25.12-.39.1Zm-2.68-5.77c-.25.01-.49-.08-.67-.25-.17-.16-.27-.39-.27-.63,0-.24.09-.47.27-.64.18-.18.42-.28.67-.27.24,0,.48.09.65.27.17.17.27.4.27.64,0,.24-.09.47-.27.63-.17.17-.41.26-.65.25h0Z"/>
    <path class="cls-2" d="m237.41,72.44c.45-.31.93-.56,1.45-.73.49-.17,1.01-.25,1.53-.25.68-.03,1.35.18,1.88.6.48.4.74,1,.72,1.62,0,.41-.06.81-.16,1.21-.14.58-.31,1.15-.52,1.71-.47.27-.85.48-1.13.63-.28.15-.5.26-.65.34-.11.05-.22.1-.33.14-.04,0-.09.02-.13.04-.34.08-.69.13-1.04.14-.39.02-.84.02-1.33.02h-4.05c-.14.02-.27-.02-.39-.1-.07-.07-.1-.17-.1-.28v-1.04c0-.1.03-.2.1-.27.11-.08.25-.11.39-.1h1.22v-7.44l1.79-.23v5.4l.75-1.42Zm3.43,2.95c.15-.52.25-.91.3-1.17.04-.19.06-.38.07-.57,0-.16-.11-.31-.27-.34-.18-.05-.36-.08-.54-.08-.43,0-.85.07-1.25.23-.37.15-.72.37-1.02.64-.3.27-.57.58-.78.93-.22.35-.41.73-.56,1.12h1.81c.22,0,.43-.02.65-.06.23-.05.45-.12.65-.22.22-.09.54-.26.94-.49h0Z"/>
    <path class="cls-2" d="m248.46,79.84c-.37.29-.8.5-1.25.64-.53.16-1.08.27-1.63.35l-.25-1.73.82-.13c.27-.04.53-.11.78-.23.24-.11.45-.27.63-.47.2-.24.34-.53.4-.84.03-.18.05-.32.06-.4,0-.06.02-.11.05-.16l-1.14,1.02c-.31,0-.62-.05-.92-.12-.12-.04-.24-.08-.36-.14l-1.09-.93c-.13-.29-.24-.59-.31-.9-.06-.25-.09-.5-.09-.75,0-.4.08-.79.25-1.15.15-.35.37-.67.64-.93.27-.27.59-.48.94-.63.35-.16.73-.24,1.11-.24.24,0,.49.05.72.12.26.08.51.19.73.35.28.19.52.43.72.7.17.25.31.52.4.81.09.29.15.59.18.89.03.31.04.63.04.95v.21h1.05c.14-.02.28.02.39.1.07.07.1.17.1.27v1.03c0,.1-.03.2-.1.28-.11.08-.25.11-.39.1h-1.29c-.11.37-.26.73-.44,1.07-.19.34-.44.63-.74.87Zm-.34-3.71c0-.12.02-.23.03-.34s0-.22,0-.32c0-.19-.02-.38-.06-.56-.03-.19-.1-.36-.19-.53-.09-.15-.21-.28-.35-.39-.15-.1-.32-.16-.5-.15-.12,0-.24.03-.36.07-.14.05-.27.13-.39.23-.12.11-.23.24-.31.38-.09.16-.14.35-.13.53,0,.2.05.41.13.6l.55.47c.08.01.15.02.23.02h1.35Z"/>
    <path class="cls-2" d="m252.86,77.39c-.59.32-1.26.5-1.94.52-.14.02-.27-.02-.39-.1-.07-.07-.1-.17-.1-.28v-1.03c0-.1.03-.2.1-.27.11-.08.25-.11.39-.1.38-.01.75-.12,1.08-.31l.13-.08v-.91c0-.42.01-.91.02-1.45s0-1.1,0-1.68v-3.47l1.77-.25v6.49c0,.52,0,.9-.02,1.14s-.02.41-.03.48-.02.13-.03.17c-.17.49-.52.9-.99,1.13Z"/>
    <path class="cls-2" d="m258.15,77.9h-1.77v-9.68l1.77-.25v9.93Z"/>
    <path class="cls-2" d="m268.61,77.9c-.43,0-.85-.02-1.27-.08-.34-.05-.65-.22-.88-.48-.27-.35-.44-.77-.5-1.21-.12-.74-.18-1.5-.16-2.25-.33.05-.66.13-.98.25-.21.07-.41.18-.59.32-.13.1-.23.22-.29.37-.05.14-.08.28-.08.43,0,.13.01.26.05.38.03.08.08.16.15.21.07.05.16.08.25.09l.37.03c.15,0,.31-.02.45-.07l.56,1.68c-.29.11-.61.16-.92.16-.32,0-.63-.04-.94-.11-.31-.07-.61-.21-.86-.4-.27-.2-.49-.47-.64-.77-.18-.37-.27-.79-.25-1.2-.02-.49.12-.97.38-1.39.23-.36.54-.67.89-.91.32-.22.68-.4,1.05-.52.27-.1.55-.18.84-.25l.55,1.02v-1.89h1.73c0,1.17.01,2.09.03,2.76.02.68.03,1,.03.98,0,.2.01.39.05.59.02.12.07.23.14.33.05.07.12.12.2.15.08.02.17.03.25.03h.57c.14-.02.28.02.39.1.07.07.1.17.1.27v1.03c0,.1-.03.2-.1.28-.11.08-.25.11-.39.1h-.19Zm-5.01-7.42c-.25.01-.49-.08-.67-.25-.17-.16-.27-.39-.27-.63,0-.24.09-.47.27-.64.18-.18.42-.27.67-.27.25,0,.48.09.65.27.17.17.27.4.27.64,0,.24-.09.47-.27.63-.17.17-.4.26-.64.25h-.01Zm2.19,0c-.25.01-.49-.08-.67-.25-.17-.16-.27-.39-.27-.63,0-.24.09-.47.27-.64.18-.18.42-.27.67-.27.25,0,.48.09.65.27.17.17.27.4.27.64,0,.24-.09.47-.27.63-.17.17-.4.26-.64.25h-.01Z"/>
    <path class="cls-2" d="m281.26,77.9c-.5,0-1-.02-1.5-.07-.31-.04-.61-.1-.9-.2l.37-.84-.02.02s-.13.09-.28.21c-.18.14-.37.26-.56.37-.25.14-.5.26-.77.36-.28.11-.58.16-.88.16h-1.5c-.61,0-1.22-.05-1.82-.13-.68-.1-1.33-.31-1.94-.64l.18-.82-.79.9c-.22.24-.49.41-.79.52-.4.13-.83.19-1.25.18-.14.02-.27-.02-.39-.1-.07-.07-.1-.17-.1-.28v-1.02c0-.1.03-.2.1-.27.11-.08.25-.11.39-.1.14,0,.28,0,.41-.03.09-.02.17-.04.25-.08.06-.03.12-.06.16-.11l.12-.15c.04-.12.08-.24.1-.36.03-.18.06-.36.08-.53s.04-.33.06-.47c0-.06.01-.12.03-.19l1.77-.23c0,.18-.02.36-.05.54-.03.22-.04.45-.04.67.05.05.1.08.16.11.19-.53.48-1.02.84-1.45.38-.46.81-.87,1.3-1.22.49-.35,1.02-.63,1.58-.83.55-.2,1.13-.3,1.72-.31.36,0,.71.05,1.05.15.32.09.61.24.88.44.25.19.46.44.6.72.15.3.23.64.23.97,0,.33-.04.66-.12.98-.08.36-.19.76-.33,1.21.12.04.24.06.36.07.16.02.32.03.48.04s.32.02.47.03h.35c.14-.02.28.02.39.1.07.07.1.17.1.27v1.03c0,.1-.03.2-.1.28-.11.08-.25.12-.39.1Zm-2.98-4.08c0-.11-.03-.22-.09-.31-.06-.08-.14-.13-.24-.16-.1-.03-.21-.06-.31-.07-.11,0-.22-.02-.33-.02-.42,0-.83.08-1.22.24-.79.3-1.48.82-2,1.48-.24.3-.44.64-.58,1,.44.1.88.15,1.33.16.43.01.85.02,1.23.02.3,0,.6-.03.89-.09.33-.08.64-.24.9-.46.14-.42.25-.78.31-1.07.06-.24.09-.48.1-.73Z"/>
    <path class="cls-2" d="m286.6,77.9c-.43,0-.86-.06-1.27-.15-.41-.09-.79-.25-1.14-.47l.35-.77-1.45,1.06c-.13.06-.23.1-.32.15-.09.05-.19.08-.29.11-.15.03-.29.05-.44.06-.18.01-.44.02-.77.02-.14.02-.27-.02-.39-.1-.07-.07-.1-.17-.1-.28v-1.03c0-.1.03-.2.1-.27.11-.08.25-.11.39-.1.37.01.74-.03,1.1-.12.29-.1.54-.28.73-.53.03-.13.04-.26.05-.39,0-.17.02-.37.02-.62v-.5c0-.18,0-.37-.03-.59l1.77-.53c.03.44.05.88.05,1.32,0,.28,0,.55-.02.81-.02.26-.04.47-.06.63l.4.23c.12.06.24.12.36.16.13.05.27.08.41.1.19.02.38.04.57.03.14-.02.27.02.39.1.07.07.1.17.1.27v1.03c0,.1-.03.2-.1.28-.11.08-.25.12-.39.1Zm-2.68-5.77c-.25.01-.49-.08-.67-.25-.17-.16-.27-.39-.27-.63,0-.24.09-.47.27-.64.18-.18.42-.28.67-.27.25,0,.48.09.65.27.17.17.27.4.27.64,0,.24-.09.47-.27.63-.18.17-.41.26-.65.25Z"/>
    <path class="cls-2" d="m294.99,77.9c-.31,0-.56,0-.75-.02-.16,0-.32-.03-.48-.06-.12-.02-.24-.05-.36-.1-.11-.04-.25-.09-.39-.16l.32-.9-.75.63c-.28.18-.58.32-.9.41-.44.12-.89.18-1.35.17l-1.1-.52.08-1.63-.68,1.39c-.16.18-.35.32-.57.43-.19.1-.39.18-.6.23-.18.05-.36.08-.54.1-.17.01-.29.02-.36.02-.14.02-.27-.02-.39-.1-.07-.07-.1-.17-.1-.28v-1.03c0-.1.03-.2.1-.27.11-.08.25-.11.39-.1h.15c.09,0,.19-.01.28-.04.11-.04.2-.11.28-.2.1-.14.19-.29.25-.45.1-.26.19-.53.25-.81.1-.38.23-.74.39-1.1.15-.34.36-.66.61-.93.53-.59,1.3-.91,2.1-.89.31,0,.61.05.9.16.29.11.56.25.8.44.25.18.47.39.66.64.17.23.31.49.4.77.11.32.16.66.16,1,0,.4-.07.8-.21,1.18.16.08.33.14.5.18.18.04.36.06.55.07h.36c.14-.02.28.02.39.1.07.07.1.17.1.27v1.03c0,.1-.03.2-.1.28-.11.08-.25.11-.39.09Zm-3.19-2.39c.13-.26.2-.54.21-.82,0-.15-.03-.29-.08-.43-.05-.14-.13-.27-.23-.39-.1-.11-.22-.21-.35-.28-.14-.08-.3-.12-.46-.11-.23,0-.46.07-.65.21-.17.14-.32.32-.43.52-.11.21-.2.43-.25.65-.06.23-.11.44-.16.62.09.03.19.08.32.14s.25.12.38.19.25.13.36.18.21.1.28.13c.21,0,.43-.05.62-.14.19-.1.34-.27.43-.46h0Z"/>
    <path class="cls-2" d="m296.93,77.39c-.6.33-1.26.5-1.94.52-.14.02-.27-.02-.39-.1-.07-.07-.1-.17-.1-.28v-1.03c0-.1.03-.2.1-.27.11-.08.25-.11.39-.1.38-.01.75-.12,1.08-.31l.13-.08v-.91c0-.42.01-.91.02-1.45s0-1.1,0-1.68v-3.47l1.78-.25v6.49c0,.52,0,.9-.02,1.14s-.02.41-.03.48-.02.13-.03.17c-.17.49-.52.9-.99,1.13Z"/>
    <path class="cls-2" d="m302.22,77.9h-1.77v-9.68l1.77-.25v9.93Z"/>
    <path class="cls-2" d="m219.9,95.25h-.34c-.11,0-.22,0-.32-.02l-1.5-.53.81.87c-.13.27-.3.53-.5.75-.49.55-1.12.96-1.82,1.19-.39.13-.81.2-1.22.19h-1.42c-.51,0-1.01-.09-1.49-.29-.45-.19-.86-.46-1.21-.81-.35-.35-.63-.76-.82-1.22-.2-.48-.3-1-.3-1.52,0-.73.24-1.44.69-2.02l1.42,1.08c-.12.16-.2.34-.25.53-.05.19-.07.38-.07.57,0,.26.05.53.16.77.1.23.25.43.44.6.19.17.4.3.64.39.25.09.51.14.78.14h1.4c.32,0,.63-.06.91-.2.24-.12.47-.28.66-.47.16-.16.3-.34.4-.54.07-.12.12-.26.14-.4-.21-.18-.41-.37-.6-.58-.19-.22-.39-.46-.6-.73l1.42-1.06c.25.34.53.66.84.95.21.2.45.36.72.47.13.05.27.08.41.1.14,0,.28.02.43.02h.16c.14-.02.27.02.39.1.07.07.1.17.1.28v1.03c0,.1-.03.2-.1.27-.11.08-.25.12-.39.1Zm-6.85,4.87c-.25,0-.49-.08-.67-.25-.17-.16-.27-.39-.27-.63,0-.24.09-.47.27-.64.18-.18.42-.27.67-.27.25,0,.48.09.65.27.17.17.27.4.27.64,0,.24-.09.47-.27.63-.18.17-.41.26-.65.25Zm2.19,0c-.25,0-.49-.08-.67-.25-.17-.16-.27-.39-.27-.63,0-.24.09-.47.27-.64.18-.18.42-.27.67-.27.5,0,.91.4.92.9,0,.24-.09.47-.27.63-.17.17-.41.26-.65.25Z"/>
    <path class="cls-2" d="m226.5,94.8c-.15.06-.3.11-.45.15-.28.07-.57.12-.86.15-.37.05-.83.09-1.39.12s-1.23.05-2.02.05h-1.87c-.14.02-.27-.02-.39-.1-.07-.07-.1-.17-.1-.27v-1.03c0-.1.03-.2.1-.28.11-.08.25-.11.39-.1h.86l1.08.47-.84-1.13c-.11-.17-.19-.35-.23-.54-.03-.17-.04-.33-.04-.5,0-.49.09-.97.29-1.42.18-.4.44-.76.77-1.06.32-.29.69-.51,1.09-.65.41-.15.84-.23,1.28-.23.64,0,1.26.15,1.82.45l-.85,1.56c-.3-.15-.63-.23-.97-.23-.43-.01-.85.14-1.18.43-.33.33-.5.8-.47,1.26.1.18.21.35.33.52.12.17.25.32.38.48.12.13.25.26.39.36.11.09.23.14.37.16.37-.02.75-.05,1.11-.1.23-.03.46-.08.68-.16l.73,1.63Z"/>
    <path class="cls-2" d="m231.93,97.19c-.37.29-.8.5-1.25.64-.53.16-1.08.27-1.63.35l-.25-1.72c.27-.05.54-.09.82-.13.27-.04.53-.11.77-.23.54-.24.92-.73,1.03-1.31.03-.18.06-.32.07-.4,0-.06.02-.11.05-.16l-1.14,1.02c-.31,0-.62-.05-.92-.12-.13-.03-.25-.07-.37-.13l-1.09-.92c-.13-.29-.24-.59-.32-.9-.06-.25-.09-.5-.09-.75,0-.4.09-.79.25-1.15.15-.35.37-.67.65-.93.27-.27.59-.48.93-.63.35-.15.73-.23,1.11-.23.24,0,.49.05.72.12.26.08.51.2.73.35.53.36.92.89,1.12,1.5.09.29.15.59.18.89.03.31.04.63.04.95v.21h1.05c.14-.02.27.02.39.1.07.07.1.17.1.28v1.03c0,.1-.03.2-.1.27-.11.08-.25.11-.39.1h-1.28c-.11.37-.26.73-.44,1.07-.19.33-.44.62-.75.86Zm-.34-3.7c0-.12.02-.23.02-.34s0-.22,0-.32c0-.19-.02-.38-.06-.57-.03-.18-.1-.36-.19-.53-.09-.15-.21-.28-.35-.39-.15-.11-.32-.16-.5-.16-.12,0-.24.03-.36.08-.14.05-.27.13-.39.23-.12.11-.23.24-.31.38-.09.16-.13.35-.13.53,0,.21.05.41.13.6l.55.47c.07.01.15.02.23.03h1.35Z"/>
    <path class="cls-2" d="m244.95,95.25c-.19,0-.41-.03-.64-.05s-.46-.05-.68-.09-.44-.08-.65-.13c-.18-.04-.35-.1-.52-.19l.4-.9c-.38.25-.69.45-.93.61s-.45.28-.61.36c-.11.07-.23.13-.35.18-.05.02-.1.04-.16.05-.37.09-.75.13-1.14.14-.47.02-.95.03-1.46.03h-3.82c-.14.02-.28-.02-.39-.1-.07-.07-.1-.17-.1-.27v-1.03c0-.1.03-.2.1-.28.11-.08.25-.11.39-.1h1.21v-7.9l1.79-.25v5.91l.75-1.44c.45-.3.93-.54,1.44-.72.48-.17.99-.26,1.5-.27.32,0,.64.04.95.13.3.08.59.22.85.4.25.18.46.42.61.69.16.31.24.65.23,1,0,.34-.04.67-.11,1-.09.4-.19.8-.32,1.19.11.05.22.09.33.11.14.03.28.06.43.08.15.02.3.04.46.05s.3.02.43.02c.14-.02.27.02.39.1.07.07.1.17.1.28v1.03c0,.1-.03.2-.1.27-.11.07-.25.1-.38.08Zm-3.35-2.5c.15-.52.25-.91.3-1.17.04-.19.06-.38.07-.57,0-.08-.03-.16-.1-.21-.07-.06-.14-.1-.23-.12-.09-.03-.18-.04-.28-.06-.08-.01-.17-.02-.25-.02-.3,0-.61.05-.9.15-.62.2-1.18.53-1.64.98-.22.21-.41.45-.57.71-.09.15-.17.31-.23.48-.08.2-.16.4-.24.59h1.67c.2,0,.39,0,.55-.03.17-.02.34-.05.5-.1.19-.06.38-.13.56-.23.21-.1.47-.24.78-.42h0Z"/>
    <path class="cls-2" d="m250.28,95.25c-.43,0-.86-.06-1.27-.15-.41-.09-.79-.25-1.14-.47l.36-.77-1.45,1.06c-.13.06-.23.1-.31.15-.09.05-.19.08-.29.11-.15.03-.29.05-.44.06-.18.01-.44.02-.77.02-.14.02-.28-.02-.39-.1-.07-.07-.1-.17-.1-.27v-1.03c0-.1.03-.2.1-.28.11-.08.25-.11.39-.1.37.01.74-.03,1.1-.12.29-.1.54-.28.72-.53.03-.13.04-.26.05-.39,0-.17.02-.38.02-.62v-.5c0-.2-.01-.39-.03-.59l1.77-.53c.03.44.05.88.05,1.32,0,.28,0,.55-.03.81s-.04.47-.06.63l.4.23c.12.06.24.12.36.16.13.05.27.08.41.1.19.02.38.04.56.03.14-.02.27.02.39.1.07.08.1.17.1.28v1.03c0,.1-.03.2-.1.27-.11.08-.25.12-.39.11Zm-3.76-5.85c-.25,0-.49-.08-.67-.25-.17-.16-.27-.39-.27-.63,0-.24.09-.47.27-.64.18-.18.42-.27.67-.27.25,0,.48.09.65.27.17.17.27.4.27.64,0,.24-.09.47-.27.63-.18.17-.41.26-.65.25h0Zm2.19,0c-.25,0-.49-.08-.67-.25-.17-.16-.27-.39-.27-.63,0-.24.09-.47.27-.64.18-.18.42-.27.67-.27.25,0,.48.09.65.27.17.17.27.4.27.64,0,.24-.09.47-.27.63-.18.17-.41.26-.65.25h0Z"/>
    <path class="cls-2" d="m252.22,94.74c-.59.32-1.26.5-1.94.52-.14.02-.28-.02-.39-.1-.07-.07-.1-.17-.1-.27v-1.03c0-.1.03-.2.1-.28.11-.08.25-.11.39-.1.38-.01.75-.12,1.08-.31l.13-.08v-.91c0-.43,0-.9.02-1.44s0-1.1,0-1.69v-3.47l1.77-.25v6.49c0,.52,0,.9-.02,1.14s0,.41-.02.48-.02.13-.03.17c-.17.49-.52.9-.99,1.13Z"/>
    <path class="cls-2" d="m257.51,95.25h-1.78v-9.68l1.78-.25v9.93Z"/>
    <path class="cls-2" d="m270.05,95.25h-.38c-.12,0-.23,0-.35-.03l-.48-1-.23,1.09c-.07.33-.2.65-.4.94-.21.3-.48.57-.78.79-.34.25-.71.44-1.11.56-.46.14-.93.22-1.41.21-.49,0-.98-.09-1.44-.27-.45-.17-.86-.43-1.21-.75-.35-.32-.63-.7-.83-1.13-.21-.45-.31-.94-.31-1.43,0-.4.03-.81.12-1.2.08-.32.19-.63.35-.93l1.75.58c-.15.18-.27.39-.34.62-.08.26-.12.54-.11.81-.02.53.21,1.04.61,1.38.44.36,1.01.55,1.58.53.25,0,.5-.05.73-.14.45-.17.81-.51,1.02-.94.1-.21.15-.45.15-.68v-2.12c0-.58,0-1.2.02-1.89,0-.68,0-1.34.02-1.96.01-.62.01-1.19,0-1.68v-1.06l1.77-.25v2.02c0,.47,0,.98,0,1.53v4.39c.08.04.16.07.25.09.11.03.23.05.34.06.12.02.24.03.35.04.11.01.22.02.32.02.13-.01.26.02.37.1.07.07.1.17.1.28v1.03c0,.1-.03.2-.1.27-.11.08-.25.12-.38.11Z"/>
    <path class="cls-2" d="m269.58,93.85c0-.1.03-.2.1-.28.11-.08.25-.11.39-.1h1.61c.14-.02.27.02.39.1.07.07.1.17.1.28v1.03c0,.1-.03.2-.1.27-.11.08-.25.11-.39.1h-1.61c-.14.02-.27-.02-.39-.1-.07-.07-.1-.17-.1-.27v-1.03Z"/>
    <path class="cls-2" d="m271.19,93.85c0-.1.03-.2.1-.28.11-.08.25-.11.39-.1h1.61c.14-.02.27.02.39.1.07.07.1.17.1.28v1.03c0,.1-.03.2-.1.27-.11.08-.25.11-.39.1h-1.61c-.14.02-.28-.02-.39-.1-.07-.07-.1-.17-.1-.27v-1.03Z"/>
    <path class="cls-2" d="m272.81,93.85c0-.1.03-.2.1-.28.11-.08.25-.11.39-.1h1.61c.14-.02.27.02.39.1.07.07.1.17.1.28v1.03c0,.1-.03.2-.1.27-.11.08-.25.11-.39.1h-1.61c-.14.02-.28-.02-.39-.1-.07-.07-.1-.17-.1-.27v-1.03Z"/>
    <path class="cls-2" d="m274.42,93.85c0-.1.03-.2.1-.28.11-.08.25-.11.39-.1h1.61c.14-.02.27.02.39.1.07.07.1.17.1.28v1.03c0,.1-.03.2-.1.27-.11.08-.25.11-.39.1h-1.61c-.14.02-.28-.02-.39-.1-.07-.07-.1-.17-.1-.27v-1.03Z"/>
    <path class="cls-2" d="m276.03,93.85c0-.1.03-.2.1-.28.11-.08.25-.11.39-.1h1.61c.14-.02.27.02.39.1.07.08.1.17.1.28v1.03c0,.1-.03.2-.1.27-.11.08-.25.11-.39.1h-1.61c-.14.02-.27-.02-.39-.1-.07-.07-.1-.17-.1-.27v-1.03Z"/>
    <path class="cls-2" d="m286.53,95.25c-.31,0-.56,0-.75-.02-.16,0-.32-.03-.48-.06-.12-.02-.24-.06-.36-.1-.11-.04-.24-.09-.39-.15l.32-.9-.75.63c-.28.18-.58.32-.89.41-.44.12-.89.18-1.35.17l-1.09-.52.08-1.63-.67,1.4c-.16.18-.35.32-.56.43-.19.1-.39.17-.6.23-.18.05-.36.08-.54.1-.17,0-.29.02-.36.02-.14.02-.27-.02-.39-.1-.07-.07-.1-.17-.1-.27v-1.03c0-.1.03-.2.1-.28.11-.08.25-.11.39-.1h.15c.1,0,.19-.01.28-.04.11-.04.2-.11.27-.2.11-.14.19-.29.25-.45.1-.26.19-.53.25-.81.1-.38.23-.74.39-1.1.15-.34.36-.66.61-.93.53-.59,1.3-.91,2.1-.89.31,0,.61.05.9.16.57.21,1.07.58,1.43,1.07.17.23.31.49.4.77.11.32.16.66.16,1,0,.4-.07.8-.21,1.18.16.08.33.14.5.18.18.04.36.06.55.07h.37c.14-.02.27.02.39.1.07.07.1.17.1.28v1.03c0,.1-.03.2-.1.27-.11.07-.25.1-.38.09Zm-3.19-2.39c.13-.26.2-.54.21-.82,0-.3-.12-.59-.31-.81-.1-.12-.21-.21-.35-.28-.14-.08-.3-.12-.46-.11-.23,0-.46.07-.64.21-.18.14-.32.32-.43.52-.11.21-.19.42-.25.65-.06.23-.11.44-.15.62.09.03.19.08.32.14l.38.19c.13.07.25.12.36.18l.28.13c.21,0,.43-.05.62-.14.19-.1.33-.27.42-.46Z"/>
    <path class="cls-2" d="m294.93,95.25h-2.29c-.18-.03-.36-.07-.53-.12-.16-.05-.32-.1-.47-.15-.25.07-.5.14-.75.19-.26.05-.51.09-.77.11h-3.59c-.14.02-.28-.02-.39-.1-.07-.07-.1-.17-.1-.27v-1.03c0-.1.03-.2.1-.28.11-.08.25-.11.39-.1h2.58c-.1-.14-.19-.28-.27-.43-.1-.17-.2-.33-.31-.5l.79-1.19-1.5,1-1.13-1.39c.23-.18.5-.39.82-.61.32-.23.63-.44.93-.64.3-.2.56-.37.77-.5.11-.07.22-.14.34-.2.3-.17.62-.29.95-.36.29-.06.58-.09.87-.09.3,0,.59.05.88.12.33.08.65.22.93.42.3.21.55.48.73.79.21.38.31.8.29,1.23,0,.42-.08.84-.23,1.23-.15.39-.35.77-.6,1.1h1.55c.14-.02.27.02.39.1.07.07.1.17.1.28v1.03c0,.1-.03.2-.1.27-.11.08-.25.11-.39.1Zm-2.5-4.11c0-.15-.03-.29-.11-.42-.07-.1-.16-.19-.27-.25-.11-.05-.22-.09-.34-.11-.11-.01-.22-.02-.33-.02-.1,0-.2,0-.31.02-.1.01-.2.04-.3.08-.14.06-.28.13-.42.2-.17.09-.38.22-.64.4.09.15.19.32.31.52s.24.38.36.57.25.36.36.52c.09.13.19.26.3.39.21-.06.4-.17.57-.3.17-.13.31-.29.43-.46.12-.17.22-.36.28-.56.06-.19.1-.38.1-.58h.01Z"/>
    <path class="cls-2" d="m299.19,95.25c-.3,0-.59-.03-.89-.07-.3-.04-.59-.13-.87-.25l.36-.97c-.27.23-.49.4-.65.52-.15.11-.31.22-.48.32-.26.15-.54.27-.83.35-.29.07-.59.11-.9.11-.14.02-.27-.02-.39-.1-.07-.07-.1-.17-.1-.27v-1.03c0-.1.03-.2.1-.28.11-.08.25-.11.39-.1.38-.01.75-.12,1.08-.31l.13-.08c0-.18.02-.49.02-.91v-6.6l1.79-.25v1.94c0,.52,0,1.09-.02,1.7-.02.61-.02,1.2-.02,1.75v2.35c0,.06.04.12.1.15.07.05.15.08.24.11.1.03.19.05.29.07l.27.04.19.03h.19c.14-.02.27.02.39.1.07.08.1.17.1.28v1.03c0,.1-.03.2-.1.27-.11.08-.25.12-.39.11Z"/>
    <path class="cls-2" d="m301.13,94.74c-.59.32-1.26.5-1.94.52-.14.02-.27-.02-.39-.1-.07-.07-.1-.17-.1-.27v-1.03c0-.1.03-.2.1-.28.11-.08.25-.11.39-.1.38-.01.75-.12,1.08-.31l.13-.08v-.91c0-.43.01-.9.02-1.44s0-1.1,0-1.69v-3.47l1.78-.25v6.49c0,.52,0,.9-.02,1.14s-.02.41-.03.48-.02.13-.03.17c-.17.49-.53.9-.99,1.13Z"/>
  </g>
</svg>