<?xml version="1.0" encoding="UTF-8"?>
<svg id="Layer_1" data-name="Layer 1" xmlns="http://www.w3.org/2000/svg" xmlns:xlink="http://www.w3.org/1999/xlink" viewBox="0 0 512 123">
  <defs>
    <style>
      .cls-1, .cls-2, .cls-3 {
        stroke-width: 0px;
      }

      .cls-1, .cls-4 {
        fill: url(#linear-gradient);
      }

      .cls-2 {
        fill: #1d1e1c;
      }

      .cls-3 {
        fill: url(#linear-gradient-2);
      }

      .cls-5 {
        clip-path: url(#clippath);
      }
    </style>
    <linearGradient id="linear-gradient" x1="329.94" y1="61.5" x2="393.09" y2="61.5" gradientUnits="userSpaceOnUse">
      <stop offset="0" stop-color="#cb9700"/>
      <stop offset=".1" stop-color="#cb9700"/>
      <stop offset="1" stop-color="#1d1e1c"/>
    </linearGradient>
    <clipPath id="clippath">
      <polygon class="cls-1" points="374.99 37.08 374.99 92.2 393.09 103.6 393.09 19.4 329.94 19.4 329.94 103.6 362.96 103.6 348.27 91.31 348.27 35.9 362.25 45.04 360.99 46.08 360.99 83.46 372.83 90.86 372.83 36.7 374.99 37.08"/>
    </clipPath>
    <linearGradient id="linear-gradient-2" x1="375.77" y1="80.68" x2="376.14" y2="80.68" gradientTransform="translate(-62623.28 13578.73) scale(167.53 -167.53)" xlink:href="#linear-gradient"/>
  </defs>
  <g>
    <polygon class="cls-4" points="374.99 37.08 374.99 92.2 393.09 103.6 393.09 19.4 329.94 19.4 329.94 103.6 362.96 103.6 348.27 91.31 348.27 35.9 362.25 45.04 360.99 46.08 360.99 83.46 372.83 90.86 372.83 36.7 374.99 37.08"/>
    <g class="cls-5">
      <rect class="cls-3" x="329.94" y="19.4" width="63.16" height="84.21"/>
    </g>
  </g>
  <g>
    <path class="cls-2" d="m118.91,88.08l3.9-11.56h1.9l3.9,11.56h-1.62l-1.05-3.23h-4.42l-1.05,3.23h-1.55Zm6.59-4.54l-1.79-5.46-1.78,5.46h3.57Z"/>
    <path class="cls-2" d="m137.24,83.61c0,1.41-.34,2.56-1.03,3.42-.69.87-1.55,1.3-2.59,1.3-.47,0-.88-.06-1.21-.18-.33-.12-.67-.27-.99-.47l-.09.4h-1.37v-12.09h1.46v4.32c.37-.33.77-.6,1.2-.82.43-.22.92-.33,1.46-.33.98,0,1.75.39,2.31,1.18.56.78.85,1.87.85,3.26m-1.51.11c0-1.04-.16-1.82-.48-2.36-.32-.53-.82-.8-1.52-.8-.4,0-.8.09-1.21.28-.41.19-.78.42-1.11.71v4.97c.37.18.69.31.98.39.28.07.6.11.94.11.75,0,1.33-.26,1.76-.79.42-.53.64-1.36.64-2.5"/>
    <path class="cls-2" d="m145.82,88.08h-1.46v-.88c-.23.19-.43.35-.59.48-.17.12-.36.24-.59.34-.21.1-.42.18-.64.23-.22.06-.48.08-.78.08-.47,0-.91-.1-1.31-.3-.4-.19-.74-.48-1.02-.86-.29-.38-.51-.86-.66-1.42-.16-.56-.23-1.21-.23-1.94s.1-1.42.29-1.97c.2-.56.47-1.04.82-1.46.32-.38.7-.67,1.14-.89.45-.22.92-.32,1.41-.32.44,0,.81.05,1.13.14.32.1.66.24,1.02.44v-3.76h1.46v12.09Zm-1.46-2.11v-5c-.36-.18-.69-.3-.98-.37-.29-.06-.6-.1-.94-.1-.75,0-1.34.28-1.76.85-.43.56-.64,1.37-.64,2.43s.16,1.8.49,2.35c.32.53.85.81,1.57.81.38,0,.77-.09,1.16-.26.39-.17.75-.41,1.1-.7"/>
    <path class="cls-2" d="m155.07,88.08h-1.46v-.96c-.45.39-.88.69-1.28.9-.41.2-.86.31-1.35.31-.38,0-.74-.06-1.07-.19-.33-.12-.63-.32-.87-.59-.25-.27-.44-.61-.58-1.02-.14-.41-.21-.91-.21-1.49v-5.63h1.46v4.94c0,.46.01.84.05,1.14.03.31.11.57.23.8.12.23.28.39.48.49.21.1.5.16.88.16.36,0,.74-.1,1.14-.31.4-.2.77-.45,1.11-.74v-6.48h1.46v8.68Z"/>
    <rect class="cls-2" x="157.6" y="76" width="1.46" height="12.09"/>
    <rect class="cls-2" x="161.66" y="76" width="1.46" height="12.09"/>
    <path class="cls-2" d="m170.5,87.16c-.12.09-.28.21-.48.37-.2.16-.39.28-.58.37-.26.14-.51.24-.75.31-.24.07-.58.11-1.01.11-.36,0-.7-.07-1.02-.21-.32-.13-.6-.32-.84-.56-.24-.24-.42-.53-.56-.88-.14-.35-.21-.72-.21-1.11,0-.6.13-1.11.38-1.54.25-.42.65-.76,1.2-1.01.49-.22,1.06-.37,1.73-.46.66-.09,1.38-.15,2.14-.19v-.28c0-.34-.05-.61-.15-.83-.1-.21-.25-.37-.44-.48-.19-.12-.41-.2-.68-.24-.27-.04-.55-.06-.83-.06-.34,0-.73.05-1.19.15-.46.1-.91.25-1.37.44h-.09v-1.48c.27-.08.65-.16,1.16-.26.5-.09,1-.14,1.49-.14.6,0,1.1.05,1.51.14.41.09.78.26,1.1.5.32.24.55.55.71.93.15.38.23.84.23,1.38v5.93h-1.45v-.92Zm0-1.22v-2.41c-.35.03-.79.07-1.32.13-.53.05-.96.13-1.29.23-.39.12-.71.3-.96.55-.25.24-.38.59-.38,1.03,0,.5.14.87.42,1.12.28.25.69.38,1.23.38.46,0,.88-.1,1.25-.3.37-.2.72-.44,1.05-.74"/>
    <path class="cls-2" d="m181.21,88.08h-1.46v-4.94c0-.4-.02-.77-.06-1.12-.03-.34-.11-.62-.22-.82-.12-.22-.29-.38-.5-.48-.21-.11-.5-.16-.87-.16s-.74.09-1.12.29c-.39.2-.76.45-1.13.76v6.48h-1.46v-12.09h1.46v4.38c.44-.39.87-.69,1.29-.89.43-.21.87-.31,1.35-.31.86,0,1.52.28,2,.84.48.57.72,1.37.72,2.44v5.63Z"/>
    <path class="cls-2" d="m186.36,88.08l3.9-11.56h1.89l3.9,11.56h-1.62l-1.05-3.23h-4.42l-1.05,3.23h-1.56Zm6.6-4.54l-1.79-5.46-1.78,5.46h3.57Z"/>
    <rect class="cls-2" x="197.45" y="76" width="1.46" height="12.09"/>
    <path class="cls-2" d="m206.71,80.98h-.08c-.11-.03-.22-.05-.35-.06-.12,0-.27-.01-.44-.01-.39,0-.79.09-1.18.25-.39.17-.76.43-1.1.76v6.16h-1.46v-8.68h1.46v1.29c.53-.47,1-.8,1.4-1,.4-.19.78-.29,1.15-.29.15,0,.26,0,.34,0,.08.01.16.03.25.04v1.53Z"/>
    <path class="cls-2" d="m212.8,87.16c-.12.09-.28.21-.48.37-.2.16-.39.28-.58.37-.26.14-.51.24-.75.31-.24.07-.58.11-1.01.11-.36,0-.7-.07-1.02-.21-.32-.13-.6-.32-.84-.56-.23-.24-.42-.53-.56-.88-.14-.35-.21-.72-.21-1.11,0-.6.13-1.11.38-1.54.25-.42.65-.76,1.2-1.01.49-.22,1.06-.37,1.73-.46.66-.09,1.38-.15,2.14-.19v-.28c0-.34-.05-.61-.16-.83-.1-.21-.25-.37-.43-.48-.19-.12-.41-.2-.68-.24-.27-.04-.54-.06-.83-.06-.34,0-.73.05-1.19.15-.46.1-.91.25-1.37.44h-.09v-1.48c.27-.08.65-.16,1.16-.26.5-.09,1-.14,1.49-.14.6,0,1.1.05,1.51.14.41.09.78.26,1.1.5.32.24.55.55.71.93.16.38.23.84.23,1.38v5.93h-1.45v-.92Zm0-1.22v-2.41c-.35.03-.79.07-1.32.13-.53.05-.96.13-1.29.23-.39.12-.71.3-.96.55-.25.24-.38.59-.38,1.03,0,.5.14.87.42,1.12.28.25.69.38,1.23.38.46,0,.88-.1,1.25-.3.37-.2.72-.44,1.05-.74"/>
    <path class="cls-2" d="m219.06,88.33c0,.99-.27,1.74-.8,2.26-.53.51-1.26.78-2.19.78-.16,0-.34,0-.54-.02-.2-.02-.4-.04-.59-.07v-1.3h.09c.11.02.24.05.38.07.14.02.27.03.39.03.39,0,.71-.04.96-.14.25-.09.44-.25.56-.45.11-.19.19-.42.23-.71.04-.29.06-.63.06-1.04v-7.12h-1.57v-1.21h3.03v8.93Zm0-10.38h-1.66v-1.52h1.66v1.52Z"/>
    <path class="cls-2" d="m228.38,88.08h-1.46v-4.94c0-.4-.02-.77-.06-1.12-.04-.34-.11-.62-.22-.82-.12-.22-.29-.38-.5-.48-.21-.11-.5-.16-.87-.16s-.74.09-1.12.29c-.39.2-.76.45-1.13.76v6.48h-1.46v-12.09h1.46v4.38c.44-.39.87-.69,1.29-.89.42-.21.87-.31,1.34-.31.86,0,1.53.28,2,.84.48.57.72,1.37.72,2.44v5.63Z"/>
    <path class="cls-2" d="m232.4,77.95h-1.66v-1.52h1.66v1.52Zm-.1,10.13h-1.46v-8.68h1.46v8.68Z"/>
    <polygon class="cls-2" points="247.22 77.89 241.84 77.89 241.84 81.15 247 81.15 247 82.51 241.84 82.51 241.84 88.08 240.3 88.08 240.3 76.52 247.22 76.52 247.22 77.89"/>
    <path class="cls-2" d="m255.64,83.75c0,1.46-.36,2.59-1.06,3.38-.7.8-1.64,1.2-2.81,1.2s-2.15-.41-2.85-1.23c-.69-.82-1.04-1.93-1.04-3.34s.36-2.57,1.07-3.38c.71-.8,1.65-1.2,2.82-1.2s2.11.4,2.81,1.2c.71.8,1.06,1.93,1.06,3.38m-1.51,0c0-1.12-.21-1.95-.62-2.5-.41-.55-.99-.82-1.75-.82s-1.35.27-1.76.82c-.41.55-.62,1.38-.62,2.5s.21,1.91.62,2.48c.41.56,1,.84,1.76.84s1.34-.27,1.75-.82c.41-.55.62-1.38.62-2.49"/>
    <path class="cls-2" d="m264.28,88.08h-1.46v-.96c-.45.39-.88.69-1.28.9-.4.2-.86.31-1.35.31-.38,0-.73-.06-1.06-.19-.33-.12-.63-.32-.88-.59-.25-.27-.44-.61-.58-1.02-.14-.41-.21-.91-.21-1.49v-5.63h1.46v4.94c0,.46.02.84.05,1.14.03.31.11.57.23.8.12.23.28.39.49.49.2.1.5.16.88.16.36,0,.74-.1,1.14-.31.4-.2.77-.45,1.11-.74v-6.48h1.46v8.68Z"/>
    <path class="cls-2" d="m273.59,88.08h-1.46v-4.94c0-.4-.02-.77-.06-1.12-.03-.34-.11-.62-.22-.82-.12-.22-.29-.38-.49-.48-.22-.11-.51-.16-.87-.16s-.74.09-1.12.29c-.39.2-.76.45-1.13.76v6.48h-1.46v-8.68h1.46v.96c.44-.39.86-.69,1.29-.89.42-.21.87-.31,1.34-.31.85,0,1.52.28,2,.84.48.57.72,1.37.72,2.44v5.63Z"/>
    <path class="cls-2" d="m282.71,88.08h-1.46v-.88c-.23.19-.42.35-.59.48-.16.12-.36.24-.58.34-.21.1-.42.18-.65.23-.22.06-.48.08-.78.08-.47,0-.91-.1-1.31-.3-.4-.19-.75-.48-1.02-.86-.29-.38-.51-.86-.66-1.42-.15-.56-.23-1.21-.23-1.94s.1-1.42.3-1.97c.19-.56.47-1.04.81-1.46.32-.38.7-.67,1.15-.89.45-.22.92-.32,1.41-.32.44,0,.81.05,1.13.14.32.1.66.24,1.02.44v-3.76h1.46v12.09Zm-1.46-2.11v-5c-.36-.18-.69-.3-.98-.37-.28-.06-.6-.1-.94-.1-.75,0-1.34.28-1.76.85-.43.56-.63,1.37-.63,2.43s.16,1.8.49,2.35c.33.53.85.81,1.57.81.38,0,.77-.09,1.16-.26.39-.17.75-.41,1.1-.7"/>
    <path class="cls-2" d="m290.05,87.16c-.12.09-.28.21-.48.37-.2.16-.39.28-.58.37-.26.14-.51.24-.75.31-.24.07-.58.11-1.02.11-.36,0-.7-.07-1.02-.21-.32-.13-.6-.32-.85-.56-.23-.24-.42-.53-.56-.88-.14-.35-.21-.72-.21-1.11,0-.6.12-1.11.38-1.54.25-.42.65-.76,1.2-1.01.49-.22,1.06-.37,1.72-.46.66-.09,1.38-.15,2.14-.19v-.28c0-.34-.05-.61-.15-.83-.1-.21-.25-.37-.44-.48-.18-.12-.41-.2-.68-.24-.27-.04-.54-.06-.83-.06-.34,0-.73.05-1.19.15-.46.1-.91.25-1.37.44h-.09v-1.48c.27-.08.65-.16,1.16-.26.5-.09,1-.14,1.49-.14.59,0,1.1.05,1.51.14.41.09.78.26,1.1.5.32.24.55.55.71.93.16.38.23.84.23,1.38v5.93h-1.45v-.92Zm0-1.22v-2.41c-.35.03-.79.07-1.32.13-.53.05-.96.13-1.29.23-.39.12-.71.3-.97.55-.25.24-.38.59-.38,1.03,0,.5.14.87.42,1.12.28.25.69.38,1.23.38.46,0,.88-.1,1.25-.3.37-.2.72-.44,1.05-.74"/>
    <path class="cls-2" d="m296.56,88.26c-.8,0-1.42-.23-1.87-.68-.45-.45-.67-1.17-.67-2.15v-4.81h-.99v-1.21h.99v-2.5h1.46v2.5h2.69v1.21h-2.69v4.12c0,.44,0,.78.02,1.02.01.24.07.47.18.67.09.18.23.31.43.41.2.09.47.14.8.14.24,0,.47-.03.69-.1.22-.07.38-.13.48-.18h.09v1.31c-.27.08-.55.14-.84.18-.28.04-.54.06-.78.06"/>
    <path class="cls-2" d="m301.23,77.95h-1.67v-1.52h1.67v1.52Zm-.1,10.13h-1.46v-8.68h1.46v8.68Z"/>
    <path class="cls-2" d="m310.8,83.75c0,1.46-.35,2.59-1.06,3.38-.7.8-1.64,1.2-2.81,1.2s-2.15-.41-2.85-1.23c-.69-.82-1.04-1.93-1.04-3.34s.35-2.57,1.07-3.38c.71-.8,1.65-1.2,2.81-1.2s2.11.4,2.81,1.2c.71.8,1.06,1.93,1.06,3.38m-1.51,0c0-1.12-.2-1.95-.61-2.5-.41-.55-.99-.82-1.75-.82s-1.35.27-1.76.82c-.41.55-.62,1.38-.62,2.5s.21,1.91.62,2.48c.41.56,1,.84,1.76.84s1.33-.27,1.75-.82c.41-.55.61-1.38.61-2.49"/>
    <path class="cls-2" d="m319.5,88.08h-1.46v-4.94c0-.4-.02-.77-.06-1.12-.04-.34-.11-.62-.22-.82-.12-.22-.28-.38-.5-.48-.21-.11-.51-.16-.87-.16s-.74.09-1.12.29c-.39.2-.76.45-1.13.76v6.48h-1.46v-8.68h1.46v.96c.44-.39.86-.69,1.29-.89.42-.21.87-.31,1.34-.31.86,0,1.52.28,2.01.84.48.57.72,1.37.72,2.44v5.63Z"/>
    <path class="cls-2" d="m158.18,57.71c1.26,3.59,5.34,7.59,8.55,8.92,6.55,2.76,19.91,1.5,21.24-9.35.23-2-1.95-3.46-1.7-4.79.13-.63,4.01-3.4,5.24-2.96,1.39.46,1.39,3.26,2.49,4.46,1.13,1.2,4.01.7,4.01.7l-.05,3.19s-2.21.03-3-.2c-.64-.2-1.93-.8-2.75-1.87-.69-.89-1.05-2.6-1.21-2.86-.44-.03-2.44.23-1.64,1,.18.33.98,2.03.75,3.4-2.29,14.08-15.48,14.14-22.68,11.98-4.67-1.4-7.96-6.02-9.25-11.62m20.24,14.94c0,.93.82,1.86,1.23,1.86.98,0,1.44-1.03,1.44-1.86,0-1-.31-1.6-1.23-1.6s-1.44.97-1.44,1.6m3.85-.54c0,1.53,1.03,1.87,1.03,1.87.64,0,1.64-.43,1.64-1.87,0-.76-.2-1.59-1.23-1.59-.9,0-1.44.89-1.44,1.59"/>
    <path class="cls-2" d="m197.72,54.72c2.39,0,5.14-.34,5.67-.4-.13-2.79-1.98-2.53-2.78-3.33-.43.53-.89,1.17-1.46,1.17-1.46,0-1.52-1.7-1.52-2.4,0-2.06,1.39-2.66,2.67-2.66,3.26,0,3.57,3.66,5.83,6.02,1.31,1.4,4.44,1.57,4.44,1.57v3.19h-.82c-1.21,0-1.67-.43-4.24-.3-6.27.36-4.39.16-7.88.26-.56,0-.92.03-.92.03v-3.19s.18.03,1,.03"/>
    <path class="cls-2" d="m212.03,54.72c2.36-.07,5.55-.34,6.11-.4-.15-2.73-2-2.53-2.77-3.33-.46.43-.92,1.17-1.49,1.17-1.39,0-1.49-1.7-1.49-2.4,0-2.06,1.39-2.66,2.67-2.66,3.24,0,3.54,3.66,5.8,6.02,1.95,2.07,4.83-1,4.88,3.2.02,1.33-.36,2.23-1.31,2.23-1.21,0-1.62-1.1-4.19-.96-6.27.36-5.42.2-8.88.26l-1.44.03v-3.19s1.23.07,2.11.03m7.37,5.53c.9,0,1.23.6,1.23,1.6,0,.8-.49,1.86-1.44,1.86-.44,0-1.23-.93-1.23-1.86,0-.67.51-1.6,1.44-1.6"/>
    <path class="cls-2" d="m227.44,40.07c-.21-2.06,1.36-3.9,2.44-3.9s1.18,1.7,1.13,2.03c-.1.67-.56,1.87-.56,3.66,0,4.2.77,7.03.72,10.65-.02,1.2-1.41,6.22-4.6,7.39.51-.83,1.83-2.7,2.26-5.19.39-2.3.23-3.73.08-6.09-.15-2.27-.18-3.5-.43-6.29-.15-1.7-.98-1.63-1.03-2.27"/>
    <path class="cls-2" d="m241.45,57.88c-2.19,0-1,2.2-3.16,6.09-3.13,5.59-8.19,7.89-10.58,7.66-7.5-.7-9.89-5.93-10.58-12.12-.05-.5-.05-.8-.03-1.33.08-2.33.47,3.23,1.57,5.62,1.1,2.36,4.26,5.23,8.71,5.23,2.18,0,6.01-2.27,8.29-5.66.05-.1,2.06-4.66,2.06-5.79,0-.67-.95-.56-.95-2.73,0-1.46.7-1.93,1.57-1.93,1.59,0,1.28,1.77,2.34,1.77h1.8v3.19h-1.03Z"/>
    <path class="cls-2" d="m244.99,59.31c-.46,0-.9-1.4-1.54-1.43-.18.03-1.65,0-1.65,0,0,0,.03-3.19,0-3.19h2.26c.54,0,.75.33,1.13.66,0,0,.21-3.76.21-5.95,0-2.73-.51-4.53-.62-5.16-.33-2.36-1.59-2.2-1.59-4.96,0-1.66,1.18-2.89,2.08-2.89.59,0,1.36,1.3,1.36,2.73,0,.53-.13,1.16-.1,1.83.13,2.86.23,2.33.67,6.75.33,3.19.26,2.5.31,4.09.05,1.86-.31,7.52-2.52,7.52"/>
    <path class="cls-2" d="m248.77,40.07c-.2-2.06,1.36-3.9,2.44-3.9s1.18,1.7,1.13,2.03c-.1.67-.57,1.87-.57,3.66,0,4.2.77,7.03.72,10.65-.03,1.2-1.41,6.22-4.6,7.39.52-.83,1.83-2.7,2.26-5.19.39-2.3.23-3.73.08-6.09-.16-2.27-.18-3.5-.44-6.29-.15-1.7-.98-1.63-1.03-2.27"/>
    <path class="cls-2" d="m271.65,55.38s-.82-8.96-.98-10.12c-.31-2.33-1.59-2.2-1.59-4.96,0-1.66,1.18-2.89,2.11-2.89.61,0,1.33,1.33,1.33,2.73,0,.53-.13,1.17-.1,1.86.08,2.86.38,3.1.82,7.52.31,3.2.2,6.39.41,6.79.2.14.59.07.61.07.52,0,.72.33,1.11.66,0,0,.23-3.76.23-5.95,0-2.73-.57-4.53-.64-5.16-.33-2.36-1.59-2.2-1.59-4.96,0-1.66,1.18-2.89,2.08-2.89.61,0,1.36,1.3,1.36,2.73,0,.53-.13,1.16-.1,1.83.1,2.86.23,2.33.67,6.75.31,3.19.26,2.5.31,4.09.05,1.86-.31,7.52-2.52,7.52-.46,0-.9-1.4-1.51-1.43-.52.06-.36,0-.52,0-.26,1.16-1.28,3.29-2.49,3.83-.08-1.4.46-1.46.69-3.83-5.14,0-.15.13-2.21.03-2.77-.13-1.23,1.9-4.52,2.13.2-.8,1.03-1.33,1.28-2.13-1.05-.13-2.36.07-2.36.07,0,0-2.98,0-2.98-4.66.03-5.59,5.14-4.56,5.39-5.26.16-.4-.15-1.67-.31-2.06-.28-.73-1.36-.96-1.39-1.86-.07-1.93,1.18-1.96,1.83-1.93,1.18.07,2.03,1.4,2.08,3.53.05,3-.1,7.65.18,8.96h2.08s1.23-.4,1.23-1m-6.37.9c.98.03,1.18-.43,1.06-1.63-.05-.5-.13-1.3-.13-1.56.05-1.33-2.08-.13-2.6.43-.38.43-.54,1.23-.49,1.93.08,1.13,1.6.8,2.16.83m2.6-18.51c0,1.27.23,2.1.21,3.2,0,.33-.41,1.86-1.36,2.2.15-.23.53-.8.66-1.53.1-.7.05-1.13.03-1.83-.05-.7-.05-1.03-.13-1.9-.03-.5-.31-.47-.31-.66-.05-.63.41-1.16.72-1.16m5.06-4.33l.05-.16.13.06c.8.4.77,3.16-.26,3.99-.28.1-.49,0-.67-.13-.38.73-1.18,1.33-1.9,1-.82-.63-.89-2.66-.26-3.23l.15-.14.1.17c.49.8.16,1.8.65,1.47.9-.2.31-1.83,1.15-2.06.26.27.46,1,.41,1.26.57,0,.15-1.33.44-2.23"/>
    <path class="cls-2" d="m279.13,41.77c-.2-2.06,1.36-3.9,2.44-3.9s1.18,1.7,1.13,2.03c-.1.67-.57,1.87-.57,3.66,0,4.2.77,7.03.72,10.65-.03,1.2-1.41,6.22-4.6,7.39.52-.83,1.83-2.7,2.26-5.19.38-2.3.23-3.73.08-6.09-.15-2.27-.18-3.5-.44-6.29-.15-1.7-.98-1.63-1.03-2.27"/>
    <path class="cls-2" d="m295,59.58c-.77,0-1.54-.7-1.87-.7-.26,0-.26.66-1.52.66-1.03,0-1.49-.43-2.67-.43-3.08,0-4.05,3.86-4.62,4.3-.2-.83,0-.67,0-.67,0-2.66,2.16-5.19,3.8-5.96,1.13-.5,1.69-.39,2.34-.6-1.18-1.23-3.44-1.7-3.44-4.83,0-1.53.85-3.03,2.13-3.03.98,0,1.31,1.36,1.31,1.73,0,1.73-1.41.97-1.41,1.63,0,2,3.93.53,4.93,4.39.47.2,1.14.31,1.83.31h.49v3.19h-1.28Z"/>
    <path class="cls-2" d="m301.07,59.58c-.87.47-.75-.56-1.77-1.76-.46.83-.51,1.76-1.23,1.76h-2.36v-3.19s.51.03,1.23,0c3.49-.14,1.57-2.9,3.29-2.9.52,0,.77,2.9,2.57,2.9h.82v3.19h-2.54Zm-1.72,2.37c.92,0,1.23.6,1.23,1.6,0,.8-.46,1.86-1.44,1.86-.41,0-1.23-.93-1.23-1.86,0-.67.52-1.6,1.44-1.6"/>
    <path class="cls-2" d="m305.47,55.95c-.75-2.13-1.11-2-1.11-3.73s1.49-4.53,4.32-4.53c1.57,0,2.46,1,2.46,2.66,0,1.07-.69,2.13-1.85,2.13-.52,0-1.56-.27-2.18-.9,0,0-.05,1,.05,1.6.39,1.96,1.9,2.96,3.31,2.96,2.83-.03,6.16-2.23,6.29,1.4.08,2.79-2.77,1.4-3.85,1.4-5.03,0-3.85.63-6.37.63h-3.73v-3.19s1,.3,2.65-.43"/>
    <path class="cls-2" d="m121.11,36.41c.94,0,1.19.36,1.55,1.44.42-1.3.72-2.02,2-2.02.89,0,1.36,1.51,1.36,2.02,0,1.08-1,1.73-1.81,1.73-.97,0-1-.58-1.33-1.15-1.22,1.95-1.59,1.73-2,1.73-.58,0-1.33-.72-1.33-2.02,0-1.66.97-1.73,1.56-1.73m8.81,21.39c-3-.14-1.34,2.06-4.89,2.3.22-.86,1.11-1.44,1.39-2.3-1.14-.14-2.55.07-2.55.07,0,0-3.22,0-3.22-5.04.02-6.05,5.55-4.93,5.83-5.69.17-.43-.17-1.8-.33-2.23-.31-.79-1.47-1.04-1.5-2.02-.08-2.09,1.28-2.13,1.97-2.09,1.28.07,2.19,1.51,2.25,3.82.06,3.24-.11,8.28.2,9.69h1.58v3.45s1.5.14-.72.03m-4.17-3.6c1.06.03,1.28-.47,1.14-1.77-.05-.54-.14-1.41-.14-1.69.06-1.44-2.25-.14-2.81.47-.41.47-.58,1.34-.53,2.09.08,1.22,1.72.87,2.34.9"/>
    <path class="cls-2" d="m131.76,54.31c.84,0,1.14-.04,2.59.43,0,0,.22-.86,0-1.29-.19-.43-.05-.58-.89-.58-.75,0-1.33-.93-1.33-1.91s.67-2.3,1.94-2.3c.72,0,2.36,2.05,2.36,5.55,0,.61-.28,4.25-1.64,4.25-.53,0-.33-.68-3.33-.68h-1.55v-3.45h1.86Zm.75,7.16c1,0,1.34.65,1.34,1.73,0,.86-.5,2.02-1.56,2.02-.44,0-1.33-1.01-1.33-2.02,0-.72.55-1.73,1.55-1.73m3.42-.39c1.11,0,1.33.9,1.33,1.73,0,1.55-1.08,2.02-1.78,2.02,0,0-1.11-.36-1.11-2.02,0-.76.58-1.73,1.56-1.73"/>
    <path class="cls-2" d="m132.93,72.64c-8.12-.76-10.7-6.41-11.45-13.12-.05-.54-.05-.86-.03-1.44.08-2.52.5,3.49,1.7,6.09,1.19,2.56,4.61,5.66,9.42,5.66,2.36,0,6.5-2.45,8.97-6.12.06-.11,2.22-5.04,2.22-6.27,0-.72-1.03-.61-1.03-2.96,0-1.59.75-2.09,1.7-2.09,1.72,0,1.39,1.91,2.53,1.91,1.03,0,2.06.03,3.09,0,3.78-.15,1.7-3.14,3.56-3.14.55,0,.83,3.14,2.78,3.14h.89v3.45h-2.75c-.94.5-.8-.61-1.91-1.91-.5.9-.56,1.91-1.34,1.91h-3.47c-2.36,0-1.08,2.38-3.42,6.59-3.39,6.05-8.87,8.53-11.45,8.29"/>
    <path class="cls-2" d="m151.05,60.89c1,0,1.33.65,1.33,1.73,0,.86-.5,2.02-1.55,2.02-.45,0-1.34-1.01-1.34-2.02,0-.72.56-1.73,1.56-1.73"/>
    <path class="cls-2" d="m154.77,60.79c1.12,0,1.34.9,1.34,1.73,0,1.55-1.09,2.02-1.78,2.02,0,0-1.11-.36-1.11-2.02,0-.76.59-1.73,1.55-1.73"/>
    <path class="cls-2" d="m157.46,54.31s4.78-.72,5.36-.8c.03-2.98-.69-3.74-1.53-4.57-.5.43-1,1.01-1.61,1.01-1.5,0-1.55-1.73-1.55-2.49,0-2.2,1.44-3.17,2.83-3.17,3.5.04,2.11,4.61,5.31,4.61,1,0,2.5.76,3.06-1.47.28-1.05.39-2.24.39-3.39,0-2.38-.39-3.42-.64-4.4-.33-1.37-1.66-.36-2-2.95-.22-1.87,1.25-2.59,2.22-2.59.17-.04,1,.47,1.28,1.58.61,2.45,1.12,3.46,1.08,8.04,0,3.88-.47,8.96-1.8,8.93-.45,0-.67-.79-1.34-.83-.33,0-1.94-.72-2.97.51,2.47,3.31,5.78.03,5.64,4.1-.05,1.44-.56,1.73-1.55,1.73-1.33-.04-1.61-.94-4.39-1.01-6.56-.22-7.03.5-7.78.5-.36.11-1.06.11-1.06.11v-3.45h1.06Zm3.33-16.86c1.11,0,1.33.9,1.33,1.73,0,1.55-1.06,2.02-1.78,2.02,0,0-1.11-.36-1.11-2.02,0-.76.61-1.73,1.55-1.73"/>
    <path class="cls-2" d="m173.61,38.49c-.22-2.23,1.47-4.21,2.64-4.21s1.28,1.84,1.22,2.19c-.11.72-.61,2.02-.61,3.96,0,4.54.84,7.6.78,11.53-.02,1.3-1.53,6.74-4.97,8,.55-.9,1.97-2.92,2.45-5.62.42-2.49.25-4.04.08-6.59-.17-2.45-.2-3.79-.48-6.81-.16-1.84-1.05-1.77-1.11-2.45"/>
  </g>
</svg>