<?xml version="1.0" encoding="UTF-8"?>
<svg id="Layer_1" data-name="Layer 1" xmlns="http://www.w3.org/2000/svg" viewBox="0 0 512 123">
  <defs>
    <style>
      .cls-1 {
        fill: #5480c0;
      }

      .cls-1, .cls-2 {
        stroke-width: 0px;
      }

      .cls-2 {
        fill: #12afa8;
      }
    </style>
  </defs>
  <g>
    <path class="cls-2" d="m224.68,29.28v37.93c0,1.53,1.24,2.77,2.77,2.77h22.94c3.21,0,6.1-1.41,8.08-3.64,1.99,2.23,4.88,3.64,8.09,3.64,3.75,0,7.11-2.49,8.19-6.08l1.6-4.5,3.81,8.64c.53,1.14,1.44,1.91,2.64,1.92,1.22-.02,2.23-.81,2.66-2l6.99-21.07,5.15,39.38c.17,1.31,1.25,2.32,2.56,2.41.06,0,.12,0,.18,0,1.25,0,2.35-.84,2.67-2.05l6.11-22.86,1.61,4.39c.4,1.09,1.44,1.82,2.6,1.82h8.09c1.38,0,2.66-.94,2.88-2.31.28-1.74-1.05-3.24-2.73-3.24h-6.3l-3.96-10.8c-.46-1.25-1.73-2.01-3.1-1.78-1.1.19-1.94,1.09-2.22,2.16l-4.73,17.67-5.06-38.67c-.14-1.06-.82-2.01-1.82-2.36-1.56-.53-3.17.36-3.6,1.85l-8.14,28.45-3.48-10.97c-.3-.94-1.02-1.72-1.97-1.97-1.47-.38-2.85.43-3.32,1.75l-4.39,12.32c-.02.05-.04.1-.05.15-.37,1.28-1.56,2.17-2.9,2.17-2.93,0-5.32-2.39-5.32-5.32v-17.67c0-1.53-1.24-2.77-2.77-2.77h-8.26c-6.08,0-11.4,4.58-11.81,10.65-.45,6.66,4.84,12.22,11.41,12.22,2.13,0,4.12-.6,5.83-1.61-.39,2.55-2.59,4.51-5.24,4.51h-20.18V29.28c0-1.53-1.24-2.77-2.77-2.77h0c-1.53,0-2.77,1.24-2.77,2.77Zm25.13,26.71c-3.25,0-5.89-2.64-5.89-5.89s2.64-5.89,5.89-5.89h5.89v5.89c0,3.25-2.64,5.89-5.89,5.89Z"/>
    <path class="cls-2" d="m207.96,46.28h-1.55c-6.53,0-11.85,5.31-11.85,11.85,0,2.32.68,4.48,1.84,6.31h-5.99c-1.53,0-2.77,1.24-2.77,2.77s1.24,2.77,2.77,2.77h26.63c1.53,0,2.77-1.24,2.77-2.77s-1.24-2.77-2.77-2.77h-10.63c-3.48,0-6.31-2.83-6.31-6.31s2.83-6.31,6.31-6.31h1.55c3.48,0,6.31,2.83,6.31,6.31v.64c0,1.53,1.24,2.77,2.77,2.77s2.77-1.24,2.77-2.77v-.64c0-6.53-5.31-11.85-11.85-11.85Z"/>
    <circle class="cls-2" cx="251.71" cy="30.51" r="4"/>
  </g>
  <g>
    <g>
      <path class="cls-1" d="m188.63,96.49c-.5,0-.8-.25-.89-.77l-.1-.47c-.09-.57.22-.9.79-.9h7.25c2.11,0,3.09-.69,3.09-2.1s-1.12-2.12-3.27-2.53l-2.87-.57c-3.27-.6-4.88-1.89-4.88-4.39s1.79-3.97,5.29-3.97h6.12c.51,0,.81.25.9.77l.06.47c.09.57-.2.9-.77.9h-6.25c-1.98,0-2.85.58-2.85,1.79s1.01,1.91,3.1,2.33l2.93.56c1.7.33,2.95.84,3.78,1.54.82.71,1.23,1.73,1.23,3.05,0,2.73-1.93,4.28-5.52,4.28h-7.14Z"/>
      <path class="cls-1" d="m218.89,80.8c.54,0,.85.32.85.85v13.99c0,.54-.32.85-.85.85h-.77c-.52,0-.82-.32-.82-.85v-6.07h-9.39v6.07c0,.54-.3.85-.83.85h-.77c-.54,0-.85-.32-.85-.85v-13.99c0-.54.32-.85.85-.85h.77c.54,0,.83.32.83.85v5.79h9.39v-5.79c0-.54.3-.85.82-.85h.77Z"/>
      <path class="cls-1" d="m225.88,96.49c-.54,0-.85-.32-.85-.85v-13.99c0-.54.32-.85.85-.85h10.42c.51,0,.81.25.9.77l.06.47c.09.57-.19.9-.76.9h-9.02v4.49h7.4c.52,0,.83.3.83.82v.38c0,.54-.32.85-.83.85h-7.4v4.88h9.19c.58,0,.88.33.79.9l-.09.47c-.09.51-.38.77-.9.77h-10.6Z"/>
      <path class="cls-1" d="m242.73,96.49c-.54,0-.85-.32-.85-.85v-13.99c0-.54.32-.85.85-.85h10.18c.51,0,.81.25.9.77l.09.47c.09.57-.22.9-.79.9h-8.78v4.82h7.13c.51,0,.83.32.83.83v.4c0,.51-.32.83-.83.83h-7.13v5.82c0,.54-.3.85-.83.85h-.77Z"/>
      <path class="cls-1" d="m271.19,95.53c.22.58-.06.96-.68.96h-.84c-.49,0-.82-.22-1-.67l-1.48-3.63h-8.2l-1.48,3.63c-.18.45-.5.67-1,.67h-.84c-.62,0-.9-.38-.68-.96l5.9-14.05c.18-.45.49-.68.96-.68h2.48c.47,0,.79.23.96.68l5.88,14.05Zm-11.32-5.49h6.45l-2.91-7.17h-.6l-2.93,7.17Z"/>
      <path class="cls-1" d="m289.84,95.53c.22.58-.06.96-.68.96h-.84c-.49,0-.82-.22-1-.67l-1.48-3.63h-8.2l-1.48,3.63c-.18.45-.5.67-1,.67h-.84c-.62,0-.9-.38-.68-.96l5.9-14.05c.18-.45.49-.68.96-.68h2.48c.47,0,.79.23.96.68l5.88,14.05Zm-11.32-5.49h6.45l-2.91-7.17h-.6l-2.93,7.17Z"/>
    </g>
    <path class="cls-1" d="m318.4,80.83c1.97,0,3.45.49,4.46,1.46,1,.98,1.5,2.38,1.5,4.21s-.5,3.24-1.5,4.21c-1.01.98-2.5,1.46-4.46,1.46s-3.46-.49-4.47-1.46c-1.01-.98-1.52-2.38-1.52-4.21s.51-3.24,1.52-4.21c1.01-.98,2.5-1.46,4.47-1.46Zm0,10.3c1.57,0,2.77-.38,3.6-1.14.82-.76,1.22-1.92,1.21-3.48.03-3.12-1.66-4.62-4.81-4.62-1.57,0-2.77.38-3.6,1.14-.83.76-1.25,1.92-1.25,3.48s.42,2.72,1.25,3.48c.82.76,2.03,1.14,3.6,1.14Zm1.19-3.66l1.04,1.17c.25.32.08.63-.35.63h-.26c-.32,0-.56-.12-.72-.37l-1.07-1.3c-.12-.18-.17-.33-.17-.46v-.24c0-.18.1-.26.3-.26h.22c.78,0,1.17-.29,1.17-.89s-.36-.89-1.28-.89h-1.29v3.88c0,.38-.14.52-.51.52h-.22c-.37,0-.51-.15-.51-.52v-4.45c0-.35.22-.55.59-.55h2.02c1.63,0,2.48.76,2.48,1.99,0,.87-.54,1.49-1.44,1.74Z"/>
    <circle class="cls-1" cx="314.61" cy="30.51" r="4"/>
    <path class="cls-1" d="m316.36,39.95c0,2.21,1.79,4,4,4s4-1.79,4-4-1.79-4-4-4-4,1.79-4,4Z"/>
    <circle class="cls-1" cx="308.85" cy="39.95" r="4"/>
  </g>
</svg>