<?xml version="1.0" encoding="UTF-8"?>
<svg id="Layer_1" data-name="Layer 1" xmlns="http://www.w3.org/2000/svg" viewBox="0 0 512 123">
  <defs>
    <style>
      .cls-1 {
        fill: #009579;
      }

      .cls-1, .cls-2 {
        stroke-width: 0px;
      }

      .cls-2 {
        fill: #8c734b;
      }
    </style>
  </defs>
  <g>
    <g>
      <path class="cls-1" d="m353.04,56.68c-.72-.46-1.67-.25-2.15.46-.26.39-.54.78-.85,1.16-.66.82-1.41,1.56-2.25,2.21-.83.65-1.73,1.18-2.7,1.58-1.07.45-2.23.64-3.39.62-1.63-.04-3.16-.34-4.57-.91-1.51-.61-2.82-1.49-3.92-2.64-1.1-1.15-1.97-2.56-2.6-4.22-.63-1.66-.95-3.55-.95-5.65s.32-4,.97-5.67c.64-1.68,1.53-3.1,2.64-4.28,1.12-1.18,2.43-2.08,3.93-2.71,1.5-.63,3.12-.95,4.86-.95,2.01,0,3.78.57,5.33,1.7,1.05.77,2.04,1.84,2.96,3.2.76,1.12,2.25,1.46,3.37.71.03-.02.04-.07.02-.1-.61-.98-1.33-1.93-2.18-2.84-.86-.93-1.85-1.75-2.96-2.46-1.11-.71-2.34-1.28-3.68-1.71-1.34-.43-2.81-.64-4.4-.64-1.68,0-3.25.19-4.73.58-1.48.39-2.83.93-4.07,1.62-1.24.7-2.35,1.53-3.34,2.5-.99.97-1.82,2.05-2.5,3.21-.68,1.17-1.2,2.41-1.57,3.74-.36,1.32-.55,2.69-.55,4.09s.18,2.77.54,4.08c.36,1.32.87,2.55,1.54,3.71.67,1.15,1.48,2.21,2.45,3.17.97.96,2.06,1.78,3.29,2.46,1.23.68,2.57,1.21,4.03,1.59,1.46.38,3.02.57,4.66.57s3.27-.21,4.66-.64c1.39-.43,2.64-1,3.74-1.71,1.1-.71,2.07-1.53,2.91-2.46.82-.91,1.54-1.86,2.14-2.84.02-.03.01-.08-.02-.1l-.68-.44Z"/>
      <polygon class="cls-1" points="289.69 44.97 286.95 50.45 288.44 53.37 291.18 47.93 289.69 44.97"/>
      <path class="cls-1" d="m303.71,57.03l-11.73-23.47h-3.56c-1.44,0-2.75.82-3.41,2.1l-1.83,3.59,1.5,2.91,2.89-5.63,14.22,28.31h1.03l12.23-24.43h.17v24.43h5.03v-31.28h-4.76l-11.77,23.47Z"/>
      <path class="cls-1" d="m290.5,61.86l-14.2-28.3h-2.72l-14.66,29.42-16.92-15.46,14.94-14.03h-3.28l-15.71,14.7v-14.7h-5.02v31.35h5.02v-15.18l16.62,15.18h6.47l5.21-10.46h12.56l-.98-1.93h-10.62l6.32-12.69,12.62,25.08h3.29c1.57,0,3-.88,3.72-2.28l1.72-3.37-1.49-2.95-2.87,5.62Z"/>
    </g>
    <g>
      <path class="cls-1" d="m202.34,41.44c-11.03,0-19.98,8.94-19.98,19.98s8.12,19.12,18.42,19.91l1.54-19.63,1.54,19.64c10.33-.78,18.47-9.4,18.47-19.92s-8.95-19.98-19.99-19.98Zm6.23,16.46c4.69,2.98,7.6,8.41,7.6,14.63,0-4.03-2.54-7.82-5.39-10.67-1.29-1.3-2.78-2.33-4.4-3.07,4.23,2.88,6.97,7.64,7.18,13.07-.34-6.05-5.34-11.14-11.25-13.12-5.9,1.98-10.9,7.08-11.25,13.12.21-5.43,2.95-10.2,7.18-13.07-1.61.74-3.1,1.77-4.4,3.07-2.85,2.85-5.39,6.64-5.39,10.67,0-6.22,2.91-11.65,7.6-14.63-3.87.27-7.33,2.03-9.8,4.72,2.91-4.06,7.57-6.79,12.87-7.09-.37-.16-.75-.3-1.13-.43-4.05-1.37-8.29-.86-11.76,1.05,4.31-3.1,9.99-4.14,15.4-2.32.23.08.45.16.67.25.22-.09.44-.17.67-.25,5.41-1.82,11.1-.78,15.4,2.32-3.47-1.91-7.71-2.42-11.76-1.05-.38.13-.76.28-1.13.43,5.31.3,9.96,3.03,12.87,7.09-2.47-2.69-5.92-4.45-9.8-4.72Z"/>
      <path class="cls-1" d="m181.2,85.05c-1.28-1.5-2.34-3.18-3.2-4.98-6.08-4-10.11-10.86-10.11-18.68,0-.11,0-.22,0-.33h0c0-15.35,12.44-27.79,27.79-27.79,7.71,0,14.69,3.14,19.72,8.21-5.87-7.4-14.94-12.15-25.12-12.15-17.7,0-32.05,14.35-32.05,32.05s14.35,32.05,32.05,32.05c1.28,0,2.54-.08,3.79-.23-4.97-1.36-9.49-4.21-12.86-8.16Z"/>
      <path class="cls-2" d="m201.68,84.59c-2.57,0-5.05-.42-7.36-1.19-8.14-2.72-13.86-9.82-15.17-18.51-.17,1.12-.26,2.26-.26,3.43,0,5.53,1.6,10.59,4.93,14.5,3.17,3.72,7.53,6.38,12.49,7.41.9.14,1.78.21,2.64.21,8.94,0,15.39-7.18,18.41-11.95-4.13,3.79-9.63,6.1-15.67,6.1Z"/>
    </g>
  </g>
  <g>
    <path class="cls-2" d="m235.67,80.7v7.9h-2.77v-16.47h2.77v7.51h8.28v-7.51h2.77v16.47h-2.77v-7.9h-8.28Z"/>
    <path class="cls-2" d="m255.4,88.83c-.84,0-1.61-.15-2.33-.44-.71-.29-1.33-.69-1.84-1.2-.51-.5-.92-1.09-1.21-1.77-.29-.68-.43-1.4-.43-2.17,0-.81.14-1.57.43-2.28.29-.71.69-1.33,1.21-1.86.51-.53,1.13-.95,1.84-1.25.71-.31,1.49-.46,2.33-.46s1.61.14,2.31.42,1.32.66,1.84,1.15c.52.49.92,1.06,1.21,1.72.29.66.43,1.36.43,2.11,0,.83-.14,1.61-.43,2.35-.29.73-.69,1.37-1.21,1.92-.52.55-1.13.98-1.84,1.3-.71.32-1.48.47-2.31.47Zm.41-.81c.43,0,.82-.11,1.18-.33.36-.22.67-.52.93-.89.26-.37.46-.81.61-1.3.14-.5.21-1.02.21-1.57,0-.8-.07-1.54-.2-2.23-.14-.69-.36-1.3-.66-1.81-.31-.52-.71-.92-1.2-1.22-.49-.3-1.09-.45-1.81-.45-.37,0-.72.11-1.06.32-.34.21-.64.5-.9.87-.26.37-.47.8-.63,1.29-.16.49-.24,1.01-.24,1.56,0,.8.08,1.55.26,2.25s.42,1.31.74,1.84c.32.52.72.93,1.19,1.24.47.3,1,.45,1.59.45Z"/>
    <path class="cls-2" d="m265.57,88.6h-2.18v-15.98l1.55-.62h.62v16.6Z"/>
    <path class="cls-2" d="m266.92,77.63h2.48l4.24,7.92,3.46-7.92h1.16l-5.6,12.89c-.24.54-.51,1.01-.82,1.4-.31.4-.63.72-.98.98-.34.26-.7.45-1.06.57-.36.13-.71.19-1.06.19-.24,0-.47-.03-.68-.09-.21-.06-.4-.15-.56-.26-.16-.11-.29-.25-.38-.4s-.14-.33-.14-.51c0-.15.03-.3.09-.44.06-.15.15-.27.26-.38.11-.11.25-.2.41-.27s.34-.1.54-.1c.23,0,.41.03.55.08.13.05.25.11.36.17.11.06.23.12.35.17.12.05.29.08.5.08.23,0,.43-.07.6-.19.18-.13.34-.29.48-.49.14-.19.27-.41.38-.64.11-.23.21-.45.3-.64l.74-1.65-5.62-10.46Z"/>
    <path class="cls-2" d="m289.09,80.42c0,1.16.17,2.19.52,3.11.35.91.82,1.69,1.43,2.32.61.63,1.33,1.12,2.16,1.45.83.34,1.73.5,2.7.5.57,0,1.13-.11,1.67-.34.54-.23,1.03-.52,1.5-.88.46-.36.87-.76,1.23-1.22.36-.45.66-.91.9-1.38l1.16.75c-.34.55-.74,1.08-1.2,1.6-.46.51-1,.96-1.6,1.35s-1.29.7-2.06.94c-.76.24-1.62.36-2.57.36s-1.76-.1-2.56-.31c-.8-.21-1.54-.5-2.22-.87-.67-.37-1.28-.83-1.81-1.35-.53-.53-.98-1.11-1.35-1.74-.37-.63-.65-1.31-.84-2.04-.2-.72-.3-1.47-.3-2.25s.1-1.52.3-2.25c.2-.73.49-1.41.86-2.06.37-.64.83-1.23,1.38-1.77.54-.54,1.16-1,1.84-1.38.68-.38,1.43-.68,2.24-.89.81-.21,1.68-.32,2.6-.32s1.68.12,2.42.35c.74.24,1.41.55,2.02.94.61.39,1.15.84,1.63,1.35.47.51.88,1.04,1.22,1.6l-1.19.8c-.69-1.33-1.47-2.31-2.32-2.93-.85-.62-1.83-.93-2.93-.93-.95,0-1.84.17-2.67.52-.83.35-1.55.84-2.16,1.49-.61.65-1.1,1.43-1.45,2.35-.36.92-.53,1.96-.53,3.12Z"/>
    <path class="cls-2" d="m313.08,88.6h-2.19v-1.5c-.26.2-.51.4-.76.6-.25.2-.52.39-.81.56-.29.17-.61.31-.96.41-.35.11-.76.16-1.22.16-.43,0-.82-.07-1.16-.21-.35-.14-.64-.33-.89-.58-.25-.25-.43-.53-.56-.87-.13-.33-.19-.69-.19-1.08,0-.47.09-.89.28-1.27.19-.38.44-.72.77-1.02.32-.3.7-.57,1.14-.8.43-.23.89-.44,1.37-.62.48-.18.98-.35,1.5-.49.51-.14,1.02-.28,1.51-.4v-.68c0-.5-.05-.92-.15-1.26-.1-.34-.24-.62-.42-.83-.18-.21-.41-.36-.67-.45-.26-.09-.56-.14-.88-.14-.37,0-.67.05-.9.14-.23.09-.41.22-.55.38-.13.16-.22.34-.27.54-.05.2-.07.4-.07.61,0,.19-.02.38-.05.55s-.09.33-.17.46c-.08.13-.19.24-.33.32-.14.08-.32.12-.54.12-.17,0-.33-.03-.46-.1-.14-.06-.26-.15-.36-.27-.1-.12-.18-.25-.24-.41s-.08-.33-.08-.51c0-.36.12-.7.36-1.01.24-.31.56-.58.96-.81.4-.23.87-.41,1.41-.54.54-.13,1.1-.2,1.7-.2.72,0,1.33.07,1.83.21.5.14.9.34,1.21.59.31.25.53.56.66.92.14.36.2.76.2,1.2v8.29Zm-2.19-6.4c-.31.1-.64.22-.98.35-.34.13-.67.27-.99.43-.32.16-.63.33-.92.52-.29.19-.55.39-.77.6-.22.21-.4.44-.53.67-.13.24-.19.49-.19.75s.05.52.15.76c.1.24.23.45.39.63.16.18.35.32.57.43.21.11.44.16.67.16.25,0,.48-.03.7-.1s.44-.15.64-.26c.21-.11.42-.24.62-.38.21-.15.42-.3.64-.46v-4.1Z"/>
    <path class="cls-2" d="m315.89,77.62h2.18v2.24c.22-.28.46-.56.73-.85.27-.29.57-.55.89-.79.33-.24.69-.43,1.08-.59.39-.15.82-.23,1.29-.23.65,0,1.24.14,1.77.41.53.27.98.64,1.36,1.11.38.47.66,1.01.87,1.64.2.63.31,1.29.31,2,0,.91-.13,1.74-.38,2.51-.25.77-.61,1.43-1.07,1.99-.46.56-1.03,1-1.69,1.31-.66.31-1.4.47-2.23.47-.31,0-.59-.02-.85-.05-.26-.03-.51-.08-.74-.14s-.46-.15-.68-.25c-.22-.1-.44-.23-.66-.37v5.2h-2.18v-15.61Zm2.18,8.01c0,.33.07.64.21.93.14.29.34.55.6.76.26.21.57.39.93.51.36.13.76.19,1.19.19s.79-.1,1.15-.31c.36-.21.67-.5.94-.88.27-.38.48-.84.63-1.36.15-.53.23-1.12.23-1.76,0-.81-.07-1.52-.21-2.12-.14-.6-.34-1.11-.6-1.51s-.56-.7-.9-.9c-.35-.2-.73-.3-1.15-.3-.32,0-.63.05-.91.15-.29.1-.56.23-.82.39-.26.16-.49.35-.71.57-.22.21-.41.44-.58.67v4.98Z"/>
    <path class="cls-2" d="m329.58,72c.17,0,.33.03.49.09.15.06.29.14.4.24s.2.21.27.35c.07.13.1.27.1.42s-.04.29-.1.42c-.07.13-.16.25-.27.35s-.25.18-.4.24c-.15.06-.32.09-.49.09s-.33-.03-.48-.09c-.15-.06-.28-.14-.39-.24-.11-.1-.2-.21-.27-.35-.07-.13-.1-.27-.1-.42s.03-.29.1-.42c.07-.13.16-.25.27-.35.11-.1.24-.18.39-.24.15-.06.31-.09.48-.09Zm-1.06,6.02l1.53-.62h.63v11.2h-2.17v-10.58Z"/>
    <path class="cls-2" d="m339.18,87.2c-.29.5-.68.9-1.17,1.2-.48.29-1.08.44-1.79.44-.37,0-.69-.06-.96-.18-.27-.12-.49-.3-.67-.52-.18-.23-.31-.49-.39-.81-.08-.31-.13-.66-.13-1.04v-7.74h-1.9v-.54c.61,0,1.12-.11,1.51-.33.4-.22.72-.52.97-.9.25-.38.45-.82.59-1.31.14-.5.27-1.03.38-1.59h.62v3.75h2.46v.92h-2.46v7.74c0,.16.03.32.09.46.06.14.14.27.25.37.11.11.23.19.38.25.15.06.3.09.46.09.25,0,.47-.06.67-.18.2-.12.38-.27.53-.45l.54.37Z"/>
    <path class="cls-2" d="m348.59,88.6h-2.19v-1.5c-.26.2-.51.4-.76.6-.25.2-.52.39-.81.56-.29.17-.61.31-.96.41-.35.11-.76.16-1.22.16-.43,0-.82-.07-1.16-.21-.35-.14-.64-.33-.89-.58-.25-.25-.43-.53-.56-.87-.13-.33-.19-.69-.19-1.08,0-.47.09-.89.28-1.27.19-.38.44-.72.77-1.02.32-.3.7-.57,1.14-.8.43-.23.89-.44,1.37-.62.48-.18.98-.35,1.5-.49.51-.14,1.02-.28,1.51-.4v-.68c0-.5-.05-.92-.15-1.26-.1-.34-.24-.62-.42-.83-.18-.21-.41-.36-.67-.45-.26-.09-.56-.14-.88-.14-.37,0-.67.05-.9.14-.23.09-.41.22-.55.38-.13.16-.22.34-.27.54-.05.2-.07.4-.07.61,0,.19-.02.38-.05.55s-.09.33-.17.46-.19.24-.33.32c-.14.08-.32.12-.54.12-.17,0-.33-.03-.46-.1-.14-.06-.26-.15-.36-.27-.1-.12-.18-.25-.24-.41-.05-.16-.08-.33-.08-.51,0-.36.12-.7.36-1.01.24-.31.56-.58.96-.81.4-.23.87-.41,1.41-.54.54-.13,1.1-.2,1.7-.2.72,0,1.33.07,1.83.21.5.14.9.34,1.21.59.31.25.53.56.66.92.14.36.2.76.2,1.2v8.29Zm-2.19-6.4c-.31.1-.64.22-.98.35-.34.13-.67.27-.99.43-.32.16-.63.33-.92.52-.29.19-.55.39-.77.6-.22.21-.4.44-.53.67-.13.24-.19.49-.19.75s.05.52.15.76c.1.24.23.45.39.63.16.18.35.32.57.43.21.11.44.16.67.16.25,0,.48-.03.7-.1s.44-.15.64-.26c.21-.11.42-.24.62-.38.21-.15.42-.3.64-.46v-4.1Z"/>
    <path class="cls-2" d="m353.78,88.6h-2.18v-15.98l1.55-.62h.62v16.6Z"/>
  </g>
</svg>