<?xml version="1.0" encoding="UTF-8"?>
<svg id="Layer_1" data-name="Layer 1" xmlns="http://www.w3.org/2000/svg" xmlns:xlink="http://www.w3.org/1999/xlink" viewBox="0 0 512 123">
  <defs>
    <style>
      .cls-1 {
        fill: url(#linear-gradient);
      }

      .cls-1, .cls-2, .cls-3 {
        stroke-width: 0px;
      }

      .cls-2 {
        fill: none;
      }

      .cls-3 {
        fill: #113e64;
      }

      .cls-4 {
        clip-path: url(#clippath);
      }
    </style>
    <clipPath id="clippath">
      <path class="cls-2" d="m253.98,57.59c-1.03-11.44-10.17-20.56-21.64-21.53,1.03,11.44,10.17,20.56,21.64,21.53m4.02,0c11.47-.97,20.61-10.09,21.64-21.53-11.47.97-20.61,10.09-21.64,21.53m-24.85-.25c-1.03-11.47-10.17-20.59-21.64-21.53,1.03,11.44,10.17,20.56,21.64,21.53m45.72,0c11.47-.97,20.61-10.09,21.64-21.53-11.47.94-20.64,10.06-21.64,21.53m-28.59-23.3c0,5.9,2.16,11.3,5.74,15.46,3.57-4.16,5.74-9.56,5.74-15.46s-2.16-11.3-5.74-15.46c-3.57,4.16-5.74,9.56-5.74,15.46m-17.93-1.99c11.47-.97,20.61-10.06,21.64-21.53-11.47.97-20.61,10.06-21.64,21.53m47.3,0c-1-11.44-10.17-20.56-21.64-21.53,1.03,11.44,10.17,20.56,21.64,21.53"/>
    </clipPath>
    <linearGradient id="linear-gradient" x1="-536.66" y1="950.59" x2="-535.73" y2="950.59" gradientTransform="translate(-21775.47 -12380.6) rotate(-90) scale(23.18)" gradientUnits="userSpaceOnUse">
      <stop offset="0" stop-color="#113e64"/>
      <stop offset="0" stop-color="#113e64"/>
      <stop offset="1" stop-color="#128775"/>
    </linearGradient>
  </defs>
  <g class="cls-4">
    <rect class="cls-1" x="211.5" y="10.52" width="89" height="47.07"/>
  </g>
  <path class="cls-3" d="m295.4,94.8c0,.5.14,1.05.42,1.52h-1.14v1.88h5.82v-1.88h-2.8c-.19-.39-.33-.75-.33-1.14,0-.83.58-1.16,1.41-1.16.42,0,.83.06,1.11.14l.33-1.8c-.47-.11-1.14-.19-1.75-.19-1.88,0-3.08,1.05-3.08,2.63m-68.83-17.07v8.26c0,4.29-2.08,5.76-5.43,5.76s-5.43-1.75-5.43-5.13c0-1.36.28-2.69,1-4.54l-3.55-1.22c-1.08,2.44-1.52,4.49-1.52,6.32,0,4.16,2.91,8.31,9.39,8.31,5.6,0,9.56-2.66,9.56-8.48v-9.28h-4.02Zm-7.31-4.38c0,1.22.89,2.19,2.19,2.19s2.11-.97,2.11-2.19-.83-2.16-2.11-2.16-2.19.89-2.19,2.16m15.85-6.29v16.04c0,4.29,1.97,6.4,7.59,6.4h3.3c2.69,0,4.29-.64,5.26-1.61,1.14,1.27,2.91,1.61,4.85,1.61,2.11,0,3.69-.47,4.93-1.58,1.16,1.05,2.83,1.58,4.63,1.58,2.19,0,3.96-.72,5.04-2.02.91,1.3,2.49,2.02,4.99,2.02h14.96c1.91-8.51-.17-14.66-8.56-14.66-1.14,0-3.02.17-4.68.78l.89,3.41c1.22-.3,2.3-.47,3.46-.47,5.32,0,5.9,4.35,5.4,7.31h-11.44c-2.3,0-3.66-1.05-3.66-3.46v-7.2h-4.02v7.18c0,2.38-.55,3.49-2.8,3.49-1.8,0-2.74-.75-2.74-2.3v-5.87h-4.05v4.79c0,2.49-.72,3.38-2.83,3.38-1.61,0-2.66-.61-2.66-2.3v-5.87h-4.07v4.79c0,2.49-.75,3.38-2.91,3.38h-3.3c-2.49,0-3.55-.89-3.55-2.88v-15.93h-4.05Zm60.49,22.44h4.02v-22.44h-4.02v22.44Z"/>
  <g>
    <path class="cls-3" d="m211.64,108.74c0-.33.08-.69.22-1.14l.91.22c-.08.33-.11.58-.11.72,0,.8.64,1.22,1.91,1.22,1.16,0,1.83-.25,1.83-.61,0-.55-2.02-.78-2.02-2.08,0-.39.17-.72.5-1s.78-.42,1.39-.42c.3,0,.61.03.94.11l-.17.91c-.25-.06-.5-.11-.75-.11-.55,0-.86.19-.86.47,0,.39.72.64,1.3.94.39.22.69.58.69,1.03s-.22.83-.69,1.16-1.19.5-2.13.5c-1.88.06-2.96-.58-2.96-1.94Zm1.66,3.21c0-.3.22-.53.53-.53s.53.22.53.53-.22.53-.53.53c-.28,0-.53-.22-.53-.53Zm1.36,0c0-.3.22-.53.53-.53.28,0,.53.22.53.53s-.22.53-.53.53-.53-.22-.53-.53Z"/>
    <path class="cls-3" d="m220.65,108.35c.11,0,.17.17.17.47,0,.28-.06.42-.17.42h-.89c-.17.94-.78,1.44-1.86,1.52l-.14-.83c.78-.11,1.05-.36,1.05-1.05v-3.08h.97v2.58h.86v-.03Z"/>
    <path class="cls-3" d="m223.67,108.82c0,.28-.06.42-.17.42-.58,0-1-.17-1.22-.5-.28.33-.78.5-1.5.5h-.14v-.89h.17c.66,0,.86-.22.86-.97v-1.61h.97v1.75c0,.55.3.83.89.83.08,0,.14.17.14.47Zm-1.83,1.63c0,.3-.22.53-.53.53s-.53-.22-.53-.53.22-.53.53-.53c.3-.03.53.22.53.53Zm1.36,0c0,.3-.22.53-.53.53s-.53-.22-.53-.53.22-.53.53-.53c.3-.03.53.22.53.53Z"/>
    <path class="cls-3" d="m227.68,108.35c.11,0,.17.17.17.47,0,.28-.06.42-.17.42h-4.16v-.89h2.58c.11-.72-.03-1.77-1.3-1.77-.25,0-.53.03-.83.11l-.22-.83c.36-.11.72-.19,1.14-.19,1.66,0,2.36,1,2.22,2.66h.58v.03Zm-3.35-4.16c-.06-.47.61-.69.91-.39.19.19.19.55,0,.75-.3.36-.97.11-.91-.36Z"/>
    <path class="cls-3" d="m227.68,108.35c.66,0,.8-.22.8-.97v-4.41h.97v4.63c0,1.19-.55,1.63-1.77,1.63v-.89Z"/>
    <path class="cls-3" d="m230.56,109.24v-6.26h.97v6.26h-.97Z"/>
    <path class="cls-3" d="m240.15,108.35c.11,0,.17.17.17.47,0,.28-.06.42-.17.42h-.91v-.03c-.22.97-1.08,1.47-2.27,1.47-.72,0-1.27-.19-1.66-.58s-.58-.86-.58-1.41c0-.44.11-.97.36-1.52l.86.3c-.17.47-.25.83-.25,1.11,0,.8.47,1.22,1.3,1.22.89,0,1.33-.42,1.33-1.39v-5.4h.97v5.38h.86v-.03Z"/>
    <path class="cls-3" d="m244.94,108.35c.11,0,.17.17.17.47,0,.28-.06.42-.17.42h-1.03c-.36.36-.89.53-1.55.53h-.69c-.22-.17-.42-.33-.55-.53h-.94v-.89h.55c-.03-.17-.03-.3-.03-.39,0-.55.19-1,.55-1.36.36-.36.83-.53,1.41-.53s1,.17,1.3.53c.3.36.47.8.47,1.33,0,.14-.03.28-.03.42h.53Zm-2.52.55c.69,0,1-.42,1-1,0-.53-.3-.91-.86-.91s-.91.39-.91,1c0,.33.11.64.3.91h.47Z"/>
    <path class="cls-3" d="m249.77,108.35c.11,0,.17.17.17.47,0,.28-.06.42-.17.42h-.64c-.66,0-1.27-.08-1.8-.22-.53.14-1.22.22-2.08.22h-.3v-.89h.75c.33,0,.61,0,.8-.03-.3-.42-.66-.83-1.05-1.22.06-.42.11-.72.19-.91.64-.33,1.25-.5,1.88-.5,1.03,0,1.66.47,1.66,1.22,0,.5-.22.97-.69,1.41.3,0,.47.03.55.03h.72Zm-3.44-1.52c.44.36.8.78,1.08,1.27.47-.22.78-.64.78-.94,0-.33-.3-.55-.89-.55-.33,0-.64.06-.97.19v.03Z"/>
    <path class="cls-3" d="m252.62,108.82c0,.28-.06.42-.17.42-.58,0-.97-.17-1.22-.5-.28.33-.75.5-1.47.5v-.89c.66,0,.8-.22.8-.97v-4.41h.97v4.54c0,.55.3.83.89.83.14,0,.19.17.19.47Z"/>
    <path class="cls-3" d="m252.45,108.35c.66,0,.8-.22.8-.97v-4.41h.97v4.63c0,1.19-.55,1.63-1.77,1.63v-.89Z"/>
    <path class="cls-3" d="m262.04,108.82c0,.28-.06.42-.17.42-.75,0-1.22-.11-1.44-.36-.36.17-.72.25-1.14.25-.53,0-.97-.14-1.33-.42s-.53-.66-.53-1.16.19-.91.55-1.27c.36-.33.89-.5,1.55-.5h1.58v1.86c0,.55.17.72.72.72.14,0,.19.17.19.47Zm-3.66-4.52c0-.3.22-.53.53-.53s.53.22.53.53c0,.14-.06.28-.14.36-.33.33-.97.08-.91-.36Zm1.75,2.36h-.69c-.58,0-1,.28-1,.8,0,.5.33.75,1,.75.28,0,.53-.03.66-.14v-1.41h.03Zm-.42-2.36c0-.3.22-.53.53-.53.28,0,.53.22.53.53s-.22.53-.53.53c-.28,0-.53-.25-.53-.53Z"/>
    <path class="cls-3" d="m264.92,108.82c0,.28-.06.42-.17.42-.58,0-1-.17-1.22-.5-.28.33-.78.5-1.5.5h-.17v-.89h.17c.66,0,.86-.22.86-.97v-1.61h.97v1.75c0,.55.3.83.89.83.11,0,.17.17.17.47Zm-1.83,1.63c0,.3-.22.53-.53.53s-.53-.22-.53-.53.22-.53.53-.53c.3-.03.53.22.53.53Zm1.36,0c0,.3-.22.53-.53.53s-.53-.22-.53-.53.22-.53.53-.53c.28-.03.53.22.53.53Z"/>
    <path class="cls-3" d="m267.61,108.82c0,.28-.06.42-.17.42-.58,0-1-.17-1.22-.5-.28.33-.75.5-1.47.5v-.89c.64,0,.83-.22.83-.97v-1.61h.97v1.75c0,.55.3.83.89.83.11,0,.17.17.17.47Zm-2.05-4.52c-.06-.47.61-.69.91-.39.19.19.19.55,0,.75-.3.33-.97.08-.91-.36Z"/>
    <path class="cls-3" d="m273.68,107.83c0,.44-.08.91-.22,1.41h-5.98v-.89h.72v-5.38h.97v4.21c.72-1,1.69-1.5,2.58-1.5,1.25,0,1.94.83,1.94,2.13Zm-1.03.53c.03-.17.06-.3.06-.47,0-.78-.39-1.3-1.11-1.3-.8,0-1.69.66-2.44,1.77h3.49Z"/>
    <path class="cls-3" d="m275.15,109.88c1.22.08,1.94-.19,1.91-.83-.22.08-.5.11-.8.11-1.08,0-1.75-.61-1.75-1.63,0-.5.17-.91.5-1.27.33-.36.78-.53,1.33-.53,1.14,0,1.69.69,1.69,1.69v1.61c0,1.19-.78,1.8-2.33,1.8-.22,0-.39,0-.53-.03l-.03-.91Zm1.91-1.72v-.58c0-.66-.25-1-.78-1-.47,0-.8.36-.8.86,0,.53.33.8.91.8.22,0,.44-.03.66-.08Z"/>
    <path class="cls-3" d="m285.7,108.82c0,.28-.06.42-.17.42-.75,0-1.22-.11-1.44-.36-.36.17-.72.25-1.14.25-.53,0-.97-.14-1.33-.42s-.53-.66-.53-1.16.19-.91.55-1.27c.36-.33.89-.5,1.55-.5h1.58v1.86c0,.55.17.72.72.72.14,0,.19.17.19.47Zm-3.66-4.52c0-.3.22-.53.53-.53s.53.22.53.53c0,.14-.06.28-.14.36-.33.33-.97.08-.91-.36Zm1.75,2.36h-.69c-.58,0-1,.28-1,.8,0,.5.33.75,1,.75.28,0,.53-.03.66-.14v-1.41h.03Zm-.42-2.36c0-.3.22-.53.53-.53.28,0,.53.22.53.53s-.22.53-.53.53c-.28,0-.53-.25-.53-.53Z"/>
    <path class="cls-3" d="m293.54,108.35c.11,0,.17.17.17.47,0,.28-.06.42-.17.42h-5.62c-.5,0-.86-.11-1.14-.3-.22.19-.66.3-1.27.3v-.89c.53,0,.66-.17.66-.86v-1.11h.97v1.41c0,.33.14.5.44.55.55-1.08,1.22-1.86,1.83-2.22s1.05-.44,1.5-.44c1.25,0,1.94.8,1.94,2.13,0,.19,0,.36-.03.55h.72v-.03Zm-1.66,0c.03-.17.06-.33.06-.47,0-.8-.39-1.3-1.08-1.3s-1.5.61-2.11,1.77h3.13Z"/>
    <path class="cls-3" d="m296.43,108.82c0,.28-.06.42-.17.42-.58,0-1-.17-1.22-.5-.28.33-.75.5-1.47.5v-.89c.64,0,.83-.22.83-.97v-1.61h.97v1.75c0,.55.3.83.89.83.11,0,.17.17.17.47Zm-2.08-4.52c-.06-.47.61-.69.91-.39.19.19.19.55,0,.75-.3.33-.97.08-.91-.36Z"/>
    <path class="cls-3" d="m298.7,105.69c.55,0,1,.17,1.3.5.3.33.47.75.47,1.25,0,.83-.42,1.8-2.05,1.8h-2.19v-.89h.78c-.17-.25-.25-.58-.25-.91,0-.53.19-.94.55-1.25.36-.33.83-.5,1.39-.5Zm-.14,2.66c.64,0,.97-.3.97-.89,0-.53-.33-.89-.86-.89s-.89.33-.89.94c0,.28.08.58.28.83h.5Z"/>
  </g>
</svg>