<?xml version="1.0" encoding="UTF-8"?>
<svg id="Layer_1" data-name="Layer 1" xmlns="http://www.w3.org/2000/svg" viewBox="0 0 512 123">
  <defs>
    <style>
      .cls-1 {
        fill: #dfc37a;
      }

      .cls-1, .cls-2 {
        stroke-width: 0px;
      }

      .cls-2 {
        fill: #398173;
      }
    </style>
  </defs>
  <g>
    <path class="cls-1" d="m424.38,68.99c-1.44-2.27-3.29-3.91-5.27-5.55-1.21.7-2.32,1.34-3.42,1.98-.73.42-1.43.89-2.18,1.26-1.32.65-1.93.54-2.81-.62-1.67-2.2-3.29-4.43-4.93-6.65-1.49-2.02-2.99-4.04-4.49-6.06-.41-.55-.85-1.09-.44-2.07.44.27.8.46,1.13.68,2.29,1.58,3.7,3.92,5.3,6.11,1.48,2.03,3.01,4.03,4.53,6.03.17.22.44.37.78.64.81-.43,1.65-.84,2.44-1.31,1.06-.63,2.08-1.32,3.14-1.96.91-.54,1.64-.56,2.3.12,2.02,2.1,3.98,4.24,5.95,6.39.26.28.4.67.54.91,0,.87-.51,1.28-1.04,1.64-3.48,2.35-6.96,4.69-10.44,7.03-.33.22-.68.41-.97.67-1.55,1.37-3.41,2.16-5.35,2.77-4.57,1.42-9.15,2.81-13.7,4.28-.55.18-1.1.68-1.43,1.18-.75,1.15-1.4,2.38-2.03,3.61-.44.85-1.08,1.45-2.02,1.56-2.2.25-4.41.44-6.62.64-1.37.12-2.8.04-4.11.39-.99.26-1.88,1-2.74,1.63-.87.64-1.61,1.46-2.49,2.09-.52.37-1.21.53-1.94.83-1.2-1.39-2.3-2.63-3.36-3.92-.14-.17-.05-.54-.08-.88,2-.21,2.64,1.62,4.07,2.47.93-.78,2.02-1.49,2.83-2.42,1.46-1.68,3.38-1.85,5.37-2,2.9-.21,5.79-.48,8.88-.75.69-1.24,1.48-2.48,2.09-3.81.61-1.32,1.56-2.12,2.91-2.54,4.1-1.28,8.18-2.6,12.29-3.84,2-.6,3.9-1.3,5.64-2.52,3.47-2.44,7.02-4.78,10.53-7.16.32-.22.62-.47,1.13-.86Z"/>
    <path class="cls-1" d="m345.66,29.06c.47.53.77.85,1.05,1.18.97,1.12,1.02,1.95.03,3-1.42,1.51-2.91,2.96-4.36,4.43-.45.46-.91.91-1.33,1.39-1.06,1.24-2.01,1.52-3.53,1-.6-.21-1.19-.42-2.09-.78-.58.56-1.17,1.12-1.79,1.71.53.63.74.96,1.03,1.22,1.84,1.64,3.62,3.37,5.58,4.85,1.44,1.08,1.84,2.34,1.54,3.99-.1.58-.17,1.16-.23,1.57.67,1.49,2.25,2.44,1.55,4.45-1.49-.75-2.35-1.89-3.16-3.1-.94-1.4.1-2.91-.3-4.63-.92-.81-2.04-1.76-3.13-2.74-1.44-1.28-2.89-2.53-4.29-3.86-.99-.94-1.01-1.45-.21-2.58.57-.8,1.2-1.56,1.86-2.3.61-.68,1.36-.91,2.28-.51.81.35,1.66.6,2.57.93,2.16-2.14,4.28-4.24,6.52-6.45-.45-.53-.78-.93-1.13-1.31-.46-.51-1.04-.94-1.38-1.52-.58-.95-.16-1.82.92-1.97,2.59-.34,5.18-.63,7.78-.93,1.22-.14,2.45-.28,3.68-.33.67-.03,1.4-.03,2.03.19,2.88,1.03,5.76,2.07,8.58,3.26.96.41,1.82,1.17,2.6,1.9,1.45,1.35,3.08,2.2,5.01,2.69,2.51.64,5.02,1.01,7.61.91,2.02-.08,4.05-.05,6.08.01.61.02,1.3.17,1.8.49.94.61,1.81,1.36,2.64,2.14.3.28.38.79.69,1.49-.76-.05-1.2,0-1.57-.13-.54-.21-1.08-.5-1.54-.87-1.21-.97-2.52-1.4-4.1-1.34-2.37.1-4.75-.06-7.11.05-2.65.12-5.07-.75-7.47-1.59-1.21-.42-2.27-1.36-3.29-2.21-1.14-.96-2.27-1.84-3.73-2.32-1.97-.64-3.89-1.43-5.81-2.21-1.18-.47-2.34-.56-3.6-.35-2.43.39-4.89.61-7.33.91-.23.03-.45.13-.92.27Z"/>
  </g>
  <g>
    <path class="cls-2" d="m367.67,76.56c-1.38.93-2.71,1.98-4.16,2.78-4.78,2.62-9.72,2.9-14.62.43-3.55-1.79-5.28-4.88-5.61-8.82-.27-3.3.09-6.49,1.47-9.53.91-2,2.2-3.73,3.72-5.31.61-.63,1.23-1.26,1.85-1.89-.18-.2-.25-.35-.37-.41-3.42-1.53-3.4-5.82-1.94-8.38,1.66-2.9,3.9-5.33,6.69-7.22,1.13-.76,2.4-1.19,3.77-1.12,2.55.12,3.99,2.31,2.98,4.55-.24.54-.74.98-1.12,1.47-.51-.2-.88-.25-1.12-.46-1.19-.98-2.59-.88-3.97-.74-1.4.14-2.58,1.33-2.71,2.56-.15,1.47.62,2.6,2.2,3.09,1.97.61,3.88.52,5.66-.68,1.1-.75,2.24-1.46,3.38-2.13.53-.31,1.14-.51,1.65-.73.93,1,.99,1.44.18,2.38-1.16,1.36-2.43,2.58-4.04,3.44-4.03,2.14-7.88,4.6-10.9,8.06-2.54,2.91-3.38,6.3-1.75,10.03,1.14,2.61,3.36,3.73,5.96,4.04,2.49.3,5.03.36,7.52-.25,3.76-.93,6.91-2.86,9.42-5.81.69-.81,1.41-1.6,2.12-2.41.76.43.64,1.02.54,1.51-.37,1.74-.76,3.5-1.83,4.97-1.24,1.72-2.57,3.37-3.85,5.06-.39.5-.76,1.02-1.14,1.53h0Z"/>
    <path class="cls-2" d="m376.56,70.04c1.22-1.79,2.42-3.6,3.68-5.36,1.25-1.75,2.75-3.23,4.71-4.2,1.53-.75,3.13-1.19,4.85-1.16,1.53.03,3.06.02,4.6.04,1.72.02,3.06-.64,3.96-2.14.35-.59.69-1.23,1.55-1.22.64.23.75.68.55,1.3-.99,3.08-2.2,6.05-4.39,8.5-1.29,1.44-2.92,2.4-4.89,2.49-1.81.09-3.63.04-5.45,0-2.21-.06-3.88.89-5.16,2.62-2.93,3.98-5.8,7.99-8.78,11.94-1.82,2.41-3.83,4.66-6.29,6.45-2.05,1.49-4.29,2.63-6.73,3.36-.31.09-.65.09-.98.13-.18-.7.31-.88.66-1.06,3.67-1.78,6.2-4.83,8.77-7.83,3.36-3.92,6-8.33,8.79-12.65.24-.37.38-.8.56-1.2h0Z"/>
    <path class="cls-2" d="m399.51,47.89c-.75-.58-1.37-1.06-2.09-1.62-.99.74-1.96,1.47-2.94,2.21-1.86-.53-2.72-2.14-4.19-3.31.75-.95,1.39-1.79,2.06-2.6.31-.38.66-.73,1.03-1.07.77-.71,1.25-.74,2.1-.18.25.16.47.36.72.53.2.14.41.27.66.43.92-.74,1.83-1.47,2.72-2.18,1.64.56,2.73,1.63,3.68,2.83.26.34.35,1.16.12,1.48-1.01,1.38-2.17,2.66-3.86,3.49Z"/>
    <path class="cls-2" d="m381.75,78.93c1.41-1.56,2.65-2.94,4-4.44,1.94.83,3.29,2.12,4.33,3.77-.96,2.08-2.67,3.07-4.25,4.27-1.66-.87-2.7-2.24-4.08-3.6Z"/>
  </g>
  <g>
    <path class="cls-2" d="m91.15,56.56c-.9,0-1.68-.05-2.34-.15-.66-.1-1.21-.24-1.66-.42s-.82-.4-1.1-.65c-.28-.25-.49-.53-.64-.83-.15-.3-.25-.62-.3-.97-.05-.35-.08-.71-.08-1.08,0-.14,0-.31.02-.5.01-.19.03-.38.05-.58.02-.2.05-.4.07-.6.03-.2.05-.38.08-.55l1.92.18c-.04.26-.08.53-.11.79-.04.26-.06.53-.06.79,0,.45.06.84.17,1.16s.36.58.73.78.92.35,1.63.45c.72.09,1.68.14,2.88.14h9.13v-6.7h2.03v8.73h-12.43Zm.97-12.79c0-.17.03-.32.1-.47.06-.15.15-.27.25-.38.11-.11.23-.2.38-.26.15-.06.3-.1.47-.1s.32.03.47.1c.15.06.27.15.38.26.11.11.2.24.26.38.06.15.1.3.1.47s-.03.32-.1.47c-.06.15-.15.27-.26.38-.11.11-.24.19-.38.25-.15.06-.3.1-.47.1-.34,0-.62-.11-.85-.34-.23-.23-.34-.51-.34-.85Zm3.22,0c0-.17.03-.32.1-.47.06-.15.15-.27.25-.38.11-.11.23-.2.38-.26.15-.06.3-.1.47-.1s.32.03.47.1c.15.06.27.15.38.26.11.11.2.24.26.38.06.15.1.3.1.47s-.03.32-.1.47c-.06.15-.15.27-.26.38-.11.11-.24.19-.38.25-.15.06-.3.1-.47.1-.34,0-.62-.11-.85-.34-.23-.23-.34-.51-.34-.85Z"/>
    <path class="cls-2" d="m107.19,40.34h2.03v12.12c0,.41.02.74.05,1.01s.09.48.18.63c.09.15.2.26.35.33.15.06.34.1.57.1h.76c.27,0,.47.05.61.14s.2.24.2.46v.78c0,.14-.02.26-.06.34-.04.09-.1.15-.18.2-.08.05-.16.08-.26.09-.1.02-.2.02-.32.02h-1.06c-.5,0-.93-.08-1.29-.25-.36-.17-.66-.4-.9-.69s-.41-.64-.53-1.04c-.11-.4-.17-.83-.17-1.3v-12.95Z"/>
    <path class="cls-2" d="m120.04,49.71c-.15-.05-.32-.09-.52-.13-.2-.04-.4-.08-.6-.1-.21-.03-.41-.05-.62-.07-.2-.02-.38-.03-.54-.03-.26,0-.52.04-.79.11s-.52.2-.75.38-.41.42-.56.72c-.15.3-.22.68-.22,1.13,0,.41.07.78.21,1.12.14.34.35.64.61.89.26.25.58.44.94.58.37.14.77.21,1.21.21h2.73v2.03h-10.02c-.27,0-.47-.05-.61-.14s-.2-.24-.2-.46v-.78c0-.14.02-.26.06-.34.04-.09.1-.15.18-.2.08-.05.16-.08.26-.09.1-.01.2-.02.32-.02h3.02c-.2-.43-.35-.86-.45-1.28-.1-.43-.15-.84-.15-1.25,0-.64.11-1.24.33-1.81.22-.57.53-1.07.92-1.49.4-.43.87-.76,1.42-1.01s1.16-.37,1.82-.37c.16,0,.34,0,.54.02.2.02.41.03.62.06.21.02.41.05.59.08.18.03.33.07.44.12l-.2,2.12Z"/>
    <path class="cls-2" d="m122.07,59.34c.81-.11,1.45-.27,1.93-.48.48-.21.84-.49,1.09-.82.25-.34.41-.73.49-1.18.08-.45.11-.96.11-1.54v-7.49h2.03v6.7h2.65c.27,0,.47.05.61.14s.2.24.2.46v.78c0,.14-.02.26-.06.34-.04.09-.1.15-.18.2-.08.05-.16.08-.26.09-.1.02-.2.02-.32.02h-2.77c-.11.79-.3,1.46-.57,2-.27.55-.62,1-1.06,1.37-.44.37-.97.66-1.58.86-.61.21-1.32.37-2.12.48l-.2-1.94Z"/>
    <path class="cls-2" d="m135.47,53.83c.34.23.74.41,1.2.53.46.12,1.01.17,1.66.17h.09c.27,0,.47.05.61.14s.2.24.2.46v.78c0,.14-.02.26-.06.34-.04.09-.1.15-.18.2-.08.05-.16.08-.26.09-.1.02-.2.02-.32.02h-.11c-.78,0-1.43-.1-1.95-.3s-.96-.46-1.33-.77c-.19.3-.44.56-.75.76-.31.21-.71.31-1.19.31h-2.7c-.27,0-.47-.05-.61-.14s-.2-.24-.2-.46v-.78c0-.14.02-.26.06-.34.04-.09.1-.15.18-.2.08-.05.16-.08.26-.09.1-.01.2-.02.32-.02h2.28c.24,0,.43-.11.57-.32.14-.21.21-.53.21-.96v-5.41h2.03v5.99Zm-2.24,6.12c0-.17.03-.32.1-.47.06-.15.15-.28.25-.38.11-.11.23-.2.38-.26.15-.06.3-.1.47-.1s.32.03.47.1c.15.06.27.15.38.26s.2.24.26.38c.06.15.1.3.1.47s-.03.32-.1.47c-.06.15-.15.27-.26.38-.11.11-.24.19-.38.25-.15.06-.3.1-.47.1-.34,0-.62-.11-.85-.34s-.34-.51-.34-.85Z"/>
    <path class="cls-2" d="m143.52,53.83c.34.23.74.41,1.2.53.46.12,1.01.17,1.66.17h.09c.27,0,.47.05.61.14s.2.24.2.46v.78c0,.14-.02.26-.06.34-.04.09-.1.15-.18.2-.08.05-.16.08-.26.09-.1.02-.2.02-.32.02h-.11c-.78,0-1.43-.1-1.95-.3s-.96-.46-1.33-.77c-.19.3-.44.56-.75.76-.31.21-.71.31-1.19.31h-2.7c-.27,0-.47-.05-.61-.14s-.2-.24-.2-.46v-.78c0-.14.02-.26.06-.34.04-.09.1-.15.18-.2.08-.05.16-.08.26-.09.1-.01.2-.02.32-.02h2.28c.24,0,.43-.11.57-.32.14-.21.21-.53.21-.96v-5.41h2.03v5.99Zm-3.89-10.05c0-.17.03-.32.1-.47.06-.15.15-.27.25-.38.11-.11.23-.2.38-.26.15-.06.3-.1.47-.1s.32.03.47.1c.15.06.27.15.38.26.11.11.2.24.26.38.06.15.1.3.1.47s-.03.32-.1.47c-.06.15-.15.27-.26.38-.11.11-.24.19-.38.25-.15.06-.3.1-.47.1-.34,0-.62-.11-.85-.34-.23-.23-.34-.51-.34-.85Zm3.22,0c0-.17.03-.32.1-.47.06-.15.15-.27.25-.38.11-.11.23-.2.38-.26.15-.06.3-.1.47-.1s.32.03.47.1c.15.06.27.15.38.26s.2.24.26.38c.06.15.1.3.1.47s-.03.32-.1.47c-.06.15-.15.27-.26.38-.11.11-.24.19-.38.25-.15.06-.3.1-.47.1-.34,0-.62-.11-.85-.34-.23-.23-.34-.51-.34-.85Z"/>
    <path class="cls-2" d="m151.58,53.8c.35.24.75.42,1.22.54.47.12,1.02.18,1.67.18h.09c.27,0,.47.05.61.14s.2.24.2.46v.78c0,.14-.02.26-.06.34s-.1.15-.17.2c-.08.05-.16.08-.26.09-.1.02-.2.02-.32.02h-.11c-.79,0-1.45-.1-1.97-.3-.52-.2-.97-.46-1.34-.78-.18.31-.43.57-.75.77-.32.21-.72.31-1.21.31h-2.7c-.27,0-.47-.05-.61-.14s-.2-.24-.2-.46v-.78c0-.14.02-.26.06-.34.04-.09.1-.15.18-.2.08-.05.16-.08.26-.09.1-.01.2-.02.32-.02h2.28c.24,0,.43-.11.57-.32.14-.21.21-.53.21-.96v-12.92h2.03v13.48Z"/>
    <path class="cls-2" d="m154.57,56.56c-.27,0-.47-.05-.61-.14s-.2-.24-.2-.46v-.78c0-.14.02-.26.06-.34.04-.09.1-.15.18-.2.08-.05.16-.08.26-.09.1-.01.2-.02.32-.02h3.07v-14.2h2.03v16.23h-5.11Z"/>
    <path class="cls-2" d="m177.65,52.94c0,.3.02.55.05.76.03.2.11.37.21.49.11.12.26.21.46.26.2.05.46.08.78.08h.79c.27,0,.47.05.61.14s.2.24.2.46v.78c0,.14-.02.26-.06.34s-.1.15-.17.2c-.08.05-.16.08-.26.09-.1.02-.2.02-.32.02h-1.3c-.5,0-.93-.05-1.28-.14-.35-.09-.64-.22-.87-.37s-.41-.34-.53-.54c-.12-.21-.22-.42-.28-.65-.56.34-1.09.58-1.59.72-.5.14-1.02.21-1.54.21-.45,0-.91-.06-1.37-.19-.46-.13-.88-.33-1.25-.6-.37-.27-.68-.63-.92-1.06-.24-.43-.36-.95-.36-1.55,0-.56.12-1.07.35-1.52.23-.45.54-.85.92-1.2.38-.35.81-.66,1.3-.93.49-.26.99-.5,1.51-.69s1.02-.37,1.52-.51c.5-.14.95-.27,1.36-.38v-1.2h2.03v6.99Zm-2.03-3.98c-.75.14-1.44.31-2.06.51-.62.2-1.15.42-1.59.68-.44.26-.79.55-1.03.88-.24.32-.37.69-.37,1.1,0,.33.07.61.21.84s.32.41.55.54.48.23.76.29c.28.06.56.09.85.09.53,0,1.03-.07,1.47-.2.45-.14.85-.32,1.21-.56v-4.16Zm-3.63-5.76c0-.17.03-.32.1-.47.06-.15.15-.27.25-.38.11-.11.23-.2.38-.26.15-.06.3-.1.47-.1s.32.03.47.1c.15.06.27.15.38.26.11.11.2.24.26.38.06.15.1.3.1.47s-.03.32-.1.47c-.06.15-.15.27-.26.38-.11.11-.24.19-.38.25-.15.06-.3.1-.47.1-.34,0-.62-.11-.85-.34-.23-.23-.34-.51-.34-.85Zm3.22,0c0-.17.03-.32.1-.47.06-.15.15-.27.25-.38.11-.11.23-.2.38-.26.15-.06.3-.1.47-.1s.32.03.47.1c.15.06.27.15.38.26s.2.24.26.38c.06.15.1.3.1.47s-.03.32-.1.47c-.06.15-.15.27-.26.38-.11.11-.24.19-.38.25-.15.06-.3.1-.47.1-.34,0-.62-.11-.85-.34-.23-.23-.34-.51-.34-.85Z"/>
    <path class="cls-2" d="m185.03,53.83c.34.23.74.41,1.2.53.46.12,1.01.17,1.66.17h.09c.27,0,.47.05.61.14s.2.24.2.46v.78c0,.14-.02.26-.06.34-.04.09-.1.15-.18.2-.08.05-.16.08-.26.09-.1.02-.2.02-.32.02h-.11c-.78,0-1.43-.1-1.95-.3s-.96-.46-1.33-.77c-.19.3-.44.56-.75.76-.31.21-.71.31-1.19.31h-2.7c-.27,0-.47-.05-.61-.14s-.2-.24-.2-.46v-.78c0-.14.02-.26.06-.34.04-.09.1-.15.18-.2.08-.05.16-.08.26-.09.1-.01.2-.02.32-.02h2.28c.24,0,.43-.11.57-.32.14-.21.21-.53.21-.96v-5.41h2.03v5.99Zm-3.95,6.12c0-.17.03-.32.1-.47.06-.15.15-.28.25-.38.11-.11.23-.2.38-.26.15-.06.3-.1.47-.1s.32.03.47.1c.15.06.27.15.38.26s.2.24.26.38c.06.15.1.3.1.47s-.03.32-.1.47c-.06.15-.15.27-.26.38-.11.11-.24.19-.38.25-.15.06-.3.1-.47.1-.34,0-.62-.11-.85-.34s-.34-.51-.34-.85Zm3.22,0c0-.17.03-.32.1-.47.06-.15.15-.28.25-.38.11-.11.23-.2.38-.26.15-.06.3-.1.47-.1s.32.03.47.1c.15.06.27.15.38.26.11.11.2.24.26.38.06.15.1.3.1.47s-.03.32-.1.47c-.06.15-.15.27-.26.38-.11.11-.24.19-.38.25-.15.06-.3.1-.47.1-.34,0-.62-.11-.85-.34-.23-.23-.34-.51-.34-.85Z"/>
    <path class="cls-2" d="m193.08,53.83c.34.23.74.41,1.2.53.46.12,1.01.17,1.66.17h.09c.27,0,.47.05.61.14s.2.24.2.46v.78c0,.14-.02.26-.06.34-.04.09-.1.15-.18.2-.08.05-.16.08-.26.09-.1.02-.2.02-.32.02h-.11c-.78,0-1.43-.1-1.95-.3s-.96-.46-1.33-.77c-.19.3-.44.56-.75.76-.31.21-.71.31-1.19.31h-2.7c-.27,0-.47-.05-.61-.14s-.2-.24-.2-.46v-.78c0-.14.02-.26.06-.34.04-.09.1-.15.18-.2.08-.05.16-.08.26-.09.1-.01.2-.02.32-.02h2.28c.24,0,.43-.11.57-.32.14-.21.21-.53.21-.96v-5.41h2.03v5.99Zm-2.3-10.05c0-.17.03-.32.1-.47.06-.15.15-.27.25-.38.11-.11.23-.2.38-.26.15-.06.3-.1.47-.1s.32.03.47.1c.15.06.27.15.38.26.11.11.2.24.26.38.06.15.1.3.1.47s-.03.32-.1.47c-.06.15-.15.27-.26.38-.11.11-.24.19-.38.25-.15.06-.3.1-.47.1-.34,0-.62-.11-.85-.34-.23-.23-.34-.51-.34-.85Z"/>
    <path class="cls-2" d="m196.04,56.56c-.27,0-.47-.05-.61-.14s-.2-.24-.2-.46v-.78c0-.14.02-.26.06-.34.04-.09.1-.15.18-.2.08-.05.16-.08.26-.09.1-.01.2-.02.32-.02h2.72c.11-.35.24-.72.42-1.14.17-.41.38-.84.62-1.28v-11.78h2.03v8.95c.32-.32.65-.62,1.01-.9.35-.28.73-.52,1.12-.72.4-.2.81-.36,1.25-.47.44-.11.89-.17,1.37-.17.87,0,1.61.14,2.22.43.61.29,1.12.68,1.51,1.19.4.5.69,1.1.87,1.77.18.68.28,1.41.28,2.2v3.96h-15.42Zm13.39-3.74c0-.73-.08-1.34-.24-1.83-.16-.49-.38-.88-.66-1.18-.28-.3-.61-.51-.98-.63-.38-.12-.78-.19-1.21-.19-.47,0-.91.08-1.34.24-.43.16-.83.38-1.21.66-.38.28-.72.6-1.04.97-.32.37-.61.75-.86,1.16-.26.41-.48.83-.67,1.26-.19.43-.34.84-.44,1.24h8.66v-1.71Z"/>
    <path class="cls-2" d="m219.81,56.56c-.93,0-1.71-.13-2.34-.4-.64-.26-1.15-.6-1.54-1.02-.39-.42-.67-.89-.85-1.42-.17-.53-.26-1.05-.26-1.57,0-.66.11-1.27.34-1.84.23-.57.55-1.07.97-1.5s.93-.76,1.52-1c.59-.24,1.26-.36,2-.36.29,0,.6.03.93.08.32.06.64.16.96.31.31.15.61.34.89.59.28.25.52.56.73.94s.38.84.5,1.37c.12.53.19,1.15.19,1.85v1.93h2.44c.27,0,.47.05.61.14s.2.24.2.46v.78c0,.14-.02.26-.06.34-.04.09-.1.15-.18.2-.08.05-.16.08-.26.09-.1.02-.2.02-.32.02h-2.59c-.2.82-.52,1.52-.95,2.09-.44.57-.97,1.04-1.6,1.42-.63.37-1.35.66-2.15.87-.8.21-1.66.36-2.57.45l-.21-1.95c1.54-.11,2.77-.41,3.7-.9.93-.49,1.52-1.15,1.76-1.97h-1.85Zm2-2.03v-1.28c0-.81-.07-1.46-.22-1.97-.15-.51-.34-.9-.58-1.19-.24-.28-.51-.47-.81-.58-.3-.1-.61-.15-.92-.15-.35,0-.67.06-.97.19-.3.13-.56.31-.78.54-.22.23-.4.51-.53.84-.13.33-.19.69-.19,1.08,0,.34.05.66.16.97.11.31.28.57.53.8.24.23.55.41.93.54.38.14.84.2,1.38.2h2.01Z"/>
    <path class="cls-2" d="m226.27,56.56c-.27,0-.47-.05-.61-.14s-.2-.24-.2-.46v-.78c0-.14.02-.26.06-.34.04-.09.1-.15.18-.2.08-.05.16-.08.26-.09.1-.01.2-.02.32-.02h3.07v-14.2h2.03v16.23h-5.11Z"/>
    <path class="cls-2" d="m235.22,40.34h2.03v16.23h-2.03v-16.23Z"/>
    <path class="cls-2" d="m255.46,52.94c0,.3.02.55.05.76.03.2.11.37.21.49.11.12.26.21.46.26.2.05.46.08.78.08h.79c.27,0,.47.05.61.14s.2.24.2.46v.78c0,.14-.02.26-.06.34s-.1.15-.17.2c-.08.05-.16.08-.26.09-.1.02-.2.02-.32.02h-1.3c-.5,0-.93-.05-1.28-.14-.35-.09-.64-.22-.87-.37s-.41-.34-.53-.54c-.12-.21-.22-.42-.28-.65-.56.34-1.09.58-1.59.72-.5.14-1.02.21-1.54.21-.45,0-.91-.06-1.37-.19-.46-.13-.88-.33-1.25-.6-.37-.27-.68-.63-.92-1.06-.24-.43-.36-.95-.36-1.55,0-.56.12-1.07.35-1.52.23-.45.54-.85.92-1.2.38-.35.81-.66,1.3-.93.49-.26.99-.5,1.51-.69s1.02-.37,1.52-.51c.5-.14.95-.27,1.36-.38v-1.2h2.03v6.99Zm-2.03-3.98c-.75.14-1.44.31-2.06.51-.62.2-1.15.42-1.59.68-.44.26-.79.55-1.03.88-.24.32-.37.69-.37,1.1,0,.33.07.61.21.84s.32.41.55.54.48.23.76.29c.28.06.56.09.85.09.53,0,1.03-.07,1.47-.2.45-.14.85-.32,1.21-.56v-4.16Zm-3.63-5.76c0-.17.03-.32.1-.47.06-.15.15-.27.25-.38.11-.11.23-.2.38-.26.15-.06.3-.1.47-.1s.32.03.47.1c.15.06.27.15.38.26.11.11.2.24.26.38.06.15.1.3.1.47s-.03.32-.1.47c-.06.15-.15.27-.26.38-.11.11-.24.19-.38.25-.15.06-.3.1-.47.1-.34,0-.62-.11-.85-.34-.23-.23-.34-.51-.34-.85Zm3.22,0c0-.17.03-.32.1-.47.06-.15.15-.27.25-.38.11-.11.23-.2.38-.26.15-.06.3-.1.47-.1s.32.03.47.1c.15.06.27.15.38.26s.2.24.26.38c.06.15.1.3.1.47s-.03.32-.1.47c-.06.15-.15.27-.26.38-.11.11-.24.19-.38.25-.15.06-.3.1-.47.1-.34,0-.62-.11-.85-.34-.23-.23-.34-.51-.34-.85Z"/>
    <path class="cls-2" d="m262.8,53.72c.39.29.84.5,1.35.62.5.12,1.06.18,1.66.18.14-.44.34-.94.58-1.48s.53-1.09.87-1.65c.34-.56.73-1.1,1.16-1.63.44-.53.92-1,1.46-1.41.53-.41,1.12-.74,1.74-.99s1.3-.37,2.01-.37c.87,0,1.61.14,2.22.43.61.29,1.12.68,1.51,1.19.4.5.69,1.1.87,1.77s.28,1.41.28,2.2v1.93h2.33c.27,0,.47.05.61.14s.2.24.2.46v.78c0,.14-.02.26-.06.34s-.1.15-.17.2c-.08.05-.16.08-.26.09-.1.02-.2.02-.32.02h-15.05c-.31,0-.62-.02-.92-.06-.3-.04-.6-.11-.9-.2s-.57-.21-.84-.35c-.27-.14-.51-.32-.73-.52-.19.32-.44.58-.77.8-.32.22-.73.33-1.23.33h-2.67c-.27,0-.47-.05-.61-.14s-.2-.24-.2-.46v-.78c0-.14.02-.26.06-.34.04-.09.1-.15.18-.2.08-.05.16-.08.26-.09.1-.01.2-.02.32-.02h2.25c.24,0,.43-.11.57-.32.14-.21.21-.53.21-.96v-3.23h2.03v3.71Zm13.68-.9c0-.73-.08-1.34-.24-1.83-.16-.49-.38-.88-.66-1.18-.28-.3-.61-.51-.98-.63-.38-.12-.78-.19-1.21-.19-.47,0-.91.08-1.34.24-.43.16-.83.38-1.21.66-.38.28-.72.6-1.04.97-.32.37-.61.75-.86,1.16-.26.41-.48.83-.67,1.26-.19.43-.34.84-.44,1.24h8.66v-1.71Z"/>
    <path class="cls-2" d="m285.94,53.83c.34.23.74.41,1.2.53.46.12,1.01.17,1.66.17h.09c.27,0,.47.05.61.14s.2.24.2.46v.78c0,.14-.02.26-.06.34-.04.09-.1.15-.18.2-.08.05-.16.08-.26.09-.1.02-.2.02-.32.02h-.11c-.78,0-1.43-.1-1.95-.3s-.96-.46-1.33-.77c-.19.3-.44.56-.75.76-.31.21-.71.31-1.19.31h-2.7c-.27,0-.47-.05-.61-.14s-.2-.24-.2-.46v-.78c0-.14.02-.26.06-.34.04-.09.1-.15.18-.2.08-.05.16-.08.26-.09.1-.01.2-.02.32-.02h2.28c.24,0,.43-.11.57-.32.14-.21.21-.53.21-.96v-5.41h2.03v5.99Zm-2.3-10.05c0-.17.03-.32.1-.47.06-.15.15-.27.25-.38.11-.11.23-.2.38-.26.15-.06.3-.1.47-.1s.32.03.47.1c.15.06.27.15.38.26.11.11.2.24.26.38.06.15.1.3.1.47s-.03.32-.1.47c-.06.15-.15.27-.26.38-.11.11-.24.19-.38.25-.15.06-.3.1-.47.1-.34,0-.62-.11-.85-.34-.23-.23-.34-.51-.34-.85Z"/>
    <path class="cls-2" d="m292.37,55c-.16.29-.33.54-.5.74-.18.2-.37.36-.58.48-.21.12-.44.21-.68.26-.25.05-.53.08-.84.08h-.88c-.27,0-.47-.05-.61-.14s-.2-.24-.2-.46v-.78c0-.14.02-.26.06-.34.04-.09.1-.15.18-.2.08-.05.16-.08.26-.09.1-.01.2-.02.32-.02h.53c.47,0,.88-.11,1.25-.32.37-.21.61-.56.74-1.02.22-.81.46-1.5.73-2.08s.56-1.08.85-1.49.6-.74.91-.99c.31-.25.61-.45.91-.59.3-.14.59-.24.86-.29s.53-.07.76-.07c.5,0,.96.07,1.38.21.41.14.78.34,1.11.58.32.24.61.53.85.85.24.32.44.66.6,1.01.16.35.27.71.35,1.07.08.36.11.7.11,1.03,0,.41-.08.85-.23,1.32.35.26.77.46,1.25.59.48.13,1.06.2,1.73.2h.09c.27,0,.47.05.61.14s.2.24.2.46v.78c0,.14-.02.26-.06.34-.04.09-.1.15-.18.2-.08.05-.16.08-.26.09-.1.02-.2.02-.32.02h-.11c-.47,0-.89-.04-1.26-.11-.37-.08-.71-.18-1-.31s-.56-.29-.79-.46c-.23-.18-.44-.37-.63-.57-.36.45-.82.83-1.38,1.12s-1.24.45-2.04.45c-.49,0-.95-.05-1.37-.15-.43-.1-.81-.23-1.15-.39s-.65-.34-.91-.54c-.27-.2-.49-.4-.66-.59Zm6.64-2.35c0-.28-.05-.59-.15-.95-.1-.35-.26-.69-.47-1.01-.21-.32-.49-.58-.82-.8-.33-.21-.73-.32-1.19-.32s-.84.12-1.2.35c-.37.23-.69.54-.97.92-.28.38-.51.82-.7,1.3-.19.49-.32.99-.41,1.51.08.11.22.22.44.33.22.12.47.22.76.32.29.09.6.17.93.23.33.06.64.09.94.09.43,0,.82-.03,1.17-.09.35-.06.65-.16.9-.31.25-.15.44-.35.57-.6.13-.26.2-.58.2-.98Z"/>
    <path class="cls-2" d="m303.69,56.56c-.27,0-.47-.05-.61-.14s-.2-.24-.2-.46v-.78c0-.14.02-.26.06-.34.04-.09.1-.15.18-.2.08-.05.16-.08.26-.09.1-.01.2-.02.32-.02h3.07v-14.2h2.03v16.23h-5.11Z"/>
    <path class="cls-2" d="m312.64,40.34h2.03v16.23h-2.03v-16.23Z"/>
  </g>
  <g>
    <path class="cls-1" d="m85.03,68.92h2.44l5.52,10.07h.03v-10.07h1.78v12.51h-2.29l-5.66-10.29h-.03v10.29h-1.79v-12.51Z"/>
    <path class="cls-1" d="m98.26,72.94c.42-.25.88-.46,1.38-.62.5-.16,1.04-.24,1.63-.24,1.31,0,2.25.32,2.82.95.57.64.86,1.58.86,2.83v3.78c0,.52,0,.92.02,1.19.01.27.03.47.05.6h-1.57v-1.18h-.03c-.1.14-.23.29-.39.45-.16.16-.36.31-.6.45s-.51.26-.81.35-.65.14-1.03.14c-.49,0-.94-.05-1.35-.16-.41-.11-.77-.28-1.06-.51s-.53-.53-.69-.89c-.16-.36-.24-.79-.24-1.29,0-.29.04-.55.11-.79.07-.24.17-.45.31-.65s.29-.36.47-.52c.18-.15.38-.29.59-.4.42-.23.88-.4,1.38-.5.5-.1.96-.16,1.4-.16h.89c.13,0,.27,0,.42,0,.15,0,.3.01.47.03,0-.79-.16-1.38-.49-1.78-.33-.4-.92-.6-1.77-.6-.48,0-.95.08-1.42.25-.47.17-.88.39-1.23.68l-.09-1.43Zm4.99,4.14c-.17,0-.35,0-.53-.02-.18-.01-.36-.02-.53-.02-.12,0-.25,0-.39.01-.15,0-.31.02-.49.03-.35.02-.7.1-1.05.23-.34.11-.63.29-.87.52s-.37.56-.37.96c0,.24.05.45.16.63.1.18.24.34.41.46s.35.22.55.29c.2.07.4.1.59.1.83,0,1.46-.23,1.89-.69.43-.47.65-1.04.65-1.71v-.8Z"/>
    <path class="cls-1" d="m112.64,73.65h-2.42v5c0,.54.14.95.42,1.22.29.27.62.41,1,.41.26,0,.49-.03.67-.1.19-.07.34-.14.47-.22v1.43c-.19.06-.41.12-.65.17-.24.06-.5.08-.78.08-.87,0-1.56-.21-2.06-.64-.5-.43-.75-1.11-.75-2.02v-5.34h-2.06v-1.36h2.06v-2.12l1.68-.54v2.66h2.42v1.36Z"/>
    <path class="cls-1" d="m116.76,70.25h-1.9v-1.9h1.9v1.9Zm-1.79,2.05h1.69v9.13h-1.69v-9.13Z"/>
    <path class="cls-1" d="m119.13,76.86c0-.69.11-1.33.34-1.92.22-.59.54-1.09.94-1.51.41-.42.9-.75,1.47-.99.57-.24,1.21-.36,1.91-.36s1.33.12,1.9.36c.57.24,1.06.57,1.46.99.41.42.72.93.94,1.51.22.59.33,1.23.33,1.92,0,.65-.11,1.27-.34,1.85-.23.58-.55,1.09-.95,1.52-.41.43-.9.78-1.47,1.03-.57.25-1.19.38-1.88.38s-1.32-.13-1.89-.38c-.57-.25-1.06-.6-1.47-1.03-.41-.43-.73-.94-.96-1.52-.23-.58-.34-1.2-.34-1.85Zm1.79,0c0,.4.06.81.17,1.22s.29.78.52,1.1c.23.33.53.59.89.8.36.2.79.31,1.29.31s.91-.1,1.27-.31.65-.47.88-.8c.23-.33.4-.69.52-1.1s.17-.81.17-1.22c0-.44-.06-.86-.19-1.27-.13-.41-.31-.77-.56-1.09s-.54-.58-.9-.77c-.35-.19-.75-.29-1.19-.29s-.85.1-1.21.29c-.36.19-.66.45-.9.77s-.43.69-.56,1.09-.2.83-.2,1.27Z"/>
    <path class="cls-1" d="m130.68,72.3h1.63v1.44h.03c.26-.53.66-.94,1.2-1.22.55-.29,1.15-.44,1.79-.44,1.18,0,2.04.35,2.6,1.04.55.69.82,1.65.82,2.88v5.43h-1.68v-4.73c0-1.07-.14-1.87-.41-2.4s-.78-.82-1.52-.86c-.48,0-.9.09-1.25.28-.35.18-.64.44-.87.77s-.4.73-.5,1.19c-.11.46-.16.97-.16,1.52v4.22h-1.68v-9.13Z"/>
    <path class="cls-1" d="m142.05,72.94c.42-.25.88-.46,1.38-.62s1.04-.24,1.63-.24c1.31,0,2.25.32,2.82.95.57.64.86,1.58.86,2.83v3.78c0,.52,0,.92.02,1.19s.03.47.05.6h-1.57v-1.18h-.03c-.1.14-.23.29-.39.45s-.36.31-.6.45c-.24.14-.51.26-.81.35-.31.09-.65.14-1.03.14-.49,0-.94-.05-1.35-.16-.41-.11-.77-.28-1.06-.51s-.53-.53-.69-.89c-.16-.36-.24-.79-.24-1.29,0-.29.04-.55.11-.79.07-.24.17-.45.31-.65.13-.19.29-.36.47-.52s.38-.29.59-.4c.42-.23.88-.4,1.38-.5.5-.1.96-.16,1.4-.16h.89c.13,0,.27,0,.42,0s.3.01.47.03c0-.79-.16-1.38-.49-1.78-.33-.4-.92-.6-1.77-.6-.48,0-.95.08-1.42.25-.47.17-.88.39-1.23.68l-.09-1.43Zm4.99,4.14c-.17,0-.35,0-.53-.02s-.36-.02-.53-.02c-.12,0-.25,0-.39.01-.15,0-.31.02-.49.03-.35.02-.7.1-1.05.23-.34.11-.63.29-.87.52s-.37.56-.37.96c0,.24.05.45.16.63.1.18.24.34.41.46.17.13.35.22.55.29.2.07.4.1.59.1.83,0,1.46-.23,1.89-.69.43-.47.65-1.04.65-1.71v-.8Z"/>
    <path class="cls-1" d="m151.8,67.99h1.69v13.44h-1.69v-13.44Z"/>
    <path class="cls-1" d="m161.4,68.92h3.69c.93,0,1.79.14,2.6.42s1.51.68,2.12,1.21c.6.53,1.08,1.17,1.43,1.93.35.76.52,1.62.52,2.58,0,1.05-.15,1.97-.46,2.77-.31.8-.75,1.46-1.33,1.99s-1.28.93-2.1,1.2-1.75.4-2.77.4h-3.69v-12.51Zm1.79,10.93h1.88c.77,0,1.45-.09,2.05-.28.59-.19,1.09-.48,1.5-.87s.71-.88.92-1.47c.21-.59.31-1.29.31-2.1,0-.73-.12-1.38-.35-1.96-.23-.57-.56-1.06-.97-1.46-.41-.4-.9-.7-1.45-.91-.56-.21-1.16-.32-1.81-.32h-2.09v9.36Z"/>
    <path class="cls-1" d="m173.67,76.86c0-.69.11-1.33.34-1.92.22-.59.54-1.09.94-1.51.4-.42.89-.75,1.47-.99.57-.24,1.21-.36,1.91-.36s1.33.12,1.9.36,1.06.57,1.46.99c.41.42.72.93.94,1.51.22.59.33,1.23.33,1.92,0,.65-.11,1.27-.34,1.85-.23.58-.55,1.09-.95,1.52-.41.43-.9.78-1.47,1.03-.57.25-1.19.38-1.88.38s-1.32-.13-1.89-.38c-.57-.25-1.06-.6-1.47-1.03-.41-.43-.73-.94-.96-1.52-.23-.58-.34-1.2-.34-1.85Zm1.79,0c0,.4.06.81.17,1.22.11.41.29.78.52,1.1s.53.59.89.8.79.31,1.29.31.91-.1,1.27-.31c.36-.2.65-.47.88-.8s.4-.69.52-1.1c.11-.41.17-.81.17-1.22,0-.44-.06-.86-.19-1.27s-.31-.77-.56-1.09-.54-.58-.9-.77-.75-.29-1.19-.29-.85.1-1.21.29-.66.45-.9.77-.43.69-.56,1.09c-.13.41-.2.83-.2,1.27Z"/>
    <path class="cls-1" d="m185.23,72.3h1.63v1.44h.03c.26-.53.66-.94,1.2-1.22.55-.29,1.15-.44,1.79-.44,1.18,0,2.04.35,2.6,1.04.55.69.82,1.65.82,2.88v5.43h-1.68v-4.73c0-1.07-.14-1.87-.41-2.4s-.78-.82-1.52-.86c-.48,0-.9.09-1.25.28-.35.18-.64.44-.87.77s-.4.73-.5,1.19c-.11.46-.16.97-.16,1.52v4.22h-1.68v-9.13Z"/>
    <path class="cls-1" d="m196.6,72.94c.42-.25.88-.46,1.38-.62s1.04-.24,1.63-.24c1.31,0,2.25.32,2.82.95.57.64.86,1.58.86,2.83v3.78c0,.52,0,.92.02,1.19s.03.47.05.6h-1.57v-1.18h-.03c-.1.14-.23.29-.39.45s-.36.31-.6.45c-.24.14-.51.26-.81.35-.31.09-.65.14-1.03.14-.49,0-.94-.05-1.35-.16-.41-.11-.77-.28-1.06-.51s-.53-.53-.69-.89c-.16-.36-.24-.79-.24-1.29,0-.29.04-.55.11-.79.07-.24.17-.45.31-.65.13-.19.29-.36.47-.52s.38-.29.59-.4c.42-.23.88-.4,1.38-.5.5-.1.96-.16,1.4-.16h.89c.13,0,.27,0,.42,0s.3.01.47.03c0-.79-.16-1.38-.49-1.78-.33-.4-.92-.6-1.77-.6-.48,0-.95.08-1.42.25-.47.17-.88.39-1.23.68l-.09-1.43Zm4.99,4.14c-.17,0-.35,0-.53-.02s-.36-.02-.53-.02c-.12,0-.25,0-.39.01-.15,0-.31.02-.49.03-.35.02-.7.1-1.05.23-.34.11-.63.29-.87.52s-.37.56-.37.96c0,.24.05.45.16.63.1.18.24.34.41.46.17.13.35.22.55.29.2.07.4.1.59.1.83,0,1.46-.23,1.89-.69.43-.47.65-1.04.65-1.71v-.8Z"/>
    <path class="cls-1" d="m210.99,73.65h-2.42v5c0,.54.14.95.42,1.22.29.27.62.41,1,.41.26,0,.49-.03.67-.1.19-.07.34-.14.47-.22v1.43c-.19.06-.41.12-.65.17-.24.06-.5.08-.78.08-.87,0-1.56-.21-2.06-.64-.5-.43-.75-1.11-.75-2.02v-5.34h-2.06v-1.36h2.06v-2.12l1.68-.54v2.66h2.42v1.36Z"/>
    <path class="cls-1" d="m215.11,70.25h-1.9v-1.9h1.9v1.9Zm-1.79,2.05h1.69v9.13h-1.69v-9.13Z"/>
    <path class="cls-1" d="m217.47,76.86c0-.69.11-1.33.34-1.92.22-.59.54-1.09.94-1.51.4-.42.89-.75,1.47-.99.57-.24,1.21-.36,1.91-.36s1.33.12,1.9.36,1.06.57,1.46.99c.41.42.72.93.94,1.51.22.59.33,1.23.33,1.92,0,.65-.11,1.27-.34,1.85-.23.58-.55,1.09-.95,1.52-.41.43-.9.78-1.47,1.03-.57.25-1.19.38-1.88.38s-1.32-.13-1.89-.38c-.57-.25-1.06-.6-1.47-1.03-.41-.43-.73-.94-.96-1.52-.23-.58-.34-1.2-.34-1.85Zm1.79,0c0,.4.06.81.17,1.22.11.41.29.78.52,1.1s.53.59.89.8.79.31,1.29.31.91-.1,1.27-.31c.36-.2.65-.47.88-.8s.4-.69.52-1.1c.11-.41.17-.81.17-1.22,0-.44-.06-.86-.19-1.27s-.31-.77-.56-1.09-.54-.58-.9-.77-.75-.29-1.19-.29-.85.1-1.21.29-.66.45-.9.77-.43.69-.56,1.09c-.13.41-.2.83-.2,1.27Z"/>
    <path class="cls-1" d="m229.02,72.3h1.63v1.44h.03c.26-.53.66-.94,1.2-1.22.55-.29,1.15-.44,1.79-.44,1.18,0,2.04.35,2.6,1.04.55.69.82,1.65.82,2.88v5.43h-1.68v-4.73c0-1.07-.14-1.87-.41-2.4s-.78-.82-1.52-.86c-.48,0-.9.09-1.25.28-.35.18-.64.44-.87.77s-.4.73-.5,1.19c-.11.46-.16.97-.16,1.52v4.22h-1.68v-9.13Z"/>
    <path class="cls-1" d="m244.8,68.92h3.28c.64,0,1.25.06,1.82.19.57.13,1.07.33,1.49.63s.76.68,1.01,1.15c.25.48.37,1.07.37,1.78s-.13,1.27-.38,1.75-.58.87-.99,1.16c-.41.3-.88.51-1.41.65s-1.08.2-1.64.2h-1.75v4.99h-1.79v-12.51Zm1.79,5.94h1.78c.28,0,.57-.04.86-.11.29-.07.56-.2.8-.37.24-.17.44-.4.6-.69s.24-.63.24-1.05c0-.39-.09-.73-.28-1-.18-.28-.41-.5-.69-.67s-.58-.29-.9-.37-.62-.11-.89-.11h-1.52v4.36Z"/>
    <path class="cls-1" d="m254.92,67.99h1.69v13.44h-1.69v-13.44Z"/>
    <path class="cls-1" d="m260.12,72.94c.42-.25.88-.46,1.38-.62s1.04-.24,1.63-.24c1.31,0,2.25.32,2.82.95.57.64.86,1.58.86,2.83v3.78c0,.52,0,.92.02,1.19s.03.47.05.6h-1.57v-1.18h-.03c-.1.14-.23.29-.39.45s-.36.31-.6.45c-.24.14-.51.26-.81.35-.31.09-.65.14-1.03.14-.49,0-.94-.05-1.35-.16-.41-.11-.77-.28-1.06-.51s-.53-.53-.69-.89c-.16-.36-.24-.79-.24-1.29,0-.29.04-.55.11-.79.07-.24.17-.45.31-.65.13-.19.29-.36.47-.52s.38-.29.59-.4c.42-.23.88-.4,1.38-.5.5-.1.96-.16,1.4-.16h.89c.13,0,.27,0,.42,0s.3.01.47.03c0-.79-.16-1.38-.49-1.78-.33-.4-.92-.6-1.77-.6-.48,0-.95.08-1.42.25-.47.17-.88.39-1.23.68l-.09-1.43Zm4.99,4.14c-.17,0-.35,0-.53-.02s-.36-.02-.53-.02c-.12,0-.25,0-.39.01-.15,0-.31.02-.49.03-.35.02-.7.1-1.05.23-.34.11-.63.29-.87.52s-.37.56-.37.96c0,.24.05.45.16.63.1.18.24.34.41.46.17.13.35.22.55.29.2.07.4.1.59.1.83,0,1.46-.23,1.89-.69.43-.47.65-1.04.65-1.71v-.8Z"/>
    <path class="cls-1" d="m274.51,73.65h-2.42v5c0,.54.14.95.42,1.22.29.27.62.41,1,.41.26,0,.49-.03.67-.1.19-.07.34-.14.47-.22v1.43c-.19.06-.41.12-.65.17-.24.06-.5.08-.78.08-.87,0-1.56-.21-2.06-.64-.5-.43-.75-1.11-.75-2.02v-5.34h-2.06v-1.36h2.06v-2.12l1.68-.54v2.66h2.42v1.36Z"/>
    <path class="cls-1" d="m277.72,73.65h-2.15v-1.36h2.15v-.85c0-.55.04-1.06.13-1.51s.24-.84.46-1.16c.22-.32.53-.57.93-.74s.91-.26,1.54-.26c.22,0,.42.01.6.04.18.03.36.05.53.07l-.07,1.36c-.1-.03-.22-.06-.37-.08-.15-.02-.29-.03-.43-.03-.36,0-.65.06-.87.17s-.38.26-.49.45c-.11.19-.19.42-.22.69s-.05.55-.05.86v.99h2.42v1.36h-2.42v7.78h-1.68v-7.78Z"/>
    <path class="cls-1" d="m282.98,76.86c0-.69.11-1.33.34-1.92.22-.59.54-1.09.94-1.51.4-.42.89-.75,1.47-.99.57-.24,1.21-.36,1.91-.36s1.33.12,1.9.36,1.06.57,1.46.99c.41.42.72.93.94,1.51.22.59.33,1.23.33,1.92,0,.65-.11,1.27-.34,1.85-.23.58-.55,1.09-.95,1.52-.41.43-.9.78-1.47,1.03-.57.25-1.19.38-1.88.38s-1.32-.13-1.89-.38c-.57-.25-1.06-.6-1.47-1.03-.41-.43-.73-.94-.96-1.52-.23-.58-.34-1.2-.34-1.85Zm1.79,0c0,.4.06.81.17,1.22.11.41.29.78.52,1.1s.53.59.89.8.79.31,1.29.31.91-.1,1.27-.31c.36-.2.65-.47.88-.8s.4-.69.52-1.1c.11-.41.17-.81.17-1.22,0-.44-.06-.86-.19-1.27s-.31-.77-.56-1.09-.54-.58-.9-.77-.75-.29-1.19-.29-.85.1-1.21.29-.66.45-.9.77-.43.69-.56,1.09c-.13.41-.2.83-.2,1.27Z"/>
    <path class="cls-1" d="m294.54,72.3h1.57v1.41h.03c.22-.47.55-.86,1-1.17.43-.3.9-.45,1.39-.45.25,0,.45.01.61.03.15.02.32.05.5.09v1.5c-.16-.06-.32-.1-.48-.12s-.31-.03-.46-.03c-.75,0-1.36.34-1.81,1.01-.45.66-.68,1.57-.68,2.72v4.15h-1.68v-9.13Z"/>
    <path class="cls-1" d="m301.49,72.3h1.57v1.32h.03c.32-.54.71-.93,1.18-1.17s1.04-.37,1.72-.37c.52,0,1.03.14,1.51.42.49.29.85.74,1.08,1.36.15-.33.35-.6.59-.83s.49-.41.76-.55c.27-.14.53-.24.79-.3.26-.06.49-.09.69-.09.58,0,1.08.09,1.48.27.4.18.73.42.98.73.25.31.43.68.55,1.11.11.43.17.89.17,1.38v5.86h-1.69v-5.45c0-.28-.02-.57-.07-.87-.04-.3-.12-.57-.24-.82-.12-.25-.28-.45-.49-.61-.21-.16-.49-.24-.83-.24-.43,0-.8.1-1.1.29s-.55.45-.74.76-.33.68-.42,1.08-.13.82-.13,1.26v4.6h-1.69v-5.45c0-.28-.02-.57-.07-.87-.04-.3-.12-.57-.24-.82-.12-.25-.28-.45-.49-.61s-.49-.24-.83-.24c-.43,0-.8.1-1.1.29s-.55.45-.74.76-.33.68-.42,1.08-.14.82-.14,1.26v4.6h-1.68v-9.13Z"/>
  </g>
</svg>