<?xml version="1.0" encoding="UTF-8"?>
<svg id="Layer_1" data-name="Layer 1" xmlns="http://www.w3.org/2000/svg" xmlns:xlink="http://www.w3.org/1999/xlink" viewBox="0 0 854 548">
  <defs>
    <style>
      .cls-1 {
        fill: #4c4c4c;
      }

      .cls-2, .cls-3 {
        fill: #bb0e2d;
      }

      .cls-3, .cls-4, .cls-5, .cls-6, .cls-7 {
        stroke-width: 0px;
      }

      .cls-4 {
        fill: none;
      }

      .cls-8 {
        font-family: Alexandria-Medium, Alexandria;
        font-size: 38.08px;
        font-weight: 500;
      }

      .cls-5 {
        fill: #7a6e66;
      }

      .cls-6 {
        fill: #fff;
      }

      .cls-7 {
        fill: #e2a035;
      }

      .cls-9 {
        clip-path: url(#clippath);
      }
    </style>
    <clipPath id="clippath">
      <rect class="cls-4" x="-13796.95" y="-1056.06" width="25138.56" height="10372.49"/>
    </clipPath>
  </defs>
  <g class="cls-9">
    <path class="cls-6" d="m13353.26,29033.58c-412.06,11.79-802.53,146.16-1202.81,221.48-4105.96,772.61-8224.58,802.62-12355.13,238.47-396.81-54.2-790.46-131.92-1164.22-283.37-89.45-36.25-211.21-70.7-196.21-193.61,13.23-108.49,120.71-152.43,219.96-178.49,551.81-144.94,1117.37-150.39,1680.9-143.18,2400.6,30.73,4799.47,1.53,7191.9-217.12,1554.27-142.05,3100.01-358.04,4581.17-871.71,2853.38-989.57,4958.27-2765.08,5859.72-5745.55,415.43-1373.54,403.14-2776.73,221.22-4189.95-399.58-3104.17-1907.54-5677.57-3834.42-8048.6-2197.95-2704.57-4744.9-5054.72-7448.35-7239.22C4186.22,184.24,1317.38-1802.71-1717.63-3544.94c-1004.62-576.7-2026.36-1122.3-3123.95-1508.25-120.17-42.26-248.71-64.15-364.03-116.19-542.47-244.77-946.79-19.17-1297.93,376.72-501.55,565.47-678.74,1257.25-744.83,1985.87-105.62,1164.27,70.46,2305.82,300.22,3441.12,211.63,1045.75,545.29,2064,718.28,3118.25,248.23,1512.84,346.79,3022.17-207.03,4498-498.52,1328.45-1464.85,2199.37-2785.54,2623.64-3702.2,1189.32-7121.14,538.42-10252.76-1714.91-862.46-620.57-1539.12-1413.61-1943.25-2414.78-8.91-22.08-37.71-36.15-57.23-53.95-94.44-352.46-188.88-704.91-283.32-1057.37,7.9-25.36,25.57-52.06,22.3-75.88-149.77-1091.06,85.99-2116.06,531.47-3104.67C-20605.45,1121.55-19708.06-.59-18723.57-1059.28c1986.72-2136.45,4319.98-3772.41,7036.22-4851.96,421.09-167.36,842.1-334.89,1263.15-502.34,704.92-188.88,1409.83-377.76,2114.74-566.64,72.04-2.96,146.55,5.02,215.75-10.56,792.11-178.42,1594.89-285.3,2403.13-347.71,2625.69-202.74,5117.64,236.27,7473.4,1464.13C5744.85-3809.29,9526.68-1461.85,13108.68,1207.69c2567.23,1913.26,5013.99,3962.9,7147.93,6362.75,1340.44,1507.47,2524.44,3123.26,3377.09,4962.61,190.51,410.97,357.81,832.71,535.79,1249.49,146.38,546.31,292.77,1092.62,439.15,1638.93,47.8,386.18,100.92,771.79,142.5,1158.64,222.28,2068.23-130.67,4029.16-1176.9,5833.81-1500.24,2587.79-3748.19,4305.95-6474.26,5444.6-451.89,188.75-911.56,358.86-1367.63,537.59-793.03,212.49-1586.06,424.98-2379.09,637.47ZM-13189.93,596.14c-55.08,34-81.8,44.2-100.14,62.71-1038.42,1048.24-1803.93,2258.59-2179.1,3696.8-341.48,1309.07,71.8,2461.59,783.89,3531.83,309.41,465.03,779.39,686.13,1349.85,574.99,561.33-109.36,944.89-443.12,1136.44-989.42,85.04-242.54,127.16-492.04,143.15-747.34,46.63-744.66-84.7-1470.38-260.07-2186.44-318.05-1298.64-721.46-2577.55-874.01-3943.14Z"/>
  </g>
  <g>
    <g>
      <path class="cls-5" d="m393.06,220.04c.64-.95,2.28-4.18,2.28-5.24-1.75-1.69-4.24-2.01-5.03-3.02-.26-.37,3.18-2.54,3.23-2.97l.58-2.7c-.16-.32-6.99,4.77-6.94,8.63v.32c-.05,1.75,5.14,3.39,5.14,3.39-1.01,1.27-10.59,5.35-12.76,5.93h0c5.08.32,10.64.11,13.5-4.34"/>
      <path class="cls-5" d="m259.4,220.51c-3.18-4.29-9.74-9.16-18.53-18.8,0,0-4.34-4.34-6.88-7.15l-.9,6.35c4.92,6.67,14.14,15.99,25.15,25.26.42.37-.37.85-.69.95h0c-6.88,3.39-24.41,10.96-31.08,11.07-10.27.16-6.35-13.45-5.51-15.78,0,0,.32-.95-.16-1.17-1.96,4.5-10.27,24.09,4.92,23.88,8.68-.11,27.06-8.9,33.31-12.07,2.12-1.06,2.12-4.24,2.17-5.67-.11-2.81-.42-4.66-1.8-6.88"/>
      <path class="cls-5" d="m466.66,219.72l-.37-.42c-.64,2.12-1.22,4.13-1.85,6.2,2.12,2.97,4.45,6.2,4.71,9.95-.26,2.38-6.3,3.23-11.12,3.28h-.05c-11.91,0-10.7-7.15-10.59-10.22-.05.11-5.61,9.85-14.03,9.85-9.69-.48-12.76-6.51-12.92-10.8-.11-13.87-12.02-19.22-22.35-34.58l-.32-.48s-3.39-5.35-3.71-5.77c1.69-1.64,43.1-10.64,50.36-12.07h0c1.54-.21,2.86.11,1.75,4.02-1.27,4.34-5.93,15.89-8.05,21.29,4.45-7.1,15.62-31.24,10.48-30.82-8.47,1.54-50.25,11.12-56.13,13.5-.58,1.01-1.54,8.53-1.06,8.9,8.74,14.24,21.39,25.15,24.83,31.14.69,1.22.95,2.44.85,2.75-3.28,7.84-30.71,13.71-39.5,13.71-1.48,0-3.34-.05-5.3-.26,11.54-18.27-16.73-54.01-23.19-64.55-2.01-3.07-2.81-4.45-2.81-4.45l-2.49,5.3c1.11,5.98,3.87,46.86,3.87,49.72.05,3.44.11,3.5.11,7.57,0,5.24-9.85,5.03-11.12,4.87-3.44-.64-5.08-7.78-5.3-12.66-11.6,14.99-24.94,13.98-24.99,13.98-12.71-1.43-13.13-18.27-13.56-28.22-.11-3.28-.05-31.82-.69-40.93,0,0-3.92,5.56-4.13,6.46,0,2.7,1.06,29.65,1.48,37.49.48,8.15-1.59,15.73-8.74,22.03.37-.42,1.38-3.18,1.43-4.18,1.32-14.35-15.83-28.59-26.95-45.01l-.37-.48s-4.77-8.05-5.77-9.37c-.58,1.38-1.38,4.71-1.69,6.72,14.4,24.09,32.88,37.86,31.93,49.88-.21,2.38-.53,3.34-1.96,4.77-6.72,5.77-13.93,9.43-22.08,12.81h1.22c6.14.21,16.95-2.28,21.76-5.82,6.88-5.03,11.76-14.24,12.97-19.91l.05-.32.05.26c.64,7.63.58,16.84,11.54,19.65,8.15,2.07,15.57-1.54,20.6-5.08,4.13-2.91,6.57-5.88,6.57-5.67,0,4.34.95,7.68,3.07,8.95,3.6,2.17,8.63,1.17,8.63,1.17,11.76-2.01,10.01-16.1,10.01-22.61,0-8.15-2.7-34.74-3.02-38.71,5.88,9.37,29.87,41.2,20.33,55.97-2.97-.53-5.82-1.48-7.47-3.18,0-.11-3.5-2.59-3.44-7.04.05-5.98,4.39-11.76,4.39-11.76-4.66,4.02-7.2,12.28-7.2,15.2,0,6.88,4.29,10.7,9.85,12.39-2.7,3.12-3.18,3.81-4.92,5.61,2.97-1.54,5.45-3.23,7.47-5.03,1.69.32,3.44.42,5.14.42,22.82,0,42.36-8.79,45.33-15.99-.21,18.11,17.53,14.93,17.53,14.93,6.3-1.06,8.52-4.18,10.54-6.67v.11c2.91,11.17,20.23,6.2,20.39,6.2,3.92-.9,5.24-9.32,5.24-12.44-.1-4.34-2.59-8.2-5.24-11.54"/>
      <path class="cls-5" d="m451.25,215.48l-5.19-3.81-3.02,4.02s-.32.32,0,.58l5.3,3.76,2.91-3.81c.26-.42.16-.58,0-.74"/>
      <path class="cls-5" d="m461.9,253.5l-5.19-3.87-3.02,4.02s-.32.32,0,.58l5.3,3.76,2.91-3.81c.26-.37.16-.53,0-.69"/>
      <path class="cls-5" d="m336.87,253.5l-5.19-3.81-3.07,4.02s-.32.32,0,.58l5.3,3.76,2.91-3.81c.32-.42.21-.58.05-.74"/>
      <path class="cls-5" d="m228.11,297.61c.95,0,1.91-.05,2.97-.16,1.01-.11,1.96-.37,2.81-.74.85-.42,1.54-1.01,2.12-1.8.53-.79.85-1.85.85-3.23s-.26-2.38-.79-3.18c-.53-.79-1.22-1.43-2.01-1.91-.85-.48-1.69-.79-2.7-.95-1.01-.16-1.96-.26-2.86-.26h-6.67v12.23h6.3Zm.16-16.73c.79,0,1.59-.11,2.38-.32s1.54-.53,2.17-.95c.69-.42,1.22-1.01,1.59-1.69.42-.69.58-1.54.58-2.54,0-1.11-.21-1.96-.58-2.65-.42-.69-.95-1.22-1.59-1.59-.64-.37-1.38-.64-2.17-.74-.79-.11-1.59-.21-2.38-.21h-6.51v10.64h6.51v.06Zm-11.6-15.2h12.34c1.91,0,3.55.26,4.92.74,1.38.48,2.54,1.17,3.44,2.01s1.59,1.8,2.01,2.97c.48,1.11.69,2.33.69,3.6,0,1.17-.21,2.22-.64,3.18-.42.95-.95,1.75-1.54,2.44-.58.64-1.27,1.17-1.96,1.59-.74.42-1.38.64-1.96.74.74.11,1.59.32,2.54.69.95.32,1.8.85,2.59,1.54.79.69,1.48,1.59,2.01,2.7s.79,2.49.79,4.13c0,1.96-.37,3.6-1.06,4.92-.69,1.27-1.69,2.33-2.91,3.12-1.22.79-2.65,1.38-4.34,1.69-1.69.32-3.5.48-5.35.48h-11.7l.11-36.54Z"/>
      <path class="cls-5" d="m262.1,290.14c-.16-.05-.42-.11-.85-.16-.42-.05-.9-.11-1.43-.16-.58-.05-1.17-.05-1.75-.11-.64-.05-1.22-.05-1.8-.05-1.38,0-2.54.16-3.39.48-.85.32-1.54.74-2.01,1.22-.48.48-.85,1.06-1.01,1.64-.21.58-.26,1.17-.26,1.69,0,1.38.48,2.44,1.43,3.12s2.28,1.06,3.92,1.06c.95,0,1.85-.16,2.7-.48.85-.32,1.59-.74,2.28-1.32.64-.53,1.17-1.22,1.59-1.91.42-.74.58-1.48.58-2.22v-2.81Zm.11,8.95c-.95,1.27-2.22,2.22-3.76,2.86-1.54.64-3.12.95-4.77.95-1.06,0-2.12-.16-3.12-.42-1.06-.26-2.01-.74-2.86-1.38-.85-.64-1.54-1.43-2.07-2.49-.53-1.01-.79-2.22-.79-3.71,0-2.75.95-4.92,2.86-6.57,1.91-1.64,4.66-2.49,8.26-2.49.58,0,1.22,0,1.85.05.64.05,1.27.05,1.85.11.58.05,1.11.05,1.54.11.42.05.74.05.95.11v-.95c0-1.91-.58-3.23-1.75-4.08-1.17-.85-2.7-1.22-4.66-1.22s-3.44.26-4.61.79c-1.11.53-2.07,1.06-2.86,1.59l-2.28-3.34c.42-.37.95-.74,1.59-1.11.64-.37,1.32-.69,2.17-1.01.85-.32,1.8-.58,2.86-.74,1.06-.21,2.28-.32,3.65-.32,3.28,0,5.88.79,7.73,2.38,1.85,1.59,2.81,3.81,2.81,6.72v14.77c0,.9,0,1.64.05,2.28h-4.55l-.11-2.91Z"/>
      <path class="cls-5" d="m271.64,282.25v-2.91c0-.85,0-1.69-.05-2.59h4.71l.16,3.81c.32-.42.74-.9,1.22-1.43.48-.53,1.06-1.01,1.75-1.48.69-.42,1.48-.79,2.44-1.06.95-.32,1.96-.42,3.12-.42,3.34,0,5.77.95,7.41,2.91,1.59,1.96,2.38,4.55,2.38,7.89v15.25h-4.92v-14.88c0-2.38-.53-4.13-1.54-5.24-1.01-1.11-2.44-1.64-4.29-1.69-1.43,0-2.59.32-3.55.9-.95.58-1.69,1.32-2.28,2.28-.58.9-1.01,2.01-1.22,3.18-.26,1.17-.37,2.38-.37,3.6v11.81h-4.92v-19.91h-.05Z"/>
    </g>
    <polygon class="cls-5" points="299.44 265.68 304.31 265.68 304.31 287.18 315.01 276.69 320.88 276.75 311.3 286.12 322.31 302.16 316.49 302.16 307.86 289.4 304.31 292.79 304.31 302.16 299.44 302.16 299.44 265.68"/>
    <path class="cls-5" d="m352.12,287.55l-5.88-16.04-5.98,16.04h11.86Zm-8.42-21.87h5.35l14.3,36.48h-5.82l-3.76-10.17h-14.99l-3.76,10.17h-5.51l14.19-36.48Z"/>
    <polygon class="cls-5" points="365.42 265.68 370.34 265.68 370.34 302.16 365.42 302.16 365.42 265.68"/>
    <path class="cls-5" d="m380.08,297.93c.53.16,1.17.32,1.91.48s1.85.26,3.34.26,2.7-.21,3.81-.69c1.17-.42,2.12-1.11,2.97-1.91.79-.85,1.43-1.8,1.85-2.97.42-1.17.64-2.38.69-3.76,0-1.17-.16-2.28-.42-3.34s-.69-2.01-1.32-2.86c-.58-.79-1.38-1.48-2.28-1.96-.9-.48-2.01-.74-3.34-.74-1.22,0-2.28.21-3.12.64-.9.42-1.64.95-2.22,1.64s-1.06,1.48-1.32,2.33c-.32.9-.42,1.8-.42,2.75v10.11h-.11Zm-4.87-32.25h4.92v13.82c.26-.32.58-.69,1.06-1.11.48-.42,1.01-.79,1.69-1.11.69-.37,1.43-.64,2.28-.85.85-.21,1.8-.32,2.86-.32,1.91,0,3.55.32,4.98,1.01,1.43.69,2.65,1.59,3.65,2.81,1.01,1.17,1.75,2.59,2.22,4.18.48,1.59.74,3.28.74,5.14,0,2.01-.32,3.87-1.06,5.51-.69,1.69-1.69,3.12-2.91,4.34-1.27,1.22-2.75,2.17-4.5,2.81-1.75.69-3.71,1.01-5.82,1.01s-4.02-.16-5.77-.48c-1.8-.32-3.23-.74-4.29-1.17v-35.58h-.05Z"/>
    <path class="cls-5" d="m403.49,276.75h4.92v25.42h-4.92v-25.42Zm-.37-10.11h5.51v5.51h-5.51v-5.51Z"/>
    <polygon class="cls-5" points="413.5 265.68 418.42 265.68 418.42 302.16 413.5 302.16 413.5 265.68"/>
    <g>
      <path class="cls-5" d="m439.13,290.14c-.16-.05-.42-.11-.85-.16-.42-.05-.9-.11-1.43-.16-.58-.05-1.11-.05-1.75-.11-.64-.05-1.22-.05-1.8-.05-1.38,0-2.49.16-3.39.48-.85.32-1.54.74-2.01,1.22s-.85,1.06-1.01,1.64c-.21.58-.26,1.17-.26,1.69,0,1.38.48,2.44,1.43,3.12.95.69,2.22,1.06,3.92,1.06.95,0,1.85-.16,2.7-.53.85-.32,1.59-.74,2.28-1.32.69-.53,1.17-1.17,1.59-1.91.37-.74.58-1.48.58-2.22v-2.75h0Zm.05,8.95c-.95,1.27-2.22,2.22-3.76,2.86-1.54.64-3.12.95-4.77.95-1.06,0-2.12-.16-3.12-.42-1.06-.26-2.01-.74-2.86-1.38s-1.54-1.43-2.07-2.49c-.53-1.01-.79-2.22-.79-3.71,0-2.75.95-4.92,2.86-6.57,1.91-1.64,4.66-2.44,8.26-2.49.58,0,1.22,0,1.85.05.64.05,1.27.05,1.85.11.58.05,1.11.05,1.54.11.42.05.74.05.95.11v-.9c0-1.91-.58-3.23-1.75-4.08-1.17-.85-2.7-1.22-4.66-1.22s-3.44.26-4.61.79c-1.11.53-2.07,1.06-2.86,1.59l-2.28-3.34c.42-.37.95-.74,1.59-1.11.64-.37,1.32-.69,2.17-1.01.85-.32,1.8-.58,2.86-.74,1.06-.21,2.28-.32,3.65-.32,3.28,0,5.88.79,7.73,2.38,1.91,1.59,2.81,3.81,2.81,6.72v14.77c0,.9,0,1.64.05,2.28h-4.61l-.05-2.96Z"/>
      <path class="cls-5" d="m466.98,282.36c-.37-.26-1.06-.69-2.01-1.17-1.01-.48-2.38-.74-4.24-.74-1.22,0-2.33.21-3.28.64-1.01.42-1.91,1.06-2.65,1.85s-1.32,1.8-1.75,2.97-.64,2.49-.64,3.92c0,1.22.16,2.33.42,3.44.32,1.06.74,2.01,1.32,2.81s1.38,1.43,2.28,1.91c.95.42,2.07.69,3.34.69s2.38-.21,3.28-.69c.9-.48,1.64-1.06,2.22-1.8.58-.69.95-1.48,1.27-2.33.26-.85.42-1.64.42-2.38v-9.11h0Zm0,16.57c-.21.21-.48.58-.9,1.01-.42.48-.95.9-1.69,1.32-.69.42-1.48.85-2.44,1.17-.95.32-2.01.48-3.23.48-1.59,0-3.12-.32-4.5-.9-1.38-.64-2.59-1.48-3.6-2.65-1.01-1.11-1.8-2.49-2.38-4.13-.58-1.64-.85-3.44-.85-5.45,0-2.38.42-4.45,1.27-6.2.85-1.75,1.91-3.18,3.23-4.29,1.27-1.11,2.7-1.91,4.18-2.44,1.54-.53,2.97-.74,4.29-.74,1.85,0,3.28.21,4.29.64,1.01.42,1.8.79,2.38,1.01v-12.07h4.92v33.84c0,.85,0,1.69.05,2.59h-4.82l-.21-3.18Z"/>
      <path class="cls-7" d="m614.77,169.09h-109.93v66.61c18.9-11.07,40.88-17.42,64.34-17.42,25.1,0,48.5,7.25,68.26,19.75v-46.33c0-12.5-10.17-22.61-22.66-22.61"/>
      <path class="cls-3" d="m550.33,232.21c-16.63,0-32.14,4.55-45.43,12.44v34.37c0,12.5,10.11,22.66,22.61,22.66h109.88c-9.05-39.77-44.59-69.47-87.05-69.47"/>
    </g>
  </g>
  <text class="cls-8" transform="translate(106.05 384.41)"><tspan class="cls-2" x="0" y="0">SA 95 1500 0</tspan><tspan class="cls-1" x="260.77" y="0">999 1231 0189 0003</tspan></text>
</svg>