<?xml version="1.0" encoding="UTF-8"?>
<svg id="Layer_1" data-name="Layer 1" xmlns="http://www.w3.org/2000/svg" xmlns:xlink="http://www.w3.org/1999/xlink" viewBox="0 0 854 548">
  <defs>
    <style>
      .cls-1 {
        fill: #4c4c4c;
      }

      .cls-2 {
        fill: none;
      }

      .cls-2, .cls-3, .cls-4 {
        stroke-width: 0px;
      }

      .cls-5 {
        font-family: Alexandria-Medium, Alexandria;
        font-size: 38.08px;
        font-weight: 500;
      }

      .cls-3 {
        fill: #fff;
      }

      .cls-6, .cls-4 {
        fill: #221ae8;
      }

      .cls-7 {
        clip-path: url(#clippath);
      }
    </style>
    <clipPath id="clippath">
      <rect class="cls-2" x="-15636.95" y="-1056.06" width="25138.56" height="10372.49"/>
    </clipPath>
  </defs>
  <g class="cls-7">
    <path class="cls-3" d="m11513.26,29033.58c-412.06,11.79-802.53,146.16-1202.81,221.48-4105.96,772.61-8224.58,802.62-12355.13,238.47-396.81-54.2-790.46-131.92-1164.22-283.37-89.45-36.25-211.21-70.7-196.21-193.61,13.23-108.49,120.71-152.43,219.96-178.49,551.81-144.94,1117.37-150.39,1680.9-143.18,2400.6,30.73,4799.47,1.53,7191.9-217.12,1554.27-142.05,3100.01-358.04,4581.17-871.71,2853.38-989.57,4958.27-2765.08,5859.72-5745.55,415.43-1373.54,403.14-2776.73,221.22-4189.95-399.58-3104.17-1907.54-5677.57-3834.42-8048.6-2197.95-2704.57-4744.9-5054.72-7448.35-7239.22C2346.22,184.24-522.62-1802.71-3557.63-3544.94c-1004.62-576.7-2026.36-1122.3-3123.95-1508.25-120.17-42.26-248.71-64.15-364.03-116.19-542.47-244.77-946.79-19.17-1297.93,376.72-501.55,565.47-678.74,1257.25-744.83,1985.87-105.62,1164.27,70.46,2305.82,300.22,3441.12,211.63,1045.75,545.29,2064,718.28,3118.25,248.23,1512.84,346.79,3022.17-207.03,4498-498.52,1328.45-1464.85,2199.37-2785.54,2623.64-3702.2,1189.32-7121.14,538.42-10252.76-1714.91-862.46-620.57-1539.12-1413.61-1943.25-2414.78-8.91-22.08-37.71-36.15-57.23-53.95-94.44-352.46-188.88-704.91-283.32-1057.37,7.9-25.36,25.57-52.06,22.3-75.88-149.77-1091.06,85.99-2116.06,531.47-3104.67C-22445.45,1121.55-21548.06-.59-20563.57-1059.28c1986.72-2136.45,4319.98-3772.41,7036.22-4851.96,421.09-167.36,842.1-334.89,1263.15-502.34,704.92-188.88,1409.83-377.76,2114.74-566.64,72.04-2.96,146.55,5.02,215.75-10.56,792.11-178.42,1594.89-285.3,2403.13-347.71,2625.69-202.74,5117.64,236.27,7473.4,1464.13C3904.85-3809.29,7686.68-1461.85,11268.68,1207.69c2567.23,1913.26,5013.99,3962.9,7147.93,6362.75,1340.44,1507.47,2524.44,3123.26,3377.09,4962.61,190.51,410.97,357.81,832.71,535.79,1249.49,146.38,546.31,292.77,1092.62,439.15,1638.93,47.8,386.18,100.92,771.79,142.5,1158.64,222.28,2068.23-130.67,4029.16-1176.9,5833.81-1500.24,2587.79-3748.19,4305.95-6474.26,5444.6-451.89,188.75-911.56,358.86-1367.63,537.59-793.03,212.49-1586.06,424.98-2379.09,637.47ZM-15029.93,596.14c-55.08,34-81.8,44.2-100.14,62.71-1038.42,1048.24-1803.93,2258.59-2179.1,3696.8-341.48,1309.07,71.8,2461.59,783.89,3531.83,309.41,465.03,779.39,686.13,1349.85,574.99,561.33-109.36,944.89-443.12,1136.44-989.42,85.04-242.54,127.16-492.04,143.15-747.34,46.63-744.66-84.7-1470.38-260.07-2186.44-318.05-1298.64-721.46-2577.55-874.01-3943.14Z"/>
  </g>
  <g id="_9u7Tlw" data-name="9u7Tlw">
    <g>
      <path class="cls-4" d="m602.1,222.22c4.75,2.74,9.38,5.4,14,8.07,3.41,1.97,6.84,3.91,10.23,5.92,6.19,3.66,9.78,9.11,10.97,16.17.13.77.13,1.57.14,2.36,0,7.89.04,15.78,0,23.67-.03,5.35-2.05,9.96-5.49,13.99-1.84,2.16-4.13,3.75-6.57,5.16-6,3.43-11.99,6.89-17.97,10.37-3.93,2.29-8.17,3.34-12.69,3.09-3.32-.18-6.49-1.03-9.38-2.69-7.71-4.41-15.4-8.86-23.07-13.34-1.12-.66-1.96-.79-3.18-.07-7.5,4.42-15.08,8.72-22.62,13.08-3.9,2.25-8.1,3.25-12.58,3.02-3.88-.2-7.42-1.5-10.76-3.45-6.08-3.56-12.24-6.98-18.28-10.62-7.13-4.3-10.97-10.65-11.08-19.05-.09-7.54-.02-15.08-.02-22.62,0-5.39,1.86-10.09,5.28-14.21,1.79-2.15,3.98-3.79,6.39-5.17,7.55-4.34,15.08-8.72,22.64-13.04.82-.47,1.04-.99,1.04-1.86-.03-8.94-.14-17.89.02-26.83.14-8.05,3.66-14.45,10.52-18.72,5.5-3.42,11.19-6.52,16.8-9.75,1.48-.85,2.96-1.71,4.48-2.48,2.4-1.23,4.97-1.86,7.66-2.13,4.98-.5,9.52.74,13.8,3.22,5.98,3.47,11.95,6.96,17.97,10.35,4.94,2.79,8.41,6.78,10.42,12.06.88,2.31,1.33,4.72,1.33,7.18.03,8.94.01,17.88.01,26.83,0,.48,0,.96,0,1.51Zm-41.58,57.8c.18-.05.22-.05.26-.07,7.58-4.37,15.21-8.65,22.72-13.14,4.14-2.48,6.33-6.3,6.33-11.23,0-8.37-.01-16.74.02-25.11,0-.85-.25-1.32-1-1.75-7.25-4.15-14.45-8.4-21.73-12.49-4.38-2.47-8.89-2.36-13.26.12-7.15,4.07-14.25,8.22-21.39,12.29-.82.47-1.14.98-1.14,1.94.04,8.24.03,16.47.02,24.71,0,5.3,2.41,9.19,6.89,11.88,1.99,1.19,4.01,2.32,6.02,3.48,5.42,3.12,10.84,6.25,16.27,9.38Zm-41.45-43.67c-.59.31-.93.48-1.27.68-5.46,3.15-10.89,6.35-16.37,9.45-3.65,2.07-5.53,5.16-5.57,9.3-.07,7.23-.06,14.47,0,21.7.03,4,1.84,7.05,5.31,9.06,6.36,3.69,12.71,7.4,19.11,11.02,3.15,1.78,6.49,1.86,9.65.09,5.88-3.28,11.69-6.72,17.52-10.09.24-.14.44-.33.71-.54-.36-.24-.6-.43-.86-.58-4.97-2.86-9.93-5.73-14.91-8.57-4-2.28-7.24-5.34-9.63-9.28-2.5-4.15-3.67-8.66-3.68-13.5,0-5.7,0-11.4,0-17.1,0-.48,0-.95,0-1.65Zm53.88,50.67c.46.31.8.57,1.17.78,5.57,3.21,11.14,6.42,16.72,9.62,3.39,1.95,6.85,1.98,10.23.06,6.43-3.65,12.82-7.37,19.2-11.1,3.33-1.95,5.03-4.95,5.06-8.78.06-7.32.07-14.63,0-21.95-.04-3.97-1.83-7.02-5.33-9.02-4.94-2.82-9.85-5.69-14.77-8.54-.97-.56-1.96-1.09-3.11-1.73v1.63c0,5.87.01,11.74-.01,17.61,0,1.18-.07,2.36-.26,3.52-1.32,7.97-5.36,14.13-12.31,18.31-3.04,1.82-6.13,3.56-9.19,5.33-2.42,1.4-4.84,2.8-7.38,4.27Zm-41.6-71.89c.53-.26.87-.42,1.2-.61,5.08-2.92,10.13-5.9,15.25-8.74,8.48-4.72,17.06-4.67,25.54-.06,5.19,2.82,10.24,5.89,15.35,8.84.32.19.67.32,1.08.52.03-.37.06-.59.06-.8,0-6.92,0-13.84,0-20.77,0-.48-.08-.96-.19-1.42-.68-2.99-2.43-5.19-5.06-6.7-6.25-3.6-12.5-7.21-18.77-10.79-3.48-1.99-7-1.95-10.48.03-1.86,1.06-3.72,2.14-5.57,3.21-4.51,2.6-9.04,5.16-13.51,7.83-3.2,1.91-4.89,4.79-4.89,8.58,0,6.44,0,12.88,0,19.32,0,.46,0,.93,0,1.57Z"/>
      <path class="cls-4" d="m290.23,229.47c-.03-1.77-.03-3.47-.12-5.17-.04-.77-.15-1.57-.4-2.3-1.04-3.05-4.38-4.12-7.03-2.3-.29.2-.55.42-.92.69-1.2-.99-2.4-1.99-3.68-3.04,1.42-1.58,3.15-2.4,5.11-2.78,2.29-.44,4.54-.26,6.66.73,3.15,1.47,4.9,4.02,5.34,7.43.2,1.51.17,3.05.2,4.58.03,1.89.3,2.19,2.19,2.26.17,0,.34.04.67.08.01.69.03,1.37.04,2.06,0,.7,0,1.39,0,2.07-.97.32-48.93.44-51.25.13v-14.87c-3.93-1.17-7.06,1.07-7.13,5.02-.05,2.85,0,5.7-.01,8.55,0,.43-.04.86-.06,1.37-.5.02-.93.06-1.35.06-4.16,0-8.33,0-12.49,0-5.26,0-9.27-4.05-9.42-9.45-.07-2.45.54-4.67,2.05-6.63.11-.14.22-.27.35-.39.06-.06.15-.09.37-.21,1.15.95,2.35,1.94,3.54,2.92-.34.88-.79,1.7-.96,2.57-.44,2.13-.09,4.14,1.61,5.65.59.52,1.45.98,2.2,1.01,2.93.12,5.86.05,8.94.05.02-.53.04-.99.05-1.45.06-1.97-.07-3.96.21-5.89.63-4.27,3.98-7.39,8.26-7.7,2.79-.2,5.6-.14,8.4-.19.16,0,.33.07.63.13v15.02h17.52c-.1-2.15-.12-4.28-.33-6.4-.2-2.04-1.58-3.86-4.03-4.22-1.19-.18-2.25.13-3.23.77-.29.19-.54.44-.95.77-1.21-1-2.43-2.01-3.7-3.06,1.37-1.53,3-2.36,4.83-2.73,3.03-.61,5.93-.26,8.5,1.59,2.52,1.81,3.72,4.36,3.86,7.41.07,1.36-.01,2.72.02,4.08.03,1.2.61,1.86,1.73,1.86,4.47.02,8.94,0,13.41,0,.17,0,.33-.07.38-.09Z"/>
      <path class="cls-4" d="m428.76,229.24c1,.38,5.37.47,7.03.16-.16-.37-.32-.72-.46-1.08-1.36-3.55-1.1-6.94,1.07-10.12,1-1.46,2.37-2.46,3.99-3.1,2.53-1,5.13-1.07,7.69-.15,3.2,1.14,5.27,3.39,6,6.74.71,3.24.27,6.28-1.86,8.92-1.75,2.17-4.08,3.34-6.83,3.39-5.04.09-10.08.02-15.12.03-1.27,0-2.27-.54-3.11-1.43-.18-.19-.35-.38-.63-.69-2.07,2.18-4.72,2.17-7.43,2.14-6.7-.06-13.41-.02-20.11-.01-.96,0-1.91.05-2.71-.68-1.02,6.02-3.89,8.66-9.95,9.16v-4.24c.21-.08.48-.22.76-.29,2.39-.57,3.8-2.27,3.87-4.78.04-1.53,0-3.07,0-4.6v-12.39h5.26v1.44c0,3.33,0,6.66,0,9.99,0,.31-.02.62.02.92.08.58.37.98,1.02.98,1.79,0,3.58,0,5.49,0v-12.82c1.62-.11,3.12-.07,4.75-.03v4.43c.79-.37,1.18-.89,1.6-1.35,1.43-1.53,3.12-2.7,5.04-3.48,3.35-1.36,6.78-1.71,10.17-.18,3.11,1.4,4.78,3.94,5.33,7.29.29,1.75.02,3.38-.62,4.99-.1.24-.16.49-.26.82Zm-20.21.15c.11.07.18.15.25.15,3.94.01,7.88.07,11.82,0,1.95-.03,3.32-1.32,3.77-3.24.4-1.71.08-3.31-.88-4.75-.96-1.44-2.43-2.03-4.08-1.93-1.86.11-3.57.81-5.09,1.91-2.63,1.9-4.34,4.52-5.72,7.38-.07.15-.06.33-.08.48Zm31.24-5.22c0,1.42.24,2.32.74,3.28,1.49,2.82,5.99,2.8,7.55.39,1.38-2.13,1.54-4.32.4-6.57-1.42-2.79-5.11-3.29-7.3-1.06-1.08,1.11-1.45,2.45-1.39,3.95Z"/>
      <path class="cls-4" d="m353.21,217.27c1.33,1.09,2.5,2.06,3.7,3.05-.27.6-.57,1.13-.76,1.7-.81,2.38-.55,4.6,1.29,6.41.56.55,1.42,1.03,2.17,1.07,2.39.14,4.79.05,7.31.05-.19-.46-.33-.76-.44-1.08-1.45-4-1.16-7.74,1.72-11.05,1.24-1.43,2.84-2.31,4.69-2.71,3.47-.76,6.69-.29,9.46,2.09,1.47,1.26,2.42,2.88,2.84,4.76.73,3.26.34,6.34-1.81,9.03-1.74,2.17-4.05,3.39-6.81,3.43-5.7.08-11.39.09-17.09,0-4.61-.07-8.58-4.02-8.85-8.62-.14-2.41.11-4.73,1.53-6.78.29-.43.64-.82,1.05-1.34Zm17.67,6.96c-.09,1.09.24,2.21.84,3.25,1.4,2.4,4.9,2.88,6.92.97,1.94-1.85,2.3-5.35.76-7.6-1.12-1.63-2.99-2.35-4.92-1.89-2.23.54-3.59,2.47-3.61,5.27Z"/>
      <path class="cls-4" d="m361.28,279.26c-.1.34-.18.62-.27.91h-5.05v-29.82h5.18v10.93c.36-.19.56-.26.72-.38,3.17-2.16,7.75-1.55,10.6.61,2.94,2.23,4.51,5.18,4.46,8.91-.08,5.51-4.12,9.47-8.35,10.26-2.24.42-4.45.33-6.46-.98-.25-.16-.53-.28-.84-.45Zm10.43-9.6c-.16-.54-.34-1.64-.81-2.59-1.68-3.35-6.23-3.62-8.27-1.17-1.76,2.11-2,4.47-1.09,6.98,1.42,3.92,6.21,4.01,8.33,1.95,1.3-1.26,1.76-2.86,1.84-5.17Z"/>
      <path class="cls-4" d="m322.16,229.56c1.69,0,3.36,0,5.02,0,1.01,0,1.69-.5,1.94-1.45.18-.67.27-1.37.28-2.06.02-5.79.01-11.57.01-17.36v-1.49h4.89c.03.33.1.66.1,1,0,6.22,0,12.45,0,18.67,0,1.28-.14,2.54-.68,3.72-1.01,2.21-2.8,3.32-5.18,3.43-1.71.08-3.42.05-5.13,0-.59-.02-1.17-.27-1.84-.44-.38,2.67-1.34,5.08-3.55,6.86-1.86,1.5-4,2.05-6.42,2.13v-4.28c.31-.09.66-.22,1.03-.3,1.7-.38,2.8-1.44,3.29-3.06.29-.95.46-1.96.47-2.95.05-4.73.02-9.47.02-14.2v-1.52h5.02c.02.47.06.94.06,1.4,0,3.29,0,6.58,0,9.86,0,.71,0,1.41.64,2.06Z"/>
      <path class="cls-4" d="m395.21,261.29c.09-.36.16-.64.25-.97h4.92c.28,1.02.39,16.83.14,19.87-.83.02-1.68.05-2.53.06-.83.01-1.66,0-2.51,0-.09-.35-.16-.64-.24-.94-.15.02-.3,0-.39.07-6.07,4.3-15.3-.71-15.32-8.93,0-4.24,1.7-7.47,5.38-9.52,3.22-1.8,6.55-1.99,9.8.1.14.09.28.16.49.27Zm-10.52,8.93s.09.02.14.03c0,.31-.02.61,0,.92.17,2.35,1.76,4.29,3.96,4.84,2.28.57,4.57-.31,5.76-2.36,1.04-1.79,1.12-3.74.52-5.7-.65-2.12-2.6-3.6-4.77-3.66-2.37-.06-4.3,1.2-5.07,3.4-.28.81-.37,1.69-.54,2.54Z"/>
      <path class="cls-4" d="m238.01,261.35c.09-.39.15-.67.22-1.02h4.99v19.82h-4.93c-.08-.25-.19-.56-.34-1.01-2.76,2.06-5.78,2.23-8.86,1.12-3.11-1.12-5.23-3.4-6.23-6.51-1.37-4.26-.54-8.16,2.7-11.34,1.66-1.63,3.74-2.5,6.09-2.78,2.35-.28,4.39.38,6.35,1.71Zm.29,8.94c-.23-.97-.35-1.98-.71-2.89-.74-1.88-2.26-2.88-4.22-3.08-1.9-.19-3.55.44-4.68,2.06-1.38,1.98-1.5,4.15-.71,6.38.69,1.95,2.11,3.1,4.15,3.35,2.23.27,4.05-.49,5.21-2.51.58-1.01.85-2.1.95-3.31Z"/>
      <path class="cls-4" d="m287.49,261.11c.05-.2.12-.45.2-.77h4.92c.28.87.39,17.82.11,19.82h-4.99c-.08-.26-.16-.54-.26-.85-.11.02-.26,0-.35.07-5.18,3.75-13.69.5-15.1-7.04-.72-3.83.23-7.24,3.11-9.93,2.55-2.37,5.62-3.35,9.07-2.6,1.09.23,2.1.82,3.28,1.3Zm-5.08,15.01c2.35,0,4.09-1.25,4.88-3.45.59-1.63.59-3.24,0-4.87-.71-2-2.13-3.23-4.21-3.47-2.09-.24-3.88.45-5.07,2.33-.83,1.31-1.1,2.77-.94,4.27.39,3.7,2.84,5.28,5.33,5.19Z"/>
      <path class="cls-4" d="m308.89,250.31h4.98c0,1.79.02,3.56.02,5.34,0,1.75,0,3.5,0,5.4.36-.17.63-.26.86-.41,3.74-2.5,10.42-.49,11.66,4.77.28,1.18.49,2.41.52,3.62.07,3.42.03,6.84.02,10.25,0,.26-.04.51-.06.86h-5.12c-.02-.43-.07-.89-.07-1.35,0-3.2.01-6.4-.02-9.6,0-.78-.1-1.57-.26-2.34-.3-1.44-1.23-2.27-2.67-2.53-2.24-.41-4.15.84-4.58,3.07-.17.9-.26,1.82-.27,2.73-.03,2.89-.01,5.78-.01,8.68v1.36h-5c0-9.94,0-19.83,0-29.86Z"/>
      <path class="cls-4" d="m429.1,250.31h4.98c0,1.84.02,3.66.02,5.48,0,1.88,0,3.77,0,5.65v5.75c.41-.3.68-.46.9-.68,1.74-1.73,3.5-3.44,5.2-5.21.71-.74,1.46-1.13,2.53-1.07,1.69.09,3.4.02,5.23.26-2.76,2.69-5.52,5.39-8.37,8.16,2.99,3.81,5.96,7.57,9.12,11.6-1.32,0-2.35.01-3.37,0-1-.02-2.14.22-2.97-.17-.78-.37-1.26-1.41-1.85-2.16-1.49-1.89-2.96-3.78-4.52-5.77-.58.57-1.16,1.05-1.61,1.62-.21.27-.26.72-.27,1.1-.03,1.31-.01,2.63-.01,3.94v1.36h-5v-29.85Z"/>
      <path class="cls-4" d="m405.79,260.26c1.54,0,3.03-.03,4.5.03.28.01.54.38.75.54.99-.35,2.02-.84,3.11-1.09,3.51-.81,8.66,1.4,9.41,6.59.09.6.21,1.21.21,1.82.03,3.9.03,7.8.04,11.69,0,.08-.06.16-.12.32h-5.04c-.02-.47-.06-.94-.06-1.4,0-3.24.02-6.48-.02-9.73,0-.82-.12-1.66-.31-2.46-.28-1.15-1.06-1.85-2.24-2.14-2.43-.6-4.38.56-4.89,3.01-.17.81-.25,1.64-.26,2.47-.03,2.94-.01,5.87-.01,8.81v1.42h-5.07c0-6.55,0-13.1,0-19.87Z"/>
      <path class="cls-4" d="m293.6,290.72v-4.1c1.04-.51,2.07-.83,2.87-1.44,1.5-1.15,1.91-2.85,1.9-4.68,0-6.22,0-12.43,0-18.65v-1.51h5.1c.03.42.07.8.07,1.19,0,6.61.04,13.22,0,19.83-.03,4.72-3.75,8.87-8.88,9.4-.3.03-.6-.02-1.05-.04Z"/>
      <path class="cls-4" d="m248.48,250.26h5.1v29.87h-5.1v-29.87Z"/>
      <path class="cls-4" d="m338.97,207.17h4.94c.28.9.37,24.99.07,26.87h-5.01c0-8.97,0-17.84,0-26.87Z"/>
      <path class="cls-4" d="m309.59,233.98h-4.77c-.28-.89-.37-24.8-.09-26.78h4.86c0,8.89,0,17.76,0,26.78Z"/>
      <path class="cls-4" d="m263.65,280.26h-5.17c-.03-.43-.08-.81-.08-1.19,0-3.5-.05-7,.02-10.5.02-1.21.19-2.45.53-3.61.72-2.51,2.44-4.1,4.99-4.7,2.01-.48,4.04-.68,6.14-.17v4.33c-.63.02-1.22.03-1.82.05-.57.02-1.14.02-1.7.08-1.98.23-2.89,1.26-2.9,3.34-.02,3.37,0,6.74,0,10.11v2.26Z"/>
      <path class="cls-4" d="m332.18,260.33h4.96v19.82h-4.87c-.29-.86-.39-17.8-.09-19.82Z"/>
      <path class="cls-4" d="m334.64,256.66c-1.94,0-3.23-1.28-3.21-3.17.02-1.76,1.4-3.1,3.18-3.15,1.63-.05,3.27,1.37,3.28,3.18,0,1.62-1.5,3.41-3.24,3.14Z"/>
      <path class="cls-4" d="m300.99,256.66c-1.85.27-3.34-1.66-3.26-3.14.11-1.77,1.4-3.15,3.16-3.17,1.9-.03,3.25,1.27,3.26,3.14,0,1.98-1.18,3.17-3.16,3.17Z"/>
      <path class="cls-4" d="m226.38,244.3c-1.75,0-2.98-1.23-2.97-2.96,0-1.72,1.25-2.93,3.01-2.92,1.61.01,2.92,1.3,2.95,2.89.03,1.63-1.33,2.99-2.99,2.98Z"/>
      <path class="cls-4" d="m237.78,241.31c.02,1.7-1.24,2.98-2.95,2.99-1.67.01-3.02-1.31-3.01-2.95,0-1.59,1.31-2.89,2.91-2.92,1.73-.03,3.03,1.2,3.05,2.89Z"/>
      <path class="cls-4" d="m367.29,210.8c-.04,1.72-1.25,2.78-3.12,2.72-1.64-.05-2.82-1.34-2.76-3.01.06-1.61,1.37-2.86,2.98-2.87,1.64-.01,3.08,1.37,2.89,3.15Z"/>
      <path class="cls-4" d="m289.43,241.34c.23,1.57-1.41,3.08-2.91,2.98-1.67-.12-2.97-1.34-2.96-3.01.02-1.61,1.29-2.79,2.93-2.9,1.65-.12,3.18,1.52,2.95,2.94Z"/>
    </g>
  </g>
  <text class="cls-5" transform="translate(106.05 383.82)"><tspan class="cls-6" x="0" y="0">SA 50 8000</tspan><tspan x="228.27" y="0"> </tspan><tspan class="cls-6" x="238.72" y="0">0</tspan><tspan class="cls-1" x="265.61" y="0">201 6080 1099 6061</tspan></text>
</svg>