<?xml version="1.0" encoding="UTF-8"?>
<svg id="Layer_1" data-name="Layer 1" xmlns="http://www.w3.org/2000/svg" xmlns:xlink="http://www.w3.org/1999/xlink" viewBox="0 0 854 548">
  <defs>
    <style>
      .cls-1 {
        fill: #043;
      }

      .cls-1, .cls-2, .cls-3, .cls-4 {
        stroke-width: 0px;
      }

      .cls-5 {
        fill: #075;
      }

      .cls-2 {
        fill: url(#linear-gradient);
      }

      .cls-6 {
        fill: #4c4c4c;
      }

      .cls-7 {
        clip-path: url(#clippath-2);
      }

      .cls-3 {
        fill: none;
      }

      .cls-8 {
        font-family: Alexandria-Medium, Alexandria;
        font-size: 38.08px;
        font-weight: 500;
      }

      .cls-9 {
        clip-path: url(#clippath-1);
      }

      .cls-4 {
        fill: #fff;
      }

      .cls-10 {
        clip-path: url(#clippath);
      }
    </style>
    <clipPath id="clippath">
      <rect class="cls-3" x="-14716.95" y="-1056.06" width="25138.56" height="10372.49"/>
    </clipPath>
    <clipPath id="clippath-1">
      <rect class="cls-3" x="205.36" y="166.2" width="72.78" height="49.62"/>
    </clipPath>
    <clipPath id="clippath-2">
      <path class="cls-3" d="m207.01,194.32c4.63,6.62,8.27,13.57,10.58,21.17,4.96-11.24,13.89-20.51,24.81-25.79,11.25,5.29,19.85,14.55,24.81,25.79,2.31-7.6,5.96-14.89,10.58-21.17-8.59-11.91-21.17-20.84-35.72-25.8-13.9,4.96-26.14,13.89-35.07,25.8"/>
    </clipPath>
    <linearGradient id="linear-gradient" x1="-4152.17" y1="2432.36" x2="-4148.86" y2="2432.36" gradientTransform="translate(34720.18 -58639.92) rotate(-90) scale(14.17 -14.17)" gradientUnits="userSpaceOnUse">
      <stop offset="0" stop-color="#80b041"/>
      <stop offset="0" stop-color="#80b041"/>
      <stop offset=".01" stop-color="#80af41"/>
      <stop offset=".02" stop-color="#80af41"/>
      <stop offset=".02" stop-color="#80af41"/>
      <stop offset=".02" stop-color="#7fae41"/>
      <stop offset=".03" stop-color="#7fae41"/>
      <stop offset=".03" stop-color="#7eae42"/>
      <stop offset=".04" stop-color="#7ead42"/>
      <stop offset=".04" stop-color="#7dad42"/>
      <stop offset=".04" stop-color="#7dad42"/>
      <stop offset=".05" stop-color="#7cac42"/>
      <stop offset=".05" stop-color="#7cac42"/>
      <stop offset=".05" stop-color="#7bac42"/>
      <stop offset=".06" stop-color="#7bab42"/>
      <stop offset=".06" stop-color="#7aab42"/>
      <stop offset=".07" stop-color="#7aab42"/>
      <stop offset=".07" stop-color="#79aa42"/>
      <stop offset=".07" stop-color="#79aa42"/>
      <stop offset=".08" stop-color="#78aa42"/>
      <stop offset=".08" stop-color="#78a943"/>
      <stop offset=".09" stop-color="#77a943"/>
      <stop offset=".09" stop-color="#77a943"/>
      <stop offset=".09" stop-color="#76a843"/>
      <stop offset=".1" stop-color="#75a843"/>
      <stop offset=".1" stop-color="#75a843"/>
      <stop offset=".11" stop-color="#74a743"/>
      <stop offset=".11" stop-color="#74a743"/>
      <stop offset=".11" stop-color="#73a743"/>
      <stop offset=".12" stop-color="#73a643"/>
      <stop offset=".12" stop-color="#72a643"/>
      <stop offset=".12" stop-color="#72a643"/>
      <stop offset=".13" stop-color="#71a543"/>
      <stop offset=".13" stop-color="#71a543"/>
      <stop offset=".14" stop-color="#70a544"/>
      <stop offset=".14" stop-color="#70a444"/>
      <stop offset=".14" stop-color="#6fa444"/>
      <stop offset=".15" stop-color="#6fa444"/>
      <stop offset=".15" stop-color="#6ea344"/>
      <stop offset=".16" stop-color="#6ea344"/>
      <stop offset=".16" stop-color="#6da344"/>
      <stop offset=".16" stop-color="#6da244"/>
      <stop offset=".17" stop-color="#6ca244"/>
      <stop offset=".17" stop-color="#6ca244"/>
      <stop offset=".18" stop-color="#6ba244"/>
      <stop offset=".18" stop-color="#6ba144"/>
      <stop offset=".18" stop-color="#6aa144"/>
      <stop offset=".19" stop-color="#6aa145"/>
      <stop offset=".19" stop-color="#69a045"/>
      <stop offset=".2" stop-color="#69a045"/>
      <stop offset=".2" stop-color="#68a045"/>
      <stop offset=".2" stop-color="#689f45"/>
      <stop offset=".21" stop-color="#679f45"/>
      <stop offset=".21" stop-color="#679f45"/>
      <stop offset=".21" stop-color="#669e45"/>
      <stop offset=".22" stop-color="#669e45"/>
      <stop offset=".22" stop-color="#659e45"/>
      <stop offset=".23" stop-color="#659d45"/>
      <stop offset=".23" stop-color="#649d45"/>
      <stop offset=".23" stop-color="#649d45"/>
      <stop offset=".24" stop-color="#639c46"/>
      <stop offset=".24" stop-color="#639c46"/>
      <stop offset=".25" stop-color="#629c46"/>
      <stop offset=".25" stop-color="#629b46"/>
      <stop offset=".25" stop-color="#619b46"/>
      <stop offset=".26" stop-color="#619b46"/>
      <stop offset=".26" stop-color="#609a46"/>
      <stop offset=".27" stop-color="#609a46"/>
      <stop offset=".27" stop-color="#5f9a46"/>
      <stop offset=".27" stop-color="#5f9946"/>
      <stop offset=".28" stop-color="#5e9946"/>
      <stop offset=".28" stop-color="#5e9946"/>
      <stop offset=".29" stop-color="#5d9846"/>
      <stop offset=".29" stop-color="#5d9846"/>
      <stop offset=".29" stop-color="#5c9847"/>
      <stop offset=".3" stop-color="#5c9747"/>
      <stop offset=".3" stop-color="#5b9747"/>
      <stop offset=".3" stop-color="#5b9747"/>
      <stop offset=".31" stop-color="#5a9647"/>
      <stop offset=".31" stop-color="#5a9647"/>
      <stop offset=".32" stop-color="#599647"/>
      <stop offset=".32" stop-color="#589647"/>
      <stop offset=".32" stop-color="#589547"/>
      <stop offset=".33" stop-color="#579547"/>
      <stop offset=".33" stop-color="#579547"/>
      <stop offset=".34" stop-color="#569447"/>
      <stop offset=".34" stop-color="#569447"/>
      <stop offset=".34" stop-color="#559448"/>
      <stop offset=".35" stop-color="#559348"/>
      <stop offset=".35" stop-color="#549348"/>
      <stop offset=".36" stop-color="#549348"/>
      <stop offset=".36" stop-color="#539248"/>
      <stop offset=".36" stop-color="#539248"/>
      <stop offset=".37" stop-color="#529248"/>
      <stop offset=".37" stop-color="#529148"/>
      <stop offset=".38" stop-color="#519148"/>
      <stop offset=".38" stop-color="#519148"/>
      <stop offset=".38" stop-color="#509048"/>
      <stop offset=".39" stop-color="#509048"/>
      <stop offset=".39" stop-color="#4f9048"/>
      <stop offset=".39" stop-color="#4f8f48"/>
      <stop offset=".4" stop-color="#4e8f49"/>
      <stop offset=".4" stop-color="#4e8f49"/>
      <stop offset=".41" stop-color="#4d8e49"/>
      <stop offset=".41" stop-color="#4d8e49"/>
      <stop offset=".41" stop-color="#4c8e49"/>
      <stop offset=".42" stop-color="#4c8d49"/>
      <stop offset=".42" stop-color="#4b8d49"/>
      <stop offset=".43" stop-color="#4b8d49"/>
      <stop offset=".43" stop-color="#4a8c49"/>
      <stop offset=".43" stop-color="#4a8c49"/>
      <stop offset=".44" stop-color="#498c49"/>
      <stop offset=".44" stop-color="#498b49"/>
      <stop offset=".45" stop-color="#488b49"/>
      <stop offset=".45" stop-color="#488b4a"/>
      <stop offset=".45" stop-color="#478a4a"/>
      <stop offset=".46" stop-color="#478a4a"/>
      <stop offset=".46" stop-color="#468a4a"/>
      <stop offset=".46" stop-color="#46894a"/>
      <stop offset=".47" stop-color="#45894a"/>
      <stop offset=".47" stop-color="#45894a"/>
      <stop offset=".48" stop-color="#44894a"/>
      <stop offset=".48" stop-color="#44884a"/>
      <stop offset=".48" stop-color="#43884a"/>
      <stop offset=".49" stop-color="#43884a"/>
      <stop offset=".49" stop-color="#42874a"/>
      <stop offset=".5" stop-color="#42874a"/>
      <stop offset=".5" stop-color="#41874a"/>
      <stop offset=".5" stop-color="#41864b"/>
      <stop offset=".51" stop-color="#40864b"/>
      <stop offset=".51" stop-color="#40864b"/>
      <stop offset=".52" stop-color="#3f854b"/>
      <stop offset=".52" stop-color="#3f854b"/>
      <stop offset=".52" stop-color="#3e854b"/>
      <stop offset=".53" stop-color="#3e844b"/>
      <stop offset=".53" stop-color="#3d844b"/>
      <stop offset=".54" stop-color="#3d844b"/>
      <stop offset=".54" stop-color="#3c834b"/>
      <stop offset=".54" stop-color="#3c834b"/>
      <stop offset=".55" stop-color="#3b834b"/>
      <stop offset=".55" stop-color="#3a824b"/>
      <stop offset=".55" stop-color="#3a824c"/>
      <stop offset=".56" stop-color="#39824c"/>
      <stop offset=".56" stop-color="#39814c"/>
      <stop offset=".57" stop-color="#38814c"/>
      <stop offset=".57" stop-color="#38814c"/>
      <stop offset=".57" stop-color="#37804c"/>
      <stop offset=".58" stop-color="#37804c"/>
      <stop offset=".58" stop-color="#36804c"/>
      <stop offset=".59" stop-color="#36804c"/>
      <stop offset=".59" stop-color="#35804c"/>
      <stop offset=".59" stop-color="#35804c"/>
      <stop offset=".6" stop-color="#34804c"/>
      <stop offset=".6" stop-color="#34804c"/>
      <stop offset=".61" stop-color="#33804c"/>
      <stop offset=".61" stop-color="#33804d"/>
      <stop offset=".61" stop-color="#32804d"/>
      <stop offset=".62" stop-color="#32804d"/>
      <stop offset=".62" stop-color="#31804d"/>
      <stop offset=".62" stop-color="#31804d"/>
      <stop offset=".63" stop-color="#30804d"/>
      <stop offset=".63" stop-color="#30804d"/>
      <stop offset=".64" stop-color="#2f804d"/>
      <stop offset=".64" stop-color="#2f804d"/>
      <stop offset=".64" stop-color="#2e804d"/>
      <stop offset=".65" stop-color="#2e804d"/>
      <stop offset=".65" stop-color="#2d804d"/>
      <stop offset=".66" stop-color="#2d804d"/>
      <stop offset=".66" stop-color="#2c804e"/>
      <stop offset=".66" stop-color="#2c804e"/>
      <stop offset=".67" stop-color="#2b804e"/>
      <stop offset=".67" stop-color="#2b804e"/>
      <stop offset=".68" stop-color="#2a804e"/>
      <stop offset=".68" stop-color="#2a804e"/>
      <stop offset=".68" stop-color="#29804e"/>
      <stop offset=".69" stop-color="#29804e"/>
      <stop offset=".69" stop-color="#28804e"/>
      <stop offset=".7" stop-color="#28804e"/>
      <stop offset=".7" stop-color="#27804e"/>
      <stop offset=".7" stop-color="#27804e"/>
      <stop offset=".71" stop-color="#26804e"/>
      <stop offset=".71" stop-color="#26804e"/>
      <stop offset=".71" stop-color="#25804f"/>
      <stop offset=".72" stop-color="#25804f"/>
      <stop offset=".72" stop-color="#24804f"/>
      <stop offset=".73" stop-color="#24804f"/>
      <stop offset=".73" stop-color="#23804f"/>
      <stop offset=".73" stop-color="#23804f"/>
      <stop offset=".74" stop-color="#22804f"/>
      <stop offset=".74" stop-color="#22804f"/>
      <stop offset=".75" stop-color="#21804f"/>
      <stop offset=".75" stop-color="#21804f"/>
      <stop offset=".75" stop-color="#20804f"/>
      <stop offset=".76" stop-color="#20804f"/>
      <stop offset=".76" stop-color="#1f804f"/>
      <stop offset=".77" stop-color="#1f8050"/>
      <stop offset=".77" stop-color="#1e8050"/>
      <stop offset=".77" stop-color="#1d8050"/>
      <stop offset=".78" stop-color="#1d8050"/>
      <stop offset=".78" stop-color="#1c8050"/>
      <stop offset=".79" stop-color="#1c8050"/>
      <stop offset=".79" stop-color="#1b8050"/>
      <stop offset=".79" stop-color="#1b8050"/>
      <stop offset=".8" stop-color="#1a8050"/>
      <stop offset=".8" stop-color="#1a8050"/>
      <stop offset=".8" stop-color="#198050"/>
      <stop offset=".81" stop-color="#198050"/>
      <stop offset=".81" stop-color="#188050"/>
      <stop offset=".82" stop-color="#187f51"/>
      <stop offset=".82" stop-color="#177f51"/>
      <stop offset=".82" stop-color="#177f51"/>
      <stop offset=".83" stop-color="#167e51"/>
      <stop offset=".83" stop-color="#167e51"/>
      <stop offset=".84" stop-color="#157e51"/>
      <stop offset=".84" stop-color="#157d51"/>
      <stop offset=".84" stop-color="#147d51"/>
      <stop offset=".85" stop-color="#147d51"/>
      <stop offset=".85" stop-color="#137c51"/>
      <stop offset=".86" stop-color="#137c51"/>
      <stop offset=".86" stop-color="#127c51"/>
      <stop offset=".86" stop-color="#127b51"/>
      <stop offset=".87" stop-color="#117b51"/>
      <stop offset=".87" stop-color="#117b52"/>
      <stop offset=".88" stop-color="#107a52"/>
      <stop offset=".88" stop-color="#107a52"/>
      <stop offset=".88" stop-color="#0f7a52"/>
      <stop offset=".89" stop-color="#0f7952"/>
      <stop offset=".89" stop-color="#0e7952"/>
      <stop offset=".89" stop-color="#0e7952"/>
      <stop offset=".9" stop-color="#0d7852"/>
      <stop offset=".9" stop-color="#0d7852"/>
      <stop offset=".91" stop-color="#0c7852"/>
      <stop offset=".91" stop-color="#0c7752"/>
      <stop offset=".91" stop-color="#0b7752"/>
      <stop offset=".92" stop-color="#0b7752"/>
      <stop offset=".92" stop-color="#0a7653"/>
      <stop offset=".93" stop-color="#0a7653"/>
      <stop offset=".93" stop-color="#097653"/>
      <stop offset=".93" stop-color="#097653"/>
      <stop offset=".94" stop-color="#087553"/>
      <stop offset=".94" stop-color="#087553"/>
      <stop offset=".95" stop-color="#077553"/>
      <stop offset=".95" stop-color="#077453"/>
      <stop offset=".95" stop-color="#067453"/>
      <stop offset=".96" stop-color="#067453"/>
      <stop offset=".96" stop-color="#057353"/>
      <stop offset=".96" stop-color="#057353"/>
      <stop offset=".97" stop-color="#047353"/>
      <stop offset=".97" stop-color="#047253"/>
      <stop offset=".98" stop-color="#037254"/>
      <stop offset=".98" stop-color="#037254"/>
      <stop offset=".98" stop-color="#027154"/>
      <stop offset=".99" stop-color="#027154"/>
      <stop offset=".99" stop-color="#017154"/>
      <stop offset="1" stop-color="#007054"/>
      <stop offset="1" stop-color="#007054"/>
    </linearGradient>
  </defs>
  <g class="cls-10">
    <path class="cls-4" d="m12433.26,29033.58c-412.06,11.79-802.53,146.16-1202.81,221.48-4105.96,772.61-8224.58,802.62-12355.13,238.47-396.81-54.2-790.46-131.92-1164.22-283.37-89.45-36.25-211.21-70.7-196.21-193.61,13.23-108.49,120.71-152.43,219.96-178.49,551.81-144.94,1117.37-150.39,1680.9-143.18,2400.6,30.73,4799.47,1.53,7191.9-217.12,1554.27-142.05,3100.01-358.04,4581.17-871.71,2853.38-989.57,4958.27-2765.08,5859.72-5745.55,415.43-1373.54,403.14-2776.73,221.22-4189.95-399.58-3104.17-1907.54-5677.57-3834.42-8048.6-2197.95-2704.57-4744.9-5054.72-7448.35-7239.22C3266.22,184.24,397.38-1802.71-2637.63-3544.94c-1004.62-576.7-2026.36-1122.3-3123.95-1508.25-120.17-42.26-248.71-64.15-364.03-116.19-542.47-244.77-946.79-19.17-1297.93,376.72-501.55,565.47-678.74,1257.25-744.83,1985.87-105.62,1164.27,70.46,2305.82,300.22,3441.12,211.63,1045.75,545.29,2064,718.28,3118.25,248.23,1512.84,346.79,3022.17-207.03,4498-498.52,1328.45-1464.85,2199.37-2785.54,2623.64-3702.2,1189.32-7121.14,538.42-10252.76-1714.91-862.46-620.57-1539.12-1413.61-1943.25-2414.78-8.91-22.08-37.71-36.15-57.23-53.95-94.44-352.46-188.88-704.91-283.32-1057.37,7.9-25.36,25.57-52.06,22.3-75.88-149.77-1091.06,85.99-2116.06,531.47-3104.67C-21525.45,1121.55-20628.06-.59-19643.57-1059.28c1986.72-2136.45,4319.98-3772.41,7036.22-4851.96,421.09-167.36,842.1-334.89,1263.15-502.34,704.92-188.88,1409.83-377.76,2114.74-566.64,72.04-2.96,146.55,5.02,215.75-10.56,792.11-178.42,1594.89-285.3,2403.13-347.71,2625.69-202.74,5117.64,236.27,7473.4,1464.13C4824.85-3809.29,8606.68-1461.85,12188.68,1207.69c2567.23,1913.26,5013.99,3962.9,7147.93,6362.75,1340.44,1507.47,2524.44,3123.26,3377.09,4962.61,190.51,410.97,357.81,832.71,535.79,1249.49,146.38,546.31,292.77,1092.62,439.15,1638.93,47.8,386.18,100.92,771.79,142.5,1158.64,222.28,2068.23-130.67,4029.16-1176.9,5833.81-1500.24,2587.79-3748.19,4305.95-6474.26,5444.6-451.89,188.75-911.56,358.86-1367.63,537.59-793.03,212.49-1586.06,424.98-2379.09,637.47ZM-14109.93,596.14c-55.08,34-81.8,44.2-100.14,62.71-1038.42,1048.24-1803.93,2258.59-2179.1,3696.8-341.48,1309.07,71.8,2461.59,783.89,3531.83,309.41,465.03,779.39,686.13,1349.85,574.99,561.33-109.36,944.89-443.12,1136.44-989.42,85.04-242.54,127.16-492.04,143.15-747.34,46.63-744.66-84.7-1470.38-260.07-2186.44-318.05-1298.64-721.46-2577.55-874.01-3943.14Z"/>
  </g>
  <g id="surface1">
    <g class="cls-9">
      <g class="cls-7">
        <path class="cls-2" d="m207.01,215.49h70.79v-46.97h-70.79v46.97Z"/>
      </g>
    </g>
    <path class="cls-1" d="m165,280.33c.66-4.63.66-9.26,0-13.57,7.93,7.29,26.13,10.92,41.67,10.92,12.57,0,17.87-2.65,17.87-8.27,0-7.27-7.95-7.93-26.8-9.59-20.84-1.65-33.4-4.96-33.4-17.53s11.24-18.19,34.4-18.19c12.9,0,25.47,1.65,37.71,4.96-.66,4.3-.66,8.61,0,12.9-12.24-4.96-25.13-7.93-38.36-7.93s-18.53,2.65-18.53,7.93c0,6.62,6.95,8.27,24.15,9.6,21.84,1.65,36.05,4.63,36.05,17.86,0,12.24-11.58,17.87-34.4,17.87-13.89,0-27.46-2.33-40.35-6.95"/>
    <path class="cls-1" d="m265.9,236.67c-.34,16.54,0,33.42.66,49.96h-14.89c.66-20.52.66-41.03,0-61.21,6.95.67,13.89.67,20.84,0,13.23,16.88,26.79,33.75,41.01,50.29.34-16.88,0-33.74-.66-50.29,4.96.67,10.26.67,15.22,0-.67,20.52-.67,41.03.32,61.21h-20.51c-13.57-17.21-27.46-33.75-42.01-49.96"/>
    <path class="cls-1" d="m357.86,277.02c6.94.34,11.9.34,22.48.34,15.22,0,19.19-4.3,19.19-9.26s-3.97-7.95-18.52-7.95h-23.49c0,5.63,0,11.58.34,16.88m23.16-24.81c10.25,0,15.54-2.97,15.54-8.93s-5.62-8.61-15.54-8.61h-23.49c0,5.3-.34,11.25,0,17.53,7.27-.34,15.22,0,23.49,0m-38.38-27.12c11.58,0,22.16-.34,38.38-.34,19.85,0,30.75,4.64,30.75,15.22,0,9.59-8.93,13.55-19.85,13.89v.99c13.57.32,23.83,4.63,23.83,15.21,0,14.89-20.84,16.54-36.06,16.54-17.86,0-25.47-.32-37.05-.32.99-15.22.99-45.99,0-61.2"/>
    <path class="cls-1" d="m475.62,296.55c-1.32,0-2.65.32-3.64,1.32-.98.66-1.32,1.99-1.32,3.31s.34,2.64,1.32,3.31c.99.98,2.33,1.32,3.64,1.32s2.65-.34,3.31-1.32c.99-.99,1.65-1.99,1.32-3.31,0-1.32-.66-2.33-1.32-3.31-.66-.99-1.99-1.32-3.31-1.32"/>
    <path class="cls-1" d="m462.39,296.55c-1.32,0-2.65.32-3.64,1.32-.98.66-1.32,1.99-1.32,3.31s.34,2.64,1.32,3.31c.99.98,2.33,1.32,3.64,1.32s2.65-.34,3.31-1.32c.99-.99,1.32-1.99,1.32-3.31s-.32-2.33-1.32-3.31c-.99-.99-2.31-1.32-3.31-1.32"/>
    <path class="cls-1" d="m581.47,259.49v20.18h-2.97c-9.92,0-12.25-6.95-12.25-9.6-.32-5.96,4.96-12.24,15.22-10.58m19.51-18.85c-5.62-4.3-12.56-6.28-19.51-5.96-16.54,0-21.84,9.26-22.82,11.24l6.94,2.98c3.64-4.96,9.26-7.61,15.22-6.95,15.88,0,17.86,10.26,17.86,15.54v17.53c0,2.98-2.65,5.3-5.62,4.96h-3.31v-24.47c-3.64-1.65-7.61-2.65-11.24-2.65-11.25,0-20.18,4.63-20.18,17.86,0,3.31,1.32,6.62,3.31,9.26h-19.51v-59.87l-8.94,3.31v48.62c0,4.3-1.65,7.61-10.25,7.61h-10.26c-1.32,0-2.97,0-5.96-4.64l-20.17-35.06-3.31-5.62c-7.95,4.63-13.23,12.9-13.89,21.82.32,4.96,1.98,9.59,4.63,13.57l6.95,9.92h-26.14c-6.94,0-10.25-3.64-10.25-11.58.32-4.64,1.65-9.26,4.63-12.91l-5.3-3.31c-3.97,4.96-6.28,11.25-6.28,17.87,0,10.25,6.28,16.54,17.86,16.54h39.04l-11.9-17.21c-4.64-7.27-7.95-13.89-1.65-22.48,3.31,5.62,18.85,32.08,19.85,33.4,2.64,4.3,7.27,6.62,12.24,6.29h10.58c1.99,0,3.97,0,5.96-.67,1.32-.32,2.65-.66,3.97-1.32v1.65h62.52c6.29.34,11.91-4.63,12.25-10.92v-18.19c0-5.62-2.65-11.9-7.29-16.2"/>
    <path class="cls-1" d="m628.78,234.68l16.88-6.28v-4.3l-8.27,2.97-.99-2.31c-.34-.99,0-1.98,1.32-2.65.34-.32.99-.32,1.65-.32s.99.32,1.33.66l.98.66.99-3.63-.66-.34c-1.99-1.32-4.63-1.65-6.95-.66-1.65.66-3.31,1.65-3.97,3.31-.66,1.65-.66,3.31.34,4.96l.99,2.31-1.65.66-1.99,4.96Z"/>
    <path class="cls-1" d="m657.22,272.72c-.32,4.3-3.95,7.61-8.27,7.27h-5.61v-46.31l-8.94,3.31v43h-11.58l-2.97,6.62h30.43c6.62,0,15.54-5.62,15.54-14.55v-51.93l-8.93,3.31v49.28h.32Z"/>
    <path class="cls-1" d="m681.05,223.76v62.53h8.61v-65.5l-8.61,2.97Z"/>
  </g>
  <text class="cls-8" transform="translate(106.05 384.68)"><tspan class="cls-5" x="0" y="0">SA 79 1000 00</tspan><tspan class="cls-6" x="282.82" y="0">00 1695 8100 0103</tspan></text>
</svg>